<svg xmlns="http://www.w3.org/2000/svg" width="100" height="100" viewBox="0 0 100 100"><path fill="#3DB39E" d="M50 0c27.614 0 50 22.386 50 50s-22.386 50-50 50-50-22.386-50-50 22.386-50 50-50z"/><path fill="#37A18E" d="M51.579 48.343c-1.631-3.89-5.981-7.947-15.393-11.339-9.569 23.526 4.947 25.857 9.806 26.004-2.728-5.101-5.853-14-6.848-19.211 1.849 4.189 5.321 10.77 8.727 15.282-1.625-4.85.275-8.294 3.708-10.736zm10.889-2.692c-18.396 4.049-13.075 13.564-11.016 16.383 1.78-3.319 4.104-6.29 6.924-8.882-2.038 3.034-3.384 6.358-4.168 9.862 4.317.061 13.317-1.583 8.26-17.363z"/><path fill="#318F7E" d="M78.165 57.704c-3.454 12.71-14.978 21.571-28.165 21.571-8.199 0-15.989-3.462-21.493-9.471l3.766-1.645c.688-.3 1.001-1.104.702-1.793-.093-.215-.234-.393-.406-.526l.001-.002-11.203-8.848c-.59-.465-1.446-.361-1.91.23-.171.219-.266.473-.286.73h-.001l-1.173 14.254c-.062.751.495 1.411 1.245 1.473.266.021.519-.034.739-.148l5.913-2.583c6.058 7.022 14.791 11.062 24.106 11.062 14.432 0 27.002-9.681 30.783-23.589.469-1.727-2.148-2.441-2.618-.715zm-56.329-15.411c3.45-12.69 14.96-21.569 28.164-21.569 8.225 0 15.986 3.45 21.496 9.47l-3.768 1.646c-.688.301-1.002 1.104-.703 1.794.094.213.235.392.406.526h-.001l11.203 8.848c.592.466 1.446.363 1.911-.229.171-.219.265-.474.286-.73h.001l1.173-14.253c.062-.752-.496-1.412-1.245-1.474-.266-.021-.519.035-.739.149l-5.911 2.582c-6.051-7.012-14.82-11.063-24.109-11.063-14.453 0-27.006 9.703-30.781 23.588-.47 1.727 2.148 2.443 2.617.715z"/><path fill="#fff" d="M53.579 47.343c-1.631-3.89-5.981-7.947-15.393-11.339-9.569 23.526 4.947 25.857 9.806 26.004-2.728-5.101-5.853-14-6.848-19.211 1.849 4.189 5.321 10.77 8.727 15.282-1.625-4.85.275-8.294 3.708-10.736zm10.889-2.692c-18.396 4.049-13.075 13.564-11.016 16.383 1.78-3.319 4.104-6.29 6.924-8.882-2.038 3.034-3.384 6.358-4.168 9.862 4.317.061 13.317-1.583 8.26-17.363z"/></svg>