<svg xmlns="http://www.w3.org/2000/svg" width="100" height="100" viewBox="0 0 100 100"><path fill="#324D5B" d="M49.999 0c27.614 0 50 22.386 50 50s-22.386 50.001-50 50.001-50-22.387-50-50.001 22.386-50 50-50z"/><path fill="#D6D6D6" d="M94.946 45.999c-.489 0-.947.511-.947 1v1c0 1.104-.896 2-2 2h-2c-1.104 0-2-.896-2-2v-1.045c0-.489-.445-.955-1.009-.955h-4.001c-.557 0-.99.5-.99.985v1.015c0 1.104-.896 2-2 2h-2c-1.104 0-2-.896-2-2v-.99c0-.494-.541-1.01-1.019-1.01h-49.995c-.603 0-.987.423-.987.987v1.013c0 1.104-.896 2-2 2h-2c-1.104 0-2-.896-2-2v-1.012c0-.567-.548-.988-1.021-.988h-3.964c-.595 0-1.015.439-1.015 1.004v.996c0 1.104-.896 2-2 2h-2c-1.104 0-2-.896-2-2v-.987c0-.646-.394-1.013-1-1.013h-4.826c-.104 1.321-.173 2.653-.173 4.001 0 7.112 1.495 13.873 4.172 19.999h91.656c2.677-6.126 4.172-12.887 4.172-19.999 0-1.348-.069-2.68-.174-4.001h-4.879z"/><path fill="#C0C0C0" d="M4.171 69.999h91.656c.288-.659.56-1.326.819-2h-93.295c.26.674.532 1.341.82 2z"/><path fill="#2EA9D3" d="M4.171 69.999c7.707 17.635 25.282 29.969 45.751 30h.154c20.469-.031 38.044-12.365 45.751-30h-91.656z"/><path fill="#2998BD" d="M27.741 94.772c6.683 3.329 14.21 5.215 22.181 5.227h.154c7.971-.012 15.498-1.897 22.181-5.227l-8.258-24.773h-28l-8.258 24.773zM86.004 76.999s-2.09 3.996-6.013 4c-3.958-.004-5.949-4-5.949-4s-1.99 4-6.023 4c-4.021 0-6.002-4-6.002-4s-2.09 3.996-6.014 4c-3.957-.004-5.948-4-5.948-4s-1.991 4-6.023 4c-4.022 0-6.002-4-6.002-4s-2.09 3.996-6.013 4c-3.958-.004-5.949-4-5.949-4s-1.991 4-6.023 4c-4.023 0-6.002-4-6.002-4s-1.266 2.403-3.666 3.482c9.127 11.847 23.439 19.493 39.546 19.518h.154c16.105-.024 30.417-7.67 39.545-19.517-2.419-1.078-3.618-3.483-3.618-3.483z"/><path fill="#2380A0" d="M49.922 99.999h.154c7.971-.012 15.498-1.897 22.181-5.227l-4.599-13.796c-3.775-.231-5.642-3.978-5.642-3.978s-2.09 3.996-6.014 4c-3.957-.004-5.948-4-5.948-4s-1.991 4-6.023 4c-4.022 0-6.002-4-6.002-4s-1.979 3.763-5.69 3.979l-4.598 13.794c6.683 3.331 14.211 5.216 22.181 5.228z"/><path fill="#F6C37A" d="M32.103 96.688c5.535 2.124 11.539 3.301 17.819 3.311h.154c6.28-.01 12.284-1.187 17.819-3.311l-8.896-26.689h-18l-8.896 26.689z"/><path fill="#E9B974" d="M44.999 77.999h10c.553 0 1-.447 1-1s-.447-1-1-1h-10c-.552 0-1 .447-1 1s.448 1 1 1zm-1 4h12c.553 0 1-.447 1-1s-.447-1-1-1h-12c-.552 0-1 .447-1 1s.448 1 1 1zm-1 4h14c.553 0 1-.447 1-1s-.447-1-1-1h-14c-.552 0-1 .447-1 1s.448 1 1 1zm-1 4h16c.553 0 1-.447 1-1s-.447-1-1-1h-16c-.552 0-1 .447-1 1s.448 1 1 1zm17 2h-18c-.552 0-1 .447-1 1s.448 1 1 1h18c.553 0 1-.447 1-1s-.447-1-1-1z"/><path fill="#CBCBCB" d="M26.999 69.999h3v-24h-3v24zm43-24v24h3v-24h-3z"/><path fill="#EDEDED" d="M69.999 41.002c.008 0 0 26.997 0 26.997 0 1.104-.896 2-2 2h-36c-1.104 0-2-.896-2-2 0 0-.028-27.004.005-27.004-1.172 0-2.005-.815-2.005-2.061v-8.936c0-1.104.896-2 2-2h5.949c1.024 0 1.667 6 2.015 6h6.036s.994-6 2-6h8c.977 0 2 6 2 6h5.875c.381 0 1.095-6 2.106-6h6.019c1.104 0 2 .896 2 2v8.996c0 1.131-.834 2.008-2 2.008z"/><path fill="#DFDFDF" d="M29.999 40.999h40v3h-40v-3z"/><path fill="#676767" d="M49.999 55.999c4.461 0 7 3.535 7 7.895v6.105h-14v-6.105c0-4.36 2.539-7.895 7-7.895z"/><g fill="#D5D5D5"><path d="M34.999 50.999h-5.011v2h5.01c.552 0 1-.447 1-1s-.447-1-.999-1zM37.999 64.999c-.552 0-1 .447-1 1s.448 1 1 1h2c.552 0 1-.447 1-1s-.448-1-1-1h-2zM70.002 52.999h-6.003c-.553 0-1 .447-1 1s.447 1 1 1h6.003v-2zM42.999 49.999c0 .553.448 1 1 1h2c.552 0 1-.447 1-1 0-.552-.448-1-1-1h-2c-.552 0-1 .448-1 1zM45.999 38.999h2c.552 0 1-.447 1-1 0-.552-.448-1-1-1h-2c-.552 0-1 .448-1 1 0 .553.448 1 1 1zM31.999 55.999c0 .553.448 1 1 1h5c.552 0 1-.447 1-1s-.448-1-1-1h-5c-.552 0-1 .447-1 1zM60.999 49.999c0 .553.447 1 1 1h4c.553 0 1-.447 1-1 0-.552-.447-1-1-1h-4c-.553 0-1 .448-1 1zM65.999 64.999h-4c-.553 0-1 .447-1 1s.447 1 1 1h4c.553 0 1-.447 1-1s-.447-1-1-1zM57.999 37.999h4c.553 0 1-.447 1-1 0-.552-.447-1-1-1h-4c-.553 0-1 .448-1 1 0 .553.447 1 1 1zM35.999 59.999c0-.553-.448-1-1-1h-5.007l.001 2h5.006c.552 0 1-.447 1-1zM27.999 34.999h3c.552 0 1-.447 1-1 0-.552-.448-1-1-1h-3v2z"/></g><path fill="#5C5C5C" d="M49.999 55.999c-2.568 0-4.495 1.176-5.672 3.002 1.014-.636 2.243-1.002 3.672-1.002 4.461 0 7 3.535 7 7.895v4.105h2v-6.105c0-4.36-2.539-7.895-7-7.895z"/><g fill="#B6B6B6"><path d="M26.999 67.999h3v2h-3zM69.999 67.999h3v2h-3z"/></g><g fill="#EBB15F"><path d="M49.922 99.999l.077.002.077-.002h-.154zM32.103 96.688l8.896-26.689h-3.162l-8.509 25.526c.911.414 1.835.803 2.775 1.163zM58.999 69.999l8.896 26.689c.939-.359 1.863-.749 2.774-1.163l-8.509-25.526h-3.161z"/></g><g fill="#CBCBCB"><path d="M99.948 47.999h-.949c-.553 0-1 .448-1 1 0 .553.447 1 1 1h1c0-.671-.024-1.335-.051-2zM96.999 62.999h-2c-.553 0-1 .447-1 1s.447 1 1 1h2c.378 0 .694-.217.864-.525l.136-.477c-.002-.552-.448-.998-1-.998zM85.999 57.999c0-.553-.447-1-1-1h-5c-.553 0-1 .447-1 1s.447 1 1 1h5c.553 0 1-.447 1-1zM75.999 52.999c-.553 0-1 .447-1 1s.447 1 1 1h8c.553 0 1-.447 1-1s-.447-1-1-1h-8zM73.999 65.999h2c.553 0 1-.447 1-1s-.447-1-1-1h-2c-.553 0-1 .447-1 1s.447 1 1 1zM98.999 58.999h-5c-.553 0-1 .447-1 1s.447 1 1 1h4.771c.146-.65.278-1.306.399-1.966l-.17-.034zM21.999 65.999c.552 0 1-.447 1-1s-.448-1-1-1h-2c-.552 0-1 .447-1 1s.448 1 1 1h2zM12.999 57.999h-3c-.552 0-1 .447-1 1s.448 1 1 1h3c.552 0 1-.447 1-1s-.448-1-1-1zM9.999 54.999c0-.553-.448-1-1-1h-8.827c.053.671.118 1.337.197 2h8.629c.553 0 1.001-.447 1.001-1zM23.999 58.999h-3c-.552 0-1 .447-1 1s.448 1 1 1h3c.552 0 1-.447 1-1s-.448-1-1-1zM5.999 64.999c0-.553-.448-1-1-1h-2.999c.196.673.406 1.339.629 2h2.37c.552 0 1-.447 1-1z"/></g></svg>