<svg xmlns="http://www.w3.org/2000/svg" width="100" height="100" viewBox="0 0 100 100"><path fill="#324D5B" d="M50 0c27.614 0 50 22.386 50 50s-22.386 50-50 50-50-22.386-50-50 22.386-50 50-50z"/><path fill="#51BBA8" d="M89.646 80.452c-11.804-2.208-25.088-3.452-39.146-3.452-14.405 0-27.993 1.311-40.01 3.624 9.147 11.784 23.438 19.376 39.51 19.376 16.151 0 30.504-7.665 39.646-19.548z"/><path fill="#E2574C" d="M50 25c14.912 0 27 10.298 27 23 0 12.703-12.088 23-27 23s-27-10.297-27-23c0-12.702 12.088-23 27-23z"/><g fill="#D0564E"><path d="M60.658 40.748c1.087 1.708 2.922 2.624 4.785 2.624 1.21 0 2.433-.387 3.471-1.194l5.396-4.196c-.248-.436-.517-.862-.796-1.282l-5.521 4.294c-.738.574-1.62.878-2.55.878-1.436 0-2.751-.722-3.52-1.93l-9.445-14.842c-.605-.047-1.217-.074-1.833-.087l10.013 15.735zM25.691 37.981l5.396 4.197c1.038.807 2.261 1.194 3.471 1.194 1.863 0 3.698-.916 4.785-2.624l10.013-15.734c-.616.013-1.228.04-1.833.087l-9.445 14.842c-.769 1.208-2.084 1.929-3.519 1.929-.93 0-1.812-.304-2.55-.878l-5.523-4.294c-.278.42-.547.846-.795 1.281z"/></g><path fill="#419686" d="M50 77c17.121 0 31 1.344 31 3s-13.879 3-31 3c-17.121 0-31-1.344-31-3s13.879-3 31-3z"/><path fill="#F6C37A" d="M68.914 42.178c-2.636 2.05-6.463 1.387-8.256-1.43l-10.658-16.748-10.658 16.748c-1.792 2.817-5.621 3.48-8.256 1.43l-13.086-10.178.548 3.286c2.297 13.786 3.452 25.737 3.452 39.714h56c0-13.977 1.154-25.928 3.452-39.714l.548-3.286-13.086 10.178z"/><path fill="#F8CF95" d="M39.456 40.569l3.066 19.431h15.826l3.418-17.984c-.418-.357-.795-.778-1.107-1.268l-10.022-15.748h-1.273l-9.908 15.569z"/><path fill="#E8B873" d="M80.865 38.986c.189-1.225.378-2.448.587-3.7l.548-3.286-4.914 3.822c.37 1.771 1.914 3.101 3.779 3.164zM18 32l.548 3.286c.209 1.252.397 2.475.587 3.7 1.865-.063 3.408-1.394 3.779-3.165l-4.914-3.821z"/><path fill="#EAC48D" d="M47.429 28.041c.696.589 1.587.959 2.571.959s1.874-.37 2.571-.959l-2.571-4.041-2.571 4.041z"/><path fill="#DDAF6E" d="M78.637 58h-57.274c.075.996.147 1.997.209 3h56.855c.062-1.003.135-2.004.21-3z"/><path fill="#F8CF95" d="M50 19c-2.209 0-4 1.791-4 4s1.791 4 4 4 4-1.791 4-4-1.791-4-4-4zm-31 10c-2.209 0-4 1.791-4 4s1.791 4 4 4 4-1.791 4-4-1.791-4-4-4zm62 0c-2.209 0-4 1.791-4 4s1.791 4 4 4 4-1.791 4-4-1.791-4-4-4z"/><path fill="#D4654F" d="M22 73h56v2h-56v-2z"/><path fill="#F2F1EF" d="M30.5 65c-1.381 0-2.5 1.119-2.5 2.5s1.119 2.5 2.5 2.5 2.5-1.119 2.5-2.5-1.119-2.5-2.5-2.5zm10 0c-1.381 0-2.5 1.119-2.5 2.5s1.119 2.5 2.5 2.5 2.5-1.119 2.5-2.5-1.119-2.5-2.5-2.5zm30 0c-1.381 0-2.5 1.119-2.5 2.5s1.119 2.5 2.5 2.5 2.5-1.119 2.5-2.5-1.119-2.5-2.5-2.5zm-10 0c-1.381 0-2.5 1.119-2.5 2.5s1.119 2.5 2.5 2.5 2.5-1.119 2.5-2.5-1.119-2.5-2.5-2.5zm-10 0c-1.381 0-2.5 1.119-2.5 2.5s1.119 2.5 2.5 2.5 2.5-1.119 2.5-2.5-1.119-2.5-2.5-2.5z"/><path fill="#2EA9D3" d="M51 42c2.209 0 4 1.791 4 4s-1.791 4-4 4-4-1.791-4-4 1.791-4 4-4z"/><path fill="#FBE1BD" d="M79 75h-58c-1.104 0-2 .896-2 2s.896 2 2 2h58c1.104 0 2-.896 2-2s-.896-2-2-2zm-58-15h58c1.104 0 2-.895 2-2 0-1.104-.896-2-2-2h-58c-1.104 0-2 .896-2 2 0 1.105.896 2 2 2z"/><g fill="#D6B98F"><path d="M31.5 69c-1.381 0-2.5-1.119-2.5-2.5 0-.433.12-.833.312-1.188-.778.424-1.312 1.24-1.312 2.188 0 1.381 1.119 2.5 2.5 2.5.949 0 1.764-.534 2.188-1.312-.355.193-.756.312-1.188.312zM41.5 69c-1.381 0-2.5-1.119-2.5-2.5 0-.433.12-.833.312-1.188-.778.424-1.312 1.24-1.312 2.188 0 1.381 1.119 2.5 2.5 2.5.949 0 1.764-.534 2.188-1.312-.355.193-.756.312-1.188.312zM71.5 69c-1.381 0-2.5-1.119-2.5-2.5 0-.433.119-.833.312-1.188-.778.424-1.312 1.24-1.312 2.188 0 1.381 1.119 2.5 2.5 2.5.948 0 1.764-.534 2.188-1.312-.355.193-.755.312-1.188.312zM51.5 69c-1.381 0-2.5-1.119-2.5-2.5 0-.433.12-.833.312-1.188-.778.424-1.312 1.24-1.312 2.188 0 1.381 1.119 2.5 2.5 2.5.948 0 1.764-.534 2.188-1.312-.355.193-.755.312-1.188.312zM61.5 69c-1.381 0-2.5-1.119-2.5-2.5 0-.433.119-.833.312-1.188-.778.424-1.312 1.24-1.312 2.188 0 1.381 1.119 2.5 2.5 2.5.948 0 1.764-.534 2.188-1.312-.355.193-.755.312-1.188.312z"/></g><path fill="#3293B2" d="M52 49c-2.209 0-4-1.791-4-4 0-.849.269-1.633.72-2.28-1.038.722-1.72 1.92-1.72 3.28 0 2.209 1.791 4 4 4 1.36 0 2.558-.682 3.28-1.72-.647.451-1.431.72-2.28.72z"/></svg>