<svg xmlns="http://www.w3.org/2000/svg" width="100" height="100" viewBox="0 0 100 100"><path fill="#EFC75E" d="M50 0c27.614 0 50 22.386 50 50s-22.386 50-50 50-50-22.386-50-50 22.386-50 50-50z"/><path fill="#324D5B" d="M78 16h-17c-1.657 0-3 1.343-3 3v5c0 5.523-4.478 10-10 10h-16v1c0 1.104-.896 2-2 2h-4c-1.104 0-2-.896-2-2v-1h-2c-1.657 0-3 1.344-3 3v52.215c1.602 1.268 3.275 2.449 5.027 3.517.132-.976.96-1.732 1.973-1.732h3c1.104 0 2 .896 2 2v2c0 .414-.126.799-.342 1.118 5.95 2.499 12.485 3.882 19.342 3.882s13.392-1.383 19.342-3.882c-.216-.319-.342-.704-.342-1.118v-2c0-1.104.896-2 2-2h3c1.013 0 1.841.756 1.973 1.731 1.752-1.067 3.426-2.249 5.027-3.517v-70.214c0-1.657-1.343-3-3-3zm-47 69c0 1.104-.896 2-2 2h-3c-1.104 0-2-.896-2-2v-2c0-1.104.896-2 2-2h3c1.104 0 2 .896 2 2v2zm0-10c0 1.104-.896 2-2 2h-3c-1.104 0-2-.896-2-2v-2c0-1.104.896-2 2-2h3c1.104 0 2 .896 2 2v2zm0-10c0 1.104-.896 2-2 2h-3c-1.104 0-2-.896-2-2v-2c0-1.104.896-2 2-2h3c1.104 0 2 .896 2 2v2zm0-10c0 1.104-.896 2-2 2h-3c-1.104 0-2-.896-2-2v-2c0-1.104.896-2 2-2h3c1.104 0 2 .896 2 2v2zm0-10c0 1.104-.896 2-2 2h-3c-1.104 0-2-.896-2-2v-2c0-1.104.896-2 2-2h3c1.104 0 2 .896 2 2v2zm45 40c0 1.104-.896 2-2 2h-3c-1.104 0-2-.896-2-2v-2c0-1.104.896-2 2-2h3c1.104 0 2 .896 2 2v2zm0-10c0 1.104-.896 2-2 2h-3c-1.104 0-2-.896-2-2v-2c0-1.104.896-2 2-2h3c1.104 0 2 .896 2 2v2zm0-10c0 1.104-.896 2-2 2h-3c-1.104 0-2-.896-2-2v-2c0-1.104.896-2 2-2h3c1.104 0 2 .896 2 2v2zm0-10c0 1.104-.896 2-2 2h-3c-1.104 0-2-.896-2-2v-2c0-1.104.896-2 2-2h3c1.104 0 2 .896 2 2v2zm0-10c0 1.104-.896 2-2 2h-3c-1.104 0-2-.896-2-2v-2c0-1.104.896-2 2-2h3c1.104 0 2 .896 2 2v2zm0-10c0 1.104-.896 2-2 2h-3c-1.104 0-2-.896-2-2v-2c0-1.104.896-2 2-2h3c1.104 0 2 .896 2 2v2zm0-10c0 1.104-.896 2-2 2h-3c-1.104 0-2-.896-2-2v-2c0-1.104.896-2 2-2h3c1.104 0 2 .896 2 2v2z"/><g fill="#516873"><path d="M50 100c4.861 0 9.556-.707 14-2.001v-9.999c0-1.104-.896-2-2-2h-24c-1.104 0-2 .896-2 2v9.999c4.443 1.294 9.139 2.001 14 2.001zM38 82h24c1.104 0 2-.896 2-2v-15c0-1.104-.896-2-2-2h-24c-1.104 0-2 .896-2 2v15c0 1.104.896 2 2 2zM62 40h-24c-1.104 0-2 .896-2 2v15c0 1.104.896 2 2 2h24c1.104 0 2-.896 2-2v-15c0-1.104-.896-2-2-2z"/></g></svg>