<svg xmlns="http://www.w3.org/2000/svg" width="100" height="100" viewBox="0 0 100 100"><path fill="#3DB39E" d="M50 .056c27.614 0 50 22.386 50 50s-22.386 50-50 50-50-22.386-50-50 22.386-50 50-50z"/><path fill="#37A18E" d="M26.666 20.583l-26.612 27.343c-.03.707-.054 1.415-.054 2.13 0 27.614 22.386 50 50 50 5.799 0 11.361-.998 16.54-2.813l-39.874-76.66z"/><path fill="#F2F1EF" d="M30 52.044c0 1.876.854 3.647 2.315 4.807l9.295 7.37c.375.297.713.638 1.009 1.016l.028.036c1.757 2.242 1.739 5.414-.044 7.637-.285.355-.609.677-.965.96l-9.323 7.393c-1.461 1.157-2.315 2.928-2.315 4.804v9.815c6.126 2.678 12.887 4.173 20 4.173s13.874-1.495 20-4.173v-9.815c0-1.876-.853-3.647-2.314-4.806l-9.313-7.386c-.363-.287-.691-.615-.98-.978l-.01-.012c-1.773-2.229-1.779-5.401-.016-7.637l.02-.024c.293-.37.627-.705.996-.998l9.304-7.377c1.46-1.158 2.313-2.929 2.313-4.805v-25.988h-40v25.988z"/><path fill="#E6E5E3" d="M48.619 65.236c-.296-.378-.635-.719-1.01-1.016l-9.294-7.37c-1.461-1.159-2.315-2.93-2.315-4.806v-25.988h-6v25.988c0 1.876.854 3.647 2.315 4.807l9.295 7.37c.375.297.713.638 1.009 1.016l.028.036c1.757 2.242 1.739 5.414-.044 7.637-.285.355-.609.677-.965.96l-9.323 7.393c-1.461 1.157-2.315 2.928-2.315 4.804v9.815c1.939.848 3.942 1.572 6 2.172v-11.987c0-1.876.854-3.647 2.315-4.806l9.323-7.393c.356-.283.681-.604.966-.96 1.782-2.223 1.801-5.395.043-7.637l-.028-.035z"/><path fill="#EFC75E" d="M34.179 54.5l9.295 7.37c.56.443 1.066.954 1.507 1.516 1.115 1.423 1.751 3.07 1.926 4.749l3.093 2.922 3.088-2.916c.17-1.687.809-3.336 1.925-4.75.454-.576.955-1.077 1.506-1.514l9.303-7.377c.748-.595 1.178-1.489 1.178-2.456v-8.822c-3.518-3.839-12.831 2.835-20 2.835-6.263 0-11.583-3.94-14-2.824v8.811c0 .967.43 1.861 1.179 2.456zM50 77.058c1.104 0 2 3.018 2 3 0 1.104-.896 1.998-2 1.998s-2-.894-2-1.998c0 0 .896-3 2-3z"/><path fill="#CCAA50" d="M48.963 45.905c.667.088 1.344.151 2.037.151 4.688 0 10.295-2.855 14.599-3.759-3.772-1.342-10.66 2.766-16.636 3.608z"/><path fill="#EFC75E" d="M50.016 88.055c-3.38 0-8.792 5.581-12.798 10.346 4.081 1.076 8.363 1.655 12.782 1.655 4.428 0 8.719-.582 12.808-1.663-4.005-4.763-9.413-10.338-12.792-10.338z"/><path fill="#CCAA50" d="M50.016 88.055c-3.38 0-8.792 5.581-12.798 10.346 1.107.292 2.231.541 3.367.758 3.361-4.071 7.934-9.016 11.431-10.586-.717-.323-1.394-.518-2-.518zM48.619 65.236c-.296-.378-.635-.719-1.01-1.016l-9.294-7.37c-1.461-1.159-2.315-2.93-2.315-4.806v-8.666c-1.236-.352-2.256-.489-3-.146v8.811c0 .967.43 1.861 1.179 2.456l9.295 7.37c.56.443 1.066.954 1.507 1.516 1.115 1.423 1.751 3.07 1.926 4.749l2.787 2.633c.534-1.854.199-3.906-1.047-5.495l-.028-.036z"/><path fill="#FAF9F9" d="M61.992 52.044c-.148 3.675-4.774 6.928-9.653 13.182-.005.006-2.714 3.712-.004 7.661l.01.012c3.437 5.039 9.562 9.758 9.647 13.169v12.53c1.361-.335 2.698-.73 4.013-1.175v-11.356c0-1.023-.263-2.011-.731-2.89l-8.767-6.951c-.539-.429-1.031-.919-1.463-1.46-2.668-3.352-2.678-8.024-.031-11.376.454-.576.955-1.077 1.506-1.514l8.754-6.941c.47-.879.732-1.868.732-2.892v-25.987h-4.013v25.988z"/><path fill="#F9E9BF" d="M61.992 42.226v9.818c-.148 3.675-4.774 6.928-9.653 13.182-.004.004-1.491 2.047-1.154 4.713l1.903-1.798c.082-.817.278-1.626.584-2.404l.049-.126c.147-.359.318-.712.514-1.055l.094-.156c.206-.346.429-.686.685-1.009.454-.576.955-1.077 1.506-1.514l8.754-6.942c.47-.878.732-1.867.732-2.891v-9.565c-1.074-.537-2.449-.541-4.014-.253z"/><path fill="#F1E2BC" d="M62.023 42.221l-.031.006v1.095c1.242-.41 2.436-.774 3.545-1.011l-.3-.106-.169-.043c-.265-.058-.542-.095-.831-.111l-.074-.007c-.659-.03-1.377.039-2.14.177z"/><path fill="#9B481A" d="M28 20.056h44c1.104 0 2 .896 2 2v2c0 1.104-.896 2-2 2h-44c-1.104 0-2-.896-2-2v-2c0-1.105.896-2 2-2z"/><path fill="#A75E36" d="M72 20.056h-44c-1.104 0-2 .896-2 2v2c0-1.104.896-2 2-2h44c1.104 0 2 .896 2 2v-2c0-1.105-.896-2-2-2z"/></svg>