<svg xmlns="http://www.w3.org/2000/svg" width="100" height="100" viewBox="0 0 100 100"><path fill="#F4F0D3" d="M50 0c27.614 0 50 22.386 50 50s-22.386 50-50 50-50-22.386-50-50 22.386-50 50-50z"/><path fill="#324D5B" d="M1.46 38c-.948 3.845-1.46 7.862-1.46 12 0 27.614 22.386 50 50 50s50-22.386 50-50c0-4.138-.512-8.155-1.46-12h-97.08z"/><path fill="#DBD8BD" d="M36 35l13-22h3l7 22h-3l-5.555-20.146s.385.146.055.146l.055-.146-11.555 20.146h-3z"/><path fill="#70838D" d="M68.698 89.701c-.414.406-1.087.406-1.502 0l-1.494-1.465c-.414-.406-1.087-.406-1.501 0l-1.492 1.463c-.416.407-1.09.406-1.504-.002l-1.479-1.457c-.414-.408-1.088-.408-1.503-.002l-1.485 1.455c-.414.406-1.087.406-1.502 0l-1.486-1.457c-.415-.406-1.087-.406-1.502 0l-1.492 1.463c-.415.407-1.089.406-1.503-.002l-1.479-1.457c-.414-.408-1.088-.408-1.504-.002l-1.484 1.455c-.415.406-1.087.406-1.502 0l-1.486-1.457c-.415-.406-1.087-.406-1.502 0l-1.486 1.457c-.415.406-1.087.406-1.502 0l-1.486-1.457c-.415-.406-1.087-.406-1.502 0l-1.494 1.465c-.414.406-1.087.406-1.502 0-.414-.406-.414-1.064 0-1.472l3.002-2.941c.415-.407 1.089-.407 1.504.001l1.479 1.457c.415.408 1.089.41 1.504.002l1.49-1.46c.415-.407 1.089-.407 1.504.001l1.479 1.457c.415.408 1.089.41 1.504.002l1.49-1.46c.415-.407 1.089-.407 1.504.001l1.479 1.457c.415.408 1.089.41 1.504.002l1.49-1.46c.415-.407 1.09-.407 1.504.001l1.479 1.457c.415.408 1.089.41 1.504.002l1.49-1.46c.416-.407 1.09-.407 1.504.001l1.479 1.457c.414.408 1.088.41 1.503.002l1.485-1.455c.414-.406 1.087-.406 1.501 0l2.996 2.937c.411.407.411 1.065-.004 1.471z"/><path fill="#D6DBDE" d="M38.076 74.912h-4.535c2.106-2.514 5.947-5.754 5.947-9.019 0-2.981-2.453-4.885-5.501-4.885s-5.823 2.372-5.823 5.331c0 .916.619 1.715 1.81 1.715 2.378 0 1.016-3.805 3.865-3.805 1.016 0 1.784.846 1.784 1.809 0 .846-.422 1.573-.868 2.184-1.883 2.583-4.112 4.697-6.169 7.021-.248.282-.57.705-.57 1.198 0 1.08.843 1.55 1.933 1.55h8.276c.941 0 1.784-.47 1.784-1.55s-.843-1.549-1.933-1.549zm17.353-5.85h-3.479v-3.48c0-.865-.553-1.441-1.44-1.441s-1.44.576-1.44 1.441v3.48h-3.48c-.888 0-1.439.575-1.439 1.439 0 .863.552 1.439 1.439 1.439h3.48v3.48c0 .865.553 1.44 1.44 1.44s1.44-.575 1.44-1.44v-3.48h3.479c.889 0 1.44-.576 1.44-1.439 0-.863-.552-1.439-1.44-1.439zm15.639 5.85h-4.534c2.106-2.514 5.946-5.754 5.946-9.019 0-2.981-2.452-4.885-5.5-4.885-3.047 0-5.822 2.372-5.822 5.331 0 .916.619 1.715 1.809 1.715 2.379 0 1.016-3.805 3.865-3.805 1.016 0 1.784.846 1.784 1.809 0 .846-.422 1.573-.867 2.184-1.884 2.583-4.113 4.697-6.17 7.021-.247.282-.569.705-.569 1.198 0 1.08.842 1.55 1.933 1.55h8.274c.942 0 1.784-.47 1.784-1.55s-.842-1.549-1.933-1.549z"/><path fill="#fff" d="M39 35l10-22h3l10 22h-3l-8.555-20.146s.385.146.055.146l.055-.146-8.555 20.146h-3z"/><path fill="#B47D42" d="M50.5 12c1.381 0 2.5 1.119 2.5 2.5s-1.119 2.5-2.5 2.5-2.5-1.119-2.5-2.5 1.119-2.5 2.5-2.5zM1.46 38h97.08c-.249-1.012-.522-2.014-.832-3h-95.416c-.31.986-.583 1.988-.832 3z"/><path fill="#C88B4A" d="M1.46 38c-.948 3.845-1.46 7.862-1.46 12h100c0-4.138-.512-8.155-1.46-12h-97.08z"/><g fill="#CC9357"><path d="M3.425 42.359c2.028-1.182 3.704-2.672 5.093-4.331h-4.397c-1.077.985-2.177 1.892-3.263 2.776-.23 1.238-.422 2.49-.559 3.758.946-.786 1.974-1.532 3.126-2.203zM17.765 49.974c.122-1.221.241-2.501.359-3.917.234-2.853.546-5.523.898-8.028h-6.435c-1.869 2.782-4.33 5.338-7.611 7.249-2.029 1.183-3.67 2.592-4.961 4.106l-.015.59h17.765zM50.927 40.959c-.642-.803-1.123-1.808-1.469-2.93h-.81c.852 3.136 2.372 5.802 4.384 7.229 2.527 1.79 5.582 1.622 9.084-.504 3.188-1.934 5.423-4.253 6.963-6.725h-4.269c-1.373 1.669-3.125 3.109-5.299 4.138-4.806 2.278-7.441.219-8.584-1.208zM98.547 38.029h-5.45c.194 3.773 1.376 7.925 3.243 11.945h3.659c-.002-4.119-.511-8.117-1.452-11.945zM92.735 49.974c-1.695-4-2.726-8.1-2.876-11.945h-4.489c.146 4.506.901 8.441 2.036 11.945h5.329zM28.789 46.741c-.706.551-1.705.4-2.232-.339-1.435-2.013-1.945-5.025-1.926-8.373h-2.378c-.377 2.587-.709 5.353-.953 8.313-.105 1.284-.217 2.481-.331 3.632h10.782c.429-.872.488-1.994.072-3.779-.577-2.478-.668-5.288-.491-8.166h-3.536c-.035 2.685.32 4.978 1.317 6.377.527.736.383 1.785-.324 2.335zM77.986 38.029c-1.039 2.98-2.516 5.906-4.625 8.464-.815.99-1.489 2.186-2.081 3.481h12.823c-1.048-3.538-1.746-7.481-1.888-11.945h-4.229zM58.197 39.126c.654-.31 1.238-.695 1.803-1.098h-7.073c.142.272.269.564.446.785.372.468 1.506 1.884 4.824.313zM70.947 44.312c1.56-1.893 2.724-4.047 3.604-6.283h-1.814c-1.749 3.545-4.572 6.916-9.02 9.615-5.791 3.513-9.98 2.145-12.473.377-2.841-2.013-4.911-5.711-5.896-9.992h-4.393c.4 3.96 1.837 8.059 4.938 11.945h21.926c.814-2.164 1.839-4.099 3.128-5.662zM41.893 49.974c-2.565-3.932-3.766-8.007-4.084-11.945h-3.28c-.177 2.633-.117 5.178.395 7.373.435 1.867.45 3.352.193 4.573h6.776z"/></g><path fill="#2D4552" d="M.139 52.632c.041.795.102 1.584.18 2.368h99.5c.078-.784.14-1.574.181-2.368-.048-.883-.115-1.76-.202-2.632h-99.457c-.087.872-.154 1.749-.202 2.632z"/></svg>