<svg xmlns="http://www.w3.org/2000/svg" width="100" height="100" viewBox="0 0 100 100"><path fill="#3DB39E" d="M50 0c27.614 0 50 22.386 50 50s-22.386 50-50 50-50-22.386-50-50 22.386-50 50-50z"/><path fill="#F2F1EF" d="M72 63h6v-2h-6v2zm0-4h6v-2h-6v2zm0-4h6v-2h-6v2zm0-4h6v-2h-6v2zm0-4h6v-2h-6v2zm0-4h6v-2h-6v2zm0-4h6v-2h-6v2zm0-6v2h6v-2h-6zm-50 30h6v-2h-6v2zm0-4h6v-2h-6v2zm0-4h6v-2h-6v2zm0-4h6v-2h-6v2zm0-4h6v-2h-6v2zm0-4h6v-2h-6v2zm0-4h6v-2h-6v2zm0-4h6v-2h-6v2zm43-7h2v-6h-2v6zm-4 0h2v-6h-2v6zm-4 0h2v-6h-2v6zm-4 0h2v-6h-2v6zm-4 0h2v-6h-2v6zm-4 0h2v-6h-2v6zm-4 0h2v-6h-2v6zm-4 0h2v-6h-2v6zm28 50h2v-6h-2v6zm-4 0h2v-6h-2v6zm-4 0h2v-6h-2v6zm-4 0h2v-6h-2v6zm-4 0h2v-6h-2v6zm-4 0h2v-6h-2v6zm-4 0h2v-6h-2v6zm-4 0h2v-6h-2v6zm-4-50h2v-6h-2v6zm-11 39h6v-2h-6v2zm50 0h6v-2h-6v2zm-39 11h2v-6h-2v6zM72 63h6v-2h-6v2zm0-4h6v-2h-6v2zm0-4h6v-2h-6v2zm0-4h6v-2h-6v2zm0-4h6v-2h-6v2zm0-4h6v-2h-6v2zm0-4h6v-2h-6v2zm0-6v2h6v-2h-6zm-50 30h6v-2h-6v2zm0-4h6v-2h-6v2zm0-4h6v-2h-6v2zm0-4h6v-2h-6v2zm0-4h6v-2h-6v2zm0-4h6v-2h-6v2zm0-4h6v-2h-6v2zm0-4h6v-2h-6v2zm43-7h2v-6h-2v6zm-4 0h2v-6h-2v6zm-4 0h2v-6h-2v6zm-4 0h2v-6h-2v6zm-4 0h2v-6h-2v6zm-4 0h2v-6h-2v6zm-4 0h2v-6h-2v6zm-4 0h2v-6h-2v6zm28 50h2v-6h-2v6zm-4 0h2v-6h-2v6zm-4 0h2v-6h-2v6zm-4 0h2v-6h-2v6zm-4 0h2v-6h-2v6zm-4 0h2v-6h-2v6zm-4 0h2v-6h-2v6zm-4 0h2v-6h-2v6zm-4-50h2v-6h-2v6zm-11 39h6v-2h-6v2zm50 0h6v-2h-6v2zm-39 11h2v-6h-2v6z"/><g fill="#CECDCB"><path d="M24 41h4v2h-4zM24 33h4v2h-4zM24 37h4v2h-4zM24 65h4v2h-4zM24 61h4v2h-4zM24 49h4v2h-4zM24 57h4v2h-4zM33 24h2v4h-2zM24 53h4v2h-4zM24 45h4v2h-4zM57 24h2v4h-2zM37 24h2v4h-2zM65 24h2v4h-2zM53 24h2v4h-2zM61 24h2v4h-2zM49 24h2v4h-2zM41 24h2v4h-2zM45 24h2v4h-2zM72 37h4v2h-4zM72 49h4v2h-4zM33 72h2v4h-2zM72 53h4v2h-4zM72 61h4v2h-4zM72 33h4v2h-4zM72 45h4v2h-4zM72 65h4v2h-4zM72 41h4v2h-4zM72 57h4v2h-4zM45 72h2v4h-2zM49 72h2v4h-2zM65 72h2v4h-2zM37 72h2v4h-2zM41 72h2v4h-2zM61 72h2v4h-2zM57 72h2v4h-2zM53 72h2v4h-2z"/></g><path fill="#324D5B" d="M30 26h40c2.209 0 4 1.791 4 4v40c0 2.209-1.791 4-4 4h-40c-2.209 0-4-1.791-4-4v-40c0-2.209 1.791-4 4-4z"/><path fill="#DADFE1" d="M32 30h36c1.104 0 2 .896 2 2v35c0 1.104-.896 2-2 2h-36c-1.104 0-2-.896-2-2v-35c0-1.104.896-2 2-2z"/><path fill="#97A5AB" d="M35.5 34c-.828 0-1.5.672-1.5 1.5s.672 1.5 1.5 1.5 1.5-.672 1.5-1.5-.672-1.5-1.5-1.5zm0 26c-.828 0-1.5.672-1.5 1.5s.672 1.5 1.5 1.5 1.5-.672 1.5-1.5-.672-1.5-1.5-1.5zm29 0c-.828 0-1.5.672-1.5 1.5s.672 1.5 1.5 1.5 1.5-.672 1.5-1.5-.672-1.5-1.5-1.5zm0-23c.828 0 1.5-.672 1.5-1.5s-.672-1.5-1.5-1.5-1.5.672-1.5 1.5.672 1.5 1.5 1.5zM35.5 34c-.828 0-1.5.672-1.5 1.5s.672 1.5 1.5 1.5 1.5-.672 1.5-1.5-.672-1.5-1.5-1.5zm0 26c-.828 0-1.5.672-1.5 1.5s.672 1.5 1.5 1.5 1.5-.672 1.5-1.5-.672-1.5-1.5-1.5zm29 0c-.828 0-1.5.672-1.5 1.5s.672 1.5 1.5 1.5 1.5-.672 1.5-1.5-.672-1.5-1.5-1.5zm0-23c.828 0 1.5-.672 1.5-1.5s-.672-1.5-1.5-1.5-1.5.672-1.5 1.5.672 1.5 1.5 1.5z"/><path fill="#C9CECF" d="M51.21 49.512c4.365-1.168 7.362-4.136 6.694-6.628-.669-2.491-4.749-3.564-9.114-2.396-4.365 1.169-7.362 4.136-6.694 6.628.669 2.491 4.749 3.564 9.114 2.396zm4.29 3.488h-11c-.828 0-1.5.672-1.5 1.5s.672 1.5 1.5 1.5h11c.828 0 1.5-.672 1.5-1.5s-.672-1.5-1.5-1.5zM51.21 49.512c4.365-1.168 7.362-4.136 6.694-6.628-.669-2.491-4.749-3.564-9.114-2.396-4.365 1.169-7.362 4.136-6.694 6.628.669 2.491 4.749 3.564 9.114 2.396zm4.29 3.488h-11c-.828 0-1.5.672-1.5 1.5s.672 1.5 1.5 1.5h11c.828 0 1.5-.672 1.5-1.5s-.672-1.5-1.5-1.5z"/><path fill="#AEB2B4" d="M68 67h-36c-1.104 0-2-.896-2-2v2c0 1.104.896 2 2 2h36c1.104 0 2-.896 2-2v-2c0 1.104-.896 2-2 2z"/><path fill="#233640" d="M70 72h-40c-2.209 0-4-1.791-4-4v2c0 2.209 1.791 4 4 4h40c2.209 0 4-1.791 4-4v-2c0 2.209-1.791 4-4 4z"/><g fill="#60BB9E"><path d="M37 8.989v13.011h2v-12.973l-3.301-6.94c-.58.173-1.153.359-1.725.552l3.026 6.35zM59 .824c-.663-.121-1.328-.231-2-.326v21.502h2v-21.176zM53 78h2v2h-2zM53 22h2v-21.75c-.662-.066-1.33-.112-2-.152v21.902zM41 22h2v-21.502c-.672.094-1.338.205-2 .326v21.176zM41 78l2 9h2l-2-9zM47 .098c-.67.04-1.338.086-2 .152v21.75h2v-21.902zM51 .025l-1-.025-1 .025v21.975h2v-21.975zM59 78h-2l-2 9h2zM78 55h21.75c.066-.662.113-1.33.152-2h-21.902v2zM65 15v7h2v-5l17.215-3.443c-.717-.673-1.447-1.33-2.202-1.959l-17.013 3.402zM78 59h21.177c.12-.663.231-1.328.325-2h-21.502v2zM78 33v2h4.973l10.39-9.882c-.245-.426-.488-.853-.746-1.271l-9.605 9.153h-5.012zM63 1.717c-.661-.177-1.328-.337-2-.488v20.771h2v-20.283zM65 78v1.973l4 7.027h2l-4-6.988v-2.012zM78 49h5v2h-5zM78 45h6v2h-6zM16.988 67h5.012v-2h-6.973l-5.192 14.777c.598.805 1.222 1.588 1.866 2.354l5.287-15.131zM87.678 82.85l-2.678-17.85h-7v2h5l2.699 17.995c.681-.695 1.338-1.412 1.979-2.145zM64 87.012l-1-9.012h-2l1 8.973 3.767 10.476c.595-.197 1.186-.399 1.77-.618l-3.537-9.819zM51 99.975v-21.975h-2v21.975l1 .025 1-.025zM22 59v-2h-21.502c.094.672.205 1.337.326 2h21.176zM8.988 63h13.012v-2h-12.973l-6.94 3.301c.173.58.359 1.153.552 1.725l6.349-3.026zM91.012 37h-13.012v2h12.973l6.94-3.301c-.173-.58-.359-1.153-.553-1.725l-6.348 3.026zM78 41v2h21.502c-.094-.672-.205-1.338-.325-2h-21.177zM78 61v2h20.282c.178-.661.338-1.328.489-2h-20.771zM33 82l-4 5h2l4-5v-4h-2zM22 39v-2h-20.283c-.177.661-.337 1.328-.488 2h20.771zM36 87h2l1-9h-2zM15 35h7v-2h-7l-9.126-6.519c-.259.483-.508.972-.75 1.464l9.876 7.055zM33 16.989v5.011h2v-4.973l-9.882-10.39c-.427.245-.853.489-1.271.746l9.153 9.606zM16 53h6v2h-6zM21 45h1v2h-1zM22 41h-21.176c-.121.662-.232 1.328-.326 2h21.502v-2zM17 49h5v2h-5z"/></g><g fill="#EEDC9D"><path d="M56 87c-1.104 0-2 .896-2 2v10.826c1.349-.106 2.684-.26 4-.471v-10.355c0-1.104-.896-2-2-2zM63 87c-1.104 0-2 .896-2 2v9.771c1.354-.305 2.69-.652 4-1.063v-8.708c0-1.104-.896-2-2-2zM70 87c-1.104 0-2 .896-2 2v7.647c1.362-.526 2.698-1.104 4-1.743v-5.904c0-1.104-.896-2-2-2zM44 87c-1.104 0-2 .896-2 2v10.355c1.316.211 2.651.364 4 .471v-10.826c0-1.104-.896-2-2-2zM37 87c-1.104 0-2 .896-2 2v8.708c1.31.411 2.646.759 4 1.063v-9.771c0-1.104-.896-2-2-2zM30 87c-1.104 0-2 .896-2 2v5.904c1.302.639 2.638 1.217 4 1.743v-7.647c0-1.104-.896-2-2-2z"/></g><path fill="#278272" d="M89 46c-2.209 0-4 1.791-4 4s1.791 4 4 4 4-1.791 4-4-1.791-4-4-4zm-78 0c-2.209 0-4 1.791-4 4s1.791 4 4 4 4-1.791 4-4-1.791-4-4-4zM89 46c-2.209 0-4 1.791-4 4s1.791 4 4 4 4-1.791 4-4-1.791-4-4-4zm-78 0c-2.209 0-4 1.791-4 4s1.791 4 4 4 4-1.791 4-4-1.791-4-4-4z"/><path fill="#F7DE9D" d="M89 47.5c1.379 0 2.5 1.121 2.5 2.5s-1.121 2.5-2.5 2.5-2.5-1.121-2.5-2.5 1.121-2.5 2.5-2.5m-78 0c1.379 0 2.5 1.121 2.5 2.5s-1.121 2.5-2.5 2.5-2.5-1.121-2.5-2.5 1.121-2.5 2.5-2.5m78-1.5c-2.209 0-4 1.791-4 4s1.791 4 4 4 4-1.791 4-4-1.791-4-4-4zm-78 0c-2.209 0-4 1.791-4 4s1.791 4 4 4 4-1.791 4-4-1.791-4-4-4zM89 47.5c1.379 0 2.5 1.121 2.5 2.5s-1.121 2.5-2.5 2.5-2.5-1.121-2.5-2.5 1.121-2.5 2.5-2.5m-78 0c1.379 0 2.5 1.121 2.5 2.5s-1.121 2.5-2.5 2.5-2.5-1.121-2.5-2.5 1.121-2.5 2.5-2.5m78-1.5c-2.209 0-4 1.791-4 4s1.791 4 4 4 4-1.791 4-4-1.791-4-4-4zm-78 0c-2.209 0-4 1.791-4 4s1.791 4 4 4 4-1.791 4-4-1.791-4-4-4z"/></svg>