<svg xmlns="http://www.w3.org/2000/svg" width="100" height="100" viewBox="0 0 100 100"><path fill="#EDEDED" d="M50 0c27.614 0 50 22.386 50 50s-22.386 50-50 50-50-22.386-50-50 22.386-50 50-50z"/><path fill="#E2574C" d="M60.338 30h-20.676c-2.707 0-5.035 1.919-5.552 4.577l-4.11 31.423h40l-4.109-31.423c-.518-2.658-2.846-4.577-5.553-4.577z"/><path fill="#CB4E44" d="M39.11 36.577c.517-2.658 2.845-4.577 5.552-4.577h19.986c-1.047-1.233-2.602-2-4.311-2h-20.675c-2.707 0-5.035 1.919-5.552 4.577l-4.11 31.423h5.262l3.848-29.423z"/><path fill="#E67067" d="M60.338 30h-5c2.707 0 5.035 1.919 5.553 4.577l3.109 31.423h6l-4.109-31.423c-.518-2.658-2.846-4.577-5.553-4.577z"/><path fill="#D36860" d="M59.648 32h5l-.141-.149c-.145-.158-.298-.307-.458-.447l-.199-.17c-.203-.161-.416-.31-.64-.442l-.191-.103c-.205-.111-.417-.21-.636-.295l-.154-.063c-.262-.093-.533-.164-.81-.218l-.196-.033c-.289-.048-.583-.08-.885-.08h-5c1.709 0 3.264.767 4.31 2z"/><path fill="#CB4F44" d="M47 43c3.313 0 6 2.687 6 6s-2.687 6-6 6-6-2.687-6-6 2.687-6 6-6z"/><path fill="#C04B41" d="M48 48h4v17h-4v-17z"/><path fill="#AC433A" d="M48 48h4v10h-4v-10z"/><path fill="#C94E44" d="M56 41c4.418 0 8 3.582 8 8s-3.582 8-8 8-8-3.582-8-8 3.582-8 8-8z"/><path fill="#D65348" d="M56 44c2.757 0 5 2.243 5 5s-2.243 5-5 5-5-2.243-5-5 2.243-5 5-5m0-3c-4.418 0-8 3.582-8 8s3.582 8 8 8 8-3.582 8-8-3.582-8-8-8z"/><path fill="#DC6B61" d="M61.771 43.468l.972 9.825c.792-1.241 1.257-2.711 1.257-4.293 0-2.148-.852-4.094-2.229-5.532z"/><path fill="#324D5B" d="M26 65h48c2.209 0 4 1.791 4 4v4c0 1.105-.896 2-2 2h-52c-1.104 0-2-.895-2-2v-4c0-2.209 1.791-4 4-4z"/><path fill="#EFC75E" d="M93.294 75h-86.588c8.646 14.94 24.79 25 43.294 25s34.647-10.06 43.294-25z"/><path fill="#E3BD59" d="M91.408 78c.662-.977 1.293-1.976 1.886-3h-86.588c.593 1.024 1.224 2.023 1.886 3h82.816z"/><path fill="#475F6C" d="M74 65h-48c-2.209 0-4 1.791-4 4v3c0-2.209 1.791-4 4-4h48c2.209 0 4 1.791 4 4v-3c0-2.209-1.791-4-4-4z"/></svg>