<svg xmlns="http://www.w3.org/2000/svg" width="100" height="100" viewBox="0 0 100 100"><path fill="#3DB39E" d="M50 0c27.614 0 50 22.386 50 50s-22.386 50-50 50-50-22.386-50-50 22.386-50 50-50z"/><path fill="#2B7D6E" d="M48 82h4v18h-4v-18z"/><path fill="#256A5E" d="M48 82h4v5.5h-4v-5.5z"/><path fill="#D7B354" d="M69.846 50.247c-1.1-.4-2.187-.717-3.25-.971 1.037-.345 2.093-.756 3.153-1.25 7.032-3.278 11.493-8.598 9.963-11.879-1.53-3.282-8.472-3.284-15.504-.006-1.061.494-2.053 1.039-2.984 1.612.489-.979.945-2.015 1.346-3.113 2.654-7.292 2.047-14.207-1.355-15.445s-8.312 3.668-10.967 10.959c-.4 1.1-.717 2.187-.971 3.251-.346-1.038-.756-2.093-1.25-3.153-3.278-7.033-8.598-11.494-11.879-9.964-3.282 1.53-3.284 8.472-.006 15.505.494 1.06 1.039 2.053 1.612 2.984-.979-.49-2.015-.946-3.114-1.347-7.291-2.653-14.206-2.047-15.444 1.355-1.239 3.402 3.668 8.312 10.959 10.967 1.1.4 2.187.718 3.251.971-1.038.346-2.094.756-3.154 1.25-7.032 3.279-11.493 8.598-9.963 11.88 1.53 3.281 8.472 3.284 15.505.005 1.06-.494 2.052-1.038 2.983-1.611-.489.978-.945 2.015-1.346 3.113-2.653 7.291-2.047 14.206 1.355 15.444 3.402 1.239 8.312-3.668 10.967-10.959.4-1.1.717-2.187.971-3.25.345 1.037.756 2.093 1.25 3.153 3.278 7.032 8.598 11.493 11.879 9.963 3.282-1.53 3.284-8.472.006-15.504-.494-1.061-1.039-2.054-1.612-2.985.978.49 2.015.946 3.114 1.347 7.291 2.654 14.206 2.048 15.444-1.355 1.239-3.402-3.668-8.313-10.959-10.967zm-17.867 3.998c-.742.346-1.308.98-1.714 1.818-.479-.799-1.097-1.382-1.866-1.662s-1.618-.231-2.499.073c.228-.903.202-1.753-.144-2.495s-.98-1.308-1.819-1.715c.8-.479 1.383-1.097 1.663-1.866s.231-1.618-.074-2.499c.904.228 1.754.202 2.496-.144s1.308-.98 1.714-1.818c.479.799 1.097 1.382 1.866 1.662s1.619.231 2.499-.074c-.228.904-.202 1.754.144 2.496s.98 1.308 1.819 1.715c-.8.478-1.383 1.097-1.663 1.866s-.231 1.618.074 2.499c-.905-.227-1.754-.203-2.496.144zM69.846 50.247c-1.1-.4-2.187-.717-3.25-.971 1.037-.345 2.093-.756 3.153-1.25 7.032-3.278 11.493-8.598 9.963-11.879-1.53-3.282-8.472-3.284-15.504-.006-1.061.494-2.053 1.039-2.984 1.612.489-.979.945-2.015 1.346-3.113 2.654-7.292 2.047-14.207-1.355-15.445s-8.312 3.668-10.967 10.959c-.4 1.1-.717 2.187-.971 3.251-.346-1.038-.756-2.093-1.25-3.153-3.278-7.033-8.598-11.494-11.879-9.964-3.282 1.53-3.284 8.472-.006 15.505.494 1.06 1.039 2.053 1.612 2.984-.979-.49-2.015-.946-3.114-1.347-7.291-2.653-14.206-2.047-15.444 1.355-1.239 3.402 3.668 8.312 10.959 10.967 1.1.4 2.187.718 3.251.971-1.038.346-2.094.756-3.154 1.25-7.032 3.279-11.493 8.598-9.963 11.88 1.53 3.281 8.472 3.284 15.505.005 1.06-.494 2.052-1.038 2.983-1.611-.489.978-.945 2.015-1.346 3.113-2.653 7.291-2.047 14.206 1.355 15.444 3.402 1.239 8.312-3.668 10.967-10.959.4-1.1.717-2.187.971-3.25.345 1.037.756 2.093 1.25 3.153 3.278 7.032 8.598 11.493 11.879 9.963 3.282-1.53 3.284-8.472.006-15.504-.494-1.061-1.039-2.054-1.612-2.985.978.49 2.015.946 3.114 1.347 7.291 2.654 14.206 2.048 15.444-1.355 1.239-3.402-3.668-8.313-10.959-10.967z"/><path fill="#EFC75E" d="M85 50c0-3.866-6.716-7-15-7-1.249 0-2.455.079-3.615.213.915-.725 1.824-1.522 2.707-2.405 5.858-5.857 8.391-12.822 5.657-15.557-2.734-2.733-9.698-.2-15.557 5.657-.883.883-1.681 1.793-2.405 2.708.134-1.16.213-2.367.213-3.616 0-8.284-3.134-15-7-15s-7 6.716-7 15c0 1.249.079 2.455.213 3.615-.725-.915-1.522-1.824-2.405-2.707-5.857-5.857-12.822-8.391-15.557-5.657-2.733 2.734-.2 9.699 5.657 15.557.883.883 1.792 1.681 2.707 2.405-1.16-.134-2.366-.213-3.615-.213-8.284 0-15 3.134-15 7s6.716 7 15 7c1.249 0 2.455-.079 3.615-.213-.915.725-1.824 1.522-2.707 2.405-5.857 5.858-8.391 12.823-5.657 15.557 2.734 2.733 9.699.201 15.557-5.657.883-.883 1.681-1.792 2.405-2.707-.134 1.16-.213 2.366-.213 3.615 0 8.284 3.134 15 7 15s7-6.716 7-15c0-1.249-.079-2.455-.213-3.615.725.915 1.522 1.824 2.405 2.707 5.858 5.858 12.822 8.391 15.557 5.657 2.733-2.733.201-9.698-5.657-15.557-.883-.883-1.792-1.681-2.707-2.405 1.16.134 2.366.213 3.615.213 8.284 0 15-3.134 15-7zm-37.479 5.986c-.103-.989-.438-1.832-1.056-2.45s-1.462-.954-2.451-1.056c.627-.772.986-1.605.986-2.48 0-.874-.359-1.708-.986-2.479.989-.102 1.833-.438 2.451-1.056s.954-1.462 1.056-2.451c.771.627 1.605.986 2.479.986s1.708-.359 2.479-.986c.102.989.438 1.833 1.056 2.451s1.462.954 2.451 1.056c-.627.771-.986 1.605-.986 2.479 0 .875.359 1.708.986 2.48-.989.102-1.833.438-2.451 1.056s-.953 1.461-1.056 2.45c-.771-.627-1.605-.986-2.479-.986s-1.708.359-2.479.986zM85 50c0-3.866-6.716-7-15-7-1.249 0-2.455.079-3.615.213.915-.725 1.824-1.522 2.707-2.405 5.858-5.857 8.391-12.822 5.657-15.557-2.734-2.733-9.698-.2-15.557 5.657-.883.883-1.681 1.793-2.405 2.708.134-1.16.213-2.367.213-3.616 0-8.284-3.134-15-7-15s-7 6.716-7 15c0 1.249.079 2.455.213 3.615-.725-.915-1.522-1.824-2.405-2.707-5.857-5.857-12.822-8.391-15.557-5.657-2.733 2.734-.2 9.699 5.657 15.557.883.883 1.792 1.681 2.707 2.405-1.16-.134-2.366-.213-3.615-.213-8.284 0-15 3.134-15 7s6.716 7 15 7c1.249 0 2.455-.079 3.615-.213-.915.725-1.824 1.522-2.707 2.405-5.857 5.858-8.391 12.823-5.657 15.557 2.734 2.733 9.699.201 15.557-5.657.883-.883 1.681-1.792 2.405-2.707-.134 1.16-.213 2.366-.213 3.615 0 8.284 3.134 15 7 15s7-6.716 7-15c0-1.249-.079-2.455-.213-3.615.725.915 1.522 1.824 2.405 2.707 5.858 5.858 12.822 8.391 15.557 5.657 2.733-2.733.201-9.698-5.657-15.557-.883-.883-1.792-1.681-2.707-2.405 1.16.134 2.366.213 3.615.213 8.284 0 15-3.134 15-7z"/><path fill="#E3BD59" d="M50 39c6.075 0 11 4.925 11 11s-4.925 11-11 11-11-4.925-11-11 4.925-11 11-11z"/><path fill="#C88B4A" d="M50 42c4.418 0 8 3.582 8 8s-3.582 8-8 8-8-3.582-8-8 3.582-8 8-8z"/></svg>