<svg xmlns="http://www.w3.org/2000/svg" width="100" height="100" viewBox="0 0 100 100"><path fill="#CC9357" d="M50 71h28s4 14.03 4 14c0 8.284-14.327 15-32 15s-32-6.716-32-15l4-14h28z"/><g fill="#D49C5E"><path d="M72.685 87.268c-4.399-5.104-10.379-7.6-15.184-9.605-1.938-.809-3.612-1.508-4.877-2.252-2.636-1.554-4.383-3.013-5.283-4.41h-1.455c.896 1.814 2.912 3.634 6.095 5.509 1.339.789 3.051 1.503 5.032 2.331 6.256 2.61 14.638 6.15 18.326 15.316.39-.236.769-.478 1.128-.725-.937-2.261-2.19-4.316-3.782-6.164zM65.012 90.314c-5.246-5.672-12.812-10.463-16.497-8.17-1.558.969-2.861 3.582-.233 10.532.814 2.153 1.847 4.707 3.048 7.308.462-.009.922-.023 1.379-.042-1.086-2.323-2.171-4.891-3.239-7.718-1.811-4.789-1.912-7.985-.285-8.997 2.596-1.614 9.416 2.028 14.896 7.954 1.663 1.798 3.137 3.875 4.396 6.062.412-.137.816-.277 1.214-.423-1.378-2.42-2.972-4.661-4.679-6.506zM61.807 72.226c3.063 2.751 6.932 3.655 9.627 2.251 1.343-.699 2.258-1.911 2.715-3.477h-1.314c-.385 1.056-1.051 1.858-1.986 2.346-2.229 1.161-5.521.329-8.192-2.069l-.287-.276h-1.755c.329.392.718.8 1.192 1.225zM75.386 79.297c-4.914 1.991-16.831-4.075-21.365-8.297h-1.77c3.504 3.994 14.168 9.95 20.818 9.95 1.044 0 1.989-.147 2.791-.472 2.165-.877 2.768-4.042 2.521-8.135l-.381-1.343h-1.011c.478 4.369.137 7.592-1.603 8.297zM78.09 85.354c-.08-.343-.423-.556-.763-.476-.342.079-.555.422-.475.765.013.055.651 2.822 1.37 6.43.391-.342.75-.692 1.085-1.05-.655-3.233-1.205-5.619-1.217-5.669zM55.041 87.991c-1.076-.048-1.609.467-1.87.911-1.178 2.006-.51 6.61 1.202 10.955.442-.029.882-.062 1.318-.099-1.712-4.182-2.375-8.592-1.426-10.21.055-.093.181-.311.715-.284 2.152.103 7.079 3.896 10.691 8.812.44-.116.875-.236 1.303-.362-3.751-5.279-9.122-9.588-11.933-9.723zM60.328 98.201c-.296-.188-.689-.099-.876.199-.188.298-.099.691.198.879l.029.021c.613-.092 1.216-.192 1.812-.301-.47-.345-.891-.626-1.163-.798zM61.51 95.6c-1.263-1.059-3.021-2.224-4.222-1.759-1.351.521-1.692 2.303-.916 4.767.107.342.246.696.398 1.053.445-.045.889-.092 1.326-.146-.196-.425-.376-.855-.513-1.291-.519-1.644-.452-2.957.16-3.193.261-.101 1.215.092 2.95 1.547.749.628 1.484 1.368 2.175 2.156.475-.098.943-.2 1.405-.309-.906-1.094-1.874-2.08-2.763-2.825zM30.516 91.512l-1.364-1.569c-3.373-3.874-5.371-7.695-7.303-11.392-.433-.828-.863-1.647-1.304-2.459l-.501 1.756.68 1.295c1.966 3.762 3.999 7.651 7.47 11.638l1.365 1.569c1.702 1.957 3.407 3.906 5.097 5.815.695.179 1.409.342 2.135.496-2.064-2.31-4.177-4.737-6.275-7.149zM23.068 87.056c-1.2-2.132-2.524-4.155-3.921-6.071l-.448 1.568c1.154 1.635 2.255 3.341 3.263 5.13 1.564 2.777 3.183 5.308 4.838 7.643.741.366 1.521.714 2.336 1.043-2.087-2.782-4.121-5.856-6.068-9.313zM46.183 97.01c-2.425-4.622-4.933-9.401-5.983-12.291-.283-.778-.57-1.623-.874-2.517-1.134-3.338-2.51-7.352-4.793-11.202h-1.509c2.486 3.955 3.926 8.158 5.1 11.613.306.9.595 1.751.882 2.542 1.08 2.971 3.608 7.788 6.054 12.448l1.199 2.291c.485.026.973.047 1.464.063-.483-.927-.99-1.898-1.54-2.947zM81.818 84.495l-.014-.17c-.347-1.207-1.105-3.862-1.855-6.492.228 2.177.429 4.424.602 6.757.108 1.467.229 2.896.356 4.3.547-.958.896-1.952 1.028-2.975l-.117-1.42zM40.383 75.419c-.63-1.64-1.201-3.122-1.709-4.419h-1.366c.558 1.415 1.195 3.071 1.889 4.877 3.185 8.286 6.551 16.758 9.974 24.113l.829.01.583-.007c-4.056-8.588-7.714-18.109-10.2-24.574zM32.602 85.842c.188.296.581.383.877.193s.383-.583.193-.88l-7.389-11.597c-.386-.605-.985-1.547-1.595-2.559h-1.483c.556.942 1.222 2.013 2.007 3.245l7.39 11.598zM18.033 84.885l-.033.115c0 2.906 1.769 5.618 4.822 7.917-1.43-2.694-3.009-5.384-4.789-8.032zM23.153 76.744c2.294 4.322 4.666 8.791 8.896 13.483 6.128 6.799 7.402 6.849 8.184 6.321.743-.504 1.173-1.606-2.369-8.898-1.798-3.7-3.065-6.984-4.185-9.883-1-2.591-1.88-4.867-2.899-6.768h-1.45c1.106 1.903 2.042 4.319 3.165 7.228 1.127 2.922 2.405 6.232 4.227 9.981 2.502 5.151 2.766 6.744 2.748 7.21-.471-.163-2.009-1.088-6.478-6.046-4.125-4.576-6.459-8.975-8.717-13.228-.814-1.534-1.606-3.025-2.461-4.495l-.492 1.722c.619 1.108 1.222 2.226 1.831 3.373z"/></g><path fill="#93D3E8" d="M50 0c22.644 0 41 18.356 41 41s-18.356 41-41 41-41-18.356-41-41 18.356-41 41-41z"/><path fill="#DFF2F8" d="M49.5 59c-15.74 0-28.5 4.681-28.5 10.455 0 .188.015.378.042.568 7.379 7.362 17.549 11.926 28.785 11.973l.733-.01.736-.02c.408-.013.815-.029 1.219-.051 9.615-.583 18.338-4.471 25.037-10.554.289-.639.448-1.279.448-1.906 0-5.774-12.76-10.455-28.5-10.455z"/><path fill="#84BDD0" d="M50 78c-21.973 0-39.906-17.286-40.949-39-.032.663-.051 1.329-.051 2 0 22.644 18.356 41 41 41s41-18.356 41-41c0-.671-.019-1.337-.051-2-1.043 21.714-18.976 39-40.949 39z"/><path fill="#C8D9DF" d="M78 69.455c0-.693-.188-1.37-.539-2.025-7.27 6.565-16.895 10.57-27.461 10.57-10.879 0-20.765-4.242-28.104-11.156-.584.834-.896 1.709-.896 2.611 0 .188.015.378.042.568l.179.17c6.895 6.798 16.183 11.172 26.489 11.739l.026.002c.654.036 1.313.054 1.975.058l.129.004.679-.009.445-.012.333-.009c.406-.013.812-.029 1.213-.051l.039-.003c1.74-.106 3.449-.324 5.124-.641l.183-.032c.464-.091.924-.192 1.383-.299l.459-.105c.425-.103.846-.214 1.265-.33l.543-.154c.401-.117.801-.238 1.197-.367l.573-.194c.386-.132.771-.265 1.152-.408l.565-.224c1.211-.475 2.392-1.007 3.543-1.591l.798-.409.787-.439c.282-.159.565-.318.844-.485l.73-.448c.29-.182.578-.365.864-.554l.672-.452c.301-.208.598-.42.893-.636l.601-.441c.328-.248.65-.505.971-.763l.473-.379c.471-.39.934-.789 1.385-1.199.287-.641.446-1.28.446-1.907z"/><path fill="#AE7D4A" d="M50 84c11.045 0 21.062-4.375 28.435-11.478l-.435-1.522h-.078c-7.318 6.819-17.128 11-27.922 11s-20.603-4.181-27.922-11h-.078l-.435 1.521c7.373 7.103 17.39 11.479 28.435 11.479z"/><g fill="#CC9357"><path d="M32.418 78.029l.077.198c.278.722.566 1.468.869 2.238.544.242 1.093.474 1.649.692-.33-.822-.646-1.617-.944-2.388-.556-.234-1.107-.481-1.651-.74zM37.983 82.205c.49.15.987.285 1.485.417l-.144-.42c-.195-.575-.402-1.177-.615-1.787-.509-.146-1.012-.305-1.512-.47.281.781.539 1.532.786 2.26zM26.853 76.819c.826.567 1.67 1.11 2.539 1.617l-2.13-3.344c-.968-.648-1.907-1.335-2.814-2.061l.766 1.213 1.639 2.575zM21.814 71.65l-.249.871c.491.474.997.933 1.511 1.382-.411-.758-.829-1.508-1.262-2.253zM77.178 73.679c.412-.365.818-.737 1.216-1.118l-.011-.219-.383-1.342h-.078c-.277.259-.566.507-.851.758.061.678.092 1.312.107 1.921zM47.134 83.889c.459.032.919.059 1.382.074.177-.3.387-.562.667-.735 1.093-.68 2.94-.418 5.116.545.763-.08 1.519-.185 2.268-.306-1.259-.71-2.491-1.262-3.639-1.582-.967.068-1.942.115-2.928.115-.376 0-.749-.017-1.123-.027l-.362.172c-.546.338-1.056.886-1.381 1.744zM42.673 81.336c-.494-.09-.984-.189-1.472-.297l.862 2.188c.481.095.968.177 1.455.254l-.845-2.145zM67.664 79.996c.565-.271 1.124-.553 1.675-.849-.809-.207-1.646-.467-2.494-.77-.565.256-1.137.5-1.715.729.851.337 1.698.635 2.534.89zM64.984 81.159c-.755-.424-1.513-.817-2.267-1.187-.603.197-1.211.381-1.826.55.825.38 1.658.788 2.495 1.23.539-.186 1.071-.385 1.598-.593z"/></g><path fill="#F6C37A" d="M41 87s4.453 1 8.931 1c4.522 0 9.069-1 9.069-1 1.104 0 2 .896 2 2v2c0 1.104-.896 2-2 2 0 0-4.547 1-9.069 1-4.478 0-8.931-1-8.931-1-1.104 0-2-.896-2-2v-2c0-1.104.896-2 2-2z"/><path fill="#F8CF95" d="M45 90h10c.553 0 1 .448 1 1 0 .553-.447 1-1 1h-10c-.553 0-1-.447-1-1 0-.552.447-1 1-1z"/><path fill="#E3B470" d="M42 89c-.553 0-1 .448-1 1 0 .553.447 1 1 1s1-.447 1-1c0-.552-.447-1-1-1zm16 0c-.553 0-1 .448-1 1 0 .553.447 1 1 1s1-.447 1-1c0-.552-.447-1-1-1z"/><path fill="#D2E4E9" d="M50 58c11.046 0 20 3.582 20 8s-8.954 8-20 8-20-3.582-20-8 8.954-8 20-8z"/><path fill="#3DB39E" d="M66.97 64.323l-8.039-11.053c2.501-1.075 4.069-2.461 4.069-3.606l-.023-.001-6.755-9.709c2.3-.832 3.778-2.008 3.778-2.961l-.018-.001-9.982-14.006-9.982 14.006-.018.001c0 .953 1.479 2.129 3.778 2.961l-6.755 9.709-.023.001c0 1.145 1.568 2.531 4.069 3.605l-8.039 11.054-.03.001c0 2.766 7.611 6.676 17 6.676s17-3.91 17-6.676l-.03-.001z"/><path fill="#37A18E" d="M50 55c-3.462 0-6.601-.73-8.931-1.73l-1.599 2.198c2.362 1.389 6.193 2.532 10.53 2.532s8.168-1.143 10.529-2.532l-1.599-2.198c-2.329 1-5.467 1.73-8.93 1.73z"/><path fill="#37A18F" d="M50 41c-2.354 0-4.513-.428-6.222-1.046l-1.6 2.299c1.833.973 4.653 1.747 7.822 1.747 3.169 0 5.989-.774 7.821-1.747l-1.6-2.299c-1.707.618-3.867 1.046-6.221 1.046z"/><g fill="#fff"><circle cx="31" cy="46" r="2"/><circle cx="20" cy="25" r="2"/><circle cx="26" cy="55" r="2"/><circle cx="30" cy="14" r="2"/><circle cx="28" cy="33" r="2"/><circle cx="20" cy="44" r="2"/><circle cx="57" cy="9" r="2"/><path d="M44 31l.311-.031 1.654-2.32c-.167-.937-.981-1.649-1.965-1.649-1.104 0-2 .896-2 2s.896 2 2 2z"/><circle cx="80" cy="36" r="2"/><circle cx="44" cy="10" r="2"/><circle cx="56" cy="20" r="2"/><circle cx="51" cy="66" r="2"/><circle cx="72" cy="16" r="2"/><circle cx="71" cy="56" r="2"/><circle cx="68" cy="43" r="2"/><circle cx="35" cy="22" r="2"/><circle cx="76" cy="27" r="2"/><circle cx="80" cy="46" r="2"/><circle cx="51" cy="46" r="2"/><circle cx="40" cy="61" r="2"/><path d="M61 34c-.988 0-1.805.719-1.966 1.662l.948 1.331h.018c0 .195-.067.4-.186.61.333.247.741.397 1.186.397 1.104 0 2-.896 2-2s-.896-2-2-2z"/><circle cx="66" cy="27" r="2"/><circle cx="61" cy="56" r="2"/></g></svg>