<svg xmlns="http://www.w3.org/2000/svg" width="100" height="100" viewBox="0 0 100 100"><path fill="#F2F1EF" d="M50 0c27.614 0 50 22.386 50 50s-22.386 50-50 50-50-22.386-50-50 22.386-50 50-50z"/><path fill="#F6C37A" d="M62.73 24.719c-3.65-3.654-9.568-3.654-13.219 0l-23.796 23.821c-3.65 3.653-3.65 9.578 0 13.233.73.73 1.914.73 2.645 0l34.37-34.408c.731-.73.731-1.916 0-2.646zm12.471 12.674c-.746-.746-1.953-.746-2.698 0l-35.069 35.104c-.744.746-.744 1.956 0 2.702 3.725 3.728 9.764 3.728 13.488 0l24.279-24.305c3.725-3.728 3.725-9.774 0-13.501z"/><g fill="#DDAF6E"><path d="M29.715 57.773c-3.65-3.655-3.65-9.58 0-13.233l19.839-19.86-.042.039-23.797 23.821c-3.65 3.653-3.65 9.578 0 13.233.73.73 1.914.73 2.645 0l3.977-3.98c-.733.708-1.899.703-2.622-.02zM41.434 71.199c-.744-.746-.744-1.956 0-2.702l31.091-31.123-.021.018-35.07 35.105c-.744.746-.744 1.956 0 2.702 3.725 3.728 9.764 3.728 13.488 0l3.957-3.961c-3.729 3.686-9.734 3.675-13.445-.039z"/></g><path fill="#E37948" d="M76.811 23.131c2.881 2.883 2.881 7.557 0 10.44l-43.217 43.239c-2.881 2.883-7.553 2.883-10.434 0-2.881-2.884-2.881-7.558 0-10.44l43.215-43.238c2.881-2.884 7.554-2.884 10.436-.001z"/><path fill="#EFC75E" d="M63.5 32c-.828 0-1.5.672-1.5 1.5v3.5h-3.5c-.828 0-1.5.672-1.5 1.5v3.5h-3.5c-.828 0-1.5.672-1.5 1.5v3.5h-3.5c-.828 0-1.5.672-1.5 1.5v3.5h-3.5c-.828 0-1.5.672-1.5 1.5v3.5h-3.5c-.828 0-1.5.672-1.5 1.5v3.5h-3.5c-.828 0-1.5.672-1.5 1.5s.672 1.5 1.5 1.5h5c.828 0 1.5-.672 1.5-1.5v-3.5h3.5c.828 0 1.5-.672 1.5-1.5v-3.5h3.5c.828 0 1.5-.672 1.5-1.5v-3.5h3.5c.828 0 1.5-.672 1.5-1.5v-3.5h3.5c.828 0 1.5-.672 1.5-1.5v-3.5h3.5c.828 0 1.5-.672 1.5-1.5v-5c0-.828-.672-1.5-1.5-1.5z"/><path fill="#CC6D41" d="M27.16 72.81c-2.881-2.884-2.881-7.558 0-10.44l39.238-39.258-.022.02-43.216 43.237c-2.881 2.883-2.881 7.557 0 10.44 2.881 2.883 7.553 2.883 10.434 0l3.979-3.981c-2.883 2.863-7.539 2.858-10.413-.018z"/></svg>