<svg xmlns="http://www.w3.org/2000/svg" width="100" height="100" viewBox="0 0 100 100"><path fill="#EFC75E" d="M50 0c27.614 0 50 22.386 50 50 0 27.615-22.386 50-50 50s-50-22.385-50-50c0-27.614 22.386-50 50-50z"/><path fill="#487190" d="M59.505 16.895c-4.117 1.52-3.54 13.662 1.288 27.12s12.079 23.136 16.196 21.616c4.117-1.52 3.54-13.662-1.287-27.121-4.829-13.458-12.08-23.135-16.197-21.615z"/><path fill="#3D607B" d="M64.724 46.82c-4.475-13.581-4.733-25.734-.578-27.145.334-.114.688-.146 1.057-.118-2.146-2.214-4.145-3.235-5.697-2.662-4.117 1.52-3.54 13.662 1.288 27.12 3.779 10.534 9.042 18.75 13.125 21.095-3.22-3.914-6.624-10.486-9.195-18.29z"/><path fill="#3E4E5C" d="M37.998 63.286l10.496-3.28c1.155 3.179-1.635 4.191-1.113 8.154.197 1.499 1.358 1.076 1.962 2.738l.173 4.053c.604 1.661 2.774.996 3.377 2.654.465 1.281-1.132 2.793-1.132 2.793s-3.54 4.004-6.053 3.584c-3.499-.588-7.71-20.696-7.71-20.696z"/><path fill="#323E4A" d="M47.381 68.16c-.51-3.875 2.136-4.935 1.175-7.95l-2.88.677-7.678 2.399.196.903 9.248 4.225-.061-.254z"/><path fill="#3C4C59" d="M23.889 45.965l5.485-1.978c.028 2.358.954 6.406 2.585 10.845 1.621 4.412 3.528 8.082 5.029 9.914l.003.008-5.475 1.974c-3.707 1.337-8.418-2.23-10.523-7.96-2.106-5.733-.811-11.467 2.896-12.803z"/><path fill="#323E4A" d="M32.008 66.551l4.983-1.797-.003-.008c-1.501-1.832-3.408-5.502-5.029-9.914-1.02-2.777-1.764-5.4-2.186-7.553l-1.241-2.989-4.644 1.675-.189.085c-.207 1.964.64 6.003 2.301 10.47 2.043 5.499 4.603 9.717 6.008 10.031z"/><path fill="#5992BD" d="M61.849 43.678c-4.461-12.014-5.912-22.776-3.658-25.691-.303.304-.67.732-1.091 1.351-3.771 5.527-10.025 17.357-31.471 25.009l.012.029c-1.312.468-.575 5.685 1.643 11.652 2.215 5.965 5.07 10.424 6.382 9.955 21.447-7.651 34.037-2.361 40.545-.502 2.05.584 2.802.143 2.802.143-3.423 1.22-10.21-8.604-15.164-21.946z"/><path fill="#EBEDEE" d="M61.849 43.678c.908 2.446 1.878 4.772 2.878 6.935 3.365-1.23 5.101-4.953 3.874-8.321-1.227-3.371-4.954-5.108-8.326-3.882l-.187.079c.523 1.691 1.105 3.424 1.761 5.189z"/><path fill="#63A3D2" d="M57.175 24.017c-.132-2.841.191-4.964 1.016-6.03-.303.304-.67.732-1.091 1.351-3.771 5.527-10.025 17.357-31.471 25.009l.012.029c-.599.214-.767 1.426-.565 3.241l1.747-.574c19.18-6.821 26.323-16.936 30.352-23.026z"/><path fill="#C8CACB" d="M64.724 46.82c-1.001-3.039-1.789-6.004-2.366-8.795-.693.015-1.396.136-2.083.386l-.187.079c.523 1.69 1.105 3.423 1.761 5.188.908 2.446 1.878 4.772 2.878 6.935.405-.148.786-.334 1.142-.55-.396-1.054-.78-2.135-1.145-3.243z"/></svg>