<svg xmlns="http://www.w3.org/2000/svg" width="100" height="100" viewBox="0 0 100 100"><path fill="#324D5B" d="M50 0c27.614 0 50 22.386 50 50s-22.386 50-50 50-50-22.386-50-50 22.386-50 50-50z"/><g fill="#C2C1BF"><path d="M27.791 5.203l32.209 11.843v-3.992l-27.221-10.009c-1.71.628-3.371 1.355-4.988 2.158zM60 40v-3.992l-48.549-17.851c-.832 1.006-1.615 2.052-2.367 3.122l50.916 18.721z"/></g><path fill="#EFC75E" d="M75.501 24.002c-.566 5.098-3.399 7.933-8.501 8.5 5.102.566 7.935 3.4 8.501 8.5.567-5.1 3.4-7.934 8.501-8.5-5.101-.566-7.934-3.402-8.501-8.5zm-49.999 9c-.567 5.098-3.401 7.933-8.501 8.5 5.101.566 7.934 3.4 8.501 8.499.566-5.099 3.399-7.933 8.5-8.499-5.101-.566-7.934-3.402-8.5-8.5z"/><path fill="#CB4E44" d="M70 62h-56v22.68c9.095 9.438 21.857 15.32 36 15.32 7.113 0 13.874-1.495 20-4.172v-33.828z"/><path fill="#B6463D" d="M68 96.647c.674-.261 1.341-.532 2-.819v-33.828h-2v34.647z"/><path fill="#D9D8D7" d="M.942 40.335c-.612 3.128-.942 6.357-.942 9.665 0 16.588 8.083 31.28 20.52 40.376l46.713-17.354c1.91-.71 2.83-2.454 2.773-4.169v-5.848h-5l-64.064-22.67z"/><path fill="#C3C2C1" d="M68 72.643c1.336-.815 1.999-2.222 2-3.636v-6.001h-2v9.637z"/><path fill="#F2F1EF" d="M67.223 58.978l-64.886-24.109c-1.515 4.774-2.337 9.856-2.337 15.131 0 14.259 5.978 27.112 15.553 36.221l51.67-19.198c3.712-1.379 3.712-6.667 0-8.045z"/><path fill="#E4E3E1" d="M26.812 58.478c-4.235-.763-6.919-2.972-5.994-4.937l.837-1.779c.925-1.965-1.759-4.176-5.995-4.938l-15.298-2.751c-.227 1.92-.357 3.869-.36 5.85v.154c.012 7.82 1.822 15.218 5.034 21.806 3.838.426 7.402-.538 8.247-2.333l.279-.593c.925-1.965 5.108-2.94 9.344-2.179 4.236.762 8.418-.214 9.344-2.179l.558-1.186c.924-1.964-1.759-4.175-5.996-4.935z"/><g fill="#A1A09F"><path d="M47 8.274v3.992l2 .735v-3.991zM47 31.228v3.992l2 .736v-3.993z"/></g><g fill="#E4E7E7"><path d="M89.001 49.502c-2.7-.301-4.2-1.802-4.501-4.501-.299 2.699-1.799 4.2-4.5 4.501 2.701.299 4.201 1.8 4.5 4.499.301-2.699 1.801-4.2 4.501-4.499zM67.5 19.001c.301-2.7 1.801-4.2 4.501-4.5-2.7-.301-4.2-1.802-4.501-4.5-.299 2.698-1.799 4.199-4.5 4.5 2.701.3 4.201 1.801 4.5 4.5zM22.5 14.002c.3-2.7 1.8-4.201 4.5-4.5-1.625-.181-2.808-.805-3.563-1.855-1.194.75-2.359 1.542-3.482 2.389 1.474.696 2.329 2.012 2.545 3.966zM92.5 29.002c.147-1.324.587-2.355 1.312-3.103-.654-1.186-1.356-2.341-2.102-3.466-.744 1.181-1.977 1.875-3.71 2.068 2.701.3 4.201 1.801 4.5 4.501z"/></g><path fill="#4ABEE5" d="M50 0l-1 .025v61.975c0 2.762 2.238 4 5 4h2c2.762 0 5-1.238 5-4v-60.771c-3.541-.795-7.219-1.229-11-1.229z"/><path fill="#42ABCE" d="M59 .824v62.176c0 1.229-.46 2.14-1.195 2.79 1.867-.452 3.195-1.667 3.195-3.79v-60.771c-.662-.149-1.328-.283-2-.405z"/><g fill="#D9D8D7"><path d="M51.475 36.065l-51.232 18.853c.125 1.283.31 2.549.53 3.802l51.998-19.137c.739-.271 1.229-.974 1.229-1.759 0-1.304-1.3-2.21-2.525-1.759zM51.475 13.092l-47.569 17.505c-.633 1.502-1.194 3.041-1.68 4.614l50.546-18.601c.738-.272 1.228-.974 1.228-1.759 0-1.305-1.3-2.21-2.525-1.759z"/></g></svg>