<svg xmlns="http://www.w3.org/2000/svg" width="100" height="100" viewBox="0 0 100 100"><path fill="#91D8F0" d="M50 0c27.614 0 50 22.386 50 50s-22.386 50-50 50-50-22.386-50-50 22.386-50 50-50z"/><path fill="#2295BC" d="M98.382 62.65c-.259-.388-.39-.65-.39-.65s-2.09 3.996-6.014 4c-3.957-.004-5.948-4-5.948-4s-1.991 4-6.023 4c-4.022 0-6.002-4-6.002-4s-2.09 3.996-6.014 4c-3.957-.004-5.948-4-5.948-4s-1.991 4-6.023 4c-4.022 0-6.002-4-6.002-4s-2.09 3.996-6.014 4c-3.957-.004-5.948-4-5.948-4s-1.991 4-6.023 4c-4.022 0-6.002-4-6.002-4s-2.09 3.996-6.014 4c-3.957-.004-5.948-4-5.948-4s-1.991 4-6.023 4c-4.022 0-6.002-4-6.002-4s-.144.271-.42.669c2.892 11.073 9.482 20.65 18.375 27.331h60.002c8.898-6.685 15.491-16.269 18.381-27.35z"/><path fill="#324D5B" d="M47 25h6c1.104 0 2 .896 2 2v4c0 1.104-.896 2-2 2h-6c-1.104 0-2-.896-2-2v-4c0-1.104.896-2 2-2z"/><path fill="#EDEDED" d="M35 30h30c1.104 0 2 .896 2 2v21c0 1.105-.896 2-2 2h-30c-1.104 0-2-.895-2-2v-21c0-1.104.896-2 2-2z"/><path fill="#E1E1E1" d="M50 30h-15c-1.104 0-2 .896-2 2v21c0 1.105.896 2 2 2h15v-25zM67 52.256l-17.031-5.893-16.969 5.871v-2.726l16.962-5.869.007 1.361.007-1.36 17.024 5.89v2.726z"/><path fill="#475F6C" d="M41.5 36c-1.381 0-2.5 1.119-2.5 2.5s1.119 2.5 2.5 2.5 2.5-1.119 2.5-2.5-1.119-2.5-2.5-2.5zm17 0c-1.381 0-2.5 1.119-2.5 2.5s1.119 2.5 2.5 2.5 2.5-1.119 2.5-2.5-1.119-2.5-2.5-2.5z"/><path fill="#fff" d="M27 53l22.979-8 23.021 8c.981.309 2 .896 2 2l-5 26c0 1.104-.896 2-2 2h-36c-1.104 0-2-.896-2-2l-5-26c0-1.104.958-1.565 2-2z"/><path fill="#D6D6D6" d="M50 46.374v-2.726l-.024-.008-.007 1.36-.007-1.36-16.962 5.868v2.726l16.969-5.871z"/><path fill="#F2F2F2" d="M27 53l22.979-8 .021.008v37.992h-18c-1.104 0-2-.896-2-2l-5-26c0-1.104.958-1.565 2-2z"/><path fill="#E2574C" d="M73.554 62.523l-23.585-8.16-23.526 8.139-.491-2.555 24.011-8.308.006 1.361.007-1.36 24.069 8.327-.491 2.556z"/><path fill-rule="evenodd" clip-rule="evenodd" fill="#B2E4F5" d="M64 15h-5c-.828 0-1.5.671-1.5 1.5s.672 1.501 1.5 1.501c1.104 0 2 .896 2 1.999 0 1.104-.896 2-2 2h-6c-.828 0-1.5.672-1.5 1.5s.672 1.5 1.5 1.5h-6c.828 0 1.5-.672 1.5-1.5s-.672-1.5-1.5-1.5h-3c-1.104 0-2-.896-2-2s.896-1.999 2-1.999h8v-.003c.813-.018 1.469-.68 1.469-1.498 0-.817-.655-1.479-1.469-1.496v-.004h-2c-1.104 0-2-.896-2-2 0-1.105.896-2 2-2h14c1.104 0 2 .895 2 2 0 1.104-.896 2-2 2z"/><path fill="#fff" d="M58.5 36c1.381 0 2.5 1.119 2.5 2.5s-1.119 2.5-2.5 2.5-2.5-1.119-2.5-2.5 1.119-2.5 2.5-2.5m-17 0c1.381 0 2.5 1.119 2.5 2.5s-1.119 2.5-2.5 2.5-2.5-1.119-2.5-2.5 1.119-2.5 2.5-2.5m17-1.5c-2.206 0-4 1.794-4 4s1.794 4 4 4 4-1.794 4-4-1.794-4-4-4zm-17 0c-2.206 0-4 1.794-4 4s1.794 4 4 4 4-1.794 4-4-1.794-4-4-4z"/><path fill="#1E85A7" d="M92.751 75.943c-.25.035-.506.057-.772.057-3.957-.004-5.948-4-5.948-4s-1.991 4-6.023 4c-4.022 0-6.002-4-6.002-4s-2.09 3.996-6.014 4c-3.957-.004-5.948-4-5.948-4s-1.991 4-6.023 4c-4.022 0-6.002-4-6.002-4s-2.09 3.996-6.014 4c-3.957-.004-5.948-4-5.948-4s-1.991 4-6.023 4c-4.022 0-6.002-4-6.002-4s-2.09 3.996-6.014 4c-3.957-.004-5.948-4-5.948-4s-1.991 4-6.023 4c-.275 0-.54-.022-.796-.057 8.77 14.423 24.634 24.057 42.749 24.057s33.979-9.634 42.751-24.057z"/><path fill="#1B7492" d="M80.007 89c-4.022 0-6.002-4-6.002-4s-2.09 3.996-6.014 4c-3.957-.004-5.948-4-5.948-4s-1.991 4-6.023 4c-4.022 0-6.002-4-6.002-4s-2.09 3.996-6.014 4c-3.957-.004-5.948-4-5.948-4s-1.991 4-6.023 4c-4.022 0-6.002-4-6.002-4s-2.09 3.996-6.014 4c-.573-.001-1.099-.092-1.589-.235 8.609 7.02 19.597 11.235 31.572 11.235 11.959 0 22.933-4.204 31.537-11.207-.474.128-.981.207-1.53.207z"/></svg>