<svg xmlns="http://www.w3.org/2000/svg" width="100" height="100" viewBox="0 0 100 100"><path fill="#3DB39E" d="M50 0c27.614 0 50 22.386 50 50s-22.386 50-50 50-50-22.386-50-50 22.386-50 50-50z"/><path fill="#369F8D" d="M58.894 15c-1.497.001-2.905.58-3.967 1.632l-38.267 37.923c-1.07 1.06-1.66 2.473-1.66 3.978 0 1.506.59 2.919 1.66 3.98l21.045 20.854c1.062 1.054 2.471 1.633 3.967 1.633 1.497 0 2.906-.579 3.968-1.632l33.7-33.397c1.055-1.046 1.66-2.496 1.66-3.979v-8.233c0-1.453-.556-2.832-1.564-3.881l-16.479-17.149c-1.056-1.098-2.537-1.729-4.063-1.729z"/><path fill="#F2F1EF" d="M59.894 14c-1.497.001-2.905.58-3.967 1.632l-38.267 37.923c-1.07 1.06-1.66 2.473-1.66 3.978 0 1.506.59 2.919 1.66 3.98l21.045 20.854c1.062 1.054 2.471 1.633 3.967 1.633 1.497 0 2.906-.579 3.968-1.632l33.7-33.397c1.055-1.046 1.66-2.496 1.66-3.979v-8.233c0-1.453-.556-2.832-1.564-3.881l-16.479-17.149c-1.056-1.098-2.537-1.729-4.063-1.729z"/><path fill="#EFC75E" d="M63.126 51.949l-18.179 18.179c-1.134 1.134-2.971 1.134-4.104.001l-10.984-10.985c-1.133-1.132-1.132-2.97.001-4.103l18.18-18.179c1.133-1.134 2.97-1.134 4.103-.001l10.984 10.985c1.133 1.133 1.133 2.969-.001 4.103z"/><path fill="#D7B354" d="M60.985 54.225l-1.448 1.448-4.346-4.346-4.346 4.346 4.346 4.346-1.448 1.448-4.346-4.346-4.346 4.346 4.346 4.346-1.449 1.449-4.346-4.346-5.069 5.069-1.449-1.448 22.453-22.452 1.448 1.448-4.346 4.346 4.346 4.346zm-28.97 7.242l5.069-5.069-4.346-4.346 1.449-1.449 4.346 4.346 4.346-4.346-4.346-4.346 1.448-1.448 4.346 4.346 4.346-4.346-4.346-4.346 1.448-1.448 5.07 5.07.725.724-18.107 18.107-1.448-1.449z"/><path fill="#D6D8D8" d="M61.455 26.914c.356-.356.882-.221 1.246.144.51.509.526 1.035.874 1.383s.865.271 1.196-.06c.67-.67-.34-2.035-.814-2.51-1.128-1.129-2.841-1.366-4.028-.179-1.968 1.968 1.467 4.198.466 5.198-.415.416-1.034.424-1.594-.136-.552-.551-.695-1.356-1.094-1.755-.348-.348-.84-.297-1.171.034-.797.797.458 2.357 1.111 3.01 1.17 1.171 2.926 1.417 4.139.204 2.188-2.187-1.204-4.46-.331-5.333zm6.27 2.826c-.364-.364-.873-.398-1.297.025l-4.817 4.817c-.424.424-.39.933-.025 1.298.365.364.874.398 1.298-.025l4.816-4.817c.424-.424.39-.933.025-1.298zm7.499 7.499c-.424-.425-1.061-.45-1.459-.237l-4.358 2.357-.018-.018 2.357-4.358c.213-.398.188-1.035-.237-1.459-.449-.449-1.128-.433-1.483-.178l-5.521 3.943-.152.136c-.373.373-.34.882 0 1.221.433.433.797.407 1.255.068l3.952-2.951.017.017-2.535 4.571c-.145.263-.271.712.187 1.17s.907.331 1.17.187l4.571-2.535.017.017-2.951 3.952c-.339.458-.364.822.068 1.255.339.34.848.373 1.221 0l.136-.152 3.943-5.521c.252-.357.269-1.036-.18-1.485z"/><path fill="#D7B354" d="M50.092 36.012c.742 0 1.484.283 2.051.85l10.984 10.985c1.133 1.133 1.133 2.969-.001 4.103l-18.179 18.178c-.567.567-1.31.851-2.053.851-.742 0-1.484-.283-2.051-.85l-10.984-10.985c-1.133-1.132-1.132-2.97.001-4.103l18.18-18.179c.566-.567 1.309-.85 2.052-.85m0-1.5c-1.176 0-2.282.458-3.113 1.291l-18.179 18.177c-.831.831-1.289 1.937-1.29 3.111 0 1.177.458 2.282 1.289 3.113l10.984 10.984c.831.831 1.936 1.289 3.111 1.289 1.176 0 2.282-.458 3.113-1.29l18.18-18.177c1.716-1.716 1.717-4.508.001-6.224l-10.985-10.985c-.831-.831-1.935-1.289-3.111-1.289z"/></svg>