<svg xmlns="http://www.w3.org/2000/svg" width="100" height="100" viewBox="0 0 100 100"><path fill="#8A2C25" d="M50.088-.034c27.614 0 50 22.386 50 50s-22.386 50-50 50-50-22.387-50-50c0-27.614 22.386-50 50-50z"/><path fill="#7F2923" d="M88.042 53.213c-3.563-13.296-4.746-26.094-3.852-36.813-.244-.241-.479-.489-.729-.725-1.358 11.238-.289 25.098 3.58 39.538 1.832 6.838 4.145 13.246 6.791 19.062.341-.682.656-1.379.967-2.078-2.632-5.796-4.933-12.176-6.757-18.984zM93.811 25.71c-2.976-.158-6.052-.628-9.158-1.46-13.132-3.518-22.74-12.234-24.641-21.284h-.434c.166 10.064 10.406 20.378 24.986 24.284 3.685.987 7.329 1.468 10.809 1.516-.487-1.039-1.008-2.058-1.562-3.056z"/><g fill="#822A23"><path d="M32.088 3.318c-1.362.526-2.698 1.104-4 1.743v68.939h4v-70.682zM42.088.611c-1.353.217-2.686.491-4 .815v72.575h4v-73.39zM93.088 24.454c-1.199-2.017-2.538-3.94-4-5.762v55.309h4v-49.547zM22.088 8.537c-1.386.938-2.718 1.947-4 3.016v62.448h4v-65.464zM72.088 5.062c-1.302-.639-2.638-1.217-4-1.743v70.683h4v-68.94zM8.088 22.852v51.149h4v-56.512c-1.449 1.694-2.785 3.484-4 5.363zM78.088 8.537v65.464h4v-62.448c-1.281-1.069-2.614-2.078-4-3.016zM62.088 1.426c-1.314-.324-2.647-.598-4-.815v73.39h4v-72.575zM52.088.017l-.649-.017h-2.703l-.648.017v73.984h4v-73.984z"/></g><path fill="#7F2923" d="M16.403 15.887c-.246.236-.479.484-.72.726.933 10.781-.229 23.689-3.8 37.108-1.769 6.649-3.993 12.885-6.53 18.576.329.656.668 1.306 1.024 1.944 2.526-5.676 4.743-11.893 6.506-18.521 3.876-14.567 4.921-28.539 3.52-39.833z"/><path fill="#7B2821" d="M8.088 70.178c1.485-3.702 2.819-7.619 4-11.689v-5.604l-.205.837c-1.096 4.118-2.383 8.055-3.795 11.827v4.629z"/><path fill="#772721" d="M16.034 24.425c-3.328.897-6.623 1.382-9.795 1.505-.543.988-1.046 2-1.523 3.027 3.607-.014 7.397-.499 11.23-1.532 14.594-3.936 24.851-14.32 25.039-24.459h-.26c-1.909 9.124-11.536 17.911-24.691 21.459z"/><path fill="#96423B" d="M50.088 27.966c17.121 0 31 13.879 31 31.001 0 17.121-13.879 31-31 31s-31-13.879-31-31c0-17.122 13.879-31.001 31-31.001z"/><g fill="#8D3E37"><path d="M32.088 33.735c-1.427 1.02-2.768 2.152-4 3.394v36.838h4v-40.232zM42.088 29.014c-1.373.366-2.709.819-4 1.362v43.591h4v-44.953zM22.088 72.281v-26.629c-1.922 4.034-3 8.548-3 13.314s1.078 9.28 3 13.315zM62.088 30.375c-1.291-.542-2.627-.996-4-1.362v44.953h4v-43.591zM78.088 45.652v26.629c1.922-4.035 3-8.548 3-13.314s-1.078-9.28-3-13.315zM72.088 37.129c-1.232-1.242-2.573-2.374-4-3.394v40.232h4v-36.838zM52.088 28.037c-.662-.042-1.327-.071-2-.071s-1.338.029-2 .071v45.93h4v-45.93z"/></g><path fill="#C88B4A" d="M20.087 89.967c8.357 6.278 18.744 10 30 10s21.644-3.722 30-10h-60z"/><path fill="#CE975C" d="M80.046 90h-59.916c.938.703 1.909 1.363 2.896 2h54.124c.988-.637 1.958-1.297 2.896-2z"/><path fill="#FAAE5D" d="M6.219 73.967c3.439 6.273 8.183 11.729 13.869 16h60c5.687-4.271 10.43-9.727 13.869-16h-87.738z"/><path fill="#EBA458" d="M9.37 78.967h81.436c1.143-1.602 2.2-3.266 3.151-5h-87.738c.95 1.734 2.009 3.398 3.151 5z"/><g fill="#F2A95A"><path d="M18.789 88.946c.429.345.858.689 1.298 1.021l11-16h-2l-10.298 14.979zM71.088 73.967h-2l11 16c.44-.331.87-.676 1.299-1.021l-10.299-14.979zM51.088 73.967h-2v25.975l1 .025 1-.025v-25.975z"/></g><path fill="#C28748" d="M51.088 89.967h-2v9.979l1 .021 1-.021v-9.979z"/><path fill="#C89259" d="M49.088 90h2v2h-2z"/><g fill="#E49F55"><path d="M74.525 78.967l-3.437-5h-2l3.437 5zM27.65 78.967l3.438-5h-2l-3.438 5z"/></g><path fill="#283E49" d="M37.088 55.967h26v24c0 2.209-5.82 4-13 4s-13-1.791-13-4v-24z"/><path fill="#3589A5" d="M63.088 58.967v7s-5.82 3-13 3-13-.791-13-3v-7h26z"/><path fill="#243842" d="M42.088 79.967v-24h-5v24s5.82 4 13 4c.855 0 1.69-.027 2.5-.076-5.983-.359-10.5-1.979-10.5-3.924z"/><path fill="#307B94" d="M42.088 68.498v-9.531h-5v7c0 1.279 1.96 2.081 5 2.531z"/><path fill="#324D5B" d="M50.088 50.967c11.046 0 20 2.686 20 6s-8.954 6-20 6-20-2.686-20-6 8.954-6 20-6z"/><path fill="#23353F" d="M50.088 53.967c5.522 0 10 1.344 10 3s-4.478 3-10 3c-5.523 0-10-1.344-10-3s4.476-3 10-3z"/><path fill="#1F3039" d="M50.088 54.967c4.953 0 9.055 1.082 9.85 2.5.092-.163.15-.329.15-.5 0-1.656-4.478-3-10-3-5.523 0-10 1.344-10 3 0 .171.059.337.15.5.795-1.418 4.896-2.5 9.85-2.5z"/><g fill="#7F2923"><path d="M22.088 25.286c2.145-.925 4.154-1.992 6-3.177v-2.962c-1.848 1.18-3.854 2.243-6 3.163v2.976zM38.088 9.367c-1.501 2.437-3.533 4.75-6 6.841v2.944c2.475-2.11 4.506-4.448 6-6.905v-2.88zM18.088 23.81c-.676.217-1.357.427-2.054.615-1.322.356-2.639.645-3.946.876v2.983c1.278-.229 2.565-.51 3.858-.859.726-.196 1.438-.412 2.142-.639v-2.976z"/></g><path fill="#7B2821" d="M62.088 8.368c-.979-1.762-1.692-3.574-2.076-5.402h-.434c.048 2.894.933 5.808 2.51 8.585v-3.183z"/><path fill="#772721" d="M68.088 18.726c1.224 1.067 2.561 2.078 4 3.019v-3.069c-1.437-.945-2.78-1.953-4-3.024v3.074zM78.088 24.982c1.284.563 2.62 1.073 4 1.527v-3.03c-1.382-.458-2.714-.978-4-1.546v3.049z"/><path fill="#7B2821" d="M89.088 62.005c1.206 3.677 2.547 7.195 4 10.535v-4.335c-1.477-3.607-2.812-7.417-4-11.382v5.182z"/><g fill="#E2574C"><path d="M84.462 13.675c-1.358 11.238-.289 25.098 3.58 39.538 1.832 6.838 4.145 13.246 6.791 19.062 3.356-6.717 5.255-14.289 5.255-22.309 0-14.295-6.008-27.178-15.626-36.291zM11.971 53.721c3.876-14.567 4.921-28.54 3.521-39.834-9.488 9.1-15.404 21.895-15.404 36.079 0 8.066 1.921 15.679 5.313 22.425 2.554-5.715 4.791-11.985 6.57-18.67z"/></g><path fill="#CC4F45" d="M2.222 53.213c-.435 1.622-.908 3.208-1.396 4.777.206 1.279.465 2.541.767 3.786.956-2.77 1.842-5.621 2.63-8.563 2.901-10.828 4.225-21.328 4.135-30.644-.716 1.091-1.396 2.208-2.027 3.356-.219 8.45-1.551 17.741-4.109 27.288zM13.985 15.486c1.043 10.902-.099 24.049-3.764 37.727-1.604 5.989-3.579 11.646-5.823 16.865.327.742.67 1.475 1.031 2.197 2.647-5.816 4.959-12.225 6.792-19.062 3.869-14.439 4.938-28.3 3.58-39.538-.62.589-1.226 1.192-1.816 1.811zM90.042 53.213c-3.665-13.678-4.807-26.824-3.764-37.727-.59-.619-1.195-1.223-1.816-1.811-1.358 11.238-.289 25.098 3.58 39.538 1.832 6.838 4.145 13.246 6.791 19.062.361-.723.705-1.455 1.032-2.197-2.244-5.22-4.219-10.876-5.823-16.865zM96.042 53.213c.788 2.942 1.674 5.794 2.63 8.563.302-1.245.561-2.507.767-3.786-.488-1.569-.962-3.155-1.396-4.777-2.558-9.547-3.891-18.838-4.108-27.288-.631-1.148-1.311-2.265-2.027-3.356-.091 9.316 1.233 19.816 4.134 30.644z"/><path fill="#CF5147" d="M6.239 25.93c-.542.988-1.046 1.999-1.522 3.025 3.607-.013 7.396-.497 11.229-1.531l.073-.021c.036-1.01.051-2.004.056-2.991l-.041.012c-3.327.898-6.623 1.383-9.795 1.506z"/><path fill="#BA4840" d="M8.247 25.804c-.673.058-1.341.101-2.004.126-.026.989-.068 1.99-.125 3.001.664-.025 1.333-.067 2.006-.125.055-1.011.098-2.013.123-3.002zM16.034 24.425c-.596.161-1.19.293-1.783.428-.014.985-.043 1.983-.088 2.992.594-.135 1.187-.258 1.784-.419l.25-.071c.041-1.013.061-2.01.07-2.998l-.233.068z"/><path fill="#CF5147" d="M93.709 25.702c-2.944-.164-5.985-.629-9.057-1.452l-.832-.247c.006 1.006.023 2.022.062 3.053l.682.194c3.648.978 7.256 1.456 10.704 1.511-.488-1.038-1.002-2.061-1.559-3.059z"/><path fill="#BA4840" d="M85.832 24.533c-.394-.094-.785-.177-1.18-.283l-.832-.247c.006 1.006.023 2.022.062 3.053l.682.194c.451.121.899.211 1.35.317-.043-1.023-.071-2.036-.082-3.034zM91.847 25.555c.021.991.064 1.997.117 3.011.672.062 1.336.106 1.998.137-.05-.934-.093-1.863-.116-2.777l-.129-.223c-.619-.035-1.243-.087-1.87-.148z"/><g fill="#E2574C"><path d="M59.711.9c.76 9.762 10.812 19.564 24.941 23.35 3.106.832 6.183 1.302 9.158 1.461-7.04-12.665-19.419-21.947-34.099-24.811zM6.239 25.93c3.172-.124 6.467-.608 9.795-1.505 14.194-3.828 24.282-13.755 24.998-23.625-15.013 2.747-27.684 12.189-34.793 25.13z"/></g><path fill="#CC4F45" d="M32.877 3.007c-2.327.853-4.572 1.876-6.722 3.05-2.155 1.857-4.646 3.54-7.421 4.972-1.892 1.525-3.67 3.184-5.32 4.965 8.5-2.598 15.378-7.395 19.463-12.987zM38.635 1.299c-2.072 9.004-11.607 17.621-24.601 21.125-2.179.588-4.343.992-6.469 1.242-.46.742-.904 1.496-1.326 2.263 3.172-.124 6.467-.608 9.795-1.505 14.194-3.828 24.282-13.755 24.998-23.625-.806.148-1.605.314-2.397.5zM92.438 23.398c-1.906-.252-3.84-.626-5.786-1.148-12.904-3.457-22.392-11.934-24.521-20.814-.8-.198-1.606-.376-2.42-.535.76 9.762 10.812 19.564 24.941 23.35 3.106.832 6.183 1.302 9.158 1.461-.436-.786-.895-1.556-1.372-2.314zM86.393 15.606c-1.956-2.066-4.076-3.974-6.357-5.683-1.549-.892-2.995-1.862-4.331-2.897-2.471-1.477-5.081-2.743-7.804-3.782 3.986 5.264 10.485 9.79 18.492 12.362z"/><path fill="#E2574C" d="M50.088 5.966c5.722 0 10.679-1.712 13.203-4.225-4.207-1.15-8.631-1.775-13.203-1.775s-8.996.625-13.204 1.775c2.526 2.513 7.483 4.225 13.204 4.225z"/><path fill="#CB4E44" d="M61.294 1.242c-2.741 1.662-6.727 2.724-11.206 2.724s-8.464-1.062-11.206-2.724c-.671.154-1.337.318-1.998.499 2.525 2.513 7.482 4.225 13.204 4.225s10.679-1.712 13.203-4.225c-.66-.18-1.326-.345-1.997-.499z"/></svg>