<svg xmlns="http://www.w3.org/2000/svg" width="100" height="100" viewBox="0 0 100 100"><path fill="#93D3E8" d="M50 0c27.614 0 50 22.386 50 50s-22.386 50-50 50-50-22.386-50-50 22.386-50 50-50z"/><path fill="#B3DBE8" d="M49 47h1v23h-1v-23z"/><path fill="#26A6D1" d="M59 54c-8.284 0-15 6.838-15 15.273 0 8.435 6.716 20.727 15 20.727s15-12.292 15-20.727-6.716-15.273-15-15.273z"/><path fill="#2295BC" d="M46 69.273c0-8.092 6.184-14.695 14-15.222-.332-.022-.662-.051-1-.051-8.284 0-15 6.838-15 15.273 0 8.435 6.716 20.727 15 20.727.336 0 .669-.027 1-.066-7.817-.933-14-12.569-14-20.661z"/><path fill-rule="evenodd" clip-rule="evenodd" fill="#E2574C" d="M50 14c-7.18 0-13 5.825-13 13.011 0 7.185 5.82 17.656 13 17.656s13-10.472 13-17.656c0-7.186-5.82-13.011-13-13.011z"/><path fill="#F4B459" d="M37 57c-8.284 0-15 6.838-15 15.273 0 8.435 6.716 20.727 15 20.727s15-12.292 15-20.727-6.716-15.273-15-15.273z"/><path fill="#F6C37A" d="M45.743 73.149c1.279-.374 1.688-2.907.912-5.658-.776-2.75-2.442-4.677-3.723-4.302-1.279.374-1.688 2.907-.911 5.657.776 2.752 2.443 4.678 3.722 4.303zm-.707 1.851c-.888 0-1.607.732-1.607 1.637 0 .903.72 1.637 1.607 1.637s1.606-.733 1.606-1.637c.001-.905-.718-1.637-1.606-1.637z"/><path fill="#DBA250" d="M24 72.273c0-8.092 6.184-14.695 14-15.222-.332-.022-.663-.051-1-.051-8.284 0-15 6.838-15 15.273 0 8.435 6.716 20.727 15 20.727.336 0 .669-.027 1-.066-7.817-.933-14-12.569-14-20.661z"/><path fill="#EFC75E" d="M74 64c-8.284 0-15 6.838-15 15.273 0 5.864 3.248 13.588 8.01 17.754 8.642-3.126 16.172-8.568 21.85-15.575.089-.746.14-1.476.14-2.179 0-8.435-6.716-15.273-15-15.273z"/><path fill="#3DB39E" d="M24 67c-7.206 0-13.22 5.176-14.665 12.075 5.96 8.32 14.404 14.732 24.254 18.155 3.306-4.306 5.411-10.235 5.411-14.957 0-8.435-6.716-15.273-15-15.273z"/><path fill="#5ABEAC" d="M32.743 83.149c1.279-.374 1.688-2.907.912-5.657-.776-2.751-2.442-4.678-3.723-4.303-1.279.374-1.688 2.907-.911 5.657.776 2.752 2.443 4.677 3.722 4.303zm-.707 1.851c-.888 0-1.607.732-1.607 1.637 0 .903.72 1.637 1.607 1.637s1.606-.733 1.606-1.637c.001-.905-.718-1.637-1.606-1.637z"/><path fill="#F4D88F" d="M82.743 80.149c1.279-.374 1.688-2.907.912-5.657-.776-2.751-2.442-4.678-3.723-4.304-1.279.375-1.688 2.908-.911 5.659.776 2.751 2.443 4.677 3.722 4.302zm-.707 1.852c-.888 0-1.607.731-1.607 1.636s.72 1.637 1.607 1.637 1.606-.732 1.606-1.637-.718-1.636-1.606-1.636z"/><path fill="#A9DCED" d="M41 7h-15c-1.104 0-2 .896-2 2s.896 2 2 2c.828 0 1.5.672 1.5 1.5s-.672 1.5-1.5 1.5h-5c-1.104 0-2 .896-2 2s.896 2 2 2h14c1.104 0 2-.896 2-2s-.896-2-2-2h-2v-.003c-.813-.017-1.469-.68-1.469-1.497s.655-1.479 1.469-1.497v-.003h8c1.104 0 2-.896 2-2s-.896-2-2-2z"/><path fill="#E2574C" d="M50.003 43.988h-1.012l-.979 3.004h2.98z"/><path fill="#EE9A94" d="M57.577 27.757c1.109-.318 1.463-2.477.79-4.819-.672-2.343-2.116-3.984-3.226-3.666-1.108.319-1.463 2.478-.79 4.82.673 2.344 2.118 3.984 3.226 3.665zm-.613 1.577c-.769 0-1.393.624-1.393 1.394s.624 1.394 1.393 1.394c.77 0 1.394-.624 1.394-1.394s-.625-1.394-1.394-1.394z"/><path fill="#C4E7F2" d="M97.031 33h-2.031v-.003c-.813-.017-1.469-.68-1.469-1.497s.655-1.48 1.469-1.497v-.003h.828c-.908-2.076-1.944-4.083-3.113-6h-11.715c-1.657 0-3 1.343-3 3s1.343 3 3 3h7c.828 0 1.5.672 1.5 1.5s-.672 1.5-1.5 1.5h-4.5c-1.381 0-2.5 1.119-2.5 2.5s1.119 2.5 2.5 2.5h15.04c-.419-1.702-.921-3.372-1.509-5z"/><path fill="#E2574C" d="M50.003 43.988h-1.012l-.979 3.004h2.98z"/><path fill="#AA4239" d="M50 44.667c-.404 0-.803-.038-1.197-.102l-.142.435h1.675l-.113-.343-.223.01z"/><path fill-rule="evenodd" clip-rule="evenodd" fill="#CB4E44" d="M39 27.011c0-6.848 5.289-12.447 12-12.96-.331-.026-.663-.051-1-.051-7.18 0-13 5.825-13 13.011 0 7.185 5.82 17.656 13 17.656.337 0 .67-.03 1-.075-6.712-.907-12-10.734-12-17.581z"/><path fill="#D7B354" d="M61 79.273c0-8.092 6.185-14.695 14-15.222-.332-.022-.662-.051-1-.051-8.284 0-15 6.838-15 15.273 0 5.864 3.248 13.588 8.01 17.754.475-.172.933-.377 1.401-.562-4.431-4.27-7.411-11.578-7.411-17.192z"/><path fill="#E19178" d="M54 75c-8.284 0-15 6.838-15 15.273 0 2.742.714 5.893 1.957 8.896 2.935.536 5.954.831 9.043.831 6.326 0 12.373-1.187 17.944-3.331.679-2.205 1.056-4.407 1.056-6.396 0-8.435-6.716-15.273-15-15.273z"/><path fill="#EDBDAE" d="M58.743 94.149c1.279-.374 1.688-2.907.912-5.657-.776-2.751-2.442-4.678-3.723-4.303-1.279.374-1.688 2.907-.911 5.657.776 2.752 2.443 4.678 3.722 4.303zm-.707 1.851c-.888 0-1.607.732-1.607 1.637 0 .903.72 1.637 1.607 1.637s1.606-.733 1.606-1.637c.001-.905-.719-1.637-1.606-1.637z"/><path fill="#CA826C" d="M42.957 99.169c-1.243-3.003-1.957-6.153-1.957-8.896 0-8.092 6.184-14.695 14-15.222-.332-.022-.662-.051-1-.051-8.284 0-15 6.838-15 15.273 0 2.742.714 5.893 1.957 8.896 2.935.536 4.618.478 2 0z"/><path fill="#E2574C" d="M30 84c-4.437 0-8.412 1.973-11.158 5.091 7.32 5.843 16.31 9.68 26.146 10.659l.012-.477c0-8.435-6.716-15.273-15-15.273z"/><path fill="#CA4E44" d="M31.045 84.054c-.347-.025-.692-.054-1.045-.054-4.437 0-8.412 1.973-11.158 5.091.376.301.761.593 1.146.883 2.981-3.38 7.089-5.518 11.057-5.92z"/><path fill="#37A18E" d="M24.918 67.047c-.305-.019-.608-.047-.918-.047-7.206 0-13.22 5.176-14.665 12.075.51.712 1.045 1.405 1.591 2.089 1.671-8.975 7.454-13.654 13.992-14.117z"/></svg>