<svg xmlns="http://www.w3.org/2000/svg" width="100" height="100" viewBox="0 0 100 100"><g fill="#405E6D"><path d="M87 55.5c0 5.756 4.633 10.424 10.371 10.493 1.696-5.023 2.629-10.397 2.629-15.993 0-1.602-.083-3.184-.23-4.747-.732-.161-1.49-.253-2.27-.253-5.799 0-10.5 4.701-10.5 10.5z"/><circle cx="64.5" cy="55.5" r="10.5"/></g><path fill="#EDEDED" d="M50 0c27.614 0 50 22.386 50 50s-22.386 50-50 50-50-22.386-50-50 22.386-50 50-50z"/><path fill="#1D323D" d="M45.996 18.992c-4.973 0-9.003 3.136-9.003 7.005h18.007c0-1.396-.113-3.562-1.68-5.127-1.205-1.205-4.145-1.878-7.324-1.878z"/><path fill="#324D5B" d="M38.396 24.271c-.678.677-6.44 5.608-10.285 25.01-.369 1.857-4.146 20.752-.569 29.706 8.648.688 9.121 2.876 16.509 2.808.739-.82 3.141-1.837 3.82-2.979 4.193-7.033 7.129-18.816 7.129-18.816h43.998c.655-3.231 1.002-6.575 1.002-10 0-9.949-2.918-19.211-7.927-27h-38.073s-9.599-4.734-15.604 1.271z"/><g fill="#405E6D"><path d="M87 55.5c0 5.756 4.633 10.424 10.371 10.493 1.696-5.023 2.629-10.397 2.629-15.993 0-1.602-.083-3.184-.23-4.747-.732-.161-1.49-.253-2.27-.253-5.799 0-10.5 4.701-10.5 10.5z"/><circle cx="64.5" cy="55.5" r="10.5"/></g><path fill="#1D323D" d="M90.718 21h-27.718c-1.104 0-2 .896-2 2v12c0 3.314 2.687 6 6 6h32.177c-1.338-7.354-4.281-14.145-8.459-20z"/><path fill="#2D404B" d="M93.294 25h-32.294v3h33.904c-.502-1.021-1.042-2.02-1.61-3z"/><g fill="#2B414D"><circle cx="64.5" cy="55.5" r="7.5"/><path d="M90 55.5c0 4.143 3.357 7.5 7.5 7.5.269 0 .533-.016.795-.043 1.106-4.134 1.705-8.475 1.705-12.957 0-.529-.023-1.053-.04-1.578-.772-.27-1.597-.422-2.46-.422-4.143 0-7.5 3.357-7.5 7.5z"/></g><path fill="#436475" d="M48.391 77.91c-.834 1.511-1.723 2.854-2.652 3.885-4.963 5.505-15.673 3.509-18.196-2.808-.86-2.154-1.296-4.884-1.454-7.812 6.624 6.411 12.157 7.19 22.302 6.735z"/><path fill="#2B414D" d="M45.5 29c6.352 0 11.5 5.148 11.5 11.5s-5.148 11.5-11.5 11.5-11.5-5.148-11.5-11.5 5.148-11.5 11.5-11.5z"/><path fill="#436475" d="M45.857 38.014s2.151-2.133 2.151-2.808v-2.809c0-.775-.642-1.404-1.435-1.404h-2.15c-.793 0-1.435.629-1.435 1.404v2.809c0 .668 2.151 2.808 2.151 2.808h.718zm-.716 4.979s-2.151 2.14-2.151 2.809v2.808c0 .775.642 1.404 1.435 1.404h2.15c.793 0 1.435-.629 1.435-1.404v-2.808c0-.676-2.151-2.809-2.151-2.809h-.718zm-2.149-2.846s-2.125-2.136-2.799-2.136h-2.798c-.772 0-1.399.638-1.399 1.424v2.136c0 .786.627 1.424 1.399 1.424h2.798c.667 0 2.799-2.136 2.799-2.136v-.712zm10.612-2.135h-2.799c-.673 0-2.799 2.136-2.799 2.136v.712s2.133 2.136 2.799 2.136h2.799c.772 0 1.398-.638 1.398-1.424v-2.136c0-.787-.626-1.424-1.398-1.424z"/><path fill="#283D48" d="M81 49c1.656 0 3 1.343 3 3s-1.344 3-3 3-3-1.343-3-3 1.344-3 3-3z"/><path fill="#74838A" d="M81 51c.553 0 1 .447 1 1s-.447 1-1 1-1-.447-1-1 .447-1 1-1z"/><path fill="#293C47" d="M63 35v-12c0-1.104.896-2 2-2h-2c-1.104 0-2 .896-2 2v12c0 3.314 2.687 6 6 6h2c-3.313 0-6-2.686-6-6z"/><path fill="#384A54" d="M61 25h2v3h-2z"/><g fill="#405E6D"><path d="M97.5 50c-3.037 0-5.5 2.463-5.5 5.5s2.463 5.5 5.5 5.5c.452 0 .889-.061 1.309-.163.73-3.303 1.135-6.727 1.177-10.239-.749-.379-1.59-.598-2.486-.598z"/><circle cx="64.5" cy="55.5" r="5.5"/></g></svg>