<svg xmlns="http://www.w3.org/2000/svg" width="100" height="100" viewBox="0 0 100 100"><circle fill="#2EA9D3" cx="50" cy="50" r="50"/><path fill="#344955" d="M8.825 78.357c3.458 5.012 7.806 9.359 12.817 12.817l37.77-37.77-12.818-12.816-37.769 37.769z"/><path fill="#EFC75E" d="M82.003 30.503c-7.501-.835-11.668-5.004-12.501-12.5-.834 7.497-5.001 11.666-12.501 12.5 7.5.832 11.667 5 12.501 12.499.833-7.499 5-11.667 12.501-12.499zm-6.502 23.499c-.566 5.097-3.4 7.933-8.501 8.5 5.101.565 7.935 3.4 8.501 8.499.566-5.099 3.4-7.934 8.501-8.499-5.101-.567-7.935-3.403-8.501-8.5zm-40-37c-.633 5.697-3.8 8.866-9.5 9.5 5.7.633 8.867 3.801 9.5 9.499.634-5.698 3.801-8.866 9.501-9.499-5.7-.634-8.867-3.803-9.501-9.5z"/><path fill="#E4E7E7" d="M83.501 41c-.301 2.699-1.801 4.2-4.501 4.501 2.7.299 4.2 1.8 4.501 4.499.3-2.699 1.8-4.2 4.5-4.499-2.7-.301-4.2-1.802-4.5-4.501zm-59-2c-.301 2.699-1.801 4.2-4.501 4.5 2.7.299 4.2 1.8 4.501 4.5.3-2.699 1.8-4.2 4.5-4.5-2.7-.3-4.2-1.801-4.5-4.5zm34.5-20.5c-2.7-.3-4.2-1.801-4.5-4.5-.301 2.699-1.801 4.2-4.501 4.5 2.7.299 4.2 1.8 4.501 4.5.3-2.699 1.8-4.2 4.5-4.5zm.5 53.5c-.301 2.699-1.801 4.2-4.501 4.501 2.7.3 4.2 1.8 4.501 4.499.3-2.699 1.8-4.199 4.5-4.499-2.7-.301-4.2-1.802-4.5-4.501z"/><path fill="#314551" d="M50.973 44.967l-4.379-4.378-37.769 37.768c1.192 1.728 2.498 3.371 3.892 4.932l38.256-38.322z"/><path fill="#CCD0D2" d="M43.107 56.804c-3.111-3.145-4.721-6.743-4.043-8.686l-3.043 3.044c-.684 1.94.938 5.556 4.055 8.703 3.294 3.327 7.103 4.963 8.927 3.948l3.092-3.092c-1.801 1.084-5.657-.556-8.988-3.917z"/><path fill="#3A5563" d="M55.851 44.148c3.539 3.54 5.133 7.684 3.561 9.257-1.573 1.573-5.718-.021-9.257-3.56-3.54-3.539-5.134-7.684-3.561-9.257s5.718.021 9.257 3.56z"/></svg>