<svg xmlns="http://www.w3.org/2000/svg" width="100" height="100" viewBox="0 0 100 100"><path fill="#E2574C" d="M50 0c27.614 0 50 22.386 50 50s-22.386 50-50 50-50-22.386-50-50 22.386-50 50-50z"/><g fill="#D95449"><path d="M27.907 94.856l22.093-44.856-44.856 22.094c4.87 9.867 12.895 17.892 22.763 22.762zM72.093 5.144l-22.093 44.856 44.856-22.093c-2.432-4.928-5.644-9.401-9.486-13.247l-.03-.03c-3.847-3.843-8.319-7.055-13.247-9.486z"/></g><path fill="#E4645A" d="M94.855 72.095l-44.85-22.074-22.099-44.877c-4.932 2.434-9.408 5.648-13.256 9.496l-.01.01c-3.848 3.849-7.062 8.326-9.497 13.258l44.857 22.108 22.093 44.841c9.867-4.87 17.893-12.895 22.762-22.762z"/><path fill="#324D5B" d="M50 33c9.389 0 17 7.611 17 17s-7.611 17-17 17-17-7.611-17-17 7.611-17 17-17z"/><path fill="#304A57" d="M34.764 57.505c1.655 3.354 4.378 6.076 7.732 7.731l7.504-15.236-15.236 7.505zM65.236 42.496c-1.655-3.354-4.378-6.077-7.732-7.732l-7.504 15.236 15.236-7.504z"/><path fill="#425B68" d="M50.005 50.021l-7.513-15.256c-3.355 1.657-6.078 4.382-7.733 7.739l15.241 7.512 7.5 15.223c3.354-1.653 6.075-4.373 7.731-7.724l-15.226-7.494z"/><path fill="#F2F1EF" d="M50.002 56.176l4.936 2.72c.425.234.921-.144.84-.639l-.943-5.761 3.993-4.079c.344-.351.154-.962-.32-1.034l-5.519-.84-2.468-5.241c-.212-.45-.825-.45-1.037 0l-2.469 5.241-5.519.84c-.475.072-.664.684-.32 1.034l3.993 4.079-.942 5.761c-.081.495.415.873.839.639l4.936-2.72z"/><path fill="#E9E8E6" d="M52.36 45.208l-2.36 4.792 6.067-2.988-3.079-.469zM45.169 52.496l-.942 5.761c-.081.495.415.873.839.639l.759-.418 4.175-8.478-4.908 2.418.077.078z"/><path fill="#F3F2F0" d="M50.005 50.021l-2.366-4.804-.625 1.326-3.103.472 6.088 3 4.165 8.454.772.426c.425.234.921-.144.84-.639l-.943-5.761.065-.066-4.893-2.408z"/><path fill="#F2F1EF" d="M50 10c-22.092 0-40 17.908-40 40s17.908 40 40 40 40-17.908 40-40-17.908-40-40-40zm0 69c-16.017 0-29-12.983-29-29s12.983-29 29-29 29 12.983 29 29-12.983 29-29 29z"/><path fill="#E9E8E6" d="M67.674 14.115l-4.86 9.868c5.724 2.825 10.379 7.479 13.203 13.203l9.869-4.86c-3.896-7.895-10.318-14.316-18.212-18.211zM32.325 85.885l4.861-9.868c-5.723-2.824-10.378-7.479-13.203-13.202l-9.868 4.86c3.896 7.894 10.316 14.314 18.21 18.21z"/><g fill="#F3F2F0"><path d="M14.113 32.329l9.867 4.863c2.823-5.725 7.479-10.382 13.203-13.207l-4.86-9.869c-7.894 3.896-14.315 10.318-18.21 18.213zM85.883 67.679l-9.869-4.857c-2.825 5.721-7.48 10.374-13.203 13.197l4.862 9.867c7.893-3.895 14.314-10.315 18.21-18.207z"/></g></svg>