<svg xmlns="http://www.w3.org/2000/svg" width="100" height="100" viewBox="0 0 100 100"><path fill="#EFC75E" d="M50 0c27.614 0 50 22.386 50 50s-22.386 50-50 50-50-22.386-50-50 22.386-50 50-50z"/><path fill="#324D5B" d="M95.376 71h-90.751c7.937 17.12 25.264 29 45.375 29s37.438-11.88 45.376-29z"/><path fill="#E36055" d="M43 27c-7.732 0-14 6.268-14 14v54.375c.458.212.916.425 1.381.624h39.238c17.861-7.627 30.381-25.35 30.381-45.999 0-8.296-2.032-16.113-5.608-23h-51.392z"/><path fill="#C15248" d="M33 50l8 21h-8v-21z"/><path fill="#C04A41" d="M55.86 48.141l-.838-5.141-.875 5.138c-.965.288-1.717 1.04-2.008 2.003l-5.139.836 5.138.877c.288.964 1.04 1.717 2.004 2.007l.843 5.139.869-5.139c.963-.287 1.717-1.04 2.006-2.002l5.14-.845-5.139-.868c-.288-.963-1.039-1.716-2.001-2.005zm34.001 2.005c-.288-.963-1.039-1.716-2.001-2.005l-.838-5.141-.875 5.138c-.965.288-1.717 1.04-2.008 2.003l-5.139.836 5.138.877c.288.964 1.04 1.717 2.004 2.007l.843 5.139.869-5.139c.963-.287 1.717-1.04 2.006-2.002l5.14-.845-5.139-.868z"/><path fill="#E2574C" d="M23 43c-6.627 0-12 5.373-12 12 0 5.223 3.342 9.653 8 11.303v28.697c0 2.762 2.239 5 5 5h6c2.762 0 5-2.238 5-5v-40c0-6.627-5.373-12-12-12z"/><path fill="#C04A41" d="M23.034 67.773c-1.421 0-2.78-.248-4.047-.682v3.568c.334.026.67.05 1.012.05 4.128 0 7.771-1.997 9.964-5.043-1.966 1.325-4.352 2.107-6.929 2.107z"/><path fill="#C74D43" d="M23 50c2.761 0 5 2.238 5 5s-2.239 5-5 5-5-2.238-5-5 2.239-5 5-5z"/><path fill="#CB4E44" d="M97.031 67h-58.031c-3.866 0-7 3.134-7 7v6c0 1.656 1.343 3 3 3h52.547c4.091-4.65 7.337-10.061 9.484-16z"/><path fill="#E2574C" d="M35 83v14.708c4.735 1.487 9.773 2.292 15 2.292 14.965 0 28.384-6.582 37.547-17h-52.547z"/><path fill="#C04A41" d="M35 83v14.708c.986.31 1.988.583 3 .832v-12.54h46.679c.997-.96 1.954-1.961 2.868-3h-52.547z"/><path fill="#E67066" d="M43 31h53.227c-.561-1.361-1.161-2.702-1.835-4h-51.392c-7.732 0-14 6.268-14 14v4c0-7.732 6.268-14 14-14z"/></svg>