<svg xmlns="http://www.w3.org/2000/svg" width="100" height="100" viewBox="0 0 100 100"><path fill="#F4F0D3" d="M50 0c27.614 0 50 22.386 50 50s-22.386 50-50 50-50-22.386-50-50 22.386-50 50-50z"/><path fill="#E2574C" d="M23.432 52h53.138c2.047 0 3.934 1.114 4.927 2.911l10.089 30.549c2.018 7.311-3.463 14.54-11.024 14.54h-61.134c-7.555 0-13.031-7.223-11.014-14.527l10.091-30.562c.995-1.797 2.88-2.911 4.927-2.911z"/><g fill="#C24B41"><path d="M72 68.504l-.011.392.011.104v-.496zM75 69c0-.342-.035-.674-.09-1-.325 1.932-1.582 3.532-3.281 4.368.212-1.138.338-2.298.36-3.473-.007-.198-.031-.393-.075-.579-.129 1.473-.42 2.914-.841 4.312-.645.238-1.344.372-2.073.372-2.972 0-5.433-2.163-5.91-5-.055.326-.09.658-.09 1 0 3.314 2.687 6 6 6 .433 0 .854-.048 1.26-.135-3.404 8.087-11.447 14.127-20.457 14.127-9.749 0-17.517-5.807-20.478-14.234.532.155 1.093.242 1.675.242 3.313 0 6-2.686 6-6 0-.342-.035-.674-.09-1-.477 2.837-2.938 5-5.91 5-.832 0-1.615-.184-2.334-.49-.315-1.326-.523-2.702-.602-4.122-.042.198-.064.402-.064.612v.03c0 1.121.101 2.209.249 3.279-1.638-.853-2.841-2.424-3.159-4.31-.055.327-.09.659-.09 1.001 0 2.485 1.511 4.618 3.665 5.528 2.3 9.614 10.551 16.464 21.138 16.464 9.828 0 18.518-7.179 21.276-16.37 2.287-.846 3.921-3.04 3.921-5.622z"/></g><path fill="#C24B41" d="M81.856 56l-.359-1.089c-.993-1.797-2.88-2.911-4.927-2.911h-53.138c-2.046 0-3.932 1.114-4.926 2.911l-.36 1.089h28.409c.693 1.19 1.969 2 3.445 2s2.752-.81 3.445-2h28.411z"/><g fill="#D85349"><path d="M13.896 68.871l9.882 31.129h1.999l-10.862-34.217zM18.505 54.911l-.531 1.608 13.803 43.481h2l-14.61-46.021c-.246.287-.474.593-.662.932zM24.54 52l15.237 48h2l-15.237-48zM17.734 99.862l-6.897-21.727-1.02 3.088 5.747 18.102c.691.249 1.418.426 2.17.537zM72.54 52l14.577 45.919c.565-.398 1.094-.844 1.576-1.335l-14.153-44.584h-2zM32.54 52l15.237 48h2l-15.237-48zM56.54 52l15.237 48h2l-15.237-48zM66.54 52h-2l15.237 48h.785c.404 0 .8-.03 1.192-.071l-15.214-47.929zM40.539 52l15.238 48h2l-15.238-48zM48.539 52l15.238 48h2l-15.237-48z"/></g><path fill="#E2574C" d="M43.525 14.414c.475.28.639.902.363 1.389l-7.457 13.211-3.445-2.034 6.464-11.45c.823-1.459 2.649-1.959 4.075-1.116z"/><path fill="#324D5B" d="M37.201 19.122l3.331 1.948c.46.269.617.864.353 1.33l-5.771 10.121c-.266.466-.854.625-1.313.356l-3.331-1.947c-.461-.27-.618-.865-.353-1.331l5.771-10.121c.264-.465.852-.624 1.313-.356z"/><path fill="#3DB39E" d="M60.975 27.876l-.6-2.865-3.979 1.048.6 2.865c.294 1.08-.358 2.189-1.456 2.479-1.1.289-1.752 1.399-1.457 2.479l1.896 6.954c.425 1.559 2.055 2.483 3.64 2.066l6.196-1.632c1.586-.418 2.525-2.02 2.102-3.577l-1.896-6.955c-.295-1.079-1.424-1.721-2.523-1.431-1.1.29-2.229-.351-2.523-1.431z"/><g fill="#C24B41"><path d="M72 69v-.496l-.011.392.011.104zM49.803 88.992c-12.053 0-21.085-8.872-21.739-20.604-.042.198-.064.402-.064.612v.03c0 12.403 9.286 21.962 21.803 21.962 11.798 0 21.964-10.342 22.187-22.097-.007-.198-.031-.393-.075-.579-.975 11.155-10.793 20.676-22.112 20.676z"/></g><path fill="#B5463D" d="M71.862 68.766c-.145 1.308-.408 2.59-.782 3.837l.56 1.763c.607-.299 1.16-.688 1.631-1.164l-.498-1.567c-.352.284-.733.532-1.144.734.198-1.064.312-2.149.347-3.247l-.114-.356z"/><path fill="#324D5B" d="M37.201 19.122l3.331 1.948c.46.269.617.864.353 1.33l-5.771 10.121c-.266.466-.854.625-1.313.356l-3.331-1.947c-.461-.27-.618-.865-.353-1.331l5.771-10.121c.264-.465.852-.624 1.313-.356z"/><path fill="#C24B41" d="M55 69h-10c-.553 0-1-.447-1-1v1c0 .553.447 1 1 1h10c.553 0 1-.447 1-1v-1c0 .553-.447 1-1 1z"/><path fill="#B5463D" d="M47.936 69h-2l.317 1h2zM55.8 68.569c-.181.254-.464.431-.8.431h-1.064l.318 1h.746c.51 0 .912-.386.976-.878l-.176-.553zM19.809 56l-.642-2.021c-.116.135-.226.274-.332.42-.116.165-.231.333-.331.513l-.358 1.088h1.663z"/><g fill="#B5463D"><path d="M34.284 82.694l.913 2.875c.823.733 1.7 1.404 2.636 2.003l-.814-2.563c-.979-.696-1.895-1.466-2.735-2.315zM42.622 83.759l2.116 6.666c.691.153 1.396.273 2.116.363l-1.292-4.068-2.94-2.961zM52.231 88.832l.612 1.926c.635-.096 1.261-.224 1.88-.377l-.592-1.863c-.624.135-1.259.236-1.9.314zM59.51 86.559l.545 1.717c.573-.318 1.13-.664 1.674-1.03l-.529-1.666c-.55.35-1.112.678-1.69.979zM65.937 81.602l.471 1.48c.503-.583.978-1.189 1.423-1.818l-.443-1.396c-.455.602-.943 1.177-1.451 1.734zM24.54 52l1.27 4h2l-1.27-4zM34.54 52h-2l1.27 4h2zM42.539 52h-2l1.27 4h2zM58.54 52h-2l1.27 4h2zM66.54 52h-2l1.27 4h2zM74.54 52h-2l1.27 4h2zM48.539 52l1.896 5.971c.661-.073 1.268-.31 1.789-.667l-1.684-5.304h-2.001z"/></g><path fill="#EFC75E" d="M45 65h10c.553 0 1 .447 1 1v2c0 .553-.447 1-1 1h-10c-.553 0-1-.447-1-1v-2c0-.553.447-1 1-1zM31 61c-3.313 0-6 2.687-6 6 0 3.314 2.687 6 6 6s6-2.686 6-6c0-3.313-2.687-6-6-6zm38 0c-3.313 0-6 2.687-6 6 0 3.314 2.687 6 6 6s6-2.686 6-6c0-3.313-2.687-6-6-6z"/><path fill="#CB4E44" d="M31 64.004c1.657 0 3 1.342 3 2.996v.189c0 8.739 7.164 16.824 16 16.824 8.837 0 16-8.085 16-16.824v-.189c0-1.654 1.344-2.996 3-2.996 1.657 0 3 1.342 3 2.996v-.496c0 11.916-10.269 22.488-22.197 22.488-12.517 0-21.803-9.558-21.803-21.962v-.03c0-1.654 1.344-2.996 3-2.996z"/><g fill="#CD774A"><path d="M71.617 72.416s.35-2.346.372-3.521c-.007-.198-.031-.393-.075-.579-.129 1.472-.852 4.355-.852 4.355l.555-.255zM28.688 72.547s-.545-2.739-.624-4.159c-.042.198-.064.402-.064.612v.03c0 1.121.271 3.316.271 3.316l.417.201z"/></g><path fill="#EFC75E" d="M19 50h62c1.104 0 2 .896 2 2s-.896 2-2 2h-62c-1.104 0-2-.896-2-2s.896-2 2-2z"/><path fill="#D7B354" d="M50 48c2.209 0 4 1.791 4 4s-1.791 4-4 4-4-1.791-4-4 1.791-4 4-4z"/><g fill="#CD774A"><path d="M46.142 53c-.084.321-.142.652-.142 1h.564c-.18-.312-.33-.643-.422-1zM53.436 54h.564c0-.348-.059-.679-.142-1-.092.357-.242.688-.422 1z"/></g><path fill="#2B424E" d="M34.3 32.002l-3.331-1.947c-.461-.27-.618-.865-.353-1.331l-.5.875c-.266.466-.108 1.062.353 1.331l3.331 1.947c.46.269 1.048.109 1.313-.356l.497-.871c-.267.462-.851.62-1.31.352z"/><path fill="#37A18E" d="M66.814 40.271l-6.196 1.632c-1.585.417-3.215-.508-3.64-2.066l-1.896-6.954c-.129-.47-.068-.942.121-1.354-.891.407-1.385 1.391-1.121 2.354l1.896 6.954c.425 1.559 2.055 2.483 3.64 2.066l6.196-1.632c.792-.208 1.422-.712 1.803-1.358-.246.15-.509.28-.803.358z"/><path fill="#324D5B" d="M57.275 23.088c1.637-.416 3.319.506 3.758 2.058l.927 3.278c.22.775-.267 1.573-1.085 1.781l-2.964.753c-.818.208-1.659-.253-1.879-1.028l-.927-3.278c-.438-1.552.534-3.148 2.17-3.564z"/></svg>