<svg xmlns="http://www.w3.org/2000/svg" width="100" height="100" viewBox="0 0 100 100"><path fill="#91D8F0" d="M50 0c27.614 0 50 22.386 50 50s-22.386 50-50 50-50-22.386-50-50 22.386-50 50-50z"/><path fill="#EFC75E" d="M.25 45c-.164 1.645-.25 3.312-.25 5 0 27.614 22.386 50 50 50s50-22.386 50-50c0-1.688-.086-3.355-.25-5h-99.5z"/><path fill="#E6BF5A" d="M10 80h80.001c3.97-5.285 6.909-11.385 8.539-18h-97.08c1.63 6.615 4.569 12.715 8.54 18z"/><path fill="#DCB757" d="M90.001 80h-80.001c9.122 12.144 23.643 20 40 20s30.879-7.856 40.001-20z"/><path fill="#5B717C" d="M58.989 45.012l-17.989-.012-19.961 45.745c8.173 5.82 18.163 9.255 28.961 9.255 10.797 0 20.787-3.434 28.96-9.253l-19.971-45.735z"/><path fill="#324D5B" d="M55.989 45.012l-11.989-.012-20.642 47.303c7.715 4.869 16.846 7.697 26.642 7.697s18.926-2.828 26.64-7.695l-20.651-47.293z"/><path fill="#70838D" d="M50 86c-.552 0-1 .447-1 1v5c0 .553.448 1 1 1 .553 0 1-.447 1-1v-5c0-.553-.447-1-1-1zm0-13c-.552 0-1 .447-1 1v5c0 .553.448 1 1 1 .553 0 1-.447 1-1v-5c0-.553-.447-1-1-1zm0-12c-.552 0-1 .447-1 1v5c0 .553.448 1 1 1 .553 0 1-.447 1-1v-5c0-.553-.447-1-1-1zm0-11c-.552 0-1 .447-1 1v5c0 .553.448 1 1 1 .553 0 1-.447 1-1v-5c0-.553-.447-1-1-1z"/><path fill="#3DB39E" d="M25.535 47.992l-.004.008h-3.531v4c0 1.104-.896 2-2 2s-2-.896-2-2v-5h-3.531l-.004-.007c-.811-.02-1.465-.677-1.465-1.493v-4c0-.828.671-1.5 1.5-1.5s1.5.672 1.5 1.5v2.5h2v-6c0-1.104.896-2 2-2s2 .896 2 2v7h2v-2.5c0-.828.671-1.5 1.5-1.5s1.5.672 1.5 1.5v4c0 .816-.654 1.473-1.465 1.492z"/><path fill="#C3EAF7" d="M47 24h-7c-.828 0-1.5-.671-1.5-1.5 0-.828.672-1.5 1.5-1.5h4.5c1.381 0 2.5-1.119 2.5-2.5s-1.119-2.5-2.5-2.5h-19c-1.38 0-2.5 1.119-2.5 2.5s1.12 2.5 2.5 2.5h7.5v.003c.813.017 1.469.68 1.469 1.497 0 .818-.655 1.479-1.469 1.496v.004h-4c-1.657 0-3 1.344-3 3s1.343 3 3 3h18c1.657 0 3-1.344 3-3s-1.343-3-3-3z"/><path fill="#A7E0F3" d="M82.5 14h-14c-1.104 0-2 .896-2 2.001 0 1.104.896 1.999 2 1.999h2v.003c.814.018 1.469.68 1.469 1.497 0 .818-.654 1.48-1.469 1.498v.003h-8c-1.104 0-2 .896-2 1.999 0 1.104.896 2 2 2h15c1.104 0 2-.896 2-2s-.896-1.999-2-1.999c-.828 0-1.5-.672-1.5-1.501 0-.828.672-1.5 1.5-1.5h5c1.104 0 2-.896 2-1.999 0-1.105-.896-2.001-2-2.001z"/><path fill="#EFC75E" d="M84 6.08c5.479 0 9.921 4.442 9.921 9.922 0 5.479-4.441 9.92-9.921 9.92s-9.921-4.442-9.921-9.92c0-5.481 4.442-9.922 9.921-9.922z"/><path fill="#fff" d="M84 7.001c4.963 0 9 4.038 9 9.001 0 4.962-4.037 8.999-9 8.999s-9-4.037-9-8.999c0-4.963 4.037-9.001 9-9.001m0-2c-6.075 0-11 4.925-11 11.001 0 6.074 4.925 10.999 11 10.999s11-4.925 11-10.999c0-6.076-4.925-11.001-11-11.001z"/><g fill="#37A18E"><path d="M25 44v-2.5c0-.15.029-.293.07-.43-.617.186-1.07.752-1.07 1.43v1.5h1zM19 43v-6c0-.293.066-.569.18-.82-.695.314-1.18 1.008-1.18 1.82v5h1zM26.535 46.992l-.004.008h-3.531v1h2.531l.004-.008c.664-.016 1.216-.461 1.396-1.069-.126.038-.257.066-.396.069zM21 53c-1.104 0-2-.896-2-2v-5h-3.531l-.004-.007c-.811-.02-1.465-.677-1.465-1.493v-4c0-.15.029-.293.07-.43-.617.186-1.07.752-1.07 1.43v4c0 .816.654 1.473 1.465 1.493l.004.007h3.531v5c0 1.104.896 2 2 2 .812 0 1.506-.485 1.82-1.18-.251.114-.527.18-.82.18z"/></g></svg>