<svg xmlns="http://www.w3.org/2000/svg" width="100" height="100" viewBox="0 0 100 100"><path fill="#324D5B" d="M50 0c27.614 0 50 22.386 50 50s-22.386 50-50 50-50-22.386-50-50 22.386-50 50-50z"/><path fill="#E2574C" d="M50 100c-12.174 0-23.328-4.354-32-11.587v-34.088c0-.545.393-.988.924-1.109 5.09-1.159 9.076-11.808 9.076-24.773 0-.4-.004-.797-.013-1.193-.012-.59.418-1.096 1.004-1.168l8.351-1.039c.35-.043.689.082.94.328 2.499 2.445 6.808 4.662 11.718 4.662s9.219-2.216 11.717-4.662c.252-.246.593-.371.942-.328l8.374 1.042c.572.071.992.564.979 1.14-.007.404-.012.81-.012 1.218 0 12.964 3.985 23.61 9.074 24.772.532.122.926.566.926 1.112v34.086c-8.672 7.233-19.826 11.587-32 11.587z"/><path fill="#C74B41" d="M63 28c0-1.005-.08-1.983-.207-2.94l-.134-.017c-.35-.043-.69.082-.942.328-2.498 2.446-6.807 4.662-11.717 4.662s-9.219-2.217-11.718-4.662c-.251-.246-.591-.371-.94-.328l-.134.017c-.128.957-.208 1.935-.208 2.94 0 9.389 5.82 17 13 17s13-7.611 13-17z"/><path fill="#D9D9D9" d="M62.938 25.078l-.279-.035c-.35-.043-.69.082-.942.328-2.498 2.446-6.807 4.662-11.717 4.662s-9.219-2.217-11.718-4.662c-.251-.246-.591-.371-.94-.328l-.353.044c.781 4.457 6.285 7.913 12.974 7.913 6.692 0 12.2-3.46 12.975-7.922z"/><path fill="#EC9089" d="M62 51h6c.553 0 1 .448 1 1v2c0 .553-.447 1-1 1h-6c-.553 0-1-.447-1-1v-2c0-.552.447-1 1-1z"/><path fill="#FCEFED" d="M47.688 76.905h-6.461c-.195 0-.195-.165-.098-.26 1.17-1.157 2.706-2.148 4.072-3.234 1.877-1.487 3.438-3.046 3.438-5.525 0-3.353-2.706-4.888-5.974-4.888-2.756 0-5.267 1.559-5.462 4.51 0 .826.414 1.157 1.219 1.229.78.094 1.561-.166 1.756-.992.317-1.322 1.268-1.983 2.487-1.983 1.707 0 2.706.897 2.706 2.479 0 1.416-1.438 2.715-2.828 3.754-1.707 1.275-3.292 2.456-4.73 4.062-.341.401-.805 1.194-.805 2.139 0 1.393.366 1.794 1.634 1.794h9.046c.805 0 1.024-.708 1.024-1.416 0-.711-.22-1.669-1.024-1.669zm10.5-7.626c-.171-.024-.22-.189-.122-.283l3.17-3.094c.366-.354.634-.731.658-1.275.049-.803-.146-1.666-.951-1.666h-8.413c-.805 0-1.023.958-1.023 1.666 0 .709.194 1.417 1.023 1.417h4.926c-.366.283-.634.543-.951.874l-2.097 2.125c-.438.448-.585 1.015-.317 1.629.22.566.683.897 1.269.897 2.097 0 4.413.354 4.413 2.999 0 1.534-1.098 2.738-2.804 2.738-1.414 0-2.268-.496-2.878-1.7-.39-.731-1.17-.826-1.95-.52-.854.331-1.171 1.087-.78 1.89 1 2.125 3.146 3.021 5.535 3.021 3.511 0 6.096-2.242 6.12-5.689 0-2.762-1.927-4.746-4.828-5.029z"/><g fill="#CB4E44"><path d="M81.074 53.216c-1.477-.337-2.854-1.492-4.074-3.25v42.116c1.743-1.121 3.414-2.345 5-3.668v-34.087c0-.546-.394-.99-.926-1.111zM23 49.965c-1.221 1.759-2.6 2.915-4.076 3.25-.531.122-.924.565-.924 1.11v34.088c1.586 1.323 3.257 2.547 5 3.668v-42.116z"/></g><g fill="#FFFCFC"><path d="M61.717 25.371l-.043.038c.104.845.172 1.706.172 2.591 0 8.822-5.313 16-11.846 16s-11.846-7.178-11.846-16c0-.884.067-1.746.172-2.59l-.044-.039c-.251-.246-.591-.371-.94-.328l-1.15.143c-.116.919-.192 1.855-.192 2.814 0 9.925 6.28 18 14 18s14-8.075 14-18c0-.959-.076-1.895-.191-2.814l-1.149-.143c-.35-.043-.691.082-.943.328zM30 27l-.011-1h-.339l-.659.082c-.563.069-.972.542-.993 1.103l-.006.546.008.712c0 12.965-3.986 23.613-9.076 24.772-.531.122-.924.565-.924 1.11v.675c6.729 0 12-12.299 12-28zM81.074 53.216c-5.089-1.162-9.074-11.809-9.074-24.773l.008-.72-.006-.566c-.021-.545-.42-1.004-.969-1.072l-.682-.085h-.34l-.011 1c0 15.701 5.271 28 12 28v-.673c0-.546-.394-.99-.926-1.111z"/></g><g fill="#D9D9D9"><path d="M23 49.965c-1.221 1.759-2.6 2.915-4.076 3.25-.531.122-.924.565-.924 1.11v.675c1.795 0 3.485-.883 5-2.465v-2.57zM81.074 53.216c-1.477-.337-2.854-1.492-4.074-3.25v2.57c1.516 1.581 3.205 2.464 5 2.464v-.673c0-.546-.394-.99-.926-1.111z"/></g></svg>