<svg xmlns="http://www.w3.org/2000/svg" width="100" height="100" viewBox="0 0 100 100"><path fill="#F2F1EF" d="M50 0c27.614 0 50 22.386 50 50s-22.386 50-50 50-50-22.386-50-50 22.386-50 50-50z"/><path fill="#E6E5E3" d="M23 62v-24c0-.931.639-1.706 1.5-1.929-.161-.042-.326-.071-.5-.071-1.104 0-2 .896-2 2v24c0 1.105.896 2 2 2 .174 0 .339-.029.5-.07-.861-.224-1.5-.998-1.5-1.93z"/><path fill="#D9D8D7" d="M50 5c-24.853 0-45 20.147-45 45 0 24.854 20.147 45 45 45s45-20.146 45-45c0-24.853-20.147-45-45-45zm0 88c-23.748 0-43-19.252-43-43s19.252-43 43-43 43 19.252 43 43-19.252 43-43 43zM25 41c2.209 0 4-1.791 4-4s-1.791-4-4-4-4 1.791-4 4 1.791 4 4 4zm0 18c-2.209 0-4 1.791-4 4s1.791 4 4 4 4-1.791 4-4-1.791-4-4-4z"/><path fill="#FAFAFA" d="M25 36c1.104 0 2 .896 2 2v24c0 1.105-.896 2-2 2s-2-.895-2-2v-24c0-1.104.896-2 2-2z"/><path fill="#D9D8D7" d="M59 28c12.15 0 22 9.85 22 22s-9.85 22-22 22-22-9.85-22-22 9.85-22 22-22z"/><path fill="#324D5B" d="M59 34c8.837 0 16 7.164 16 16 0 8.837-7.163 16-16 16s-16-7.163-16-16c0-8.836 7.163-16 16-16z"/><path fill="#283E49" d="M59 59c-4.971 0-9-4.029-9-9 0-1.975.644-3.795 1.722-5.279-2.252 1.636-3.722 4.283-3.722 7.279 0 4.971 4.029 9 9 9 2.996 0 5.643-1.47 7.278-3.722-1.483 1.078-3.303 1.722-5.278 1.722z"/><path fill="#5B717C" d="M61.596 48.938l9.448-9.448c-.477-.545-.988-1.057-1.533-1.534l-9.448 9.448v-13.35c-.353-.024-.705-.054-1.063-.054s-.71.03-1.062.054v13.351l-9.448-9.448c-.545.477-1.057.988-1.533 1.533l9.448 9.448h-13.351c-.024.353-.054.703-.054 1.062s.03.71.054 1.062h13.351l-9.448 9.448c.477.545.988 1.057 1.533 1.533l9.448-9.448v13.351c.352.024.704.054 1.062.054s.71-.03 1.062-.054v-13.35l9.448 9.448c.545-.477 1.058-.988 1.533-1.534l-9.448-9.447h13.351c.024-.353.054-.704.054-1.063s-.03-.709-.054-1.062h-13.35z"/><path fill="#D9D8D7" d="M59 41c4.971 0 9 4.029 9 9s-4.029 9-9 9-9-4.029-9-9 4.029-9 9-9z"/><g fill="#CFCECD"><path d="M22 60.38v1.62c0 1.105.896 2 2 2 .174 0 .339-.029.5-.07-.861-.224-1.5-.998-1.5-1.93v-2.445c-.378.22-.714.497-1 .825zM22 39.62c.286.328.622.605 1 .825v-2.445c0-.931.639-1.706 1.5-1.929-.161-.042-.326-.071-.5-.071-1.104 0-2 .896-2 2v1.62z"/></g><g fill="#CECDCC"><path d="M58.98 50.022l8.551 2.83c.3-.897.469-1.854.469-2.852s-.169-1.955-.469-2.852l-8.551 2.874zM50 50c0 .992.167 1.944.463 2.837l8.517-2.815-8.517-2.859c-.296.893-.463 1.845-.463 2.837z"/></g><g fill="#E4E4E3"><path d="M59 41c-.998 0-1.955.169-2.852.469l2.832 8.553 2.871-8.553c-.896-.3-1.853-.469-2.851-.469zM58.98 50.022l-2.817 8.515c.893.296 1.845.463 2.837.463s1.944-.167 2.837-.463l-2.857-8.515z"/></g><g fill="#495A63"><path d="M51.921 55.546l-2 2c.448.571.962 1.085 1.533 1.533l2-2c-.571-.448-1.085-.962-1.533-1.533zM50.068 51.062c-.041-.348-.068-.702-.068-1.062s.028-.713.07-1.062h-1.526c-.246.674-.41 1.386-.487 2.125h2.011zM60.062 60.456v-1.526c-.348.042-.702.07-1.062.07s-.714-.027-1.062-.068v2.011c.739-.078 1.451-.242 2.124-.487z"/></g></svg>