<svg xmlns="http://www.w3.org/2000/svg" width="100" height="100" viewBox="0 0 100 100"><path fill="#4681A0" d="M50.168 0c27.614 0 50 22.386 50 50 0 27.613-22.386 50-50 50s-50-22.387-50-50c0-27.614 22.386-50 50-50z"/><path fill="#3F7490" d="M69.366 58.397c.079.924.152 1.688.21 2.451.16 2.104.025 4.184-.558 6.219-.933 3.264-3 5.65-5.845 7.424-2.831 1.766-5.942 2.871-9.142 3.719-3.814.809-3.989 1.809-5.364 3.762-1.488-1.963-1.745-3.004-5.365-3.762-3.198-.848-6.311-1.953-9.142-3.719-2.845-1.773-4.912-4.16-5.845-7.424-.582-2.035-.717-4.115-.557-6.219.058-.764.13-1.527.209-2.451l-2.804.279c1.935-3.646 4.856-6.775 8.031-9.646-.182 3.451.29 7.959 1.218 11.416-1.452-.717-2.936-1.445-2.936-1.445-.9 2.895-.104 6.139 2.008 8.354 1.664 1.74 3.72 2.779 6.067 3.271 1.526.32 3.048.389 4.535-.18 1.724-.506 2.057-2.049 2.057-2.604 0-.557.022-16.783.001-23.906-.005-1.25-.807-2.16-1.941-2.602-1.024-.398-2.105-.685-3.185-.904-1.122-.228-2.743-.314-3.871-.462v-2.988h9.042c.008-.181-.013-2.02-.031-3.419-2.906-1.032-4.992-3.8-4.992-7.062 0-4.143 3.357-7.5 7.5-7.5s7.5 3.357 7.5 7.5c0 3.255-2.076 6.017-4.974 7.055.001 1.4.003 3.243.011 3.423h8.948v2.989c-1.129.147-2.719.234-3.841.461-1.079.22-2.16.506-3.185.905-1.405.588-1.941 1.156-1.941 2.602-.022 7.125.024 16.783.001 23.906-.004 1.268.783 2.117 2.058 2.604 1.486.57 3.01.502 4.535.182 2.347-.492 4.403-1.531 6.066-3.273 2.113-2.213 2.909-5.459 2.009-8.352l-2.937 1.445c.896-3.135 1.423-7.168 1.218-11.416 3.174 2.869 6.097 5.998 8.031 9.646l-2.799-.279zm-17.198-31.897c0-1.933-1.567-3.5-3.5-3.5s-3.5 1.567-3.5 3.5 1.567 3.5 3.5 3.5 3.5-1.567 3.5-3.5z"/><path fill="#EDEDED" d="M71.366 57.397c.079.924.152 1.688.21 2.451.16 2.104.025 4.184-.558 6.219-.933 3.264-3 5.65-5.845 7.424-2.831 1.766-5.942 2.871-9.142 3.719-3.814.809-3.989 1.809-5.364 3.762-1.488-1.963-1.745-3.004-5.365-3.762-3.198-.848-6.311-1.953-9.142-3.719-2.845-1.773-4.912-4.16-5.845-7.424-.582-2.035-.717-4.115-.557-6.219.058-.764.13-1.527.209-2.451l-2.804.279c1.935-3.646 4.856-6.775 8.031-9.646-.182 3.451.29 7.959 1.218 11.416-1.452-.717-2.936-1.445-2.936-1.445-.9 2.895-.104 6.139 2.008 8.354 1.664 1.74 3.72 2.779 6.067 3.271 1.526.32 3.048.389 4.535-.18 1.724-.506 2.057-2.049 2.057-2.604 0-.557.022-16.783.001-23.906-.005-1.25-.807-2.16-1.941-2.602-1.024-.398-2.105-.685-3.185-.904-1.122-.228-2.743-.314-3.871-.462v-2.988h9.042c.008-.181-.013-2.02-.031-3.419-2.906-1.032-4.992-3.8-4.992-7.062 0-4.143 3.357-7.5 7.5-7.5s7.5 3.357 7.5 7.5c0 3.255-2.076 6.017-4.974 7.055.001 1.4.003 3.243.011 3.423h8.948v2.989c-1.129.147-2.719.234-3.841.461-1.079.22-2.16.506-3.185.905-1.405.588-1.941 1.156-1.941 2.602-.022 7.125.024 16.783.001 23.906-.004 1.268.783 2.117 2.058 2.604 1.486.57 3.01.502 4.535.182 2.347-.492 4.403-1.531 6.066-3.273 2.113-2.213 2.909-5.459 2.009-8.352l-2.937 1.445c.896-3.135 1.423-7.168 1.218-11.416 3.174 2.869 6.097 5.998 8.031 9.646l-2.799-.279zm-17.198-31.897c0-1.933-1.567-3.5-3.5-3.5s-3.5 1.567-3.5 3.5 1.567 3.5 3.5 3.5 3.5-1.567 3.5-3.5z"/><path fill="#F0C75E" d="M50.668 26c-.828 0-1.5-.672-1.5-1.5v-24.474l1-.026c.671 0 1.336.024 2 .051v24.449c0 .829-.672 1.5-1.5 1.5z"/><g fill="#DDB757"><path d="M49.168 24.469l3-.857v-2.08l-3 .858zM49.168 17.389v2.08l3-.857v-2.08zM49.168 2.389v2.08l3-.857v-2.08zM49.168 12.39v2.079l3-.857v-2.079zM49.168 7.389v2.08l3-.857v-2.08z"/></g><g fill="#3F7490"><path d="M69.188 32.143c1.624 0 2.367.545 3.308 1.235 1.036.76 2.211 1.622 4.48 1.622 2.271 0 3.445-.862 4.482-1.622.94-.69 1.684-1.235 3.31-1.235 1.624 0 2.367.545 3.308 1.235 1.036.76 2.211 1.622 4.48 1.622 2.271 0 3.447-.862 4.484-1.622l.229-.167c-.244-.685-.506-1.361-.778-2.031-.217.146-.425.296-.624.442-.941.69-1.685 1.235-3.312 1.235-1.624 0-2.367-.545-3.308-1.235-1.034-.76-2.209-1.622-4.478-1.622-2.271 0-3.446.861-4.482 1.622-.94.69-1.685 1.235-3.31 1.235-1.624 0-2.367-.545-3.308-1.235-1.036-.76-2.211-1.622-4.481-1.622-.565 0-1.023.479-1.023 1.071s.458 1.072 1.023 1.072zM99.901 44.821c-1.186-.129-1.85-.609-2.652-1.199-1.036-.76-2.211-1.621-4.481-1.621s-3.445.861-4.481 1.621c-.94.691-1.685 1.236-3.31 1.236-1.624 0-2.367-.545-3.308-1.236-1.036-.76-2.211-1.621-4.48-1.621-.565 0-1.023.479-1.023 1.07s.458 1.072 1.023 1.072c1.624 0 2.367.545 3.308 1.234 1.036.76 2.211 1.623 4.48 1.623 2.271 0 3.445-.863 4.482-1.623.94-.689 1.684-1.234 3.309-1.234s2.368.545 3.309 1.234c.957.702 2.045 1.483 3.992 1.6-.044-.722-.094-1.442-.168-2.156zM19.168 53.929c0-.592-.458-1.07-1.022-1.07-1.626 0-2.369-.545-3.311-1.236-1.037-.76-2.213-1.621-4.483-1.621-2.271 0-3.446.861-4.483 1.621-.941.691-1.685 1.236-3.312 1.236-1.047 0-1.727-.229-2.331-.574.036.804.094 1.602.167 2.396.599.196 1.301.321 2.164.321 2.271 0 3.447-.863 4.484-1.623.941-.689 1.685-1.234 3.311-1.234s2.369.545 3.311 1.234c1.037.76 2.213 1.623 4.483 1.623.564-.001 1.022-.481 1.022-1.073zM25.146 41.858c-1.626 0-2.369-.545-3.311-1.236-1.037-.76-2.213-1.622-4.483-1.622-2.271 0-3.446.862-4.483 1.622-.941.691-1.685 1.236-3.312 1.236-1.624 0-2.367-.545-3.308-1.236-1.036-.76-2.211-1.622-4.48-1.622l-.376.018c-.162.722-.307 1.451-.437 2.184.248-.035.511-.059.813-.059 1.624 0 2.367.545 3.308 1.234 1.036.76 2.211 1.623 4.48 1.623 2.271 0 3.447-.863 4.484-1.623.941-.689 1.685-1.234 3.311-1.234s2.369.545 3.311 1.234c1.037.76 2.213 1.623 4.483 1.623.564 0 1.022-.48 1.022-1.072s-.458-1.07-1.022-1.07z"/></g></svg>