<svg xmlns="http://www.w3.org/2000/svg" width="100" height="100" viewBox="0 0 100 100"><path fill="#4681A0" d="M50 0c27.614 0 50 22.386 50 50s-22.386 50-50 50-50-22.386-50-50 22.386-50 50-50z"/><path fill="#EFC75E" d="M73 53h-46c-4.971 0-9 4.029-9 9l.022 7h-.022c0 2.762 2.239 5 5 5h54c2.762 0 5-2.238 5-5v-7c0-4.971-4.029-9-9-9z"/><path fill="#C19D3D" d="M18.059 61c-.037.329-.059.662-.059 1l.003 1h63.997v-1c0-.338-.022-.671-.059-1h-63.882z"/><path fill="#D7B354" d="M18.059 61h63.883c-.498-4.5-4.309-8-8.941-8h-46.001c-4.632 0-8.443 3.5-8.941 8z"/><path fill="#EFC75E" d="M55.168 22c-1.039-1.786-2.953-3-5.168-3s-4.129 1.214-5.168 3h-3.309c1.236-3.493 4.56-6 8.477-6s7.24 2.507 8.477 6h-3.309z"/><path fill="#F4F0D3" d="M58 22h-16c-9.941 0-18 8.059-18 18v32c0 4.971 4.029 9 9 9h34c4.971 0 9-4.029 9-9v-32c0-9.941-8.059-18-18-18z"/><path fill="#EFC75E" d="M36 49h28c2.762 0 5 2.238 5 5v15c0 2.762-2.238 5-5 5h-28c-2.761 0-5-2.238-5-5v-15c0-2.762 2.239-5 5-5z"/><path fill="#CA824F" d="M56.336 34.417l-4.752-4.751c-.874-.875-2.293-.875-3.167 0l-4.751 4.751c-.875.875-.875 2.293 0 3.167l4.751 4.751c.874.875 2.293.875 3.167 0l4.752-4.751c.875-.874.875-2.292 0-3.167zm-7.336 2.583c0 .553-.447 1-1 1s-1-.447-1-1v-2c0-.552.447-1 1-1s1 .448 1 1v2zm4 0c0 .553-.447 1-1 1s-1-.447-1-1v-2c0-.552.447-1 1-1s1 .448 1 1v2z"/><path fill="#C19D3D" d="M37 54h26c.553 0 1 .447 1 1s-.447 1-1 1h-26c-.552 0-1-.447-1-1s.448-1 1-1z"/><path fill="#DBD8BD" d="M27 72v-32c0-9.941 8.059-18 18-18h-3c-9.941 0-18 8.059-18 18v32c0 4.971 4.029 9 9 9h3c-4.971 0-9-4.029-9-9z"/><path fill="#D7B354" d="M33 69v-15c0-2.762 2.239-5 5-5h-2c-2.761 0-5 2.238-5 5v15c0 2.762 2.239 5 5 5h2c-2.761 0-5-2.238-5-5z"/></svg>