<svg xmlns="http://www.w3.org/2000/svg" width="100" height="100" viewBox="0 0 100 100"><path fill="#F2F1EF" d="M50 0c27.614 0 50 22.386 50 50 0 27.615-22.386 50-50 50s-50-22.385-50-50c0-27.614 22.386-50 50-50z"/><path fill="#CECDCB" d="M95.828 70h-91.656c7.717 17.656 25.327 30 45.828 30s38.111-12.344 45.828-30z"/><path fill="#324D5B" d="M11.999 82.5c8.764 10.266 21.596 16.934 36.001 17.5v-66h-36.001v48.5zm40-31.5v48.998c14.405-.564 27.238-7.234 36.001-17.504v-31.494h-36.001z"/><g fill="#475F6C"><path d="M63.603 98.111c3.556-1.002 6.955-2.377 10.142-4.1l2.308-4.023h-9.077l-3.373 8.123zM36.052 72.986h-9.078l-4.977 11.992h6.018l-2.841 8.416.238.137 13.617-13.52h-7.006l4.029-7.025z"/></g><g fill="#2B424D"><path d="M52 99.949c1.689-.066 3.357-.217 5-.447v-48.502h-5v48.949zM12 82.477c1.545 1.807 3.215 3.502 5 5.07v-53.547h-5v48.477z"/></g><path fill="#FAAE5D" d="M47.985 34h-35.979v22.941l-.005.037c.001 3.312 8.061 6.004 18.001 6.014 9.94.008 17.998-2.67 17.997-5.982l-.013-.086v-22.924zm40 39.924v-22.924h-35.979v22.943l-.006.035c.002 3.311 8.061 6.004 18.002 6.012 9.94.01 17.998-2.668 17.996-5.98l-.013-.086z"/><path fill="#967D5C" d="M34 50h-3v-3c0-.552-.448-1-1-1s-1 .448-1 1v3h-3c-.552 0-1 .448-1 1 0 .553.448 1 1 1h3v3c0 .553.448 1 1 1s1-.447 1-1v-3h3c.552 0 1-.447 1-1 0-.552-.448-1-1-1zm40 17h-3v-3c0-.553-.447-1-1-1s-1 .447-1 1v3h-3c-.553 0-1 .447-1 1s.447 1 1 1h3v3c0 .553.447 1 1 1s1-.447 1-1v-3h3c.553 0 1-.447 1-1s-.447-1-1-1z"/><g fill="#D5944F"><path d="M57 78.123v-27.123h-4.994v22.943l-.006.035c.001 1.608 1.91 3.065 5 4.145zM12 56.979c0 1.607 1.91 3.064 5 4.145v-27.124h-4.994v22.941l-.006.038z"/></g><path fill="#FBBD7C" d="M30.001 27.99c-9.938-.008-17.993 2.67-17.991 5.98.001 3.312 8.058 6.004 17.996 6.014 9.938.008 17.993-2.669 17.991-5.98-.001-3.313-8.058-6.004-17.996-6.014zm40.001 17c-9.938-.008-17.993 2.669-17.992 5.98.002 3.312 8.059 6.004 17.996 6.014 9.938.008 17.993-2.67 17.992-5.98-.002-3.313-8.059-6.004-17.996-6.014z"/><path fill="#F5F3F1" d="M30.001 30.996c-6.625-.005-11.995 1.338-11.994 2.998s5.372 3.01 11.998 3.014c6.625.004 11.995-1.338 11.994-2.998-.001-1.66-5.373-3.01-11.998-3.014zm40 17c-6.625-.006-11.995 1.338-11.994 2.998s5.372 3.01 11.997 3.014 11.996-1.338 11.994-2.998c0-1.66-5.372-3.01-11.997-3.014z"/><path fill="#ECB275" d="M70.033 54.508h-.029c-6.209-.004-12.496-1.213-12.497-3.514-.001-1.084 1.305-1.961 3.879-2.605 2.296-.576 5.343-.893 8.579-.893 6.246.004 12.533 1.213 12.533 3.514 0 .385-.169.75-.504 1.086-1.441 1.443-6.248 2.412-11.961 2.412zm-.032-6.012c-3.192 0-6.153.306-8.372.862-2.465.618-3.122 1.317-3.122 1.636.001 1.021 4.479 2.51 11.497 2.514l.029.5v-.5c5.998 0 10.201-1.066 11.253-2.119.097-.096.212-.24.212-.377 0-1.024-4.478-2.512-11.497-2.516zm-39.963-10.988h-.034c-6.209-.004-12.496-1.213-12.497-3.514 0-1.084 1.305-1.961 3.88-2.605 2.297-.576 5.345-.893 8.582-.893 6.242.004 12.528 1.213 12.53 3.514 0 1.084-1.305 1.961-3.88 2.605-2.297.576-5.345.893-8.581.893zm-.038-6.012c-3.189 0-6.151.306-8.371.861-2.466.619-3.123 1.319-3.123 1.636 0 1.022 4.48 2.51 11.498 2.515l.032.5v-.5h.001c3.158 0 6.119-.307 8.338-.862 2.465-.618 3.123-1.318 3.123-1.636 0-1.022-4.479-2.509-11.498-2.514z"/><path fill="#D0CFCD" d="M30 31.664l-.115.004h-6.885v1.666h.005c.009.92 3.138 1.668 6.997 1.67 3.865.003 6.997-.742 6.997-1.664l-.002-.006h.003v-1.666h-6.891l-.109-.004zm47 17.004h-6.891l-.109-.004-.114.004h-6.886v1.666h.006c.01.92 3.138 1.668 6.996 1.67 3.865.004 6.998-.742 6.997-1.664l-.002-.006h.003v-1.666z"/><path fill="#F2F1EF" d="M30 29.998c-3.865-.002-6.997.742-6.997 1.666 0 .922 3.134 1.672 6.999 1.674s6.997-.742 6.997-1.666c0-.922-3.134-1.672-6.999-1.674zm40 17c-3.864-.002-6.996.743-6.996 1.666 0 .922 3.134 1.672 6.998 1.674 3.865.002 6.998-.742 6.997-1.666-.001-.922-3.134-1.672-6.999-1.674z"/></svg>