<svg xmlns="http://www.w3.org/2000/svg" width="100" height="100" viewBox="0 0 100 100"><path fill="#93D3E8" d="M50.081 0c27.614 0 50 22.386 50 50s-22.386 50-50 50-50-22.386-50-50 22.386-50 50-50z"/><g fill="#F2F1EF"><path d="M92.081 75h-2v5.001c.702-.936 1.363-1.902 2-2.887v-2.114zM82.081 65h-2v25.001c.681-.512 1.347-1.043 2-1.588v-23.413zM87.081 83.631v-13.631h-2v15.694c.685-.671 1.356-1.354 2-2.063zM77.081 59h-2v34.294c.677-.392 1.344-.799 2-1.221v-33.073zM72.081 94.904v-44.904h-2v45.828c.674-.295 1.342-.6 2-.924zM10.081 80.001v-5.001h-2v2.114c.637.985 1.297 1.951 2 2.887zM28.081 94.904c.658.323 1.326.629 2 .924v-45.828h-2v44.904zM18.081 88.413c.653.545 1.319 1.076 2 1.588v-25.001h-2v23.413zM23.081 92.073c.656.422 1.323.829 2 1.221v-34.294h-2v33.073zM15.081 85.694v-15.694h-2v13.631c.645.709 1.316 1.392 2 2.063z"/></g><g fill="#CB4E44"><path d="M93.926 74.042c-15.585-7.65-26.845-28.749-26.845-46.042h-3c0 18.407 11.844 40.334 28.324 48.608.531-.84 1.041-1.693 1.521-2.566zM6.236 74.042c.48.873.991 1.726 1.521 2.566 16.48-8.274 28.324-30.201 28.324-48.608h-3c0 17.294-11.26 38.393-26.845 46.042z"/></g><path fill="#E87970" d="M41.081 33v6h18v-6h-18zm0 24h18v-6h-18v6zm0 18h18v-6h-18v6z"/><path fill="#D06D65" d="M41.081 39h2v-6h-2v6zm0 18h2v-6h-2v6zm0 18h2v-6h-2v6zm16-42v6h2v-6h-2zm0 24h2v-6h-2v6zm0 18h2v-6h-2v6z"/><path fill="#B4E0EF" d="M93.292 24.856c-.799-.238-1.68-.754-1.68-1.356 0-.255.169-.492.413-.702-3.207-4.934-7.25-9.272-11.943-12.798h-4.001c-1.104 0-2 .896-2 2s.896 2 2 2h6c.828 0 1.5.672 1.5 1.5s-.672 1.5-1.5 1.5h-1.5c-1.381 0-2.5 1.119-2.5 2.5s1.119 2.5 2.5 2.5h4.5c.828 0 1.5.672 1.5 1.5 0 .829-.672 1.5-1.5 1.5h-11c-1.656 0-3 1.344-3 3 0 1.657 1.344 3 3 3h22.253c-.874-2.126-1.895-4.177-3.042-6.144z"/><path fill="#A9DCED" d="M16.081 23h-8.073c-.977 1.518-1.875 3.09-2.685 4.715.142.229.227.496.227.785 0 .755-.56 1.371-1.286 1.476-.574 1.313-1.09 2.655-1.552 4.024h8.369c1.104 0 2-.895 2-2 0-1.104-.896-1.999-2-1.999-.828 0-1.5-.673-1.5-1.501s.672-1.5 1.5-1.5h5c1.104 0 2-.895 2-1.999 0-1.105-.895-2.001-2-2.001z"/><g fill="#E2574C"><path d="M65.081 26.184v-5.184c0-1.104-.896-2-2-2s-2 .896-2 2v5.184c-1.162.414-2 1.512-2 2.816v70.177c2.751-.501 5.426-1.215 8-2.146v-68.031c0-1.305-.838-2.402-2-2.816zM39.081 26.184v-5.184c0-1.104-.896-2-2-2s-2 .896-2 2v5.184c-1.162.414-2 1.512-2 2.816v68.031c2.574.931 5.25 1.645 8 2.146v-70.177c0-1.305-.838-2.402-2-2.816z"/></g><g fill="#CB4E44"><path d="M61.081 98.771c.672-.151 1.339-.312 2-.489v-67.282h-2v67.771zM61.081 24h4v2h-4zM64.081 97.999c.673-.196 1.339-.406 2-.63v-66.369h-2v66.999zM35.081 24h4v2h-4zM37.081 98.282c.661.178 1.329.338 2 .489v-67.771h-2v67.282zM34.081 97.369c.661.224 1.327.434 2 .63v-66.999h-2v66.369z"/></g><path fill="#5F707A" d="M59.07 87.012l-17.989-.012-5.067 10.979c4.464 1.307 9.181 2.021 14.067 2.021s9.603-.714 14.065-2.02l-5.076-10.968z"/><path fill="#324D5B" d="M56.07 87.012l-11.989-.012-5.392 11.681c3.662.853 7.471 1.319 11.392 1.319 3.92 0 7.729-.466 11.39-1.318l-5.401-11.67z"/><path fill="#70838D" d="M50.081 90c.553 0 1 .447 1 1v5c0 .553-.447 1-1 1s-1-.447-1-1v-5c0-.553.447-1 1-1z"/></svg>