<svg xmlns="http://www.w3.org/2000/svg" width="100" height="100" viewBox="0 0 100 100"><path fill="#91D8F0" d="M50 0c27.614 0 50 22.386 50 50s-22.386 50-50 50-50-22.386-50-50 22.386-50 50-50z"/><path fill="#324D5B" d="M24.41 50.297c-.223.225-.416.625-.423.998-.013.367.106.762.413 1.07 5.701 5.741 4.828 14.022.811 18.067-2.65 2.668-6.951 4.147-9.586 6.047-1.452 1.04-2.899 2.302-4.312 3.726-.217.219-.424.44-.631.661 2.852 3.628 6.191 6.852 9.925 9.571l.45-.423c1.414-1.424 2.668-2.88 3.701-4.342 1.881-2.659 3.355-6.984 6.005-9.653 4.018-4.045 12.236-4.93 17.943.816.613.618 1.554.481 2.011.033l7.284-7.336-26.35-26.526-7.241 7.291z"/><path fill="#F4F0D3" d="M56.116 20.584l24.267 24.266c.788.789.788 2.066 0 2.855l-15.702 15.701c-.788.789-2.066.789-2.854 0l-24.267-24.265c-.788-.789-.788-2.066 0-2.855l15.702-15.702c.788-.788 2.066-.788 2.854 0z"/><path fill="#E8E4C8" d="M56.635 23.281c-.388-.388-1.017-.388-1.404 0l-11.947 11.946c-.388.388-.388 1.017 0 1.406.388.388 1.018.388 1.405 0l11.946-11.946c.388-.389.388-1.018 0-1.406zm3.513 3.513c-.388-.388-1.017-.388-1.404 0l-11.947 11.946c-.388.389-.388 1.018 0 1.406s1.017.388 1.405 0l11.946-11.946c.389-.388.389-1.017 0-1.406zm3.514 3.514c-.388-.388-1.018-.388-1.405 0l-11.946 11.946c-.388.389-.388 1.018 0 1.406s1.017.388 1.406 0l11.945-11.946c.389-.389.389-1.018 0-1.406zm3.514 3.513c-.388-.388-1.018-.388-1.405 0l-11.947 11.947c-.388.388-.388 1.018 0 1.406.389.388 1.018.388 1.406 0l11.945-11.946c.389-.389.389-1.018.001-1.407zm3.513 3.514c-.388-.388-1.018-.388-1.405 0l-11.946 11.946c-.388.388-.388 1.017 0 1.406.389.387 1.018.387 1.406 0l11.945-11.947c.389-.387.389-1.017 0-1.405zm3.514 3.514c-.389-.388-1.018-.388-1.405 0l-11.946 11.946c-.389.388-.389 1.018 0 1.405s1.018.388 1.405 0l11.946-11.946c.389-.388.389-1.017 0-1.405zm3.514 3.513c-.389-.388-1.018-.388-1.405 0l-11.947 11.947c-.389.388-.389 1.018 0 1.405s1.018.388 1.405 0l11.946-11.946c.389-.388.389-1.018.001-1.406z"/><path fill="#E2574C" d="M80.383 44.85l-24.267-24.266c-.788-.788-2.066-.788-2.854 0l-1.796 1.796 10.755 10.643c.819 1.579.611 3.578-.885 4.907l-1.673 1.484c-.923.82-.923 2.149 0 2.969.924.82 2.479.724 3.28-.088l-4.313 4.134c-.85.813-.85 2.131 0 2.944.85.813 2.228.813 3.076 0l1.963-1.927c-.801.813-.801 2.131 0 2.944.801.812 2.099.812 2.899 0l3.625-3.68c1.602-1.625 4.199-1.625 5.801 0l2.731 2.652 1.657-1.657c.789-.788.789-2.066.001-2.855z"/><path fill="#2D4552" d="M30.971 43.006l-7.241 7.291c-.223.225-.416.625-.423.998-.013.367.106.762.413 1.07 5.701 5.741 4.828 14.022.811 18.067-2.65 2.668-6.951 4.147-9.586 6.047-1.452 1.04-2.899 2.302-4.312 3.726l-.258.271c1.43 1.856 2.986 3.611 4.658 5.248l28.445-28.445-11.835-13.595-.672-.678z"/><path fill="#D3D5D6" d="M37.875 35.969l27.139 27.053-9.982 9.975-27.139-27.055 9.982-9.973z"/><path fill="#C8CACB" d="M41.714 59.721l9.989-9.968-13.828-13.784-9.982 9.973z"/><path fill="#BDBFC0" d="M57.396 62.553c-.781-.787-2.047-.787-2.828 0s-.781 2.063 0 2.851 2.047.787 2.828 0 .782-2.064 0-2.851zM49.56 57.567c-.787.781-.787 2.048 0 2.829.787.78 2.063.78 2.85 0 .788-.781.788-2.048 0-2.829-.787-.78-2.063-.78-2.85 0z"/><path fill="#B4B5B6" d="M40.568 48.553c-.781.787-.781 2.063 0 2.852.781.786 2.047.786 2.829 0 .781-.788.781-2.064 0-2.852s-2.048-.787-2.829 0zM35.56 43.567c-.787.781-.787 2.047 0 2.829.787.781 2.063.781 2.851 0 .788-.781.788-2.047 0-2.829-.787-.781-2.064-.781-2.851 0z"/><g fill="#D85C50"><path d="M61.885 37.33l.451-.4c1.496-1.329 1.704-3.328.885-4.907l-10.755-10.643-1 1 10.755 10.643c.704 1.356.643 3.021-.336 4.307zM60.663 41.383c-.772-.687-.89-1.728-.367-2.53l-.633.561c-.923.82-.923 2.149 0 2.969.825.732 2.149.73 2.995.144l1.285-1.232c-.8.812-2.356.908-3.28.088zM71.193 45.71l-.918.932c1.606-1.549 4.143-1.532 5.719.068l2.731 2.652 1-1-2.731-2.652c-1.601-1.625-4.199-1.625-5.801 0zM64.669 49.391c-.801-.813-.801-2.131 0-2.944l-1.963 1.927c-.849.813-2.227.813-3.076 0-.775-.742-.835-1.9-.194-2.716l-.806.772c-.85.813-.85 2.131 0 2.944.85.813 2.228.813 3.076 0l1.963-1.927c-.801.813-.801 2.131 0 2.944.801.812 2.099.812 2.899 0l.918-.932c-.804.736-2.042.718-2.817-.068z"/></g></svg>