<svg xmlns="http://www.w3.org/2000/svg" width="100" height="100" viewBox="0 0 100 100"><path fill="#4681A0" d="M49.934-.097c27.614 0 50 22.386 50 50 0 27.615-22.386 50-50 50s-50-22.385-50-50c0-27.614 22.385-50 50-50z"/><path fill="#3F7490" d="M.488 57.348c3.5 23.439 23.266 41.552 47.445 42.504v-71.871l-18-.078-29.445 29.445z"/><path fill="#EDEDED" d="M49.934 19.903c16.568 0 30 13.432 30 30 0 16.568-13.432 30-30 30s-30-13.432-30-30c0-16.569 13.431-30 30-30z"/><path fill="#C45B4B" d="M75.044 57.477c-1.558.176-3.149.246-4.739.207-1.586-.055-3.16-.232-4.693-.49l-1.131-.232-.562-.119-.549-.143c-.364-.098-.732-.184-1.088-.287l-1.052-.33-.518-.168-.502-.186-.989-.367c-.632-.271-1.259-.525-1.845-.805l-.855-.42c-.281-.139-.558-.271-.813-.422-.516-.295-1.026-.557-1.479-.844l-1.278-.803-1.054-.74-.455-.32-.386-.299-.609-.479-.378-.297.493.112.764.171.487.108.556.096 1.31.222 1.561.184c.562.066 1.159.086 1.796.135.319.025.646.029.98.033l1.033.016c.705 0 1.439-.043 2.209-.07l1.166-.102.602-.055.605-.078 1.243-.174c.42-.068.839-.156 1.27-.235l.648-.125.649-.152 1.321-.323c1.764-.493 3.58-1.11 5.388-1.887 1.799-.792 3.592-1.727 5.332-2.799l.043-.029c-.651-3.942-2.069-7.624-4.098-10.889-.694 1.174-1.466 2.339-2.335 3.464-.978 1.225-2.054 2.4-3.205 3.498-1.16 1.082-2.398 2.069-3.665 2.971l-.965.636-.481.312-.489.287c-.325.189-.646.388-.972.566l-.978.51-.483.248-.486.224-.959.44c-.64.253-1.263.518-1.873.734l-.903.308c-.296.102-.586.202-.873.276-.573.157-1.12.333-1.642.451l-1.472.335-1.269.223-.548.095-.485.061-.77.093-.559.067-.031-.025.493-.311.662-.419.42-.269.461-.325 1.083-.769 1.233-.973c.444-.35.881-.758 1.365-1.175.244-.207.478-.435.718-.669l.74-.72c.499-.499.988-1.047 1.513-1.612l.752-.896.388-.463.372-.484.757-1.002c.249-.344.483-.703.731-1.063l.37-.547.352-.566.706-1.163c.897-1.596 1.746-3.316 2.476-5.144.712-1.832 1.318-3.761 1.791-5.75l.009-.044c-3.136-2.246-6.721-3.9-10.596-4.806.339 1.32.617 2.688.798 4.098.176 1.557.245 3.149.208 4.739-.056 1.585-.232 3.159-.491 4.692l-.232 1.131-.12.562-.143.549c-.097.364-.183.731-.287 1.088l-.33 1.051-.167.518-.186.502-.366.989c-.274.631-.527 1.259-.806 1.844l-.421.856c-.138.281-.271.557-.422.813-.295.516-.557 1.026-.843 1.479l-.804 1.278-.739 1.054-.32.455-.3.385-.479.61-.364.462-.022-.018.128-.566.172-.763.108-.487.096-.556.222-1.31.185-1.561c.067-.561.086-1.159.134-1.796.027-.319.03-.646.034-.98l.015-1.033c.001-.706-.042-1.439-.07-2.209l-.102-1.167-.054-.601-.079-.606-.174-1.244c-.067-.419-.155-.839-.234-1.269l-.125-.648-.152-.649-.323-1.322c-.493-1.763-1.11-3.579-1.887-5.388-.792-1.798-1.727-3.591-2.799-5.332l-.027-.039c-3.941.651-7.623 2.068-10.887 4.097 1.172.694 2.336 1.464 3.461 2.333 1.225.977 2.4 2.054 3.498 3.204 1.082 1.161 2.069 2.399 2.971 3.666l.636.964.312.481.287.489c.189.326.388.647.566.972l.51.977.248.484.224.486.44.958c.253.641.518 1.263.734 1.874l.308.903c.102.295.202.586.277.873.156.573.332 1.12.45 1.642l.335 1.472.223 1.268.095.548.061.485.093.77.065.545-.328-.521-.419-.662-.269-.421-.325-.46-.769-1.083-.974-1.234c-.349-.444-.758-.88-1.175-1.365-.207-.245-.435-.478-.669-.718l-.721-.74c-.498-.499-1.047-.988-1.611-1.512l-.896-.753-.463-.387-.484-.372-1.002-.756c-.344-.25-.703-.484-1.063-.732l-.547-.37-.566-.351-1.163-.707c-1.596-.897-3.316-1.746-5.145-2.475-1.831-.712-3.76-1.319-5.748-1.792-2.255 3.13-3.919 6.711-4.835 10.583 1.315-.336 2.679-.613 4.083-.793 1.558-.176 3.149-.245 4.739-.208 1.586.056 3.16.233 4.692.491l1.132.232.562.12.549.142c.364.097.731.184 1.088.288l1.052.33.518.167.502.187.988.366c.632.274 1.26.526 1.845.806l.856.421c.281.137.557.271.813.421.516.295 1.026.557 1.479.843l1.278.804 1.054.739.455.321.385.3.61.479.495.389.001.009-.617-.14-.764-.171-.487-.108-.556-.096-1.31-.222-1.561-.186c-.562-.066-1.159-.086-1.796-.133-.32-.027-.646-.031-.98-.035l-1.033-.014c-.705-.001-1.439.041-2.209.07l-1.166.102-.602.053-.605.08-1.244.174c-.419.066-.839.154-1.269.234l-.648.125-.649.152-1.321.323c-1.764.492-3.58 1.109-5.389 1.886-1.798.791-3.591 1.727-5.332 2.799l-.054.036c.644 3.953 2.058 7.645 4.086 10.919.7-1.188 1.48-2.365 2.358-3.502.978-1.225 2.054-2.4 3.204-3.498 1.161-1.082 2.399-2.07 3.666-2.971l.965-.635.481-.312.488-.289c.326-.188.647-.387.973-.564l.978-.512.483-.248.486-.223.958-.439c.641-.254 1.264-.52 1.874-.736l.903-.307c.296-.102.586-.203.873-.277.573-.156 1.12-.332 1.642-.449l1.472-.335 1.269-.223.548-.095.485-.061.769-.094.631-.074.001.006-.534.337-.662.419-.42.268-.461.326-1.083.77-1.233.973c-.444.35-.881.758-1.365 1.174-.245.207-.478.436-.718.67l-.74.721c-.499.498-.988 1.047-1.512 1.611l-.754.896-.387.463-.372.484-.757 1.002c-.249.344-.483.703-.731 1.062l-.37.547-.352.566-.706 1.164c-.898 1.596-1.746 3.316-2.476 5.145-.712 1.83-1.318 3.76-1.791 5.748l-.021.11c3.144 2.253 6.739 3.912 10.626 4.818-.348-1.345-.631-2.74-.816-4.177-.176-1.557-.245-3.148-.208-4.738.056-1.586.232-3.16.491-4.693l.232-1.131.12-.562.142-.549c.098-.363.184-.73.288-1.088l.33-1.051.166-.518.187-.502.366-.988c.274-.633.527-1.26.806-1.846l.421-.855c.138-.281.271-.557.422-.814.295-.516.557-1.025.843-1.479l.803-1.277.74-1.055.32-.453.3-.387.479-.609.389-.495.003.024-.134.591-.172.764-.107.486-.096.557-.222 1.309-.185 1.561c-.067.562-.087 1.16-.134 1.797-.027.318-.03.645-.034.98l-.015 1.033c-.001.705.042 1.438.07 2.207l.102 1.168.054.602.079.605.174 1.242c.066.42.155.84.234 1.27l.125.648.152.648.323 1.322c.493 1.764 1.11 3.58 1.887 5.389.792 1.797 1.727 3.59 2.798 5.332l.071.105c3.949-.658 7.636-2.086 10.902-4.127-1.191-.702-2.376-1.486-3.52-2.369-1.225-.977-2.4-2.055-3.498-3.205-1.082-1.16-2.069-2.398-2.971-3.664l-.636-.965-.312-.482-.288-.488c-.188-.326-.387-.646-.565-.973l-.51-.977-.249-.484-.223-.486-.44-.959c-.253-.641-.519-1.262-.734-1.873l-.308-.902c-.102-.297-.202-.588-.277-.873-.156-.574-.332-1.121-.45-1.643l-.335-1.471-.223-1.27-.095-.547-.061-.486-.093-.769-.068-.567.046.01.291.461.419.663.269.42.325.461.769 1.082.973 1.234c.35.443.759.881 1.176 1.365.207.244.435.477.669.717l.721.74c.498.5 1.047.988 1.611 1.512l.896.754.463.387.484.373 1.002.756c.344.248.703.484 1.063.73l.547.371.566.352 1.163.707c1.596.896 3.316 1.744 5.145 2.475 1.831.711 3.761 1.318 5.749 1.791l.087.017c2.237-3.141 3.882-6.729 4.777-10.607-1.324.344-2.697.622-4.112.805zm-25.104-7.616l.004-.02.015.023-.016.021-.003-.024zm.004.039v-.006l.023-.016.011.018-.034.004z"/><path fill="#DADADA" d="M49.934 32.903c10.539 0 19.154 8.157 19.924 18.5.037-.497.076-.994.076-1.5 0-11.045-8.954-20-20-20s-20 8.954-20 20c0 .506.039 1.003.076 1.5.769-10.343 9.384-18.5 19.924-18.5z"/><g fill="#B55445"><path d="M67.363 43.162c1.075 1.924 1.857 4.034 2.249 6.282l.294-.086c-.067-2.487-.577-4.862-1.473-7.043-.351.291-.708.57-1.07.847zM44.055 33.611l.097.146c1.831-.553 3.771-.854 5.782-.854l.237.011-.123-.522-.323-1.322c-.105-.377-.22-.758-.337-1.139-2.487.067-4.861.576-7.042 1.472.598.721 1.174 1.455 1.709 2.208zM33.008 42.291c1.201-1.917 2.716-3.612 4.476-5.019l-1.009-.613c-.326-.184-.68-.353-1.016-.532-1.649 1.732-3.004 3.749-3.951 5.985.504.048 1.002.111 1.5.179zM30.142 50.319l-.193.057c.014.343.035.685.061 1.026.027-.366.086-.722.132-1.083zM57.28 34.303c1.913.758 3.673 1.81 5.243 3.089l.578-.952c.191-.34.369-.708.555-1.061-1.739-1.645-3.764-2.991-6.006-3.93-.088.936-.2 1.865-.354 2.778l-.016.076z"/></g><path fill="#ECC55D" d="M52.934 79.754c-.986.098-1.987.148-3 .148s-2.013-.051-3-.148v20.051c.993.059 1.992.098 3 .098s2.007-.039 3-.098v-20.051z"/><path fill="#D4B154" d="M52.934 84.875v-5.121c-.986.098-1.987.148-3 .148s-2.013-.051-3-.148v5.121h6z"/></svg>