<svg xmlns="http://www.w3.org/2000/svg" width="100" height="100" viewBox="0 0 100 100"><path fill="#2EA9D3" d="M50 0c27.614 0 50 22.386 50 50s-22.386 50-50 50-50-22.386-50-50 22.386-50 50-50z"/><path fill="#fff" d="M69 45c0-3.313-8.507-6-19-6s-19 2.687-19 6v51.253c5.859 2.409 12.272 3.747 19 3.747s13.141-1.338 19-3.747v-51.253z"/><path fill="#E2574C" d="M66 47c0-2.762-7.163-5-16-5s-16 2.238-16 5v50.369c5.025 1.697 10.402 2.631 16 2.631 5.598 0 10.975-.934 16-2.631v-50.369z"/><path fill="#E5E5E5" d="M50 39c10.493 0 19 2.687 19 6s-8.507 6-19 6-19-2.687-19-6 8.507-6 19-6z"/><path fill="#E5665C" d="M34 48.217v2.01c3.376 1.666 9.273 2.773 16 2.773s12.624-1.107 16-2.773v-2.01c-3.367 1.671-9.261 2.783-16 2.783-6.738 0-12.633-1.112-16-2.783z"/><path fill="#E9EEEE" d="M42.41 99.428c-1.01-.154-2.007-.348-2.996-.562l26.508-67.06-.005-.012.013-.007.006-.015.012.004 15.612-8.776 1.447 2.63-14.698 8.282-25.899 65.516z"/><path fill="#CB4E44" d="M50 42c-8.837 0-16 2.238-16 5v1.227c3.376 1.666 9.273 2.773 16 2.773s12.624-1.107 16-2.773v-1.227c0-2.762-7.163-5-16-5z"/><path fill="#E67067" d="M46 58.5c0-1.381-1.119-2.5-2.5-2.5s-2.5 1.119-2.5 2.5 1.119 2.5 2.5 2.5 2.5-1.119 2.5-2.5zm2.5 2.5c-.828 0-1.5.672-1.5 1.5s.672 1.5 1.5 1.5 1.5-.672 1.5-1.5-.672-1.5-1.5-1.5zm-4 7c-1.381 0-2.5 1.119-2.5 2.5s1.119 2.5 2.5 2.5 2.5-1.119 2.5-2.5-1.119-2.5-2.5-2.5zm13 10c.828 0 1.5-.672 1.5-1.5s-.672-1.5-1.5-1.5-1.5.672-1.5 1.5.672 1.5 1.5 1.5zm.5 5c0-1.104-.896-2-2-2s-2 .896-2 2 .896 2 2 2 2-.896 2-2zm-6 5c-.553 0-1 .447-1 1s.447 1 1 1 1-.447 1-1-.447-1-1-1zm5.5 4c-.828 0-1.5.672-1.5 1.5s.672 1.5 1.5 1.5 1.5-.672 1.5-1.5-.672-1.5-1.5-1.5zm-10.5-45c1.104 0 2-.447 2-1s-.896-1-2-1-2 .447-2 1 .896 1 2 1zm8 0c0-.552-.672-1-1.5-1s-1.5.448-1.5 1c0 .553.672 1 1.5 1s1.5-.447 1.5-1z"/><path fill="#D65348" d="M34 97.369c1.311.442 2.643.837 4 1.171v-48.89c-1.559-.402-2.91-.881-4-1.417v49.136z"/><path fill="#E67067" d="M62 98.54c1.356-.334 2.689-.729 4-1.171v-49.136c-1.091.536-2.441 1.015-4 1.417v48.89z"/><path fill="#F0CC6B" d="M31 45v9.949c-5.605-.506-10-5.212-10-10.949 0-6.075 4.925-11 11-11s11 4.925 11 11c0 .34-.041.669-.072 1h-11.928z"/><path fill="#fff" d="M32 32c-6.627 0-12 5.373-12 12 0 6.29 4.842 11.44 11 11.949v-3.008c-1.735-.192-3.318-.881-4.612-1.915l4.612-4.612 1.414-1.414h11.535999999999998c.027-.331.05-.663.05-1 0-6.627-5.373-12-12-12zm-7.025 17.611c-1.035-1.294-1.722-2.876-1.914-4.611h6.525l-4.611 4.611zm-1.916-6.611c.192-1.735.878-3.319 1.914-4.614l4.613 4.614h-6.527zm3.327-6.028c1.294-1.035 2.878-1.722 4.614-1.914v6.527l-4.614-4.613zm6.614-1.913c1.735.192 3.319.878 4.614 1.914l-4.614 4.613v-6.527zm6.028 3.327c1.035 1.294 1.722 2.878 1.914 4.614h-6.527l4.613-4.614z"/><path fill="#DA655B" d="M38 49.65c-1.559-.402-2.91-.881-4-1.417v1.994c1.089.538 2.443 1.015 4 1.417v-1.994z"/><path fill="#E7776E" d="M62 51.645c1.557-.402 2.911-.88 4-1.417v-1.994c-1.091.536-2.441 1.015-4 1.417v1.994z"/><path fill="#E9EEEE" d="M65.947 31.777l-.012-.004-.006.015-.013.007.005.012-26.508 67.06 1.091.222c.605.116 1.212.231 1.825.326l.064.011.016.002 25.898-65.515 14.698-8.282-1.445-2.631-15.613 8.777z"/></svg>