<svg xmlns="http://www.w3.org/2000/svg" width="100" height="100" viewBox="0 0 100 100"><path fill="#91D8F0" d="M50 0c27.614 0 50 22.386 50 50s-22.386 50-50 50-50-22.386-50-50 22.386-50 50-50z"/><path fill="#F2F1EF" d="M80 46h-58v45.43c7.989 5.409 17.625 8.57 28 8.57 11.257 0 21.644-3.722 30-9.999v-44.001z"/><g fill="#E4E3E1"><path d="M70 64c-1.657 0-3 1.343-3 3v30.031c2.068-.748 4.068-1.637 6-2.64v-27.391c0-1.657-1.343-3-3-3zM60 60c-1.657 0-3 1.343-3 3v36.502c2.042-.286 4.045-.694 6-1.22v-35.282c0-1.657-1.343-3-3-3zM30 64c-1.657 0-3 1.343-3 3v27.392c1.932 1.003 3.932 1.892 6 2.64v-30.032c0-1.657-1.343-3-3-3zM53 59c0-1.657-1.343-3-3-3s-3 1.343-3 3v40.902c.993.059 1.992.098 3 .098s2.007-.039 3-.098v-40.902zM40 60c-1.657 0-3 1.343-3 3v35.282c1.956.525 3.958.934 6 1.22v-36.502c0-1.657-1.343-3-3-3z"/></g><path fill="#E7E6E4" d="M22 48v43.43c2.512 1.7 5.191 3.17 8 4.398v-49.828h-8v2z"/><path fill="#D9D8D7" d="M27 67v27.392c.982.51 1.981.991 3 1.437v-31.829c-1.657 0-3 1.343-3 3z"/><path fill="#E4E3E1" d="M16 38h70l-6 6h-58l-6-6z"/><path fill="#F2F1EF" d="M16 28h70v10h-70v-10z"/><path fill="#E7E6E4" d="M24 31v-3h-8v10h8z"/><path fill="#D9D8D6" d="M16 38l6 6h8l-6-6z"/><path fill="#CECDCB" d="M16 26h70v5h-70v-5z"/><path fill="#C5C4C2" d="M24 28v-2h-8v5h8z"/><path fill="#F2F1EF" d="M5.096 28h89.809c-8.14-16.582-25.186-28-44.905-28s-36.765 11.418-44.904 28z"/><path fill="#F1CF76" d="M22 44h58v4h-58v-4z"/><path fill="#E6C570" d="M30 44h-8v4h8v-2z"/></svg>