<svg xmlns="http://www.w3.org/2000/svg" width="100" height="100" viewBox="0 0 100 100"><path fill="#82D2ED" d="M50.024 0c27.615 0 50 22.386 50 50s-22.385 50-50 50c-27.614 0-50-22.386-50-50s22.387-50 50-50z"/><path fill="#EFEFEF" d="M82.501 88h-36.088c-1.721-5.778-7.05-10-13.388-10s-11.667 4.222-13.389 10h-15.701c-.49 0-.887-.391-.887-.873l-.023-21.056c0-1.885.99-3.635 2.619-4.627l7.536-4.819c2.007-1.223 3.461-3.157 4.062-5.404l5.258-19.668c.156-.582-.47-1.152-1.072-1.152h-.484c-.51 0-.924-.407-.924-.91v-4.58c0-.503.407-.91.91-.91h71.81c4.621 7.576 7.285 16.477 7.285 26-.001 15.212-6.803 28.829-17.524 37.999z"/><path fill="#E2574C" d="M88.026 49c-.553 0-1.002-.447-1.002-1v-4c0-.552.449-.999 1.002-.999h11.5c.275 1.965.434 3.968.473 5.999h-11.973zm11.176-7.999h-17.176c-.553 0-1.002-.448-1.002-1 0-.553.449-1.001 1.002-1.001h16.77c.148.662.283 1.329.406 2.001zm-21.801-1.77c.885-.542 1.607-.098 1.607.987v2.782h5.014c.553 0 1.002.447 1.002.999v4c0 .553-.449 1-1.002 1h-5.014v2.782c0 1.085-.723 1.528-1.607.986l-5.727-5.782c-.885-.542-.885-1.43 0-1.972l5.727-5.782zm3.623 12.77c0-.553.449-1 1.002-1h17.973c-.014.669-.033 1.337-.072 1.999h-17.9c-.553 0-1.003-.447-1.003-.999z"/><path fill="#324D5B" d="M24.201 58h12.649c.649 0 1.175-.537 1.175-1.2l.026-23.61c-.007-.659-.53-1.19-1.175-1.19h-7.979c-.466 0-.889.283-1.076.72l-4.698 21.632c-.065.151-.099.315-.099.481v1.967c.001.663.527 1.2 1.177 1.2zM44.375 32h17.3c1.299 0 2.35 1.034 2.35 2.31v29.266l-.156 16.138c-.013 1.265-1.061 2.286-2.35 2.286h-7.746c-.934 0-1.779-.542-2.152-1.383l-9.398-16.6c-.13-.292-.197-.607-.197-.926v-28.781c-.001-1.276 1.052-2.31 2.349-2.31z"/><path fill="#D7D7D7" d="M60.704 80l-8.482-14.982c-.129-.292-.197-.607-.197-.926v-30.092h10v46h-1.321z"/><path fill="#324D5B" d="M64.024 58h-7c-1.104 0-2-.896-2-2v-18c0-1.104.896-2 2-2h7v22z"/><path fill="#ACACAC" d="M52.024 36v-2h10v2h-10z"/><path fill="#324D5B" d="M33.025 80c5.523 0 10 4.478 10 10 0 5.523-4.477 10-10 10-5.522 0-10-4.477-10-10 0-5.522 4.477-10 10-10z"/><path fill="#C7C7C7" d="M33.025 85c2.762 0 5 2.239 5 5 0 2.762-2.238 5-5 5s-5-2.238-5-5c0-2.761 2.238-5 5-5z"/><path fill="#9F9F9F" d="M33.025 88c1.104 0 2 .896 2 2s-.896 2-2 2-2-.896-2-2 .895-2 2-2z"/><path fill="#29414D" d="M36.05 34l-.024 22h-11.001v-1.008l.012-.028.041-.188 4.512-20.776h6.46m.826-2h-7.979c-.466 0-.889.283-1.076.72l-4.698 21.632c-.065.151-.099.315-.099.481v1.967c0 .663.526 1.2 1.176 1.2h12.65c.649 0 1.175-.537 1.175-1.2l.026-23.61c-.007-.659-.53-1.19-1.175-1.19zM61.675 34c.192 0 .35.139.35.31v29.246l-.156 16.139c-.003.168-.159.305-.35.305h-7.746c-.143 0-.272-.078-.324-.194l-.04-.089-.048-.085-9.327-16.476-.008-.064v-28.782c0-.171.157-.31.35-.31h17.299m0-2h-17.3c-1.297 0-2.35 1.034-2.35 2.31v28.782c0 .318.067.634.197.926l9.398 16.6c.373.84 1.219 1.382 2.152 1.382h7.746c1.289 0 2.338-1.021 2.35-2.287l.156-16.138v-29.265c0-1.276-1.05-2.31-2.349-2.31z"/><path fill="#E2574C" d="M63.943 72l-.075 7.713c-.012 1.266-1.06 2.287-2.349 2.287h-7.746c-.934 0-1.779-.542-2.152-1.383l-4.88-8.617h-43.71l.017 15.127c0 .482.397.873.887.873h15.701c1.722-5.778 7.051-10 13.389-10s11.667 4.222 13.388 10h36.088c5.154-4.408 9.39-9.853 12.412-16h-30.97z"/><g fill="#E2574C"><path d="M43.911 67h-40.885l.003 3h42.58zM63.991 67l-.029 3h31.877c.431-.984.833-1.983 1.201-3h-33.049z"/></g><path fill="#BF392B" d="M82.501 88h-37.656c-.954-5.673-5.876-10-11.82-10s-10.866 4.327-11.82 10h-7.18v-2h5.611c1.722-5.778 7.051-10 13.389-10s11.667 4.222 13.388 10h38.291c-.715.688-1.449 1.355-2.203 2z"/><path fill="#DADFE1" d="M2.831 80h11.862c1.965 0 3.332 1.978 2.661 3.848l-1.891 5.266c-.407 1.132-1.47 1.886-2.661 1.886h-9.971c-1.564 0-2.831-1.283-2.831-2.867v-5.266c0-1.583 1.267-2.867 2.831-2.867z"/><path fill="#C4C8CA" d="M15.463 87.113c-.407 1.133-1.47 1.887-2.661 1.887h-9.971c-1.564 0-2.831-1.283-2.831-2.867v2c0 1.584 1.267 2.867 2.831 2.867h9.972c1.19 0 2.254-.754 2.661-1.887l1.891-5.266c.243-.677.212-1.365-.011-1.971l-1.881 5.237z"/><g fill="#CB4E44"><path d="M55.608 71h6.416v-2h-7.547zM60.704 80h1.32v-7h-5.283z"/></g><path fill="#ACACAC" d="M60.024 34v44.8l.68 1.2h1.32v-46z"/><path fill="#EFC75E" d="M9.525 66c1.381 0 2.5 1.119 2.5 2.5s-1.119 2.5-2.5 2.5-2.5-1.119-2.5-2.5 1.119-2.5 2.5-2.5z"/><path fill="#D8B65B" d="M9.525 70c-1.209 0-2.218-.858-2.45-2-.033.161-.05.329-.05.5 0 1.381 1.119 2.5 2.5 2.5s2.5-1.119 2.5-2.5c0-.171-.018-.339-.05-.5-.232 1.142-1.241 2-2.45 2z"/><path fill="#A33F37" d="M60.024 69h2v2h-2zM60.024 78.8l.68 1.2h1.32v-7h-2z"/><path fill="#243842" d="M60.024 36h2v22h-2z"/><path fill="#898989" d="M60.024 34h2v2h-2z"/><path fill="#29414D" d="M62.024 38v18h-5v-18h5m2-2h-7c-1.104 0-2 .896-2 2v18c0 1.104.896 2 2 2h7v-22z"/><g fill="#1E2F38"><path d="M60.024 36h2v2h-2zM60.024 56h2v2h-2z"/></g></svg>