<svg xmlns="http://www.w3.org/2000/svg" width="100" height="100" viewBox="0 0 100 100"><path fill="#E89C25" d="M50 0c-27.614 0-50 22.386-50 50s22.386 50 50 50 50-22.386 50-50-22.386-50-50-50zm0 66c-8.836 0-16-7.163-16-16 0-8.836 7.164-16 16-16s16 7.164 16 16c0 8.837-7.164 16-16 16z"/><path fill="#F8BEB6" d="M50 0c-27.614 0-50 22.386-50 50 0 3.284.326 6.491.931 9.599 3.278 1.489 6.907 2.78 10.069 7.401 6.997 10.227 15.759-2.789 16-10 .167-5.005 4.434-6.913 7.031-7.614.325-8.55 7.34-15.386 15.969-15.386 8.836 0 16 7.164 16 16 0 1.936-.361 3.781-.99 5.499 3.203.98 6.562-1.224 6.99-3.499.81-4.31 4.373-7.822 14 6 6.41 9.204 11.377-.871 13.979-7.2l.021-.8c0-27.614-22.386-50-50-50z"/><path fill="#EBAB45" d="M50.01 75.797c-6.855 0-13.713-3.479-17.994-8.797 3.363 6.949 10.156 12.004 17.994 12.004 7.84 0 14.633-5.055 17.995-12.004-4.281 5.317-11.138 8.797-17.995 8.797z"/><path fill="#FACEC8" d="M49.986 9.698c12.484 0 24.975 5.953 33.005 15.127-6.472-11.359-18.823-19.042-33.005-19.042-14.181 0-26.532 7.683-33.004 19.042 8.031-9.174 20.52-15.127 33.004-15.127z"/><path fill="#E4776E" d="M17.732 54.987c-.55-.935-1.769-1.254-2.722-.715s-1.279 1.733-.729 2.667l2.989 5.073c.55.934 1.769 1.254 2.722.715s1.28-1.733.729-2.667l-2.989-5.073zm23.205-49.654c-.263-.962-1.27-1.533-2.25-1.275l-5.324 1.401c-.98.258-1.562 1.247-1.299 2.209.263.962 1.27 1.533 2.25 1.275l5.324-1.4c.98-.258 1.561-1.247 1.299-2.21z"/><path fill="#51B8DA" d="M33.364 20.056l-5.884 1.569c-1.083.289-1.703 1.49-1.383 2.684.319 1.193 1.457 1.926 2.54 1.637l5.884-1.569c1.083-.289 1.703-1.491 1.383-2.683-.32-1.194-1.457-1.926-2.54-1.638zm43.62 7.936c-.002-1.107-.893-2.005-1.99-2.004-1.098 0-1.986.897-1.986 2.005l.007 6.015c.001 1.107.892 2.005 1.99 2.004 1.098 0 1.987-.898 1.985-2.005l-.006-6.015z"/><path fill="#75C9BA" d="M94.924 43.428l-1.678-5.911c-.309-1.088-1.492-1.734-2.644-1.442-1.151.292-1.835 1.41-1.526 2.498l1.676 5.912c.309 1.088 1.492 1.733 2.645 1.442 1.152-.292 1.835-1.41 1.527-2.499zm-83.429-24.899c-1.021-.609-2.295-.301-2.847.687l-2.994 5.365c-.551.988-.171 2.282.85 2.89 1.021.608 2.295.3 2.846-.687l2.995-5.366c.551-.987.171-2.281-.85-2.889zm47.54-.253l-5.072 2.961c-.935.545-1.246 1.769-.695 2.732.551.964 1.754 1.304 2.688.759l5.072-2.961c.934-.545 1.245-1.769.695-2.732-.551-.965-1.754-1.304-2.688-.759z"/><path fill="#F4F4F4" d="M15.991 35.272c-.953-.539-2.171-.219-2.722.715l-2.989 5.073c-.55.935-.224 2.128.729 2.668.953.539 2.172.219 2.722-.715l2.989-5.074c.551-.933.224-2.127-.729-2.667zm59.038-23.001l-5.09-3c-.938-.552-2.136-.225-2.677.732-.541.956-.22 2.18.718 2.731l5.09 3c.937.552 2.135.225 2.676-.732.541-.955.221-2.178-.717-2.731z"/><path fill="#D08C21" d="M50 28c-11.046 0-20 8.954-20 20s8.954 20 20 20 20-8.954 20-20-8.954-20-20-20zm0 38c-8.836 0-16-7.163-16-16 0-8.836 7.164-16 16-16s16 7.164 16 16c0 8.837-7.164 16-16 16z"/><path fill="#D69022" d="M50 94.681c-26.722 0-48.545-20.963-49.928-47.34-.047.88-.072 1.766-.072 2.659 0 27.614 22.386 50 50 50s50-22.386 50-50c0-.893-.025-1.779-.071-2.66-1.383 26.378-23.207 47.341-49.929 47.341z"/><g fill="#64AB9E"><path d="M61.027 20.768l-5.072 2.961c-.934.545-2.137.206-2.688-.759-.099-.172-.16-.354-.204-.537-.131.498-.074 1.05.204 1.537.551.964 1.754 1.304 2.688.759l5.072-2.961c.768-.448 1.104-1.353.899-2.196-.127.489-.436.925-.899 1.196zM12.345 20.418l-2.995 5.366c-.551.987-1.825 1.295-2.846.687-.542-.323-.897-.842-1.034-1.404-.224.893.174 1.891 1.034 2.404 1.021.608 2.295.3 2.846-.687l2.995-5.366c.258-.462.305-.991.184-1.486-.042.167-.097.331-.184.486zM93.396 44.927c-1.152.291-2.336-.354-2.645-1.442l-1.676-5.912-.002-.012c-.084.323-.096.667.002 1.012l1.676 5.912c.309 1.088 1.492 1.733 2.645 1.442 1.148-.291 1.83-1.402 1.529-2.487-.182.698-.74 1.287-1.529 1.487z"/></g><g fill="#459DBA"><path d="M34.521 23.376l-5.884 1.569c-1.083.289-2.221-.444-2.54-1.637l-.022-.128c-.078.357-.082.741.022 1.128.319 1.193 1.457 1.926 2.54 1.637l5.884-1.569c1.045-.278 1.649-1.406 1.405-2.555-.162.745-.673 1.361-1.405 1.555zM75.005 35.012c-1.099 0-1.989-.897-1.99-2.004l-.006-5.026-.001.011.007 6.015c.001 1.107.892 2.005 1.99 2.004 1.098 0 1.987-.898 1.985-2.005l-.001-.99c-.003 1.103-.889 1.995-1.984 1.995z"/></g><g fill="#D3D3D3"><path d="M75.746 14.004c-.541.957-1.739 1.284-2.676.732l-5.09-3c-.469-.276-.783-.72-.913-1.215-.207.844.138 1.759.913 2.215l5.09 3c.937.552 2.135.225 2.676-.732.271-.479.325-1.023.196-1.518-.044.177-.102.352-.196.518zM16.721 36.94l-2.989 5.074c-.55.934-1.769 1.254-2.722.715-.474-.268-.792-.698-.925-1.177-.218.828.132 1.728.925 2.177.953.539 2.172.219 2.722-.715l2.989-5.074c.277-.47.331-1.005.196-1.491-.045.168-.104.334-.196.491z"/></g><g fill="#C5675F"><path d="M19.991 61.728c-.953.539-2.171.219-2.722-.715l-2.989-5.073c-.093-.157-.152-.323-.196-.49-.135.485-.081 1.021.196 1.49l2.989 5.073c.55.934 1.769 1.254 2.722.715.793-.448 1.144-1.349.925-2.177-.133.478-.451.909-.925 1.177zM40.922 5.295c-.172.588-.638 1.078-1.284 1.248l-5.324 1.4c-.966.254-1.956-.3-2.235-1.237-.089.304-.104.634-.015.962.263.962 1.27 1.533 2.25 1.275l5.324-1.4c.98-.258 1.562-1.247 1.299-2.21l-.015-.038z"/></g><g fill="#DFABA3"><path d="M99.929 47.343c-.083 1.588-.245 3.155-.473 4.701.184-.426.358-.843.523-1.244l.021-.8c0-.89-.025-1.774-.071-2.652v-.005zM.215 54.552l.025.329c.157 1.596.389 3.169.69 4.718l1.576.705c-1.352-4.114-2.198-8.456-2.434-12.964-.047.881-.072 1.767-.072 2.66 0 .831.022 1.657.062 2.479.036.695.09 1.385.153 2.073z"/></g><path fill="#DFABA3" d="M50 28c-11.046 0-20 8.954-20 20 0 1.051.105 2.074.261 3.081 1.264-.878 2.667-1.397 3.77-1.695.325-8.55 7.34-15.386 15.969-15.386 8.836 0 16 7.164 16 16 0 1.936-.361 3.781-.99 5.499 1.221.373 2.463.282 3.559-.097.913-2.292 1.431-4.785 1.431-7.402 0-11.046-8.954-20-20-20z"/><g fill="#D69022"><path d="M34.031 49.386c-2.597.701-6.864 2.609-7.031 7.614-.241 7.211-9.003 20.227-16 10-3.162-4.621-6.791-5.912-10.069-7.401l.216 1.082c3.278 1.489 6.691 2.698 9.853 7.319 6.997 10.227 15.759-2.789 16-10 .167-5.005 4.393-6.915 6.99-7.616l.041-.998zM99.979 50.8c-2.602 6.329-7.569 16.404-13.979 7.2-9.627-13.822-13.19-10.31-14-6-.414 2.205-3.883 4.317-6.994 3.556-.094.312-.264.618-.375.922 3.203.979 6.941-1.203 7.369-3.478.81-4.31 4.373-7.822 14 6 6.41 9.204 11.377-.871 13.979-7.2l.021-.8-.013-.504-.008.304z"/></g><path fill="#BB7E1E" d="M34 50l.031-.614c-1.104.298-2.506.817-3.77 1.695.046.297.077.599.136.891 1.212-.812 2.536-1.303 3.593-1.588l.013-.314-.003-.07zM2.889 61.462c-.136-.382-.256-.771-.383-1.158l-1.576-.705.16.801.066.285 1.733.777zM65.006 55.556c-.058.191-.142.381-.226.568l-.088.207-.062.146c1.15.352 2.368.291 3.479-.03.177-.379.345-.761.498-1.151-1.12.413-2.386.557-3.601.26zM99.987 50.496l-.008.304c-.165.401-.34.818-.523 1.244-.081.55-.181 1.094-.28 1.638.278-.625.537-1.236.777-1.817.017-.454.029-.908.034-1.365v-.004z"/></svg>