<svg xmlns="http://www.w3.org/2000/svg" width="100" height="100" viewBox="0 0 100 100"><path fill="#324D5B" d="M50 0c27.614 0 50 22.386 50 50s-22.386 50-50 50-50-22.387-50-50c0-27.615 22.386-50 50-50z"/><path fill="#3C535B" d="M75.952 7.254c-7.565-4.603-16.449-7.254-25.952-7.254s-18.387 2.651-25.952 7.254c-7.41 6.934-12.048 16.796-12.048 27.746 0 20.987 17.014 38 38 38s38-17.014 38-38c0-10.95-4.638-20.812-12.048-27.746z"/><path fill="#E2574C" d="M75 57h-50v36.293c7.355 4.258 15.89 6.707 25 6.707s17.644-2.449 25-6.707v-36.293z"/><path fill="#D05046" d="M25 57v36.293c7.355 4.258 15.89 6.707 25 6.707v-43h-25z"/><path fill="#4E5F5B" d="M50 10c13.807 0 25 11.193 25 25s-11.193 25-25 25-25-11.193-25-25 11.193-25 25-25z"/><path fill="#B5463D" d="M75 57v10s-11.193 10-25 10-25-4.477-25-10v-10h50z"/><path fill="#A64038" d="M25 57v10c0 5.523 11.193 10 25 10v-20h-25z"/><path fill="#6E745C" d="M50.5 19c-.828 0-1.5.672-1.5 1.5v5c0 .828.672 1.5 1.5 1.5s1.5-.672 1.5-1.5v-5c0-.829-.672-1.5-1.5-1.5zm14.001 18h-5.002c-.828 0-1.499.67-1.499 1.498v.003c0 .828.671 1.499 1.499 1.499h5.002c.828 0 1.499-.671 1.499-1.499v-.003c0-.828-.671-1.498-1.499-1.498zm-5.183-14.816c-.652-.397-1.486-.161-1.863.525l-2.272 4.145c-.376.688-.153 1.565.499 1.962s1.486.161 1.863-.525l2.272-4.146c.377-.687.154-1.564-.499-1.961zm-1.139 11.163c.376.63 1.239.831 1.928.448l4.151-2.31c.688-.382.94-1.203.563-1.833-.376-.63-1.239-.831-1.927-.448l-4.152 2.309c-.687.383-.94 1.204-.563 1.834zm-16.677 3.653h-5.004c-.827 0-1.498.67-1.498 1.498v.003c0 .828.671 1.499 1.498 1.499h5.004c.827 0 1.498-.671 1.498-1.499v-.003c0-.828-.671-1.498-1.498-1.498zm2.043-14.291c-.377-.687-1.211-.922-1.863-.525-.652.396-.876 1.274-.499 1.961l2.272 4.146c.377.687 1.211.922 1.863.525s.875-1.274.499-1.962l-2.272-4.145zm-6.803 8.777l4.151 2.31c.688.383 1.552.182 1.928-.448.377-.63.125-1.451-.563-1.834l-4.152-2.309c-.688-.383-1.551-.182-1.927.448-.377.63-.125 1.451.563 1.833z"/><path fill="#EFC75E" d="M50 47c13.807 0 25 4.477 25 10s-11.193 10-25 10-25-4.477-25-10 11.193-10 25-10z"/><path fill="#D7B354" d="M50 54c3.866 0 7 1.344 7 3s-3.134 3-7 3-7-1.344-7-3 3.134-3 7-3z"/><path fill="#E1574C" d="M50 49.5c13.735 0 22.5 4.442 22.5 7.5 0 3.057-8.765 7.5-22.5 7.5-13.734 0-22.5-4.443-22.5-7.5 0-3.059 8.766-7.5 22.5-7.5m0-2.5c-13.807 0-25 4.477-25 10s11.193 10 25 10 25-4.477 25-10-11.193-10-25-10z"/><path fill="#DADFE1" d="M53 56.5c0 .828-1.343 1.5-3 1.5s-3-.672-3-1.5l.006-.031h-.006v-23h6v23h-.006l.006.031z"/><path fill="#C7CCCE" d="M50.028 39c-1.509 0-3.028-1-3.028-1v1s1.534 1 3.052 1c1.482 0 2.948-1 2.948-1v-1s-1.481 1-2.972 1zm-3.028 4v1s1.534 1 3.052 1c1.482 0 2.948-1 2.948-1v-1s-1.481 1-2.972 1c-1.509 0-3.028-1-3.028-1zm0 5v1s1.534 1 3.052 1c1.482 0 2.948-1 2.948-1v-1s-1.481 1-2.972 1c-1.509 0-3.028-1-3.028-1zm0 5v1s1.534 1 3.052 1c1.482 0 2.948-1 2.948-1v-1s-1.481 1-2.972 1c-1.509 0-3.028-1-3.028-1z"/><path fill="#C88B4A" d="M50 32c1.657 0 3 .672 3 1.5s-1.343 1.5-3 1.5-3-.672-3-1.5 1.343-1.5 3-1.5z"/></svg>