<svg xmlns="http://www.w3.org/2000/svg" width="100" height="100" viewBox="0 0 100 100"><path fill="#324D5B" d="M50 0c27.614 0 50 22.386 50 50s-22.386 50-50 50-50-22.386-50-50 22.386-50 50-50z"/><path fill="#E3BD59" d="M4.911 71.634c4.92 10.234 13.221 18.536 23.456 23.455l25.625-25.624-23.457-23.456-25.624 25.625z"/><g fill="#E6C771"><path d="M41.945 62.985l-1.408-1.409-12.389 12.389c.37.626.631 1.317.754 2.063l13.043-13.043zM19.527 89.629c.532.409 1.073.807 1.622 1.195l24.318-24.318-1.408-1.408-24.532 24.531zM23.972 71.099c.746.122 1.438.383 2.063.753l12.389-12.389-1.408-1.408-13.044 13.044zM22.028 82.902c-.745-.122-1.438-.384-2.063-.754l-4.238 4.238c.484.456.978.901 1.479 1.338l4.822-4.822zM9.176 78.852c.388.549.786 1.09 1.195 1.622l24.531-24.531-1.408-1.409-24.318 24.318zM17.852 80.035c-.37-.626-.631-1.317-.753-2.062l-4.823 4.822c.437.502.882.995 1.338 1.479l4.238-4.239z"/></g><path fill="#CCAA50" d="M25.156 93.389c1.049.602 2.116 1.174 3.211 1.7l25.625-25.624-2.456-2.455-26.38 26.379z"/><path fill="#5B717C" d="M50 0c-.997 0-1.985.038-2.968.095-4.638 12.515-12.681 28.176-13.851 29.346-2.733 2.733 3.3 12.989 13.843 23.534 10.545 10.545 20.801 16.578 23.535 13.843 1.476-1.476 16.756-7.971 29.219-12.169.14-1.532.222-3.081.222-4.649 0-27.614-22.386-50-50-50z"/><path fill="#D6B254" d="M22 75c1.656 0 3 1.343 3 3s-1.344 3-3 3c-1.657 0-3-1.343-3-3s1.343-3 3-3z"/><path fill="#EFC75E" d="M35.376 29.572l35.052 35.053c.774.773.774 2.029 0 2.804l-.701.701c-10.453 10.454-27.402 10.454-37.855 0-10.454-10.454-10.454-27.402 0-37.856l.701-.701c.773-.775 2.029-.775 2.803-.001z"/><path fill="#BF9F4B" d="M70.428 64.625h-4c.774.773.774 2.029 0 2.804l-.701.701c-4.718 4.718-10.759 7.299-16.928 7.759 7.501.559 15.192-2.022 20.928-7.759l.701-.701c.774-.775.774-2.031 0-2.804z"/><path fill="#F4F0D3" d="M56.716 43.284c10.321 10.322 16.519 20.858 13.843 23.534-2.676 2.677-13.212-3.521-23.534-13.843-10.32-10.322-16.519-20.859-13.843-23.534 2.675-2.675 13.212 3.523 23.534 13.843z"/><path fill="#E0E0C7" d="M46.486 42.749c1.061.432 3.3 1.883 6.091 4.674 2.789 2.789 4.247 5.036 4.677 6.088-1.061-.432-3.3-1.883-6.091-4.673-2.788-2.79-4.247-5.037-4.677-6.089m-.52-1.14c-.199 0-.354.051-.46.157-.781.781 1.436 4.264 4.95 7.779 3.038 3.037 6.053 5.105 7.318 5.105.198 0 .354-.051.46-.156.781-.781-1.436-4.264-4.95-7.778-3.038-3.039-6.053-5.107-7.318-5.107z"/><path fill="#DCB244" d="M34.998 30.287c3.3 0 11.463 4.821 20.68 14.035 4.906 4.907 9.015 10 11.567 14.341 2.854 4.852 2.61 6.783 2.275 7.117-.122.122-.406.193-.778.193-3.301 0-11.464-4.822-20.68-14.036-4.906-4.907-9.014-10-11.567-14.341-2.854-4.851-2.61-6.782-2.275-7.117.122-.122.406-.192.778-.192m0-1.468c-.779 0-1.395.201-1.816.623-2.675 2.675 3.523 13.212 13.843 23.534 8.697 8.696 17.546 14.466 21.718 14.466.779 0 1.396-.201 1.816-.623 2.676-2.676-3.521-13.212-13.843-23.534-8.698-8.697-17.548-14.467-21.718-14.466zM30.262 40.263c2.867 5.433 7.395 11.374 12.748 16.728 7.42 7.419 15.941 13.157 21.887 14.964.566-.352 1.126-.721 1.671-1.118-5.168-1.119-14.124-6.534-22.497-14.906-8.371-8.372-13.787-17.327-14.906-22.497-.397.543-.765 1.101-1.116 1.666.539 1.748 1.365 3.557 2.213 5.163z"/><path fill="#EDDCA2" d="M23 74c1.656 0 3 1.343 3 3s-1.344 3-3 3c-1.657 0-3-1.343-3-3s1.343-3 3-3z"/><path fill="#B08E36" d="M63.724 69.931c-.457.374-.927.724-1.402 1.062.899.388 1.763.714 2.575.961.536-.333 1.064-.685 1.582-1.059l.081-.062c-.848-.183-1.805-.493-2.836-.902z"/></svg>