<svg xmlns="http://www.w3.org/2000/svg" width="100" height="100" viewBox="0 0 100 100"><path fill="#E2574C" d="M50 0c27.614 0 50 22.386 50 50s-22.386 50-50 50-50-22.386-50-50 22.386-50 50-50z"/><path fill="#EFC75E" d="M97 33h-46c-4.135-2.215-6.343-5-8-5h-14c-1.657 0-3 1.343-3 3v21c0 1.657 1.343 3 3 3h68c1.439 0 2.64-1.015 2.931-2.367.045-.872.069-1.75.069-2.633 0-5.968-1.05-11.69-2.968-16.997l-.032-.003z"/><path fill="#fff" d="M23 38c-.553 0-1 .448-1 1v17c0 .553.447 1 1 1h76c.196 0 .369-.071.523-.169.306-2.234.477-4.513.477-6.831 0-4.138-.512-8.155-1.46-12h-75.54z"/><path fill="#EDEDED" d="M99 41h-78c-.553 0-1 .448-1 1v18c0 .553.447 1 1 1h77.771c.795-3.541 1.229-7.219 1.229-11 0-3.062-.29-6.054-.817-8.963l-.183-.037z"/><path fill="#EFC75E" d="M19 44c-1.657 0-3 1.343-3 3v39.647c8.922 8.283 20.866 13.353 34 13.353 27.614 0 50-22.386 50-50 0-2.032-.136-4.031-.371-6h-80.629z"/><path fill="#EDEDED" d="M27 54h36c.553 0 1 .447 1 1v19c0 .553-.447 1-1 1h-36c-.553 0-1-.447-1-1v-19c0-.553.447-1 1-1z"/><path fill="#D4D4D4" d="M30 59v1h30v-1h-30zm0 6h30v-1h-30v1zm0 5h30v-1h-30v1z"/></svg>