<svg xmlns="http://www.w3.org/2000/svg" width="100" height="100" viewBox="0 0 100 100"><path fill="#82D2ED" d="M50 0c27.614 0 50 22.386 50 50 0 27.615-22.386 50-50 50s-50-22.385-50-50c0-27.614 22.386-50 50-50z"/><path fill="#324D5B" d="M50 100c-10.815 0-20.819-3.445-29-9.281v-57.719c0-2.762 2.238-5 5-5h40c2.762 0 5 2.238 5 5v62.376c-6.387 2.961-13.497 4.624-21 4.624z"/><path fill="#385360" d="M66 28h-20v71.842c1.319.104 2.653.158 4 .158 7.503 0 14.613-1.663 21-4.624v-62.376c0-2.762-2.238-5-5-5z"/><path fill="#EFC75E" d="M58.5 68s4.5 5.433 4.5 8.125-2.015 4.875-4.5 4.875-4.5-2.183-4.5-4.875l4.5-8.125z"/><path fill="#EDEDED" d="M29 33h34c1.657 0 3 1.343 3 3v21c0 1.657-1.343 3-3 3h-34c-1.657 0-3-1.343-3-3v-21c0-1.657 1.343-3 3-3z"/><path fill="#fff" d="M46 44c-8.837 0-16 7.164-16 16h32c0-8.836-7.163-16-16-16z"/><path fill="#D5D5D5" d="M63 33h-34c-1.657 0-3 1.343-3 3v3c0-1.657 1.343-3 3-3h34c1.657 0 3 1.343 3 3v-3c0-1.657-1.343-3-3-3z"/><path fill="#E2574C" d="M51.858 52.625l-2.768 4.865c.56.688.91 1.554.91 2.51 0 2.209-1.791 4-4 4s-4-1.791-4-4 1.791-4 4-4c.477 0 .927.098 1.351.25l2.674-4.7c.292-.515.939-.69 1.446-.394s.679.954.387 1.469z"/><g fill="#324D5B"><path d="M81.992 60.72c.029-.103.042-.207.049-.329l-.057-15.263c.027-1.351-.472-2.577-1.754-2.998l-9.239-3.143v3.919l6.42 1.96s-2.424 3.108-2.424 5.188c0 10.094-.333 11.992 3.581 11.992.713 9.778 4.085 17.616 6.585 23.436l.021.048c.874-.866 1.71-1.769 2.519-2.696-2.374-5.591-5.207-12.924-5.715-21.825-.006-.113-.015-.184.014-.289zm-2.992-2.708c0 .546-.442.988-.988.988h-.023c-.547 0-.989-.442-.989-.988v-7.023c0-.547.442-.989.988-.989h.023c.547 0 .989.442.989.988v7.024zM78.907 90.438l.072-5.458c.015-1.418.151-2.908-.284-4.288-.439-1.4-1.152-2.449-2.283-3.213-1.396-.949-3.641-1.481-5.42-1.559v2.974c1.151.068 2.619.331 3.393.858.375.255 1.027 1.17 1.249 1.59.531.996.348 2.15.327 3.244l-.064 6.398c-.009.624.021 1.201.074 1.749 1.01-.615 1.988-1.275 2.949-1.958l-.013-.337z"/></g></svg>