<svg xmlns="http://www.w3.org/2000/svg" width="100" height="100" viewBox="0 0 100 100"><path fill="#2EA9D3" d="M50 0c27.614 0 50 22.386 50 50s-22.386 50-50 50-50-22.386-50-50 22.386-50 50-50z"/><path fill="#2998BD" d="M89.431 19.274c-1.669-2.139-3.503-4.141-5.492-5.98l-18.166 18.166c-.152-.008-.308-.023-.474-.061-1.368-.312-2.502-1.577-3.02-2.848-1.083-2.657-.109-5.539 1.601-7.679.82-1.025 2.697-2.674 1.445-4.039-2.008-2.184-5.826.507-7.506 1.866-4.061 3.286-5.825 7.59-8.169 12.073-1.18 2.257-2.614 4.4-4.663 5.953-2.034 1.545-4.32 2.115-6.677 2.934-1.451.503-2.883 1.062-4.282 1.699-5.225 2.384-10.877 6.224-12.587 12.045-.835 2.838-.458 5.794.65 8.5.566 1.388 1.259 2.717 2.047 3.99 3.14 5.062 7.562 9.556 12.03 13.453 2.187 1.908 4.66 3.653 7.521 4.322 3.446.805 7.297.094 10.354-1.643 6.091-3.459 9.341-14.642 9.341-14.642.415-1.337.826-2.675 1.359-3.967.954-2.31 2.37-4.256 4.479-5.627 1.041-.675 2.162-1.215 3.281-1.743 1.367-.646 2.74-1.197 4.035-1.987 1.945-1.186 3.753-2.731 4.769-4.819.292-.605.671-1.414.694-2.115.03-1.01-.396-2.301-1.537-2.49-1.16-.19-2.104.683-3.031 1.231-1.177.693-2.457 1.279-3.825 1.445-1.163.142-2.218-.333-3.124-1.034-1.189-.922-2.564-2.744-2.602-4.351l.021-1.128 21.528-21.524z"/><path fill="#324D5B" d="M66.725 28.762c-.994.979-1.893 1.987-3.425 1.637-1.368-.312-2.502-1.577-3.02-2.848-1.083-2.657-.109-5.539 1.601-7.679.82-1.025 2.697-2.674 1.445-4.039-2.008-2.184-5.826.507-7.506 1.866-4.061 3.286-5.825 7.59-8.169 12.073-1.18 2.257-2.614 4.4-4.663 5.953-2.034 1.545-4.32 2.115-6.677 2.934-1.451.503-2.883 1.062-4.282 1.699-5.225 2.384-10.877 6.224-12.587 12.045-.835 2.838-.458 5.794.65 8.5.566 1.388 1.259 2.717 2.047 3.99 3.14 5.062 7.562 9.556 12.03 13.453 2.187 1.908 4.66 3.653 7.521 4.322 3.446.805 7.297.094 10.354-1.643 6.091-3.459 9.341-14.642 9.341-14.642.415-1.337.826-2.675 1.359-3.967.954-2.31 2.37-4.256 4.479-5.627 1.041-.675 2.162-1.215 3.281-1.743 1.367-.646 2.74-1.197 4.035-1.987 1.945-1.186 3.753-2.731 4.769-4.819.292-.605.671-1.414.694-2.115.03-1.01-.396-2.301-1.537-2.49-1.16-.19-2.104.683-3.031 1.231-1.177.693-2.457 1.279-3.825 1.445-1.163.142-2.218-.333-3.124-1.034-1.189-.922-2.564-2.744-2.602-4.351-.002-.147.072-3.373.072-3.373s.591-3.857.77-8.791z"/><path fill="#283E49" d="M21.441 50.403c-.835 2.837-.458 5.793.65 8.5.566 1.388 1.259 2.717 2.047 3.99 3.14 5.062 7.562 9.556 12.03 13.453 2.187 1.908 4.66 3.653 7.521 4.322 3.446.805 7.297.094 10.354-1.643.495-.28.964-.627 1.421-1-1.018 1.218-2.154 2.281-3.421 3-3.057 1.736-6.908 2.447-10.354 1.643-2.861-.669-5.334-2.414-7.521-4.322-4.469-3.897-8.89-8.392-12.03-13.453-.789-1.273-1.481-2.603-2.047-3.99-1.107-2.706-1.485-5.662-.65-8.5.86-2.926 2.716-5.351 5.013-7.342-1.352 1.56-2.421 3.33-3.013 5.342z"/><path fill="#fff" d="M60.553 32.959c.794 2.682 1.908 5.244 3.039 7.792 1.225 2.759 2.246 5.982 5.44 6.912.729.21 1.612.355 2.372.298 1.879-.137 3.5-1.061 5.061-2.067.342-.222 1.072-.903 1.414-.397.342.504-.085 1.564-.308 2.02-.517 1.063-1.409 1.922-2.301 2.664-2.999 2.497-6.726 3.471-9.922 5.595-1.618 1.076-2.692 2.629-3.517 4.383-1.327 2.819-2.387 5.768-3.51 8.677l-.504 1.302c-.543 1.397-1.119 2.736-1.837 4.051-.601 1.1-1.765 3.138-3.337 2.792-.576-.129-.973-.716-1.211-1.226-.574-1.229-.541-2.72-.553-4.047-.014-1.617-.436-3.315-1.103-4.777-.59-1.295-1.419-2.42-2.353-3.464-.92-1.031-1.941-1.981-2.926-2.933-1.492-1.443-2.88-3.002-4.432-4.383-1.022-.917-2.489-2.054-2.889-3.456-.994-3.481 2.075-6.75 4.696-8.422.837-.535 1.736-.983 2.645-1.384 3.216-1.414 6.374-2.95 8.933-5.447 1.544-1.51 2.56-3.262 3.747-5.042.336-.501.712-1.08 1.292-1.303 1.298-.511 1.769.874 2.064 1.862z"/><path fill="#F0CB6A" d="M51.023 45.339c-.461-.462-1.209-.462-1.67 0-.461.462-.461 1.211 0 1.673l3.634 3.641c.462.46 1.21.46 1.671 0 .461-.463.461-1.212 0-1.671l-3.635-3.643zm-3.893 4.171c-.366-.555-1.098-.698-1.633-.317-.536.377-.673 1.135-.307 1.691l3.681 3.581c.365.553 1.098.696 1.632.317.536-.378.673-1.136.307-1.691l-3.68-3.581zm11.524-4.527l-3.635-3.641c-.461-.462-1.208-.462-1.67 0-.461.462-.461 1.211 0 1.673l3.635 3.64c.462.462 1.21.459 1.67 0 .462-.463.462-1.212 0-1.672zM51.023 45.339c-.461-.462-1.209-.462-1.67 0-.461.462-.461 1.211 0 1.673l3.634 3.641c.462.46 1.21.46 1.671 0 .461-.463.461-1.212 0-1.671l-3.635-3.643zm-3.893 4.171c-.366-.555-1.098-.698-1.633-.317-.536.377-.673 1.135-.307 1.691l3.681 3.581c.365.553 1.098.696 1.632.317.536-.378.673-1.136.307-1.691l-3.68-3.581zm11.524-4.527l-3.635-3.641c-.461-.462-1.208-.462-1.67 0-.461.462-.461 1.211 0 1.673l3.635 3.64c.462.462 1.21.459 1.67 0 .462-.463.462-1.212 0-1.672z"/><path fill="#CCD0D2" d="M41.327 54.541l4.102 4.103c.755.755.755 1.979 0 2.734l-2.051 2.051c-.755.755-1.979.755-2.734 0l-4.102-4.102c-.755-.755-.755-1.979 0-2.735l2.051-2.051c.754-.754 1.979-.754 2.734 0z"/><path fill="#324D5B" d="M56.01 62c0-1.105-.9-2.002-2.01-2.002s-2.01.897-2.01 2.002c0 1.106.9 2.004 2.01 2.004s2.01-.898 2.01-2.004zm-1.51 3.998c-.832 0-1.508.673-1.508 1.502 0 .83.676 1.502 1.508 1.502s1.508-.672 1.508-1.502c0-.829-.676-1.502-1.508-1.502z"/><path fill="#E8B873" d="M64.291 41.414c-.792.792-2.076.792-2.868 0l-2.868-2.868c-.792-.792-.792-2.076 0-2.868l23.791-23.791c2.064 1.753 3.982 3.671 5.738 5.733l-23.793 23.794z"/><g fill="#F5C27A"><path d="M69.565 36.139c-.001-1.374.17-2.73.345-4.072.331-2.536.641-4.983-.224-7.521l-1.842 1.842c.667 2.95.483 7.169-2.46 12.741-.416.788-.802 1.571-1.173 2.349l.079-.064 5.275-5.275zM79.136 15.097l-1.412 1.412c1.685 2.688 3.806 5.383 5.634 5.838l.972-.971c-2.018-1.557-3.805-3.986-5.194-6.279zM62.365 31.867l-2.785 2.785c-.417.834-.942 1.715-1.603 2.639.041.458.227.905.577 1.255l.22.22c.313-.499.632-.979.958-1.421 1.446-1.958 2.241-3.812 2.633-5.478zM66.373 27.86l-2.006 2.005c-.134 2.423-.958 5.349-3.275 8.488-.373.504-.735 1.06-1.09 1.641l1.421 1.42c.216.216.47.367.738.465.554-1.226 1.135-2.417 1.728-3.539 2.362-4.473 2.794-7.938 2.484-10.48zM87.195 16.618c-1.324-1.474-2.733-2.868-4.222-4.175 1.003 1.581 2.37 3.104 4.222 4.175zM81.33 12.903l-.949.949c1.379 2.333 3.177 4.857 5.161 6.311l1.645-1.645c-2.697-1.315-4.571-3.452-5.857-5.615zM80.581 25.123l1.459-1.459c-2.039-1.007-4.021-3.518-5.557-5.915l-.649.649c1.161 1.903 2.729 4.221 4.747 6.725zM71.592 32.275c-.092.708-.18 1.399-.244 2.082l1.507-1.507c.077-.477.178-.961.319-1.456.976-3.396-.017-6.611-1.304-9.032l-.873.873c1.342 3.214.956 6.256.595 9.04zM75.082 30.622l4.288-4.288c-2.015-2.484-3.591-4.777-4.777-6.694l-1.455 1.455c1.404 2.472 2.598 5.824 1.944 9.527z"/></g><g fill="#F3D485"><path d="M55.02 41.343c-.355-.356-.878-.431-1.312-.238-.193.435-.12.96.236 1.317l3.635 3.64c.356.356.879.43 1.312.237.194-.436.12-.96-.236-1.315l-3.635-3.641zM47.13 49.51c-.322-.488-.92-.634-1.425-.409-.166.375-.163.822.079 1.189l3.681 3.581c.321.485.92.632 1.424.408.166-.375.162-.822-.079-1.188l-3.68-3.581zM51.023 45.339c-.355-.356-.878-.431-1.312-.238-.195.435-.121.96.236 1.317l3.634 3.641c.356.354.88.429 1.313.237.193-.435.12-.959-.236-1.314l-3.635-3.643z"/></g><path fill="#B4B8BB" d="M41.643 62.429l-4.102-4.102c-.755-.755-.755-1.979 0-2.735l-1 1c-.755.756-.755 1.98 0 2.735l4.102 4.102c.755.755 1.979.755 2.734 0l1-1c-.754.755-1.979.755-2.734 0z"/></svg>