<svg xmlns="http://www.w3.org/2000/svg" width="100" height="100" viewBox="0 0 100 100"><path fill="#F2F1EF" d="M50 0c27.614 0 50 22.386 50 50s-22.386 50-50 50-50-22.386-50-50 22.386-50 50-50z"/><path fill="#283E49" d="M50 57.162c13.275 0 26-1.319 26 3.468 0 10.34-12.725 19.37-26 19.37s-26-9.018-26-19.37c0-4.787 12.725-3.468 26-3.468z"/><path fill="#394C56" d="M50 61.163c-13.275 0-16-1.32-16 3.467 0 4.823 1.329 9.343 3.738 12.81 3.759 1.618 7.98 2.56 12.262 2.56 4.307 0 8.552-.955 12.327-2.592 2.38-3.465 3.673-7.972 3.673-12.778 0-4.787-2.725-3.467-16-3.467z"/><path fill="#255F72" d="M50 20c19.883 0 36 13.901 36 24.334 0 10.432-16.117 12.666-36 12.666-19.882 0-36-2.234-36-12.666 0-10.433 16.118-24.334 36-24.334z"/><path fill="#1F5161" d="M50 66c-15.608 0-25-4.452-25-8.615v-4.308c0-4.163 9.392-14.077 25-14.077 15.607 0 25 9.914 25 14.077v4.308c0 4.163-9.393 8.615-25 8.615z"/><path fill="#2EA9D3" d="M50 67c-14.359 0-26-4.134-26-8v-4c0-3.866 11.641-6 26-6s26 2.134 26 6v4c0 3.866-11.641 8-26 8z"/><path fill="#2893B8" d="M50 49c-14.359 0-26 2.134-26 6v3c0-3.866 11.641-6 26-6s26 2.134 26 6v-3c0-3.866-11.641-6-26-6z"/><path fill="#2587A9" d="M75.532 57.003s-.583.091-.776.202c-2.91.86-13.652 3.795-24.746 3.795-11.187 0-21.998-2.981-24.802-3.814-.171-.093-.713-.186-.713-.186-.174.001-.339.037-.495.093v1.907c0 .327.09.657.252.985 1.82.55 13.769 4.015 25.735 4.015 12.367 0 24.361-3.643 25.509-4h.004l.276-.076c.143-.309.224-.617.224-.924v-1.905c-.147-.052-.303-.088-.468-.092zM55.16 40h-10.319c-1.569 0-2.841 1.271-2.841 2.841v7.159c0 4.418 3.582 8 8 8s8-3.582 8-8v-7.159c0-1.57-1.271-2.841-2.84-2.841z"/><path fill="#EFC75E" d="M55.16 38h-10.319c-1.569 0-2.841 1.271-2.841 2.841v7.159c0 4.418 3.582 8 8 8s8-3.582 8-8v-7.159c0-1.57-1.271-2.841-2.84-2.841z"/><path fill="#C1A14C" d="M49.879 49.846l-2.035 1.118c-.21.116-.456-.07-.416-.315l.389-2.369c.016-.097-.015-.196-.083-.265l-1.646-1.678c-.17-.173-.076-.476.159-.511l2.275-.346c.094-.014.174-.075.216-.164l1.018-2.154c.105-.223.409-.223.514 0l1.018 2.154c.042.089.123.15.216.164l2.275.346c.235.035.329.338.159.511l-1.646 1.678c-.068.068-.099.168-.082.265l.389 2.369c.039.245-.206.432-.416.315l-2.036-1.118c-.085-.046-.184-.046-.268 0z"/><path fill="#D7B355" d="M55.16 38h-10.319c-1.569 0-2.841 1.271-2.841 2.841v2c0-1.57 1.272-2.841 2.841-2.841h10.319c1.568 0 2.84 1.271 2.84 2.841v-2c0-1.57-1.271-2.841-2.84-2.841z"/><path fill="#F2D27E" d="M44 40l11.806 13.492c1.356-1.433 2.194-3.363 2.194-5.492v-7.159c0-.295-.058-.573-.141-.841h-13.859z"/><path fill="#C2A865" d="M53.778 45.826l-2.275-.346c-.093-.014-.174-.075-.216-.164l-1.018-2.154c-.105-.223-.409-.223-.514 0l-1.018 2.154-.041.051 3.735 4.269-.223-1.357c-.017-.097.014-.196.082-.265l1.646-1.678c.171-.172.078-.475-.158-.51z"/><path fill="#EFC75E" d="M77 57.5c0 .828-.719 1.328-1.5 1.5h-.004c-1.148.357-13.143 4-25.509 4-12.996 0-25.982-4.09-25.982-4.09-.584-.206-1.005-.756-1.005-1.41 0-.826.669-1.496 1.495-1.5 0 0 .542.093.713.186 2.804.833 13.615 3.814 24.802 3.814 11.094 0 21.836-2.935 24.746-3.795.193-.111.776-.202.776-.202.814.018 1.468.68 1.468 1.497z"/><g fill="#DCB757"><path d="M43.983 59.732c-.722-.062-1.438-.13-2.142-.208l.836 3.089c.705.071 1.417.133 2.136.186l-.83-3.067zM38.808 59.131c-.743-.107-1.471-.221-2.178-.34l.853 3.148c.709.111 1.433.218 2.171.317l-.846-3.125zM33.548 58.223c-.771-.154-1.518-.31-2.211-.464l.87 3.214c.702.146 1.44.293 2.204.437l-.863-3.187zM49.065 59.984c-.705-.01-1.405-.031-2.103-.062l.823 3.039c.697.023 1.396.037 2.096.038l-.816-3.015zM26.845 59.711c.653.172 1.409.362 2.246.562l-.884-3.266c-.905-.231-1.673-.441-2.264-.609l.902 3.313zM73.164 56.655c-.565.153-1.213.324-1.949.507l.763 2.818c.757-.194 1.41-.37 1.945-.52l-.759-2.805zM58.878 59.439c-.667.079-1.343.151-2.026.217l.791 2.924c.684-.072 1.357-.15 2.021-.235l-.786-2.906zM63.701 58.741c-.648.111-1.317.218-1.998.319l.78 2.881c.682-.107 1.348-.22 1.994-.336l-.776-2.864zM68.462 57.808c-.624.138-1.288.275-1.974.412l.771 2.85c.69-.143 1.349-.286 1.971-.427l-.768-2.835zM52.728 62.94c.689-.028 1.375-.065 2.055-.112l-.798-2.949c-.684.04-1.37.07-2.061.091l.804 2.97z"/></g></svg>