<svg xmlns="http://www.w3.org/2000/svg" width="100" height="100" viewBox="0 0 100 100"><path fill="#EDEDED" d="M50 0c27.614 0 50 22.386 50 50s-22.386 50-50 50-50-22.386-50-50 22.386-50 50-50z"/><path fill="#C34C43" d="M79.322 54.164l-14.08 16.425c-1.193 1.392-2.497 2.694-3.975 3.779-9.4 6.898-22.702 6.084-31.223-2.433-8.521-8.516-9.335-21.96-2.434-32.306 1.085-1.627 2.389-3.062 3.782-4.375l16.434-15.499c1.287-1.212 9.174 2.768 9.174 2.768v7.477s-.273.757-.992 1.477l-17.495 14.981c-4.688 4.687-4.679 12.294.022 16.992 4.701 4.699 12.312 4.709 17.002.022l14.99-17.485c1.997-2.331 9.473-.581 9.473-.581v7.593999999999999s-.087.475-.678 1.164z"/><path fill="#E2574C" d="M56.162 20.328c1.168 1.167 1.097 3.077-.154 4.148l-17.495 14.982c-4.688 4.687-4.679 12.294.022 16.992 4.701 4.699 12.312 4.709 17.002.022l14.99-17.485c1.07-1.25 2.982-1.321 4.15-.154l4.492 4.489c1.047 1.047 1.113 2.721.152 3.842l-14.08 16.425c-1.193 1.392-2.497 2.695-3.975 3.779-9.4 6.898-22.702 6.084-31.223-2.433-8.521-8.516-9.335-21.811-2.434-31.205 1.085-1.477 2.389-2.779 3.782-3.972l16.434-14.073c1.122-.96 2.796-.894 3.843.153l4.494 4.49z"/><g fill="#B5B5B3"><path d="M74 44.8v15.573l5.322-6.209c.591-.689.678-1.164.678-1.164v-7.593999999999999s-3.221-.748-6-.606zM56.008 31.477c.719-.72.992-1.477.992-1.477v-7.477s-1.518-.766-3.33-1.523h-3.67v15.621l6.008-5.144z"/></g><g fill="#D9D8D7"><path d="M51.67 15.839c-1.047-1.047-2.722-1.113-3.843-.153l-6.255 5.356 8.51 8.51 5.927-5.075c1.251-1.071 1.322-2.981.154-4.148l-4.493-4.49zM74.678 38.833c-1.168-1.167-3.08-1.096-4.15.154l-5.082 5.928 8.51 8.51 5.367-6.262c.961-1.121.895-2.795-.152-3.842l-4.493-4.488z"/></g></svg>