<svg xmlns="http://www.w3.org/2000/svg" width="100" height="100" viewBox="0 0 100 100"><path fill="#F4F0D3" d="M50 0c27.614 0 50 22.386 50 50s-22.386 50-50 50-50-22.386-50-50 22.386-50 50-50z"/><path fill="#DBD8BD" d="M86.805 74.379c2.176.589 4.191-1.422 3.602-3.594-2.256-8.309-3.713-21.45-3.713-36.244 0-6.273.266-12.239.739-17.673-4.903-5.536-11.008-9.982-17.915-12.914h-39.035c-6.492 2.755-12.273 6.849-17.016 11.926.53 5.693.826 12.007.826 18.661 0 14.794-1.457 27.936-3.712 36.244-.59 2.172 1.425 4.183 3.601 3.594 8.324-2.251 21.49-3.705 36.311-3.705s27.987 1.454 36.312 3.705z"/><path fill="#E2574C" d="M86.805 70.379c2.176.589 4.191-1.422 3.602-3.594-2.256-8.309-3.713-21.45-3.713-36.244 0-4.888.162-9.589.457-13.999-9.152-10.155-22.405-16.542-37.151-16.542-14.263 0-27.121 5.982-36.23 15.562.338 4.69.523 9.728.523 14.979 0 14.794-1.457 27.936-3.712 36.244-.59 2.172 1.425 4.183 3.601 3.594 8.324-2.251 21.49-3.705 36.311-3.705s27.987 1.454 36.312 3.705z"/><path fill="#2C4450" d="M45 28.383l13.633 3.617 9.291-28.677c-4.338-1.667-8.965-2.744-13.788-3.139l-9.136 28.199z"/><path fill="#324D5B" d="M32.076 3.323l9.258 28.675 13.677-3.614-9.104-28.203c-4.839.392-9.48 1.47-13.831 3.142z"/><path fill="#CB4E44" d="M48.5 21c8.008 0 14.5 6.939 14.5 15.5s-6.492 15.5-14.5 15.5-14.5-6.939-14.5-15.5 6.492-15.5 14.5-15.5z"/><path fill="#F6C37A" d="M50 20c7.732 0 14 6.268 14 14s-6.268 14-14 14-14-6.268-14-14 6.268-14 14-14z"/><path fill="#E0B270" d="M54 30v-4h-8v4h2v7h-2v4h8v-4h-2v-7z"/><path fill="#D0A15D" d="M50 48c-7.395 0-13.435-5.737-13.95-13-.023.332-.05.663-.05 1 0 7.732 6.268 14 14 14s14-6.268 14-14c0-.337-.027-.668-.051-1-.514 7.263-6.554 13-13.949 13z"/><path fill="#F6C37A" d="M80.787 10.618c-.717 5.842-1.115 12.585-1.115 19.721 0 12.219 1.165 23.498 3.197 30.944.106.39-.057.682-.163.82-.191.252-.486.402-.787.402l-.264-.036c-7.493-2.018-18.847-3.175-31.149-3.175s-23.655 1.157-31.148 3.175l-.264.036c-.301 0-.596-.15-.788-.402-.106-.139-.269-.431-.162-.82 2.032-7.448 3.197-18.728 3.197-30.944 0-7.43-.431-14.439-1.205-20.443-.471.352-.928.718-1.386 1.085.691 5.685 1.09 12.292 1.09 19.358 0 12.47-1.234 23.546-3.145 30.55-.439 1.61.83 3.117 2.397 3.117.213 0 .433-.028.654-.088 7.051-1.898 18.204-3.123 30.758-3.123 12.556 0 23.709 1.225 30.76 3.123.221.06.44.088.653.088 1.567 0 2.837-1.507 2.397-3.117-1.911-7.004-3.145-18.08-3.145-30.55 0-6.752.361-13.096.997-18.606-.45-.381-.913-.75-1.379-1.115z"/></svg>