<svg xmlns="http://www.w3.org/2000/svg" width="100" height="100" viewBox="0 0 100 100"><path fill="#3DB39E" d="M50 0c27.614 0 50 22.386 50 50s-22.386 50-50 50-50-22.386-50-50 22.386-50 50-50z"/><path fill="#E1E1E1" d="M40 21c-2.762 0-5 2.238-5 5s2.238 5 5 5 5-2.238 5-5-2.238-5-5-5zm0 7c-1.104 0-2-.896-2-2s.896-2 2-2 2 .896 2 2-.896 2-2 2zm20-7c-2.762 0-5 2.238-5 5s2.238 5 5 5 5-2.238 5-5-2.238-5-5-5zm0 7c-1.104 0-2-.896-2-2s.896-2 2-2 2 .896 2 2-.896 2-2 2z"/><path fill="#F2F1EF" d="M53.607 81.988c1.451-.912 2.393-2.356 2.393-3.988l-.02-.739.02-.261-.019-.699c11.475-2.703 20.019-13.001 20.019-25.301 0-14.359-11.641-26-26-26s-26 11.641-26 26c0 12.3 8.544 22.598 20.019 25.301l-.019.699.02.265-.02.735c0 1.632.942 3.076 2.393 3.988-.69 4.945-1.182 10.538-1.382 17.763 1.64.163 3.304.249 4.989.249s3.349-.086 4.99-.249c-.2-7.225-.692-12.817-1.383-17.763z"/><path fill="#37A18E" d="M49 26c-14.359 0-26 11.641-26 26 0 12.3 8.544 22.598 20.019 25.301l-.019.699.02.265-.02.735c0 1.632.942 3.076 2.393 3.988-.654 4.685-1.127 9.964-1.346 16.646 1.953.233 3.937.366 5.953.366 1.334 0 2.652-.068 3.96-.171-.216-6.775-.692-12.111-1.353-16.841 1.451-.912 2.393-2.356 2.393-3.988l-.02-.739.02-.261-.019-.699c11.475-2.703 20.019-13.001 20.019-25.301 0-14.359-11.641-26-26-26z"/><path fill="#F2F1EF" d="M76 51c0-12.029-8.171-22.146-19.265-25.114.168-.601.265-1.232.265-1.886 0-3.866-3.134-7-7-7s-7 3.134-7 7c0 .654.097 1.285.265 1.886-11.094 2.968-19.265 13.085-19.265 25.114 0 12.3 8.544 22.598 20.019 25.301l-.019.699.02.265-.02.735c0 1.632.942 3.076 2.393 3.988-.698 5.003-1.195 10.663-1.391 18.012h9.996c-.195-7.349-.692-13.009-1.391-18.012 1.451-.912 2.393-2.356 2.393-3.988l-.02-.739.02-.261-.019-.699c11.475-2.703 20.019-13.001 20.019-25.301zm-30-27c0-2.209 1.791-4 4-4s4 1.791 4 4c0 .449-.091.873-.228 1.276-1.231-.179-2.49-.276-3.772-.276-1.282 0-2.541.097-3.773.276-.136-.403-.227-.827-.227-1.276z"/><path fill="#DBDDDD" d="M45.145 97c.029-.671.057-1.346.091-2h9.529c.034.654.062 1.329.091 2h-9.711zm.207-4c.042-.679.087-1.344.134-2h9.029c.047.656.092 1.321.134 2h-9.297zm9.011-4h-8.727c.057-.679.113-1.351.176-2h8.375c.063.649.12 1.321.176 2z"/><path fill="#93D3E8" d="M50 29c12.15 0 22 9.85 22 22s-9.85 22-22 22-22-9.85-22-22 9.85-22 22-22z"/><path fill="#84BDD0" d="M50 32c11.646 0 21.172 9.05 21.943 20.5.034-.496.057-.995.057-1.5 0-12.15-9.85-22-22-22s-22 9.85-22 22c0 .505.023 1.004.057 1.5.771-11.45 10.297-20.5 21.943-20.5z"/><g fill="#A9DCED"><path d="M53.217 72.764c4.269-.626 8.135-2.479 11.238-5.187l-21.586-37.389c-4.022 1.378-7.516 3.887-10.105 7.149l20.453 35.427zM51.451 29.053c-.48-.032-.963-.053-1.451-.053-1.043 0-2.068.078-3.073.218l20.398 35.332c.928-1.185 1.738-2.465 2.41-3.827l-18.284-31.67z"/></g><g fill="#98C6D5"><path d="M51.451 29.053c-.48-.032-.963-.053-1.451-.053-1.043 0-2.068.078-3.073.218l1.646 2.851c.474-.03.946-.069 1.427-.069 1.128 0 2.228.109 3.311.273l-1.86-3.22zM42.869 30.188c-4.022 1.378-7.516 3.887-10.105 7.149l1.039 1.8c2.794-3.045 6.433-5.291 10.548-6.383l-1.482-2.566z"/></g><path fill="#CFCECC" d="M50 83c-1.356 0-2.603-.379-3.607-1.012l-.128.921c1.025.681 2.322 1.091 3.735 1.091s2.71-.41 3.735-1.091l-.128-.921c-1.004.633-2.252 1.012-3.607 1.012zM44.08 77.297c1.904.444 3.88.703 5.92.703s4.016-.259 5.921-.703c.027.274.048.657.062 1l.017-.297c0-.275-.027-1.187-.079-1.703-1.905.444-3.881.703-5.921.703s-4.016-.259-5.92-.703c-.052.516-.08 1.428-.08 1.703l.019.302c.013-.344.034-.73.061-1.005z"/></svg>