<svg xmlns="http://www.w3.org/2000/svg" width="100" height="100" viewBox="0 0 100 100"><path fill="#E2574C" d="M50 0c27.614 0 50 22.386 50 50s-22.386 50-50 50-50-22.386-50-50 22.386-50 50-50z"/><path fill="#E67067" d="M2 57c1.104 0 2-.896 2-2v5c0 1.104.896 2 2 2s2-.896 2-2v5c0 1.104.896 2 2 2s2-.896 2-2v-5c0 1.104.896 2 2 2s2-.896 2-2v10c0 1.104.896 2 2 2s2-.896 2-2v-3c0 1.104.896 2 2 2s2-.896 2-2v-5c0 1.104.896 2 2 2s2-.896 2-2v4c0 1.104.896 2 2 2s2-.896 2-2v-6c0 1.104.896 2 2 2s2-.896 2-2v5c0 1.104.896 2 2 2s2-.896 2-2v-5c0 1.104.896 2 2 2s2-.896 2-2v10c0 1.104.896 2 2 2s2-.896 2-2v-3c0 1.104.896 2 2 2s2-.896 2-2v-5c0 1.104.896 2 2 2s2-.896 2-2v-7c0 1.104.896 2 2 2s2-.896 2-2v5c0 1.104.896 2 2 2s2-.896 2-2v6c0 1.104.896 2 2 2s2-.896 2-2v-6c0 1.104.896 2 2 2s2-.896 2-2v10c0 1.104.896 2 2 2s2-.896 2-2v-3c0 1.104.896 2 2 2s2-.896 2-2v-5c0 1.104.896 2 2 2s2-.896 2-2v-7c0 1.104.896 2 2 2s2-.896 2-2v5c0 1.104.896 2 2 2s2-.896 2-2v5c0 1.104.896 2 2 2s2-.896 2-2v-5c0 1.104.896 2 2 2 .196 0 .382-.037.561-.09.933-3.818 1.439-7.805 1.439-11.91h-100c0 2.095.144 4.154.394 6.182.364.494.945.818 1.606.818z"/><path fill="#E98179" d="M98 38c-1.104 0-2 .896-2 2v-5c0-1.104-.896-2-2-2s-2 .896-2 2v5c0-1.104-.896-2-2-2s-2 .896-2 2v5c0-1.104-.896-2-2-2s-2 .896-2 2v-7c0-1.104-.896-2-2-2s-2 .896-2 2v-5c0-1.104-.896-2-2-2s-2 .896-2 2v-3c0-1.104-.896-2-2-2s-2 .896-2 2v10c0-1.104-.896-2-2-2s-2 .896-2 2v-5c0-1.104-.896-2-2-2s-2 .896-2 2c0-1.104-.896-2-2-2s-2 .896-2 2c0-1.104-.896-2-2-2s-2 .896-2 2v-3c0-1.104-.896-2-2-2s-2 .896-2 2v3c0-1.104-.896-2-2-2s-2 .896-2 2v-3c0-1.104-.896-2-2-2s-2 .896-2 2v8c0-1.104-.896-2-2-2s-2 .896-2 2v-5c0-1.104-.896-2-2-2s-2 .896-2 2v5c0-1.104-.896-2-2-2s-2 .896-2 2v5c0-1.104-.896-2-2-2s-2 .896-2 2v-7c0-1.104-.896-2-2-2s-2 .896-2 2v-5c0-1.104-.896-2-2-2s-2 .896-2 2v-3c0-1.104-.896-2-2-2s-2 .896-2 2v10c0-1.104-.896-2-2-2s-2 .896-2 2v-5c0-1.104-.896-2-2-2s-2 .896-2 2v5c0-1.104-.896-2-2-2s-2 .896-2 2v5c0-1.104-.896-2-2-2-.661 0-1.242.324-1.606.818-.25 2.027-.394 4.087-.394 6.182h100c0-4.106-.506-8.092-1.439-11.91-.179-.053-.365-.09-.561-.09z"/><path fill="#CB4E44" d="M33.003 38.762v20.314c0 .719-.672 1.264-1.377 1.095-.581-.14-1.191-.207-1.82-.189-3.715.104-6.799 3.306-6.802 6.986-.004 3.833 3.132 7.065 6.999 7.065 3.525 0 6.511-2.674 6.997-6.033l.003-20.52c0-1.289.885-2.413 2.148-2.726l18.311-4.535c1.798-.445 3.539.901 3.539 2.736v9.13c0 .721-.674 1.266-1.381 1.097-.581-.139-1.189-.205-1.816-.188-3.715.104-6.799 3.399-6.803 7.08-.004 3.833 3.132 6.94 7 6.94 3.525 0 6.513-2.656 6.999-6.016v-27.358c0-3.648-3.461-6.325-7.033-5.44l-20.674 5.119c-2.522.624-4.29 2.869-4.29 5.443z"/><g fill="#CF655C"><path d="M65 61v-11h-3.999v2.086c0 .721-.674 1.266-1.381 1.097-.581-.139-1.189-.205-1.816-.188-3.715.104-6.799 3.399-6.803 7.08-.001 1.305.368 2.521.999 3.564v-1.639c0 1.104.896 2 2 2s2-.896 2-2v-7c0 1.104.896 2 2 2s2-.896 2-2v5c0 1.104.896 2 2 2s2-.896 2-2v3.676c.508-.804.86-1.709 1-2.676zM37.002 50h-3.999v9.076c0 .582-.442 1.043-.984 1.11.095 1.016.941 1.814 1.981 1.814 1.104 0 2-.896 2-2v5c0 .738.405 1.376 1 1.723l.002-16.723zM32 66v-5.812c-.122.013-.246.013-.374-.018-.581-.14-1.191-.207-1.82-.189-2.257.063-4.276 1.274-5.518 3.037.349.586.981.982 1.712.982 1.104 0 2-.896 2-2v4c0 1.104.896 2 2 2s2-.896 2-2zM24 67v-3.537c-.626 1.044-.995 2.244-.996 3.505-.001.557.072 1.099.196 1.622.484-.365.8-.939.8-1.59z"/></g><path fill="#D1746D" d="M65 50v-16.36l-.021-.351c-.583.349-.979.981-.979 1.711 0-1.104-.896-2-2-2s-2 .896-2 2c0-1.104-.896-2-2-2s-2 .896-2 2v-3c0-1.104-.896-2-2-2s-2 .896-2 2v3c0-1.104-.896-2-2-2s-2 .896-2 2v-3c0-.465-.165-.887-.431-1.226l-3.534.875-.035.351v8c0-1.104-.896-2-2-2s-2 .896-2 2v-5c0-.964-.683-1.769-1.592-1.958l-1.115.276c-.226.056-.437.139-.649.22-.394.366-.644.883-.644 1.462v5c0-1.104-.896-2-2-2-.347 0-.669.097-.954.252-.016.169-.043.336-.043.509v11.239h3.999l.001-2.52c0-1.289.885-2.413 2.148-2.726l18.311-4.535c1.798-.445 3.539.901 3.539 2.736v7.045h3.999z"/><path fill="#F4F0D3" d="M35.003 37.762v20.314c0 .719-.672 1.264-1.377 1.095-.581-.14-1.191-.207-1.82-.189-3.715.104-6.799 3.306-6.802 6.986-.004 3.833 3.132 7.065 6.999 7.065 3.525 0 6.511-2.674 6.997-6.033l.003-20.52c0-1.289.885-2.413 2.148-2.726l18.311-4.535c1.798-.445 3.539.901 3.539 2.736v9.13c0 .721-.674 1.266-1.381 1.097-.581-.139-1.189-.205-1.816-.188-3.715.104-6.799 3.399-6.803 7.08-.004 3.833 3.132 6.94 7 6.94 3.525 0 6.513-2.656 6.999-6.016v-27.358c0-3.648-3.461-6.325-7.033-5.44l-20.674 5.119c-2.522.624-4.29 2.869-4.29 5.443z"/></svg>