<svg xmlns="http://www.w3.org/2000/svg" width="100" height="100" viewBox="0 0 100 100"><path fill="#EDEDED" d="M50 0c27.614 0 50 22.386 50 50s-22.386 50-50 50-50-22.386-50-50 22.386-50 50-50z"/><path fill="#F2D27E" d="M59.857 24.988l16.136 16.146-11.134 17.483c-1.459 2.064-3.576 3.564-6.02 4.264 0 0-23.027 6.952-26.476 7.993-.463.14-1.161-.602-1.161-.602l18.306-17.317c1.138-1.14 2.718-1.645 4.353-1.633 1.315.009 2.613-.616 3.401-1.896.778-1.263.753-2.946-.063-4.235-1.488-2.351-4.594-2.654-6.381-.866-.774.774-1.151 1.796-1.14 2.825.017 1.627-.491 3.198-1.623 4.33l-17.315 18.329s-.706-.818-.537-1.376c1.233-4.091 7.924-26.279 7.924-26.279.698-2.445 2.197-4.564 4.26-6.022l17.47-11.144z"/><path fill="#E6C778" d="M59.894 25.024l-17.464 11.183c-2.065 1.467-3.566 3.594-4.268 6.049l-.617 1.828c-1.653 5.48-6.331 20.994-7.342 24.349-.168.558.537 1.376.537 1.376l17.316-18.329c1.132-1.132 1.64-2.703 1.623-4.33-.011-1.029.366-2.051 1.14-2.825 1.591-1.591 4.219-1.516 5.828.175l11.337-11.38-8.09-8.096z"/><path fill="#7C3A15" d="M80.01 39.037l-18.047-18.046-2.389 2.388c-.766.768-.766 2.01 0 2.777l15.271 15.27c.767.767 2.009.767 2.776 0l2.389-2.389z"/><path fill="#E6C778" d="M64.859 57.617c-1.459 2.064-3.576 3.564-6.02 4.264 0 0-23.027 6.952-26.476 7.993-.18.054-.395-.025-.59-.142l-.571.54s.698.741 1.161.602c3.449-1.041 26.476-7.993 26.476-7.993 2.443-.699 4.561-2.199 6.02-4.264l11.134-17.482-.389-.389-10.745 16.871z"/><path fill="#DABD72" d="M31.203 69.272l.411-.389 16.442-17.403c1.132-1.132 1.64-2.703 1.623-4.33-.011-1.029.366-2.051 1.14-2.825 1.787-1.788 4.893-1.484 6.381.866.331.522.525 1.111.596 1.709.118-.924-.08-1.895-.596-2.709-1.488-2.351-4.594-2.654-6.381-.866-.774.774-1.151 1.796-1.14 2.825.017 1.627-.491 3.198-1.623 4.33l-17.316 18.329s-.275-.319-.441-.695l-.096.319c-.168.558.537 1.376.537 1.376l.485-.514-.022-.023z"/><path fill="#6A3112" d="M78.01 37.037l-2.389 2.389c-.768.767-2.01.767-2.776 0l-13.271-13.27h.001l15.271 15.27c.767.767 2.009.767 2.776 0l2.389-2.389-2.001-2z"/><path fill="#9B481A" d="M87.318 39.348c-2.18 2.18-5.714 2.18-7.893 0l-17.775-17.775c-2.179-2.18-2.179-5.714 0-7.894l9.147-9.146c11.351 5.201 20.424 14.514 25.289 26.045l-8.768 8.77z"/><path fill="#843D16" d="M82.318 34.348l10.371-10.372c1.287 2.104 2.43 4.308 3.397 6.603l-8.769 8.77c-2.18 2.18-5.714 2.18-7.893 0l-3.697-3.697c2.252.683 5.025.262 6.591-1.304z"/><g fill="#82401B"><path d="M64.565 10.766l1.414-1.414 25.668 25.668-1.414 1.414zM88.819 37.847l-1.414 1.414-25.668-25.668 1.414-1.414z"/></g><g fill="#703718"><path d="M85.232 31.434l1.414-1.414 5 5-1.414 1.414zM88.82 37.847l-1.414 1.414-5-5 1.414-1.414z"/></g></svg>