<svg xmlns="http://www.w3.org/2000/svg" width="100" height="100" viewBox="0 0 100 100"><path fill="#EFC75E" d="M50 0c27.614 0 50 22.386 50 50s-22.386 50-50 50-50-22.386-50-50 22.386-50 50-50z"/><g fill="#3AA590"><circle cx="33" cy="79" r="9"/><path d="M13.988 84.667c1.257-1.548 2.012-3.519 2.012-5.667 0-4.971-4.029-9-9-9-.922 0-1.811.14-2.648.397 2.377 5.313 5.652 10.132 9.636 14.27z"/></g><path fill="#D7B354" d="M1.46 38h97.08c-5.376-21.817-25.063-38-48.54-38s-43.164 16.183-48.54 38z"/><path fill="#324D5B" d="M21 27h58c2.762 0 5-2.238 5-5v-8.648c-8.92-8.284-20.865-13.352-34-13.352-13.134 0-25.08 5.068-34 13.352v8.648c0 2.762 2.238 5 5 5z"/><path fill="#E8E7E4" d="M44 45c-4.971 0-9 4.029-9 9s4.029 9 9 9 9-4.029 9-9-4.029-9-9-9zm-26 0c-4.971 0-9 4.029-9 9s4.029 9 9 9 9-4.029 9-9-4.029-9-9-9z"/><path fill="#F2F1EF" d="M44 49c-2.762 0-5 2.238-5 5s2.238 5 5 5 5-2.238 5-5-2.238-5-5-5zm-26 0c-2.762 0-5 2.238-5 5s2.238 5 5 5 5-2.238 5-5-2.238-5-5-5z"/><path fill="#70838D" d="M27 14h2v-2h-2v2zm48 2v2h2v-2h-2zm-11-3h2v-2h-2v2z"/><path fill="#324D5B" d="M77 50c7.732 0 14 6.268 14 14s-6.268 14-14 14-14-6.268-14-14 6.268-14 14-14z"/><path fill="#5B717C" d="M80.509 50.005l7.478 4.12-5.936 9.814c-1.192 1.971-3.833 2.646-5.897 1.508s-2.771-3.658-1.58-5.629l5.935-9.813z"/><path fill="#51BBA8" d="M40 22v-6h2v-2h6.011l-.011-2h1v-2h2v2h1v2h6v2h2v6h-20z"/><path fill="#233640" d="M21 27h58c2.762 0 5-2.238 5-5v-8.648c-.649-.604-1.319-1.185-2-1.753v10.401c0 1.654-1.346 3-3 3h-58c-1.654 0-3-1.346-3-3v-10.401c-.681.568-1.351 1.149-2 1.753v8.648c0 2.762 2.238 5 5 5z"/><g fill="#E2E1DF"><path d="M18 59c-2.762 0-5-2.238-5-5 0-1.125.385-2.152 1.012-2.987-1.215.912-2.012 2.35-2.012 3.987 0 2.762 2.238 5 5 5 1.637 0 3.076-.797 3.988-2.013-.836.628-1.863 1.013-2.988 1.013zM44 59c-2.762 0-5-2.238-5-5 0-1.125.385-2.152 1.012-2.987-1.215.912-2.012 2.35-2.012 3.987 0 2.762 2.238 5 5 5 1.637 0 3.076-.797 3.988-2.013-.836.628-1.863 1.013-2.988 1.013z"/></g><path fill="#349481" d="M33 84c-2.762 0-5-2.238-5-5 0-1.125.385-2.152 1.012-2.987-1.215.912-2.012 2.35-2.012 3.987 0 2.762 2.238 5 5 5 1.637 0 3.076-.797 3.988-2.013-.836.628-1.863 1.013-2.988 1.013z"/><path fill="#70838D" d="M82.051 63.939c-1.192 1.971-3.833 2.646-5.897 1.508-1.71-.942-2.469-2.832-2.009-4.574l-.571.945c-1.191 1.971-.484 4.491 1.58 5.629s4.705.463 5.897-1.508l1-2z"/><path fill="#D05046" d="M86 36c7.18 0 13 5.82 13 13s-5.82 13-13 13-13-5.82-13-13 5.82-13 13-13z"/><path fill="#E2574C" d="M86 36c-4.699 0-8.804 2.502-11.088 6.238-.582 1.476-.912 3.079-.912 4.762 0 7.18 5.82 13 13 13 4.699 0 8.804-2.502 11.088-6.238.582-1.476.912-3.079.912-4.762 0-7.18-5.82-13-13-13z"/><path fill="#EB8A82" d="M91 39c1.657 0 3 1.343 3 3s-1.343 3-3 3-3-1.343-3-3 1.343-3 3-3z"/><path fill="#4F5E66" d="M82.745 62.792l.638-1.056c-2.918-.597-5.478-2.175-7.326-4.37l-.763 1.261c1.906 2.144 4.505 3.648 7.451 4.165z"/><g fill="#46BDA8"><circle cx="33" cy="79" r="5"/><path d="M7 74c-.281 0-.553.038-.822.083 1.466 2.662 3.167 5.176 5.076 7.514.464-.759.746-1.642.746-2.597 0-2.762-2.238-5-5-5z"/></g></svg>