<svg xmlns="http://www.w3.org/2000/svg" width="100" height="100" viewBox="0 0 100 100"><path fill="#91D8F0" d="M50 0c27.614 0 50 22.386 50 50s-22.386 50-50 50-50-22.386-50-50 22.386-50 50-50z"/><path fill="#E9AD9A" d="M34.174 32.169l16.736 11.321 33.9-29.365c-7.201-6.988-16.492-11.83-26.853-13.488l-23.783 31.532z"/><path fill="#DBA391" d="M63.563 1.872c-1.829-.514-3.699-.929-5.606-1.234l-23.783 31.531 4.034 2.729 25.355-33.026z"/><path fill="#C8ECF8" d="M23 60c0-.553-.448-1-1-1h-9c-.552 0-1 .447-1 1s.448 1 1 1h9c.552 0 1-.447 1-1zm-1 4c0 .553.448 1 1 1h4c.553 0 1-.447 1-1s-.447-1-1-1h-4c-.552 0-1 .447-1 1zm-3-1h-3c-.552 0-1 .447-1 1s.448 1 1 1h3c.552 0 1-.447 1-1s-.448-1-1-1zm11 4h-9c-.552 0-1 .447-1 1s.448 1 1 1h9c.553 0 1-.447 1-1s-.447-1-1-1zm-15-10h4c.552 0 1-.447 1-1s-.448-1-1-1h-4c-.552 0-1 .447-1 1s.448 1 1 1zm-4-2h-2c-.552 0-1 .447-1 1s.448 1 1 1h2c.552 0 1-.447 1-1s-.448-1-1-1z"/><path fill="#3DB39E" d="M75.788 71.98h.05c-3.931.055-6.498 0-6.498 0h-21.161l-27.186-27.221 14.015-13.759 16.976 12.046 7.088 15.647.003.003c2.012.091 8.309 2.658 11.107 4.279 4.467 2.59 6.322 7.04 5.689 8.927l-.083.078z"/><path fill="#F6FBFA" d="M57.298 51.71c-.224-.572-.87-.854-1.442-.631l-4.146 1.623c-.572.224-.854.87-.631 1.442s.87.854 1.442.631l4.146-1.623c.573-.224.854-.87.631-1.442zm1.628 4.044c-.21-.59-.814-.882-1.351-.65l-3.883 1.675c-.536.231-.801.897-.591 1.489.21.59.814.882 1.351.65l3.883-1.675c.536-.231.801-.897.591-1.489zm-3.628-8.044c-.224-.572-.87-.854-1.442-.631l-4.146 1.623c-.572.224-.854.87-.631 1.442.224.572.87.854 1.442.631l4.146-1.623c.573-.224.854-.87.631-1.442z"/><path fill="#324D5B" d="M93.294 75h-86.588c8.646 14.94 24.79 25 43.294 25s34.647-10.06 43.294-25z"/><path fill="#39A895" d="M39.574 34.24l-4.566-3.24-14.015 13.759 4.366 4.372z"/><path fill="#fff" d="M35.378 29.732c.638-.821 1.835-.973 2.674-.34l15.204 11.241c.84.634 1.004 1.813.366 2.634-.638.822-1.835.974-2.674.34l-15.204-11.24c-.84-.634-1.004-1.813-.366-2.635z"/><path fill="#E6C561" d="M28 40c2.209 0 4-1.791 4-4 0-.601-.142-1.165-.379-1.675l-5.36 5.262c.528.256 1.113.413 1.739.413z"/><path fill="#37A18E" d="M70.34 68.98h-21.161l-26.169-26.203-2.018 1.981 27.187 27.222h21.161s2.567.055 6.498 0h-.05l.083-.078c.233-.694.126-1.738-.322-2.907-3.193.028-5.209-.015-5.209-.015z"/><path fill="#359C8A" d="M27.312 47.085l-4.301-4.307-2.018 1.981 4.366 4.372z"/><path fill="#EDEDED" d="M75.58 75h-27.561c-1.033 0-2.271-.288-3.02-1.037-5.031-5.019-26.605-26.536-26.605-26.536-.555-.551-.555-1.444 0-1.995l.886-1.032c.555-.551 1.454-.551 2.008 0 0 0 20.68 20.496 25.711 25.527.973.972 2.096 1.092 2.99 1.092 6.206 0 25.59-.028 25.59-.028.784 0 1.42.632 1.42 1.41v1.188c.001.78-.635 1.411-1.419 1.411z"/></svg>