<svg xmlns="http://www.w3.org/2000/svg" width="100" height="100" viewBox="0 0 100 100"><path fill="#324D5B" d="M50 0c27.614 0 50 22.386 50 50s-22.386 50-50 50-50-22.386-50-50 22.386-50 50-50z"/><path fill="#82D2ED" d="M92 17c4.418 0 8 3.582 8 8s-3.582 8-8 8-8-3.582-8-8 3.582-8 8-8z"/><path fill="#5B717C" d="M82.5 46.002c-.299 2.698-1.8 4.199-4.5 4.5 2.7.299 4.201 1.8 4.5 4.499.301-2.699 1.801-4.2 4.501-4.499-2.7-.301-4.2-1.802-4.501-4.5zm-12-33c-.299 2.698-1.8 4.199-4.5 4.5 2.7.299 4.201 1.8 4.5 4.499.301-2.699 1.801-4.2 4.501-4.499-2.7-.301-4.2-1.802-4.501-4.5z"/><path fill="#EFC75E" d="M86.001 75.003c-.601 5.397-3.601 8.399-9.001 9 5.4.6 8.4 3.601 9.001 9 .601-5.399 3.601-8.4 9.001-9-5.4-.601-8.4-3.603-9.001-9zm-44-66c-.467 4.198-2.8 6.532-7 7 4.2.466 6.534 2.8 7 7 .466-4.2 2.8-6.534 7-7-4.2-.468-6.534-2.802-7-7z"/><path fill="#EBEDEE" d="M71.003 68.124l-.652.652-5.868 5.874-.87.871-13.476 13.49-.653-.653h-.001l-.651-.652-7.173-7.18-.652-.652 9.219-9.229-20.867-20.866-9.223 9.232-1.304-1.306-7.173-7.18-.652-.652 19.562-19.582 1.304-1.305 1.304 1.305 7.825 7.833-.653.653-6.229 6.234-.944.945-2.409 2.411 20.867 20.867 8.934-8.943 1.304-1.305 1.305 1.305 7.826 7.833zm-50.867-11.724l5.216-5.222-2.608-2.611-5.217 5.222 2.609 2.611zm-3.912-3.917l5.217-5.221-2.608-2.611-5.217 5.222 2.608 2.61zm3.912-9.137l2.608 2.611 5.216-5.222-2.608-2.611-5.216 5.222zm11.738-11.749l-5.217 5.222 2.608 2.611 5.217-5.222-2.608-2.611zm1.304 11.749l5.217-5.222-2.608-2.611-5.217 5.222 2.608 2.611zm-1.304 1.305l-2.608-2.611-5.216 5.222 2.608 2.611 5.216-5.222zm36.521 23.473l-2.608-2.61-5.217 5.221 2.608 2.611 5.217-5.222zm-6.522 6.526l-2.607-2.609-5.217 5.221 2.607 2.611 5.217-5.223zm-11.736 11.75l5.216-5.223-2.608-2.61-5.216 5.222 2.608 2.611zm-6.522-6.527l2.608 2.61 5.217-5.222-2.608-2.611-5.217 5.223zm6.522-6.527l2.607 2.611 5.217-5.223-2.608-2.61-5.216 5.222zm6.519-6.528l2.609 2.611 5.217-5.223-2.609-2.61-5.217 5.222z"/><path fill="#3CAC99" d="M62 35c1.656 0 3 1.343 3 3s-1.344 3-3 3-3-1.343-3-3 1.344-3 3-3z"/><path fill="#EBEDEE" d="M58.838 56.29l-8.371 8.378-10.045 10.053c-4.277 4.28-11.135 4.357-15.317.172s-4.105-11.049.172-15.331l8.777-8.783v-.001l9.638-9.646c1.521-1.522 3.987-1.522 5.508 0l9.638 9.646c1.521 1.523 1.521 3.99 0 5.512zM69.99 45.301c-3.853 3.846-10.387 3.522-14.615-.7-4.23-4.222-4.555-10.745-.702-14.591l15.317 15.291z"/><path fill="#D3D5D6" d="M46.827 53.161c1.57 1.562 1.57 4.095 0 5.657-1.57 1.562-4.116 1.562-5.687 0-1.57-1.562-1.57-4.096 0-5.657s4.117-1.561 5.687 0zM56.375 39.601c-2.076-2.072-3.205-4.698-3.368-7.289-1.939 3.812-1.104 8.824 2.368 12.289 4.229 4.223 10.763 4.546 14.615.7l-2.761-2.756c-3.574 1.103-7.809.096-10.854-2.944z"/><path fill="#BDBFC0" d="M41.141 55.161c1.57-1.562 4.116-1.562 5.687 0 .526.523.86 1.159 1.034 1.828.344-1.326.01-2.79-1.034-3.828-1.57-1.562-4.116-1.562-5.687 0-1.044 1.038-1.378 2.502-1.034 3.828.173-.669.507-1.304 1.034-1.828z"/><path fill="#324D5B" d="M43.984 51.99c1.029 0 2.058.391 2.843 1.171 1.57 1.562 1.57 4.095 0 5.657-.785.781-1.814 1.171-2.843 1.171s-2.058-.39-2.843-1.171c-1.57-1.562-1.57-4.096 0-5.657.785-.78 1.814-1.171 2.843-1.171m0-1.5c-1.473 0-2.858.57-3.901 1.607-1.044 1.038-1.62 2.42-1.62 3.891 0 1.472.575 2.854 1.62 3.894 1.043 1.037 2.428 1.607 3.901 1.607s2.858-.57 3.901-1.607c1.045-1.04 1.62-2.423 1.62-3.894s-.575-2.852-1.62-3.891c-1.043-1.036-2.428-1.607-3.901-1.607z"/><path fill="#3DB39E" d="M26.818 58.021l-1.541 1.542-.262.289 15.125 15.125.282-.256 1.548-1.55-15.152-15.15z"/><path fill="#D3D5D6" d="M52.467 60.668l-10.045 10.053c-4.277 4.28-11.135 4.357-15.317.172-2.775-2.777-3.663-6.731-2.705-10.33-3.381 4.291-3.167 10.456.705 14.33 4.182 4.186 11.04 4.108 15.317-.172l10.044-10.053 8.371-8.378c.851-.851 1.208-1.995 1.107-3.106l-7.477 7.484z"/><path fill="#37A18E" d="M40.834 72.035c-.756.52-1.562.93-2.395 1.241l1.701 1.7.282-.256 1.548-1.55-1.136-1.135z"/><path fill="#6FB3CA" d="M94 30c-4.418 0-8-3.582-8-8 0-.993.189-1.94.521-2.817-1.549 1.458-2.521 3.522-2.521 5.817 0 4.418 3.582 8 8 8 3.425 0 6.339-2.156 7.479-5.182-1.431 1.349-3.356 2.182-5.479 2.182z"/></svg>