<svg xmlns="http://www.w3.org/2000/svg" width="100" height="100" viewBox="0 0 100 100"><path fill="#F2F1EF" d="M50 0c27.614 0 50 22.386 50 50s-22.386 50-50 50-50-22.386-50-50 22.386-50 50-50z"/><g fill="#324D5B"><path d="M92 53h4v16h-4zM64 69v-4h-12v4h8v4h8v-4zM48 65h-9v12h5v4h8v-4h-4zM56 85h4v4h-4zM68 69h8v-4h-4v-4h4v-4h-4v-4h-4v4h-4v8h4zM56 93h4v4h-4zM88 82.477c1.449-1.693 2.785-3.484 4-5.362v-8.115h-4v-12h-4v12h-4v4h-12v4h-4v4h-4v4h8v4h-8v4h4v4h3.091c4.667-1.697 9.009-4.069 12.909-6.999v-1.001h1.273c.937-.752 1.847-1.536 2.727-2.353v-5.647h-4v4h-8v-4h8v-4h4v-4h4v9.477zM52 73h8v4h-8zM34 96v1.369c5.025 1.697 10.402 2.631 16 2.631v-4h-16zM65.996 29h3.98v8.991h-3.98zM65.996 42.003h4.012v4.011h-4.012zM75 34v4h-5v4h5v4h4v-4h4v4h4v4h12v-4h-8v-4h4v-8h-4v4h-4v-4zM30 88v7.828l.381.172h3.619v-8h-4zM38 92h4v-8h-8v4h4zM30 74h4v4h-4zM30 65h4v4h-4zM39 38h13v13h-13zM79 46h4v4h-4zM60.995 28.979h-31.021v30.991h31.021v-30.991zm-3.994 26.997h-23.002v-23.002h23.002v23.002z"/></g><path fill="#EDC2BE" d="M51.958 99.95c23.845-.919 43.396-18.529 47.313-41.481h-82.271l34.958 41.481z"/><path fill="#E5766D" d="M79.008 50.005h3.998v-3.997h-3.998v3.997zm-10.996 5.995h3.999v-2.997h-3.999v2.997zm23.991 0h3.999v-2.997h-3.999v2.997zm-52.981-4.996h12.995v-12.991h-12.995v12.991zm30.997-8.991h-4.01v4.008h4.01v-4.008zm20.984 3.995v-3.997h3.999v-7.994h-3.999v3.997h-3.998v-3.997h-11.995v3.997h-4.999v3.997h4.999v3.997h3.998v-3.997h3.998v3.997h3.999v3.997h11.995v-3.997h-7.997zm-61.003 9.992h31.01v-27.001h-31.01v27.001zm4.023-23.01h22.993v22.985h-22.993v-22.985zm35.964-3.97h-3.979v8.985h3.979v-8.985z"/><g fill="#675056"><path d="M56 85h4v4h-4zM56 93h4v4h-4zM64 69v-4h-12v4h8v4h8v-4zM68 69h8v-4h-4v-4h4v-2.531h-12v6.531h4zM48 65h-9v12h5v4h8v-4h-4zM52 73h8v4h-8zM30 65h4v4h-4zM42 88.134v-4.134h-3.484zM29.974 58.469h31.021v1.501h-31.021zM33.46 78h.54v-4h-3.911zM50 97.627v-1.627h-1.371zM92 58.469h4v10.531h-4zM88 58.469h-4v10.531h-4v4h-12v4h-4v4h-4v4h8v4h-8v4h4v4h3.091c4.667-1.697 9.009-4.069 12.909-6.999v-1.001h1.273c.937-.752 1.847-1.536 2.727-2.353v-5.647h-4v4h-8v-4h8v-4h4v-4h4v9.477c1.449-1.693 2.785-3.484 4-5.362v-8.115h-4v-10.531z"/></g><path fill="#E2574C" d="M99.629 56h-80.129c-1.381 0-2.5 1.119-2.5 2.5s1.119 2.5 2.5 2.5h79.271c.368-1.638.655-3.306.858-5z"/></svg>