<svg xmlns="http://www.w3.org/2000/svg" width="100" height="100" viewBox="0 0 100 100"><path fill="#3DB39E" d="M50 0c27.614 0 50 22.386 50 50s-22.386 50-50 50-50-22.386-50-50 22.386-50 50-50z"/><path fill="#37A18E" d="M37 98.282v-73.282l-35.814 35.814c4.013 18.195 17.929 32.665 35.814 37.468z"/><path fill="#324D5B" d="M25 93.294c7.356 4.257 15.89 6.706 25 6.706s17.644-2.449 25-6.706v-34.294h-50v34.294z"/><path fill="#2D4552" d="M25 93.294c3.724 2.155 7.748 3.847 12 4.988v-39.282h-12v34.294z"/><path fill="#E2574C" d="M54.5 74s-1.428 1.63-2.828 3.637c2.191 2.95 4.328 6.418 4.328 8.738 0 .874-.138 1.716-.39 2.511 2.505-.526 4.39-2.793 4.39-5.511 0-3.106-5.5-9.375-5.5-9.375zm-14.5 11.875c0 3.936 3.134 7.125 7 7.125s7-3.189 7-7.125c0-3.935-7-11.875-7-11.875s-7 7.94-7 11.875z"/><path fill="#6FC8B8" d="M40 24h20c2.209 0 4 1.791 4 4v20c0 2.209-1.791 4-4 4h-20c-2.209 0-4-1.791-4-4v-20c0-2.209 1.791-4 4-4z"/><path fill="#fff" d="M47 31h6c2.209 0 4 1.791 4 4v12c0 2.209-1.791 4-4 4h-6c-2.209 0-4-1.791-4-4v-12c0-2.209 1.791-4 4-4z"/><path fill="#E5E5E5" d="M47 47v-12c0-2.209 1.791-4 4-4h-4c-2.209 0-4 1.791-4 4v12c0 2.209 1.791 4 4 4h4c-2.209 0-4-1.791-4-4z"/><path fill="#aaa" d="M50 34c1.104 0 2 .896 2 2s-.896 2-2 2-2-.896-2-2 .896-2 2-2z"/><path fill="#EDEDED" d="M45 41h10c11.046 0 20 8.955 20 20h-50c0-11.045 8.954-20 20-20z"/><path fill="#D5D5D5" d="M56 41.05c-.334-.016-.662-.05-1-.05h-10c-11.046 0-20 8.955-20 20h12c0-10.708 8.422-19.425 19-19.95z"/><path fill="#CECDCB" d="M75 60h-50c-1.104 0-2 .896-2 2 0 1.105.896 2 2 2h50c1.104 0 2-.895 2-2 0-1.104-.896-2-2-2zm-40-15h30c1.104 0 2-.896 2-2s-.896-2-2-2h-30c-1.104 0-2 .896-2 2s.896 2 2 2z"/><g fill="#B9B8B6"><path d="M35 45h11c-1.104 0-2-.896-2-2s.896-2 2-2h-11c-1.104 0-2 .896-2 2s.896 2 2 2zM34 62c0-1.104.896-2 2-2h-11c-1.104 0-2 .896-2 2 0 1.105.896 2 2 2h11c-1.104 0-2-.895-2-2z"/></g></svg>