<svg xmlns="http://www.w3.org/2000/svg" width="100" height="100" viewBox="0 0 100 100"><path fill="#51BBA8" d="M50 1.811c26.613 0 48.189 21.575 48.189 48.189 0 26.613-21.576 48.189-48.189 48.189-26.614 0-48.189-21.576-48.189-48.189 0-26.614 21.575-48.189 48.189-48.189z"/><path fill="#459A8B" d="M50 1.811c-22.033 0-40.598 14.792-46.341 34.982 6.434-3.184 13.676-4.982 21.341-4.982 26.613 0 48.189 21.575 48.189 48.189 0 4.582-.653 9.008-1.848 13.207 15.906-7.872 26.848-24.259 26.848-43.207 0-26.614-21.576-48.189-48.189-48.189z"/><g fill="#4DAF9E"><path d="M63 96.4c5.049-1.412 9.767-3.613 14-6.482v-79.836c-4.233-2.869-8.951-5.07-14-6.481v92.799zM9 24.681v50.639c3.588 5.798 8.366 10.78 14 14.6v-79.838c-5.634 3.818-10.412 8.801-14 14.599zM49 1.836c-4.88.1-9.58.921-14 2.368v91.592c4.42 1.447 9.12 2.269 14 2.368v-96.328z"/></g><path fill="#418A7E" d="M77.406 50c0-15.136-12.271-27.406-27.406-27.406-7.822 0-14.874 3.283-19.867 8.539 4.915-4.668 11.554-7.539 18.867-7.539 15.136 0 27.406 12.271 27.406 27.406 0 7.314-2.87 13.953-7.539 18.867 5.256-4.993 8.539-12.045 8.539-19.867z"/><g fill="#429184"><path d="M76.999 10.081l-.523-.34c-.415-.273-.831-.543-1.255-.804l-.865-.513c-.309-.181-.618-.36-.931-.535-.345-.192-.693-.379-1.043-.563l-.736-.377c-.411-.207-.823-.411-1.24-.606l-.389-.175c-2.252-1.027-4.595-1.891-7.017-2.568v46.785c6.379 8.172 10.189 18.445 10.189 29.615 0 4.579-.652 9.002-1.846 13.198l.274-.134c.314-.158.627-.319.938-.484l.543-.293c.359-.197.718-.396 1.072-.602l.3-.179c.86-.508 1.705-1.04 2.529-1.599v-79.826zM35 32.856c4.998 1.055 9.705 2.891 14 5.363v-36.383c-4.88.1-9.58.921-14 2.368v28.652z"/></g><path fill="#C3E2DB" d="M49 1h2v99h-2v-99z"/><path fill="#3D7F75" d="M77 45.32c-1.45-8.421-6.735-15.529-14-19.451v1.571c8.026 4.78 13.406 13.54 13.406 23.56 0 5.905-1.873 11.369-5.051 15.842l.066.233c2.816-3.525 4.779-7.76 5.579-12.393v-9.362zM35 27.076v.372c4.098-2.444 8.882-3.854 14-3.854v-.974c-5.16.186-9.951 1.798-14 4.456z"/><path fill="#A1BAB4" d="M49 38.22c.678.39 1.344.795 2 1.217v-37.6l-1-.025-1 .021v36.387z"/><path fill="#51BBA8" d="M29 40h-18v20h18c1.104 0 2-.895 2-2v-16c0-1.104-.896-2-2-2z"/><path fill="#429184" d="M71 40c-1.104 0-2 .896-2 2v16c0 1.105.896 2 2 2h18v-20h-18z"/><path fill="#51BBA8" d="M50 41c4.971 0 9 4.029 9 9s-4.029 9-9 9-9-4.029-9-9 4.029-9 9-9z"/><path fill="#A1B6B3" d="M71 40c-1.104 0-2 .896-2 2v16c0 1.105.896 2 2 2h18v-20h-18zm16 18h-16v-16h16v16z"/><path fill="#C3E2DB" d="M29 40h-18v20h18c1.104 0 2-.895 2-2v-16c0-1.104-.896-2-2-2zm0 18h-16v-16h16v16zM50 43c3.859 0 7 3.14 7 7 0 3.859-3.141 7-7 7-3.86 0-7-3.141-7-7 0-3.86 3.14-7 7-7m0-2c-4.971 0-9 4.029-9 9s4.029 9 9 9 9-4.029 9-9-4.029-9-9-9z"/><path fill="#5CC5E8" d="M50 3c-25.957 0-47 21.043-47 47s21.043 47 47 47 47-21.043 47-47-21.043-47-47-47zm0 74.406c-15.136 0-27.406-12.27-27.406-27.406s12.271-27.406 27.406-27.406 27.406 12.27 27.406 27.406c0 15.137-12.27 27.406-27.406 27.406z"/><path fill="#4FA2BE" d="M97 50c0-25.957-21.043-47-47-47-21.132 0-39.004 13.948-44.919 33.138 6.074-2.765 12.811-4.327 19.919-4.327 1.461 0 2.903.076 4.331.204 5.024-5.77 12.418-9.421 20.669-9.421 15.136 0 27.406 12.271 27.406 27.406 0 6.462-2.242 12.396-5.982 17.082 1.143 4.113 1.766 8.441 1.766 12.918 0 4.022-.504 7.925-1.436 11.659 15.002-7.849 25.246-23.554 25.246-41.659z"/><path fill="#53ABC9" d="M45 82h10v14h-10z"/><path fill="#478EA6" d="M45 4h10v14h-10zM82 45h14v10h-14z"/><path fill="#53ABC9" d="M4 45h14v10h-14z"/><path fill="#F3F2F1" d="M50 0c-27.614 0-50 22.386-50 50s22.386 50 50 50 50-22.386 50-50-22.386-50-50-50zm0 93c-23.748 0-43-19.252-43-43s19.252-43 43-43 43 19.252 43 43-19.252 43-43 43z"/><path fill="#EBEBEA" d="M50 7c-23.748 0-43 19.252-43 43s19.252 43 43 43 43-19.252 43-43-19.252-43-43-43zm0 78c-19.33 0-35-15.67-35-35s15.67-35 35-35 35 15.67 35 35-15.67 35-35 35z"/><path fill="#E5E5E4" d="M49 15h2v-15h-2v15zm0 85h2v-15h-2v15zm-34-51h-15v2h15v-2zm70 0v2h15v-2h-15zm-71.062 35.648l1.414 1.414 10.606-10.606-1.414-1.415-10.606 10.607zm72.124-69.296l-1.414-1.415-10.606 10.607 1.414 1.415 10.606-10.607zm-12.062 60.06l10.588 10.588 1.412-1.412-10.588-10.588-1.412 1.412zm-60-60l10.588 10.588 1.412-1.412-10.588-10.588-1.412 1.412z"/><g fill="#EDECEA"><path d="M79.683 81.095l4.905 4.905 1.412-1.412-4.905-4.905c-.46.481-.931.952-1.412 1.412zM14 15.412l4.905 4.905c.46-.481.931-.952 1.412-1.412l-4.905-4.905-1.412 1.412zM84.632 13.955l-4.95 4.95c.482.46.954.932 1.414 1.414l4.95-4.95c-.462-.481-.934-.952-1.414-1.414zM15.369 86.046l4.95-4.95c-.482-.461-.954-.932-1.414-1.414l-4.95 4.95c.462.48.933.952 1.414 1.414zM49 7.025l1-.025 1 .025v-7l-1-.025-1 .025v7zM51 92.975l-1 .025-1-.025v7l1 .025 1-.025v-7zM92.975 49l.025 1-.025 1h7l.025-1-.025-1h-7zM7.025 51l-.025-1 .025-1h-7l-.025 1 .025 1h7z"/></g><path fill="#87D4EE" d="M50 78.906c15.938 0 28.906-12.967 28.906-28.906 0-15.939-12.968-28.906-28.906-28.906-15.939 0-28.906 12.967-28.906 28.906 0 15.939 12.967 28.906 28.906 28.906m0-1.5c-15.136 0-27.406-12.27-27.406-27.406s12.271-27.406 27.406-27.406 27.406 12.27 27.406 27.406c0 15.137-12.27 27.406-27.406 27.406z"/><g fill="#8B9F9D"><path d="M76.21 58h-.714c-.179.677-.379 1.345-.607 2h.626c.256-.654.488-1.322.695-2zM74.887 42h1.33c-.207-.679-.444-1.345-.701-2h-1.413c.286.654.547 1.321.784 2z"/></g><path fill="#72AEC4" d="M71.88 68.857c4.373-5.066 7.026-11.655 7.026-18.857 0-15.939-12.968-28.906-28.906-28.906-9.081 0-17.192 4.212-22.496 10.782.613.032 1.22.085 1.827.139 5.024-5.77 12.418-9.421 20.669-9.421 15.136 0 27.406 12.271 27.406 27.406 0 6.462-2.242 12.396-5.982 17.082.163.588.315 1.18.456 1.775z"/></svg>