<svg xmlns="http://www.w3.org/2000/svg" width="100" height="100" viewBox="0 0 100 100"><path fill="#3DB39E" d="M50 0c27.614 0 50 22.386 50 50s-22.386 50-50 50-50-22.386-50-50 22.386-50 50-50z"/><path fill="#F2D27E" d="M50 0c-12.403 0-23.742 4.526-32.481 12.004l-7.519 42.434h80l-7.519-42.434c-8.739-7.478-20.078-12.004-32.481-12.004z"/><path fill="#EFC75E" d="M22.756 8.083l-6.756 43.917h68l-6.015-43.439c-7.986-5.404-17.617-8.561-27.985-8.561-10.053 0-19.404 2.978-27.244 8.083z"/><path fill="#BF9F4B" d="M51 5l.038-4.974-1.038-.026-.996.025-.012 1.495c-.021.469-.324.927-.757 1.278 0 0-7.358 4.553-7.383 4.567v.001c-.997.671-1.766 1.597-1.852 2.634v4c-1.373.339-2.891 1.374-3 2.481-.142 1.428 1.341 2.608 3.313 2.608 1.974 0 3.633-1.181 3.704-2.608.055-1.107-.693-2.142-2.017-2.481.033-.498-.055-1.713.09-3.9.053-.531.404-1.042.877-1.429l7.003-4.397.03 26.726h-3l4.031 6 3.969-6h-3v-21l7.45 4.638c.497.423.865.982.921 1.561.205 3.106.629 4.801.629 4.801h-3v5h8v-5h-3l-.311-4.751c-.094-1.134-1.035-2.302-2.078-3.035l-7.713-4.972c-.451-.383-.877-.735-.898-1.242v-2z"/><path fill="#D7B354" d="M20 45h60c5.523 0 10 4.478 10 10 0 5.523-4.477 10-10 10h-60c-5.523 0-10-4.477-10-10 0-5.522 4.477-10 10-10z"/><path fill="#CBCBCB" d="M25 73h50v9c0 1.104-.896 2-2 2h-46c-1.104 0-2-.896-2-2v-9z"/><path fill="#57C7ED" d="M27 75.042h46v6.958h-46v-6.958z"/><path fill="#4EB3D5" d="M27 75.042h46v4h-46z"/><path fill="#46A1BF" d="M37 77h3v-1.958h-3v1.958zm8 0h3v-1.958h-3v1.958zm8 0h3v-1.958h-3v1.958zm8-1.958v1.958h3v-1.958h-3z"/><path fill="#F0F0F0" d="M72.643 52.256c-.081-.715-.687-1.256-1.407-1.256h-42.489c-.71 0-1.308.533-1.388 1.24l-2.359 20.76v2c0-1.104.896-2 2-2h46c1.104 0 2 .896 2 2v-2l-2.357-20.744z"/><path fill="#C0C0C0" d="M40 59c-1.656 0-3 1.119-3 2.5s1.344 2.5 3 2.5 3-1.119 3-2.5-1.344-2.5-3-2.5zm20 0c-1.656 0-3 1.119-3 2.5s1.344 2.5 3 2.5 3-1.119 3-2.5-1.344-2.5-3-2.5z"/><path fill="#D8D8D8" d="M28.747 51c-.71 0-1.308.533-1.388 1.24l-.2 1.76h45.682l-.198-1.744c-.081-.715-.687-1.256-1.407-1.256h-42.489z"/></svg>