<svg xmlns="http://www.w3.org/2000/svg" width="100" height="100" viewBox="0 0 100 100"><path fill="#324D5B" d="M50 0c-27.614 0-50 22.386-50 50s22.386 50 50 50 50-22.386 50-50-22.386-50-50-50zm0 61c-6.075 0-11-4.925-11-11s4.925-11 11-11 11 4.925 11 11-4.925 11-11 11z"/><path fill="#375564" d="M59.389 55.71c-1.931 3.168-5.408 5.29-9.389 5.29l-.57-.029 2.95 38.969c16.323-.765 30.598-9.354 39.158-22.104l-32.149-22.126zM49.57 39.021l-2.945-38.895c-16.106 1.075-30.118 9.769-38.469 22.517l32.162 22.134c1.795-3.32 5.25-5.6 9.252-5.756z"/><path fill="#2B424D" d="M50 32c9.941 0 18 8.059 18 18s-8.059 18-18 18-18-8.059-18-18 8.059-18 18-18m0-3c-11.58 0-21 9.42-21 21 0 11.579 9.42 21 21 21 11.579 0 21-9.421 21-21 0-11.58-9.421-21-21-21z"/><path fill="#2E4754" d="M50 8c-23.196 0-42 18.804-42 42s18.804 42 42 42c23.195 0 42-18.804 42-42s-18.805-42-42-42zm0 82c-22.091 0-40-17.908-40-40 0-22.091 17.909-40 40-40 22.092 0 40 17.909 40 40 0 22.092-17.908 40-40 40zm0-72c-17.673 0-32 14.327-32 32 0 17.674 14.327 32 32 32s32-14.326 32-32c0-17.673-14.327-32-32-32zm0 62c-16.568 0-30-13.432-30-30s13.432-30 30-30 30 13.432 30 30-13.432 30-30 30z"/><g fill="#334E5D"><path d="M84.945 73.298l-1.647-1.134c-6.89 10.329-18.455 17.267-31.674 17.795l.151 1.996c13.839-.576 25.947-7.844 33.17-18.657zM76.705 67.627l-1.648-1.135c-5.217 7.909-14.074 13.197-24.188 13.486l.15 1.996c10.735-.336 20.134-5.954 25.686-14.347z"/></g><g fill="#334E5D"><path d="M22.989 32.851l1.648 1.134c5.004-7.908 13.6-13.314 23.498-13.922l-.151-1.994c-10.519.655-19.655 6.39-24.995 14.782zM14.748 27.18l1.648 1.135c6.679-10.328 17.981-17.378 30.983-18.22l-.151-1.994c-13.622.888-25.466 8.267-32.48 19.079z"/></g><path fill="#EFC75E" d="M50 32c-9.941 0-18 8.059-18 18s8.059 18 18 18 18-8.059 18-18-8.059-18-18-18zm0 22c-2.209 0-4-1.791-4-4s1.791-4 4-4 4 1.791 4 4-1.791 4-4 4z"/><path fill="#F3D586" d="M50 39c-6.075 0-11 4.925-11 11s4.925 11 11 11 11-4.925 11-11-4.925-11-11-11zm0 20c-4.971 0-9-4.029-9-9s4.029-9 9-9 9 4.029 9 9-4.029 9-9 9z"/><path fill="#334E5D" d="M32.08 39.107l2.466 1.697c2.986-5.007 8.324-8.431 14.496-8.756l-.226-2.988c-7.091.398-13.24 4.318-16.736 10.047zM67.625 61.378l-2.466-1.697c-3.198 4.998-8.785 8.319-15.159 8.319l-.038-.002.227 2.992c7.306-.065 13.723-3.882 17.436-9.612z"/></svg>