<svg xmlns="http://www.w3.org/2000/svg" width="100" height="100" viewBox="0 0 100 100"><path fill="#3DB39E" d="M50 0c27.614 0 50 22.386 50 50s-22.386 50-50 50-50-22.386-50-50 22.386-50 50-50z"/><path fill="#37A18E" d="M83.529 12.911c-8.568 2.032-17.352 3.089-26.187 3.089h-43.989c-8.282 8.922-13.353 20.866-13.353 34 0 15.213 6.803 28.829 17.523 38h39.819c7.513 0 14.987.77 22.326 2.243 12.331-9.106 20.332-23.738 20.332-40.243 0-14.713-6.356-27.939-16.471-37.089z"/><path fill="#F1C8AF" d="M81.715 11.347c-7.991 1.757-16.162 2.653-24.373 2.653h-42.021c-9.439 9.095-15.321 21.857-15.321 36 0 14.144 5.882 26.905 15.321 36h42.021c8.211 0 16.382.896 24.373 2.653 11.163-9.17 18.285-23.079 18.285-38.653s-7.122-29.483-18.285-38.653z"/><path fill="#F5D9C8" d="M57.342 18.785c9.626 0 19.198-1.232 28.489-3.642-1.302-1.338-2.672-2.61-4.116-3.796-7.991 1.757-16.162 2.653-24.373 2.653h-42.021c-1.556 1.499-3.015 3.097-4.367 4.785h46.388z"/><path fill="#324D5B" d="M34 85.978h23.342c2.224 0 4.442.089 6.658.219v-72.419c-2.216.129-4.435.218-6.658.218h-23.342v71.982z"/><path fill="#CDAA95" d="M48 79c-16.017 0-29-12.983-29-29 0-7.499 2.847-14.333 7.519-19.481-5.847 5.305-9.519 12.964-9.519 21.481 0 16.017 12.983 29 29 29 8.518 0 16.176-3.672 21.481-9.519-5.147 4.672-11.982 7.519-19.481 7.519z"/><path fill="#2B424E" d="M34 75.398v3.001c3.658 1.665 7.719 2.601 12 2.601 6.803 0 13.054-2.348 18-6.27v-.549c-4.587 3.042-10.085 4.819-16 4.819-5.078 0-9.849-1.309-14-3.602z"/><path fill="#D9D9D9" d="M76 45h3c.553 0 1 .448 1 1v8c0 .553-.447 1-1 1h-3v-10z"/><path fill="#DADFE1" d="M48 21c16.017 0 29 12.984 29 29 0 16.017-12.983 29-29 29s-29-12.983-29-29c0-16.016 12.983-29 29-29z"/><path fill="#324D5B" d="M48 25c13.807 0 25 11.193 25 25s-11.193 25-25 25-25-11.193-25-25 11.193-25 25-25z"/><path fill="#425B68" d="M65.169 31.837c-4.48-4.235-10.519-6.837-17.169-6.837-13.807 0-25 11.193-25 25 0 6.65 2.602 12.689 6.837 17.169l35.332-35.332z"/><path fill="#B4615E" d="M43.851 32.846c1.484-1.396 2.956-.786 4.135.21 1.179-.996 2.639-1.617 4.135-.21 1.166 1.097 1.173 2.858 0 3.949-1.967 1.664-2.995 2.532-3.532 2.985-.337.284-.846.285-1.184.002-.541-.452-1.576-1.321-3.554-2.987-1.173-1.091-1.167-2.853 0-3.949z"/><path fill="#5B717C" d="M43 44h10c.553 0 1 .448 1 1v2c0 .553-.447 1-1 1h-10c-.553 0-1-.447-1-1v-2c0-.552.447-1 1-1z"/><path fill="#687C86" d="M53 44h-10c-.553 0-1 .448-1 1v2c0 .553.447 1 1 1h6.006l3.999-3.999-.005-.001z"/><path fill="#38807D" d="M69.935 62c.355-.649.681-1.317.979-2h-15.185l-1.729-5.6h-1.333l-2.692 10.177-3.308-11.577h-1.334l-2.766 10.455-1.234-3.455h-16.247c.298.683.623 1.351.979 2h14.608l1.327 3.6h1.333l2.692-10.145 3.277 11.545h1.396l2.724-10.052 1.578 5.013v.039h14.935z"/><path fill="#488A87" d="M35.006 62l2-2h-11.914l.042.097c.26.588.542 1.162.845 1.726l.098.178h8.929z"/><path fill="#516873" d="M34 14v4.785h23.342c2.224 0 4.442-.089 6.658-.22v-4.785c-1.015.06-2.029.11-3.045.142-.815.03-1.632.042-2.448.053l-1.165.025h-23.342z"/><path fill="#2B424D" d="M48 25c-7.158 0-13.608 3.013-18.166 7.834 4.479-4.233 10.517-6.834 17.166-6.834 13.807 0 25 11.193 25 25 0 6.648-2.601 12.688-6.834 17.166 4.821-4.558 7.834-11.008 7.834-18.166 0-13.807-11.193-25-25-25z"/><path fill="#384D59" d="M46.299 25.064c-.303.021-.607.041-.908.072l-.437.056c-.282.034-.564.067-.843.111l-.431.077-.83.154-.406.094c-.28.063-.56.127-.836.2l-.369.105c-.286.08-.57.162-.852.251l-.328.111c-.292.098-.582.198-.869.306l-.285.112c-.298.117-.594.236-.886.364l-.245.11c-.303.136-.604.276-.899.424l-.203.104c-.308.157-.612.319-.913.488l-.16.092c-.311.178-.619.362-.922.554l-.123.079c-.313.201-.623.407-.927.622l-.084.06c-.314.224-.624.453-.926.69l-.055.043c-.312.246-.617.498-.917.757l-.028.025c-.307.267-.607.541-.901.822l-.008.008c-.298.286-.589.579-.873.879 4.478-4.233 10.516-6.834 17.165-6.834 6.65 0 12.689 2.602 17.169 6.837l1-1-.005-.004c-.274-.26-.555-.513-.841-.76l-.022-.02c-.282-.242-.568-.478-.86-.708l-.045-.035c-.286-.225-.577-.442-.874-.654l-.066-.048c-.289-.205-.582-.404-.879-.597l-.105-.067c-.287-.184-.579-.363-.874-.536l-.145-.083c-.284-.164-.572-.323-.864-.477l-.191-.098c-.28-.144-.562-.284-.85-.418l-.238-.107c-.274-.125-.552-.247-.831-.361l-.291-.115c-.267-.105-.535-.209-.807-.306l-.349-.119-.776-.252-.413-.118-.736-.201-.486-.112-.69-.154-.558-.1-.644-.111-.646-.082-.576-.07-.781-.06-.463-.034c-.419-.019-.84-.03-1.263-.03-.44 0-.877.012-1.312.035l-.389.029z"/></svg>