<svg xmlns="http://www.w3.org/2000/svg" width="100" height="100" viewBox="0 0 100 100"><path fill="#2EA9D3" d="M50 0c27.614 0 50 22.386 50 50 0 27.615-22.386 50-50 50s-50-22.385-50-50c0-27.614 22.386-50 50-50z"/><path fill="#2587A9" d="M97.031 67h-94.062c6.957 19.245 25.386 33 47.031 33 21.646 0 40.073-13.755 47.031-33z"/><path fill="#fff" d="M67 81.422c0-5.389-7.611-9.756-17-9.756s-17 4.367-17 9.756h.003l-.003.018c0 2.912 7.611 5.271 17 5.271s17-2.359 17-5.271l-.003-.018h.003z"/><path fill="#F0F0F0" d="M56.614 72.432c-2.033-.278-4.268-.432-6.614-.432s-4.581.154-6.614.432c-4.791 1.162-8.441 3.554-9.798 6.482 1.931 2.352 8.537 4.086 16.412 4.086s14.48-1.734 16.412-4.086c-1.356-2.929-5.007-5.32-9.798-6.482z"/><path fill="#C0C0C0" d="M50 71.666c-4.715 0-8.979 1.103-12.06 2.882 1.921 2.022 6.592 3.452 12.06 3.452s10.139-1.43 12.06-3.452c-3.081-1.779-7.345-2.882-12.06-2.882z"/><path fill="#F0F0F0" d="M50 18c15.464 0 28 12.536 28 28 0 15.465-12.536 28-28 28s-28-12.535-28-28c0-15.463 12.536-28 28-28z"/><path fill="#E6877F" d="M50 21c1.104 0 2 .896 2 2s-.896 2-2 2-2-.896-2-2 .896-2 2-2z"/><path fill="#D8D8D8" d="M77.978 45.129c-.021-.693-.061-1.381-.131-2.061-7.97 1.838-17.598 2.932-27.847 2.932s-19.877-1.094-27.847-2.932c-.07.68-.11 1.367-.131 2.061 7.986 1.82 17.568 2.871 27.978 2.871s19.991-1.051 27.978-2.871z"/><path fill="#2B414D" d="M50 29.001c-9.389 0-17 7.61-17 17 0 9.389 7.611 17 17 17s17-7.611 17-17-7.611-17-17-17z"/><path fill="#475F6C" d="M50 32.988c-7.187 0-13.013 5.827-13.013 13.014 0 7.187 5.826 13.013 13.013 13.013s13.013-5.826 13.013-13.013-5.826-13.014-13.013-13.014z"/><path fill="#2B414D" d="M50 36.006c-5.521 0-9.995 4.476-9.995 9.996 0 5.52 4.475 9.994 9.995 9.994s9.995-4.475 9.995-9.994c0-5.521-4.474-9.996-9.995-9.996z"/><path fill="#1E2D36" d="M50 40.988c-2.77 0-5.014 2.245-5.014 5.014s2.244 5.014 5.014 5.014c2.769 0 5.014-2.244 5.014-5.014s-2.245-5.014-5.014-5.014z"/><path fill="#566268" d="M48.008 42.017c1.101 0 1.992.892 1.992 1.992s-.892 1.993-1.992 1.993-1.993-.893-1.993-1.993.892-1.992 1.993-1.992z"/><path fill="#D8D8D8" d="M50 70c-14.79 0-26.895-11.47-27.921-26-.047.662-.079 1.327-.079 2 0 15.465 12.536 28 28 28s28-12.535 28-28c0-.673-.032-1.338-.079-2-1.026 14.53-13.13 26-27.921 26z"/><path fill="#BC6E68" d="M50 24c-.931 0-1.706-.639-1.929-1.5-.042.161-.071.327-.071.5 0 1.104.896 2 2 2s2-.896 2-2c0-.174-.029-.339-.07-.5-.224.862-.999 1.5-1.93 1.5z"/></svg>