<svg xmlns="http://www.w3.org/2000/svg" width="100" height="100" viewBox="0 0 100 100"><path fill="#EDEDED" d="M50 0c27.614 0 50 22.386 50 50 0 27.615-22.386 50-50 50s-50-22.385-50-50c0-27.614 22.386-50 50-50z"/><path fill="#324D5B" d="M89.23 19.02c-.309-.024-.609-.04-.893-.04-1.273 0-2.24.251-2.945.767-.497.25-2.751 2.273-4.835 2.273h-17.617c-2.087 0-4.343-2.024-4.837-2.273-.705-.517-1.67-.769-2.944-.769-3.702 0-9.754 2.144-12.185 3.093-2.658 1.039-3.578 2.632-3.676 2.811-.058.107-.104.221-.135.338l-.443 1.695-1.053.579c-.274.152-.496.384-.637.666-.389.786-9.521 19.438-11.736 36.463-.83 6.372.076 11.111 2.695 14.086 2.547 2.895 5.94 3.279 7.291 3.279l1.095.017h.001c1.913-.001 4.641-1.568 13.569-11.166.87-.935 1.558-1.674 1.976-2.093 1.302-1.299 4.069-1.758 6.047-1.758l.205.002h27.59l.209-.002c1.977 0 4.744.459 6.047 1.758.418.419 1.104 1.156 1.976 2.093l.973 1.036c3.22-6.607 5.032-14.028 5.032-21.875 0-11.704-4.033-22.46-10.77-30.98z"/><path fill="#1D323D" d="M89.23 19.02c-.309-.024-.609-.04-.893-.04-1.273 0-2.24.251-2.945.767-.497.25-2.751 2.273-4.835 2.273h-17.617c-2.087 0-4.343-2.024-4.837-2.273-.705-.517-1.67-.769-2.944-.769-3.702 0-9.754 2.144-12.185 3.093-2.658 1.039-3.578 2.632-3.676 2.811-.058.107-.104.221-.135.338l-.443 1.695-1.053.579c-.274.152-.496.384-.637.666-.104.211-.845 1.725-1.91 4.142 2.858-1.445 6.321-3.181 6.83-3.426 9.665-4.676 13.138-2.021 13.427-1.775.249.33 1.569 2.024 4.661 5.135 2.998 3.02 4.407 3.84 5.018 3.792h12.851l.089.004c.654 0 2.068-.914 4.93-3.796 3.079-3.1 4.4-4.791 4.658-5.131.231-.196 2.049-1.552 6.494-.684-1.402-2.613-3.021-5.092-4.848-7.401z"/><path fill="#456271" d="M76.5 38c-1.381 0-2.5 1.119-2.5 2.5s1.119 2.5 2.5 2.5 2.5-1.119 2.5-2.5-1.119-2.5-2.5-2.5zm-10 0c-1.381 0-2.5 1.119-2.5 2.5s1.119 2.5 2.5 2.5 2.5-1.119 2.5-2.5-1.119-2.5-2.5-2.5z"/><path fill="#B8C4CB" d="M71.5 26c1.934 0 3.5 1.567 3.5 3.5 0 1.934-1.566 3.5-3.5 3.5s-3.5-1.566-3.5-3.5c0-1.932 1.566-3.5 3.5-3.5z"/><path fill="#1D323D" d="M72.052 29.476l.841.84c.152.152.152.399 0 .552s-.4.152-.553 0l-.84-.84-.84.84c-.152.152-.399.152-.553 0-.152-.152-.152-.399 0-.552l.841-.84-.815-.815c-.152-.152-.152-.399 0-.552s.399-.152.551 0l.816.815.815-.815c.152-.152.399-.152.552 0s.152.399 0 .552l-.815.815z"/><path fill="#405E6D" d="M67 56h-3v3c0 .553-.447 1-1 1h-3c-.553 0-1-.447-1-1v-3h-3c-.553 0-1-.447-1-1v-3c0-.551.447-1 1-1h3v-3c0-.552.447-1 1-1h3c.553 0 1 .448 1 1v3h3c.553 0 1 .449 1 1v3c0 .553-.447 1-1 1z"/><path fill="#2D4552" d="M49.001 30.994c4.415 0 7.993 3.584 7.993 8.006 0 4.421-3.578 8.006-7.993 8.006s-7.993-3.584-7.993-8.006c0-4.421 3.578-8.006 7.993-8.006z"/><path fill="#3F5966" d="M48.986 33.003c3.314 0 6 2.685 6 5.998 0 3.312-2.686 5.998-6 5.998-3.313 0-6-2.686-6-5.998 0-3.313 2.687-5.998 6-5.998z"/><path fill="#2D4552" d="M83.001 44.994c4.415 0 7.993 3.585 7.993 8.006 0 4.422-3.578 8.006-7.993 8.006s-7.993-3.584-7.993-8.006c0-4.421 3.578-8.006 7.993-8.006z"/><path fill="#3F5966" d="M82.986 47.003c3.314 0 6 2.685 6 5.997s-2.686 5.998-6 5.998c-3.313 0-6-2.686-6-5.998 0-3.312 2.687-5.997 6-5.997z"/><path fill="#4E6977" d="M48.986 34.503c2.481 0 4.5 2.018 4.5 4.498s-2.019 4.498-4.5 4.498-4.5-2.018-4.5-4.498 2.019-4.498 4.5-4.498m0-1.5c-3.313 0-6 2.685-6 5.998 0 3.312 2.687 5.998 6 5.998 3.314 0 6-2.686 6-5.998 0-3.313-2.685-5.998-6-5.998z"/><path fill="#4F6B79" d="M82.986 48.503c2.481 0 4.5 2.018 4.5 4.497 0 2.48-2.019 4.498-4.5 4.498s-4.5-2.018-4.5-4.498c0-2.479 2.019-4.497 4.5-4.497m0-1.5c-3.313 0-6 2.685-6 5.997s2.687 5.998 6 5.998c3.314 0 6-2.686 6-5.998 0-3.312-2.685-5.997-6-5.997z"/><g fill="#516C7A"><path d="M76.5 39c1.21 0 2.218.859 2.449 2 .033-.161.051-.328.051-.5 0-1.381-1.119-2.5-2.5-2.5s-2.5 1.12-2.5 2.5c0 .171.018.338.051.5.231-1.141 1.239-2 2.449-2zM66.5 38c-1.381 0-2.5 1.119-2.5 2.5 0 .171.018.338.051.5.231-1.141 1.239-2 2.449-2s2.218.859 2.449 2c.033-.161.051-.328.051-.5 0-1.38-1.119-2.5-2.5-2.5z"/></g><g fill="#2D4552"><path d="M66.5 43c-1.381 0-2.5-1.119-2.5-2.5 0-.432.119-.833.312-1.188-.778.425-1.312 1.24-1.312 2.188 0 1.381 1.119 2.5 2.5 2.5.948 0 1.764-.534 2.188-1.312-.355.193-.755.312-1.188.312zM76.5 43c-1.381 0-2.5-1.119-2.5-2.5 0-.432.119-.833.312-1.188-.778.425-1.312 1.24-1.312 2.188 0 1.381 1.119 2.5 2.5 2.5.948 0 1.764-.534 2.188-1.312-.355.193-.755.312-1.188.312z"/></g><g fill="#516C7A"><path d="M95 42c-1.656 0-3 1.343-3 3 0 .171.022.336.051.5.239-1.417 1.464-2.5 2.949-2.5s2.71 1.083 2.949 2.5c.029-.163.051-.328.051-.5 0-1.656-1.344-3-3-3zM89 37c1.485 0 2.71 1.083 2.949 2.5.029-.163.051-.328.051-.5 0-1.657-1.344-3-3-3s-3 1.343-3 3c0 .171.022.336.051.5.239-1.417 1.464-2.5 2.949-2.5z"/></g><g fill="#2D4552"><path d="M94 37c1.085 0 2.027-.582 2.555-1.446-.455.278-.984.446-1.555.446-1.656 0-3-1.343-3-3 0-.571.168-1.1.445-1.554-.863.527-1.445 1.469-1.445 2.554 0 1.657 1.344 3 3 3zM89 42c-1.656 0-3-1.343-3-3 0-.571.168-1.1.445-1.554-.863.527-1.445 1.469-1.445 2.554 0 1.657 1.344 3 3 3 1.085 0 2.027-.582 2.555-1.446-.455.278-.984.446-1.555.446zM95 48c-1.656 0-3-1.343-3-3 0-.571.168-1.1.445-1.554-.863.527-1.445 1.469-1.445 2.554 0 1.657 1.344 3 3 3 1.085 0 2.027-.582 2.555-1.446-.455.278-.984.446-1.555.446z"/></g><g fill="#405E6D"><circle cx="89" cy="39" r="3"/><path d="M92 33c0 1.657 1.344 3 3 3 1.084 0 2.025-.581 2.553-1.443-.488-1.502-1.046-2.973-1.67-4.41-.28-.086-.573-.147-.883-.147-1.656 0-3 1.344-3 3zM98.416 37.5c-.258.443-.416.951-.416 1.5 0 1.01.503 1.898 1.268 2.442-.231-1.333-.517-2.647-.852-3.942z"/><circle cx="95" cy="45" r="3"/></g><path fill="#2D4552" d="M99.268 41.443c-.765-.544-1.268-1.433-1.268-2.443 0-.549.158-1.057.417-1.5l-.007-.027c-.842.532-1.41 1.458-1.41 2.527 0 1.484 1.081 2.708 2.496 2.949-.071-.503-.142-1.008-.228-1.506z"/><path fill="#516C7A" d="M96.399 31.358c-.164-.408-.342-.808-.517-1.21-.279-.087-.572-.148-.882-.148-1.656 0-3 1.343-3 3 0 .171.022.336.051.5.239-1.417 1.464-2.5 2.949-2.5.508 0 .981.135 1.399.358z"/></svg>