<svg xmlns="http://www.w3.org/2000/svg" width="100" height="100" viewBox="0 0 100 100"><path fill="#EFC75E" d="M50 0c27.614 0 50 22.386 50 50s-22.386 50-50 50-50-22.386-50-50 22.386-50 50-50z"/><path fill="#F4EECC" d="M66.52 10.001c-5.807 0-10.531 4.673-10.531 10.418 0 4.792 3.726 8.866 8.187 10.076.45.122.776.51.776.977v9.555c0 .554.449 1.003 1.003 1.003.554 0 1.003-.449 1.003-1.003v-10.964l-.006-.03.006-.028c0-.501-.379-.927-.882-.979-4.288-.438-8.081-4.251-8.081-8.607 0-4.65 3.824-8.434 8.525-8.434 4.404 0 8.038 2.818 8.48 7.061.053.499.483.967.99.967.602 0 1.098-.428 1.033-1.021-.564-5.222-5.076-8.991-10.503-8.991z"/><path fill="#DEDEDE" d="M.292 44.622l91.282-22.4c-3.367-5.03-7.628-9.406-12.548-12.92l-73.604 18.061c-2.688 5.282-4.471 11.1-5.13 17.259z"/><path fill="#BDBDBD" d="M.292 44.622l91.282-22.4c-.817-1.221-1.692-2.4-2.611-3.542l-88.01 21.597c-.282 1.428-.504 2.876-.661 4.345z"/><path fill="#EBEBEB" d="M2.245 35.143l83.19-20.415c-1.097-1.103-2.247-2.152-3.442-3.148l-78.163 19.21c-.592 1.42-1.124 2.87-1.585 4.353z"/><path fill="#F4EECC" d="M67.081 9.999c-3.34 0-6.323 1.51-8.278 3.863l4.779-1.15c.901-.393 1.883-.634 2.915-.702l.058-.014v.012l.526-.026c4.458 0 8.136 2.816 8.585 7.054.053.498.488.966 1.001.966.609 0 1.11-.428 1.046-1.02-.57-5.218-5.139-8.983-10.632-8.983z"/><path fill="#BEACAC" d="M66 36c1.104 0 2 .896 2 2v2h-4v-2c0-1.104.896-2 2-2z"/><path fill="#AB9A9A" d="M66 36c-.812 0-1.507.485-1.82 1.18.251-.114.527-.18.82-.18 1.104 0 2 .896 2 2v1h1v-2c0-1.104-.896-2-2-2z"/><path fill="#CA824F" d="M99.511 56.934l-27.177-16.363c-3.954-2.106-8.713-2.106-12.666 0l-46.063 27.734c-1.586.845-2.093 2.857-1.094 4.34.76 1.127 2.184 1.616 3.486 1.198l45.886-16.647c2.677-.857 5.559-.857 8.235 0l26.925 9.769c1.155-3.205 1.986-6.562 2.468-10.031z"/><path fill="#B57547" d="M72.334 40.571c-3.954-2.106-8.713-2.106-12.666 0l-.607.365c3.645-1.436 7.773-1.229 11.273.635l27.177 16.362 2-1-27.177-16.362z"/><path fill="#324D5B" d="M50 100c-17.434 0-32.776-8.928-41.724-22.455 1.305-8.899 7.222-16.579 15.729-20.021l18.118-6.524h.788c-.589.954-.911 1.959-.911 3 0 6.075 10.745 11 24 11s24-4.925 24-11c0-1.041-.322-2.046-.911-3h1.071l9.635 3.406c-2.232 25.549-23.666 45.594-49.795 45.594z"/><path fill="#526068" d="M94 56.5c0-1.562-.691-3.21-1.929-4.824l-1.911-.676h-1.071c.589.954.911 1.959.911 3 0 6.075-10.745 11-24 11s-24-4.925-24-11c0-1.041.322-2.046.911-3h-.788l-2.481.894c-1.059 1.544-1.642 3.114-1.642 4.606 0 6.904 12.312 12.5 27.5 12.5s28.5-5.596 28.5-12.5z"/></svg>