<svg xmlns="http://www.w3.org/2000/svg" width="100" height="100" viewBox="0 0 100 100"><path fill="#E4E7E7" d="M50 0c27.614 0 50 22.387 50 50 0 27.615-22.386 50-50 50s-50-22.385-50-50c0-27.613 22.386-50 50-50z"/><path fill="#CE5E55" d="M81 84h-62v7c0 4.971 13.879 9 31 9s31-4.029 31-9v-7z"/><path fill="#DE655B" d="M50 75c17.121 0 31 4.029 31 9s-13.879 9-31 9-31-4.029-31-9 13.879-9 31-9z"/><path fill="#B85B50" d="M72.63 77.852c-5.657-1.754-13.7-2.852-22.63-2.852-12.542 0-23.336 2.163-28.217 5.273l8.217 1.727h39l3.63-4.148z"/><path fill="#E5685E" d="M69.772 80.143l-13.994-52.759c-.685-2.583-3.04-4.384-5.731-4.384h-.093c-2.692 0-5.047 1.801-5.732 4.384l-13.994 52.759c-.134.281-.228.565-.228.857 0 3.314 8.955 6 20 6 11.046 0 20-2.686 20-6 0-.292-.094-.576-.228-.857z"/><path fill="#C35950" d="M33 81c0-.292.094-.576.228-.857l13.994-52.759c.558-2.102 2.228-3.667 4.278-4.184-.469-.118-.952-.2-1.453-.2h-.093c-2.692 0-5.047 1.801-5.732 4.384l-13.994 52.759c-.134.281-.228.565-.228.857 0 3.314 8.955 6 20 6 .507 0 1.003-.012 1.5-.022-10.342-.232-18.5-2.816-18.5-5.978z"/><g fill="#fff"><path d="M66.879 69.234l-3.627-13.674c-3.53.936-8.162 1.509-13.252 1.509s-9.722-.573-13.252-1.51l-3.627 13.676c3.547 1.67 9.772 2.781 16.879 2.781s13.332-1.112 16.879-2.782zM61.162 47.683l-3.253-12.264c-2.427.409-5.099.649-7.909.649s-5.483-.24-7.91-.649l-3.253 12.264c3.189.817 7.029 1.333 11.163 1.333s7.975-.516 11.162-1.333z"/></g><g fill="#D9D9D9"><path d="M38.837 47.683c.895.229 1.85.429 2.839.606l3.312-12.485c-.996-.103-1.968-.228-2.898-.384l-3.253 12.263zM39.582 56.186c-1.007-.184-1.955-.394-2.834-.627l-3.627 13.676c.788.37 1.693.717 2.728 1.026l3.733-14.075z"/></g></svg>