<svg xmlns="http://www.w3.org/2000/svg" width="100" height="100" viewBox="0 0 100 100"><path fill="#E4E7E7" d="M49.999.002c27.613 0 50 22.385 50 50 0 27.616-22.387 50-50 50-27.615 0-50-22.385-50-50s22.385-50 50-50z"/><path fill="#fff" d="M4.235 70.145c5.032 11.416 14.205 20.587 25.621 25.621l65.907-65.906c-5.034-11.417-14.206-20.59-25.623-25.622l-65.905 65.907z"/><path fill="#E2574C" d="M59.263 62.09l-21.352-21.352c-1.179-1.179-1.179-3.091 0-4.27l35.584-35.585c1.18-1.179 3.092-1.179 4.271 0l21.352 21.351c1.178 1.179 1.178 3.091 0 4.27l-35.586 35.586c-1.179 1.18-3.092 1.18-4.269 0z"/><path fill="#208DB2" d="M77.767.883c-1.18-1.179-3.092-1.179-4.271 0l-16.135 16.134 25.621 25.622 16.136-16.135c1.178-1.179 1.178-3.091 0-4.27l-21.351-21.351z"/><path fill="#B5463D" d="M63.532 62.09l6.113-6.113c-.139-.266-.305-.52-.527-.742l-24.352-24.352c-.223-.223-.477-.39-.742-.528l-6.113 6.113c-1.179 1.179-1.179 3.091 0 4.27l21.352 21.352c1.177 1.18 3.09 1.18 4.269 0z"/><path fill="#DCBBB8" d="M66.017 59.606l-1.414 1.414-25.622-25.622 1.414-1.414z"/></svg>