<svg xmlns="http://www.w3.org/2000/svg" width="100" height="100" viewBox="0 0 100 100"><path fill="#EDEDED" d="M50 0c-27.614 0-50 22.385-50 49.999s22.386 50.001 50 50.001c27.613 0 50-22.387 50-50.001 0-27.614-22.387-49.999-50-49.999z"/><path fill="#2B414D" d="M19 60.998h-2c-.069 5.746-1 8.001-1 8.001l6 1s-3-3.748-3-9.001zm0-15h-2v14h2v-14zM19 60.998h-2c-.069 5.746-1 8.001-1 8.001l6 1s-3-3.748-3-9.001zm0-15h-2v14h2v-14z"/><path fill="#475F6C" d="M18 57.998c1.657 0 3 1.344 3 3s-1.343 3-3 3-3-1.344-3-3 1.343-3 3-3z"/><path fill="#2B414D" d="M9.865 44.945l38.014-17.502c1.165-.583 3.053-.583 4.219 0l38.014 17.502c1.164.583 1.164 1.527 0 2.109l-38.014 17.503c-1.164.582-3.054.582-4.218 0l-38.015-17.503c-1.165-.582-1.165-1.527 0-2.109zM50 54.998c11.498 0 20.82 4.029 20.82 9s-9.322 9-20.82 9c-11.499 0-20.82-4.029-20.82-9s9.321-9 20.82-9z"/><path fill="#455E6B" d="M50 54.998c11.498 0 20.82 4.029 20.82 9v.001l.033.085-1.853-14.085c0-4.418-8.507-8-19-8-10.468 0-18.956 3.565-18.996 7.969h-.004l-1.694 13.057c1.124-4.513 9.957-8.027 20.694-8.027z"/><path fill="#4B6370" d="M70.82 63.998l.033.086-1.853-14.085c0-4.418-8.507-8-19-8v12.999c11.498 0 20.82 4.029 20.82 9z"/></svg>