<svg xmlns="http://www.w3.org/2000/svg" width="100" height="100" viewBox="0 0 100 100"><path fill="#EDEDED" d="M50 0c27.614 0 50 22.386 50 50 0 27.615-22.386 50-50 50s-50-22.385-50-50c0-27.614 22.386-50 50-50z"/><path fill="#EFC75E" d="M63 65.001h-26c-11.046 0-20 8.954-20 19.999v2.547c8.807 7.746 20.351 12.453 33 12.453s24.193-4.707 33-12.453v-2.547c0-11.045-8.954-19.999-20-19.999z"/><path fill="#CBA950" d="M17 84.759v2.788c1.583 1.394 3.248 2.696 5 3.883v-4.703c0-10.873 8.954-19.688 20-19.688v-1.968h-5c-11.046 0-20 8.816-20 19.688z"/><path fill="#C45B4B" d="M65.499 85.5c.855-.164 1.501-.918 1.501-1.82 0-1.023-.83-1.854-1.854-1.854-.554 0-1.051.242-1.39.626.064-.188.099-.39.099-.599-.001-1.021-.831-1.853-1.855-1.853s-1.854.832-1.854 1.854c0 .209.034.41.099.599-.34-.384-.837-.626-1.391-.626-1.024 0-1.855.83-1.855 1.854 0 .902.646 1.656 1.502 1.82-.855.165-1.502.918-1.502 1.82 0 1.023.831 1.854 1.855 1.854.554 0 1.051-.242 1.391-.627-.064.188-.099.389-.099.598 0 1.024.83 1.854 1.854 1.854s1.854-.83 1.854-1.854c0-.208-.034-.409-.099-.598.339.385.836.627 1.39.627 1.024 0 1.854-.831 1.854-1.854.001-.903-.645-1.656-1.5-1.821zm-3.499 1.65c-.921 0-1.667-.738-1.667-1.65 0-.91.746-1.649 1.667-1.649s1.667.739 1.667 1.649c0 .912-.746 1.65-1.667 1.65z"/><path fill="#324D5B" d="M59.684 21.057c.905-1.644 2.648-4.062 5.322-4.741 4.715-1.197 9.913 1.173 12.469 5.041 2.559 3.866 5.542 11.718 9.913 13.239 3.408 1.189-8.421 2.698-13.962-.584-3.67-2.173-5.6-6.68-8.312-7.032-.989-.126-2.137.048-3.284.359.09.698-2.255.403-2.791-.08-2.169-1.957-.51-3.651.645-6.202z"/><path fill="#EFC75E" d="M59.5 24c1.933 0 3.5 1.567 3.5 3.5s-1.567 3.5-3.5 3.5-3.5-1.566-3.5-3.5 1.567-3.5 3.5-3.5z"/><path fill="#D07C40" d="M50 51c9.941 0 18 5.82 18 13s-8.059 13-18 13-18-5.82-18-13 8.059-13 18-13z"/><path fill="#EFC2B3" d="M50 24c11.046 0 20 8.954 20 20v8c0 11.047-8.954 20-20 20s-20-8.953-20-20v-8c0-11.045 8.954-20 20-20z"/><path fill="#D7AEA1" d="M48 57c0-1.104.896-2 2-2v-22h-16.695c-2.084 3.157-3.305 6.935-3.305 11v8c0 11.047 8.954 20 20 20v-13c-1.104 0-2-.895-2-2z"/><path fill="#324D5B" d="M29.984 40.989c1.148.012 6.05-.24 10.885-5.003 1.985 1.956 3.091 4.995 9.146 4.995 1.266 0 9.13-2.997 11.07-2.997 4.613 0 7.969 2.112 8.923 2.787-1.561-9.506-9.905-16.772-19.995-16.772-10.166 0-18.561 7.377-20.029 16.99zM40.5 47c-1.381 0-2.5 1.12-2.5 2.5s1.119 2.5 2.5 2.5 2.5-1.119 2.5-2.5-1.119-2.5-2.5-2.5zm19 0c-1.381 0-2.5 1.12-2.5 2.5s1.119 2.5 2.5 2.5 2.5-1.119 2.5-2.5-1.119-2.5-2.5-2.5z"/></svg>