<svg xmlns="http://www.w3.org/2000/svg" width="100" height="100" viewBox="0 0 100 100"><path fill="#324D5B" d="M50 0c27.614 0 50 22.387 50 50 0 27.614-22.386 50-50 50s-50-22.386-50-50c0-27.613 22.386-50 50-50z"/><path fill="#233640" d="M9.092 21.267l40.908 61.733h1l40.041-61.545c-9.033-12.964-24.042-21.455-41.041-21.455-16.917 0-31.86 8.41-40.908 21.267z"/><path fill="#EEF3F3" d="M50 83h1l24.689-75.897c-7.508-4.507-16.294-7.103-25.689-7.103-9.365 0-18.125 2.581-25.618 7.062l25.618 75.938z"/><path fill="#fff" d="M55 0h-10v66.536l5 14.464h1l4-12z"/><path fill="#6F828C" d="M50 27c1.104 0 2-.896 2-2s-.896-2-2-2-2 .896-2 2 .896 2 2 2zm0 16c-1.104 0-2 .896-2 2s.896 2 2 2 2-.896 2-2-.896-2-2-2zm0 20c-1.104 0-2 .896-2 2s.896 2 2 2 2-.896 2-2-.896-2-2-2z"/><path fill="#283E49" d="M99.975 51h-15.975v5h15.629c.197-1.644.312-3.312.346-5z"/><path fill="#EEF3F3" d="M84 50.96v.04h15.975l.025-1c0-1.772-.096-3.521-.275-5.246l-11.805 1.686c-2.249.322-3.92 2.248-3.92 4.52z"/><path fill="#ccc" d="M43 18l6.936-10 7.064 10-1.972-17.748c-1.654-.166-3.331-.252-5.028-.252s-3.374.086-5.028.252l-1.972 17.748z"/><g fill="#fff"><path d="M25.088 6.655l17.912 11.345 6.628-17.991c-8.934.066-17.305 2.479-24.54 6.646zM50.372.009l6.628 17.991 17.912-11.345c-7.235-4.167-15.606-6.58-24.54-6.646z"/></g></svg>