<svg xmlns="http://www.w3.org/2000/svg" width="100" height="100" viewBox="0 0 100 100"><path fill="#91D8F0" d="M50 0c27.614 0 50 22.386 50 50s-22.386 50-50 50-50-22.386-50-50 22.386-50 50-50z"/><path fill="#F4F0D3" d="M60 98.998c6.973-1.416 13.41-4.292 19-8.28v-28.718h-19v36.998z"/><path fill="#DBD8BD" d="M66 80l-6-1v-9l6 1 13-3v9l-13 3zM60 98.998c2.05-.416 4.049-.97 6-1.629v-35.369h-6v36.998z"/><path fill="#C5C2AA" d="M60 70v9l6 1v-9z"/><path fill="#E2574C" d="M53 37v35l45.099-8.351c1.229-4.34 1.901-8.915 1.901-13.649 0-7.448-1.641-14.508-4.561-20.858l-42.439 7.858z"/><path fill="#E67067" d="M97.619 34.737c-2.253-7.033-6.019-13.386-10.916-18.68l-53.141 10.318-6.199 4.784 25.637 11.841 44.619-8.263z"/><path fill="#CB4E44" d="M98.689 61.354l-46.689 8.646v5l45.153-8.361c.607-1.72 1.118-3.485 1.536-5.285z"/><path fill="#E2574C" d="M50.304 74.426l-22.424-4.325c-3.569-.688-6.88 2.059-6.88 5.71v14.907c8.181 5.837 18.185 9.282 29 9.282 1.688 0 3.355-.086 5-.25v-19.614c0-2.788-1.971-5.185-4.696-5.71z"/><path fill="#F2B5B0" d="M74.47 49.082c-.078-.453-.586-.896-1.275-.773-.65.115-1.158.672-1.302 1.164l-1.535 5.409-.026.005-1.535-4.865c-.144-.441-.651-.818-1.302-.703-.689.123-1.197.744-1.275 1.226l-1.21 7.452-.013.223c0 .57.416.86.937.768.664-.117.924-.461 1.015-1.088l.769-5.415.025-.005 1.562 5.158c.092.296.339.693 1.042.568.702-.125.949-.609 1.04-.937l1.562-5.712.025-.005.769 5.144c.091.594.351.846 1.015.729.521-.093.937-.529.937-1.101l-.013-.218-1.212-7.024zm7.914-1.402c-.222-.583-.703-.953-1.393-.831-.664.118-1.172.688-1.393 1.324l-2.616 7.52c-.025.069-.091.237-.091.444 0 .52.442.83.963.738.534-.096.807-.429.938-.854l.39-1.276 3.618-.641.391 1.149c.13.367.403.604.95.507.481-.085.897-.51.897-1.016 0-.091-.026-.268-.104-.462l-2.55-6.602zm-2.643 5.175l1.236-3.98.026-.004 1.21 3.547-2.472.437zm7.865-7.1c-.56.099-.976.536-.976 1.185v7.368c0 .648.416.938.976.839s.977-.536.977-1.185v-7.368c0-.649-.417-.938-.977-.839zm7.467 6.2l-2.316.41v-6.511c0-.648-.417-.938-.977-.839s-.976.537-.976 1.185v7.237c0 .649.377.997 1.015.885l3.254-.576c.572-.102.924-.592.937-1.022.026-.447-.273-.886-.937-.769z"/><path fill="#B5463D" d="M40 26.273c9.389 1.811 17 11.457 17 21.543v21.373c0 3.651-3.311 6.398-6.88 5.711l-22.424-4.326c-2.725-.525-4.696-2.921-4.696-5.709v-23.607c0-10.087 7.611-16.796 17-14.985z"/><path fill="#A33F37" d="M40 26.273c-1.548-.298-3.04-.345-4.465-.203.484.049.971.108 1.465.203 9.389 1.811 17 11.457 17 21.543v21.373c0 2.746-1.872 4.979-4.319 5.626l.439.085c3.569.688 6.88-2.06 6.88-5.711v-21.373c0-10.087-7.611-19.732-17-21.543zM23.077 65.742c.364 2.399 2.186 4.363 4.619 4.832l22.424 4.326c3.569.688 6.88-2.06 6.88-5.711v-10.464l-33.923 7.017z"/><path fill="#BA564E" d="M57 58.725l-33.923 7.018c.289 1.902 1.5 3.512 3.201 4.338l30.722-6.356v-5z"/><path fill="#fff" d="M57 47.816c0-4.999-1.873-9.886-4.901-13.769l-13.107 2.49c-1.737.331-2.992 1.833-2.992 3.58v25.255c0 2.288 2.11 4.01 4.385 3.578l16.615-3.157v-17.977z"/><g fill="#eee"><path d="M41 52.469c0 .336.324.588.675.523l15.325-2.944v-1.784l-15.54 2.986c-.267.048-.46.268-.46.523v.696zM57 52.264l-15.54 2.986c-.267.048-.46.268-.46.523v.695c0 .336.324.588.675.523l15.325-2.943v-1.784z"/></g><path fill="#2EA9D3" d="M41.46 42.25l6.865-1.241c.351-.064.675.189.675.523v3.696c0 .256-.193.476-.46.523l-6.865 1.241c-.351.064-.675-.188-.675-.523v-3.696c0-.255.193-.475.46-.523z"/><path fill="#923931" d="M54 69.189c0 2.746-1.872 4.979-4.319 5.626l.439.085c3.569.688 6.88-2.06 6.88-5.711v-10.464l-3 .621v9.843z"/><path fill="#E5E5E5" d="M56.913 45.942c-.03-.325-.088-.646-.134-.97-.041-.293-.068-.589-.121-.88-.082-.446-.192-.886-.302-1.327l-.111-.487c-.145-.529-.314-1.05-.497-1.566l-.065-.204c-.206-.567-.436-1.125-.685-1.673l-.019-.044c-.766-1.675-1.729-3.256-2.851-4.701l-.03-.042-2.636.501c2.809 3.799 4.538 8.478 4.538 13.267v18.547l3-.57v-17.977c0-.627-.03-1.252-.087-1.874z"/><g fill="#eee"><path d="M41 52.469c0 .336.324.588.675.523l15.325-2.944v-1.784l-15.54 2.986c-.267.048-.46.268-.46.523v.696zM57 52.264l-15.54 2.986c-.267.048-.46.268-.46.523v.695c0 .336.324.588.675.523l15.325-2.943v-1.784z"/></g><path fill="#CECECE" d="M54 50.624l3-.576v-1.784l-3 .576zM54 54.624l3-.576v-1.784l-3 .576z"/><path fill="#CB4E44" d="M50.304 74.426l-22.424-4.325c-.372-.071-.741-.106-1.104-.106-3.119 0-5.776 2.545-5.776 5.816v14.907c.655.468 1.322.92 2 1.355v-16.262c0-2.104 1.694-3.816 3.777-3.816.24 0 .483.023.724.07l22.424 4.325c1.782.343 3.075 1.919 3.075 3.746v19.767c.67-.039 1.338-.086 2-.152v-19.615c0-2.788-1.971-5.185-4.696-5.71z"/><path fill="#EFC75E" d="M35.695 70.988l4.03.654c.732.12 1.275.833 1.275 1.672 0 1.027-.801 1.817-1.695 1.672l-4.029-.654c-.733-.119-1.276-.832-1.276-1.672 0-1.028.801-1.818 1.695-1.672z"/></svg>