<svg xmlns="http://www.w3.org/2000/svg" width="100" height="100" viewBox="0 0 100 100"><path fill="#2EA9D3" d="M50 0c27.614 0 50 22.386 50 50s-22.386 50-50 50-50-22.386-50-50 22.386-50 50-50z"/><path fill="#42B0D6" d="M51.438 20.901c-.266-.55-.827-.901-1.442-.901s-1.176.351-1.442.901l-32.314 65.975c8.896 8.148 20.746 13.124 33.76 13.124 13.011 0 24.858-4.973 33.754-13.117l-32.316-65.982z"/><path fill="#54B7D9" d="M61.787 97.16l-10.35-76.259c-.265-.55-.826-.901-1.441-.901-.615 0-1.176.351-1.442.901l-11.348 76.253s-.221.769-.166 1.14c4.134 1.106 8.477 1.706 12.96 1.706 4.103 0 8.085-.505 11.9-1.437.129-.443-.113-1.403-.113-1.403z"/><path fill="#64BDDB" d="M50 27l.202 72.995c4.424-.018 8.709-.618 12.792-1.715l-11.556-77.379c-.266-.55-.827-.901-1.442-.901-.616 0 .27 6.449.004 7z"/><path fill="#F2F1EF" d="M49.996 20c.616 0 1.176.351 1.442.901l22.35 46.259c.637 1.315-.329 2.84-1.799 2.84h-43.98c-1.472 0-2.44-1.527-1.803-2.846l22.347-46.253c.267-.55.827-.901 1.443-.901z"/><path fill="#EFC75E" d="M49.996 50c.616 0 1.176.351 1.442.901l22.35 16.259c.637 1.315-.329 2.84-1.799 2.84h-43.98c-1.472 0-2.44-1.527-1.803-2.846l22.347-16.253c.267-.55.827-.901 1.443-.901z"/><path fill="#DBDBDB" d="M50 22l-8.998 47.418c-.061.373.032.754.256 1.059l7.138 9.715c.374.507.97.808 1.605.808s1.231-.301 1.604-.809l7.143-9.72c.222-.302.312-.679.253-1.048l-9.001-47.423z"/><path fill="#C5C5C5" d="M50 81c.636 0 1.232-.301 1.605-.809l7.143-9.72c.222-.302.312-.679.253-1.048l-9.001-47.423v59z"/><path fill="#D7B354" d="M50 62l-6.161-7.53-2.837 14.948-.002.032v.356c.028.239.112.472.258.67l7.138 9.715c.374.508.97.809 1.604.809v-19z"/><path fill="#C6A44E" d="M51.605 80.191l7.143-9.72c.217-.295.304-.661.252-1.022v-.03l-2.838-14.951-6.162 7.532v19h.001c.635 0 1.231-.301 1.604-.809z"/></svg>