<svg xmlns="http://www.w3.org/2000/svg" width="100" height="100" viewBox="0 0 100 100"><path fill="#2EA9D3" d="M50-.001c27.614 0 50 22.386 50 50s-22.386 50-50 50-50-22.386-50-50 22.386-50 50-50z"/><path fill="#EFC75E" d="M32 17.999h36c3.314 0 6 2.687 6 6v70c0 3.313-2.686 6.001-6 6.001h-36c-3.313 0-6-2.688-6-6.001v-70c0-3.313 2.687-6 6-6z"/><path fill="#D7B354" d="M31.98 99.999h9.549l8.47-6v-70l-23.999 17.001v53c0 3.306 2.676 5.988 5.98 5.999z"/><path fill="#F5DD9E" d="M33 90.999c-1.104 0-2 .896-2 2s.896 2 2 2 2-.896 2-2-.896-2-2-2zm34 0c-1.104 0-2 .896-2 2s.896 2 2 2 2-.896 2-2-.896-2-2-2zm-34-68c-1.104 0-2 .896-2 2s.896 2 2 2 2-.896 2-2-.896-2-2-2zm34 3c1.104 0 2-.896 2-2s-.896-2-2-2-2 .896-2 2 .896 2 2 2z"/><path fill="#D7B354" d="M61 51.999h-22c-.552 0-1 .448-1 1 0 .553.448 1 1 1h22c.553 0 1-.447 1-1 0-.552-.447-1-1-1zm0 6h-22c-.552 0-1 .448-1 1 0 .553.448 1 1 1h22c.553 0 1-.447 1-1 0-.552-.447-1-1-1zm0 6h-22c-.552 0-1 .448-1 1s.448 1 1 1h22c.553 0 1-.448 1-1s-.447-1-1-1zm0 6h-22c-.552 0-1 .448-1 1 0 .553.448 1 1 1h22c.553 0 1-.447 1-1 0-.552-.447-1-1-1zm-22-34h22c.553 0 1-.447 1-1 0-.552-.447-1-1-1h-22c-.552 0-1 .448-1 1 0 .553.448 1 1 1zm22 4h-22c-.552 0-1 .448-1 1 0 .553.448 1 1 1h22c.553 0 1-.447 1-1 0-.552-.447-1-1-1zm0 6h-22c-.552 0-1 .448-1 1 0 .553.448 1 1 1h22c.553 0 1-.447 1-1 0-.552-.447-1-1-1z"/><g fill="#C1A14B"><path d="M39 47.999h11v-2h-11c-.552 0-1 .448-1 1 0 .553.448 1 1 1zM50 69.999h-11c-.552 0-1 .448-1 1 0 .553.448 1 1 1h11v-2zM39 41.999h11v-2h-11c-.552 0-1 .448-1 1 0 .553.448 1 1 1zM39 65.999h11v-2h-11c-.552 0-1 .448-1 1s.448 1 1 1zM38 34.999c0 .553.448 1 1 1h11v-2h-11c-.552 0-1 .448-1 1zM39 53.999h11v-2h-11c-.552 0-1 .448-1 1 0 .553.448 1 1 1zM39 59.999h11v-2h-11c-.552 0-1 .448-1 1 0 .553.448 1 1 1z"/></g><path fill="#F2F1EF" d="M43.004 69.73v-38.72c0-3.865 3.135-6.998 7.004-6.998 3.867 0 7.002 3.133 7.002 6.998v38.719c0 1.502.619 2.92 1.659 4.003 2.046 2.128 3.313 5.005 3.343 8.182.058 6.396-5.141 11.854-11.537 12.098-6.843.259-12.473-5.208-12.473-11.988 0-3.224 1.277-6.144 3.349-8.297 1.039-1.081 1.653-2.498 1.653-3.997z"/><path fill="#E2574C" d="M45 73.348v-39.349h10v39.349c2.986 1.73 5 4.952 5 8.651 0 5.522-4.477 10-10 10s-10-4.478-10-10c0-3.699 2.014-6.921 5-8.651z"/><path fill="#CB4E44" d="M50 31.999c2.762 0 5 .896 5 2s-2.238 2-5 2c-2.761 0-5-.896-5-2s2.239-2 5-2z"/><path fill="#EB8A82" d="M48 82c-1.104 0-2 .896-2 2 0 1.105.896 2 2 2s2-.895 2-2c0-1.104-.896-2-2-2zm2-23.5c0 .828.672 1.5 1.5 1.5s1.5-.672 1.5-1.5c0-.829-.672-1.501-1.5-1.501s-1.5.672-1.5 1.501zm-1-6.5c1.104 0 2-.895 2-2 0-1.104-.896-2-2-2s-2 .896-2 2c0 1.105.896 2 2 2zm.5 14c-.828 0-1.5.671-1.5 1.5 0 .828.672 1.5 1.5 1.5s1.5-.672 1.5-1.5c0-.829-.672-1.5-1.5-1.5zm3 11c-.828 0-1.5.672-1.5 1.5s.672 1.5 1.5 1.5 1.5-.672 1.5-1.5-.672-1.5-1.5-1.5z"/><path fill="#D4B25A" d="M68 17.999h-36c-3.313 0-6 2.687-6 6v3c0-3.313 2.687-6 6-6h36c3.314 0 6 2.687 6 6v-3c0-3.313-2.686-6-6-6z"/></svg>