<svg xmlns="http://www.w3.org/2000/svg" width="100" height="100" viewBox="0 0 100 100"><path fill="#3DB39E" d="M50 0c-27.614 0-50 22.386-50 50s22.386 50 50 50 50-22.386 50-50-22.386-50-50-50z"/><path fill="#324D5B" d="M49.5 18.999c-.828 0-1.5.672-1.5 1.501v61c0 .828.672 1.5 1.5 1.5s1.5-.672 1.5-1.5v-61c0-.829-.672-1.501-1.5-1.501zm-6.963 52.399l-8.139 12.139c-.562.562-.562 1.473 0 2.034s1.473.562 2.035 0l8.138-12.139c.562-.562.562-1.472 0-2.034-.561-.561-1.472-.561-2.034 0zm22.065 12.139l-8.139-12.139c-.562-.562-1.473-.562-2.034 0-.562.562-.562 1.473 0 2.034l8.138 12.139c.562.562 1.474.562 2.035 0s.561-1.472 0-2.034z"/><path fill="#F3F3F3" d="M80 26v44h-60v-44h60z"/><path fill="#F4B459" d="M80 70h-60c-1.104 0-2 .895-2 2 0 1.104.896 2 2 2h60c1.104 0 2-.896 2-2 0-1.105-.896-2-2-2zm-60-44h60c1.104 0 2-.896 2-2s-.896-2-2-2h-60c-1.104 0-2 .896-2 2s.896 2 2 2z"/><path fill="#E3E3E3" d="M20 26h60v2h-60v-2z"/><path fill="#476574" d="M41 37c-6.627 0-12 5.372-12 12s5.373 12 12 12 12-5.372 12-12h-12v-12z"/><path fill="#E2574C" d="M43 35c6.628 0 12 5.372 12 12 0-.055-12 0-12 0s.054-12 0-12zM63.5 36c1.381 0 2.5 1.119 2.5 2.5 0 1.38-1.119 2.5-2.5 2.5s-2.5-1.12-2.5-2.5c0-1.381 1.119-2.5 2.5-2.5z"/><path fill="#3DB39E" d="M63.5 52c1.381 0 2.5 1.119 2.5 2.5s-1.119 2.5-2.5 2.5-2.5-1.119-2.5-2.5 1.119-2.5 2.5-2.5z"/><path fill="#D1D6D8" d="M61 43v2h11v-2h-11zm8 3h-8v2h8v-2zm-8 15h11v-2h-11v2z"/><g fill="#253A44"><path d="M48 74h3v3h-3zM58.207 74h-3.398l2.011 3h3.399zM38.781 77h3.399l2.011-3h-3.398z"/></g><g fill="#EFC75E"><path d="M20 74h60c1.104 0 2-.896 2-2h-64c0 1.104.896 2 2 2zM80 22h-60c-1.104 0-2 .896-2 2h64c0-1.104-.896-2-2-2z"/></g></svg>