<svg xmlns="http://www.w3.org/2000/svg" width="100" height="100" viewBox="0 0 100 100"><path fill="#26A6D1" d="M50 0c-27.614 0-50 22.386-50 50 0 27.615 22.386 50 50 50 27.615 0 50-22.385 50-50 0-27.614-22.385-50-50-50z"/><path fill="#E4E7E7" d="M73 23.999h-46c-3.865 0-7 3.135-7 7v59.001c8.357 6.277 18.744 10 30 10 11.258 0 21.645-3.723 30-10v-59.001c0-3.865-3.133-7-7-7z"/><path fill="#344C59" d="M76 35.999h-52c-.552 0-1 .448-1 1v55.073c7.789 5.01 17.052 7.928 27 7.928 9.949 0 19.211-2.918 27-7.928v-55.073c0-.552-.447-1-1-1z"/><path fill="#3F5E6D" d="M75 38h-50v55.295c7.356 4.256 15.891 6.705 25 6.705 9.111 0 17.645-2.449 25-6.705v-55.295z"/><path fill="#BFC3C5" d="M55 27.999h-10c-.553 0-1 .449-1 1 0 .553.447 1.001 1 1.001h10c.553 0 1-.448 1-1.001 0-.551-.447-1-1-1zm4 0c-.553 0-1 .449-1 1 0 .553.447 1.001 1 1.001s1-.448 1-1.001c0-.551-.447-1-1-1zm4 0c-.553 0-1 .449-1 1 0 .553.447 1.001 1 1.001s1-.448 1-1.001c0-.551-.447-1-1-1z"/><path fill="#4E6B78" d="M41.506 61.012c-.832 0-1.506.57-1.506 1.273v5.451c0 .705.674 1.275 1.506 1.275.83 0 1.504-.57 1.504-1.275v-5.451c0-.703-.674-1.273-1.504-1.273zm11.029-5.231l1.232-1.158c.152-.143.152-.375 0-.518-.15-.143-.398-.143-.549 0l-1.518 1.426c-.541-.125-1.115-.193-1.709-.193-.588 0-1.154.066-1.691.189l-1.514-1.422c-.152-.143-.398-.143-.551 0-.15.143-.15.375 0 .518l1.227 1.152c-2.045.738-3.467 2.34-3.467 4.203 0 .021 11.99 0 11.99 0 .001-1.857-1.411-3.457-3.45-4.197zm-4.543 3.213c-.555 0-1.004-.441-1.004-.986s.449-.986 1.004-.986c.553 0 1.002.441 1.002.986s-.449.986-1.002.986zm3.992 0c-.555 0-1.002-.441-1.002-.986s.447-.986 1.002-.986 1.004.441 1.004.986-.449.986-1.004.986zm6.512 2.018c-.832 0-1.506.57-1.506 1.273v5.451c0 .705.674 1.275 1.506 1.275.83 0 1.504-.57 1.504-1.275v-5.451c0-.703-.674-1.273-1.504-1.273zm-14.5 7.955c0 1.129.881 2.041 2.047 2.045v3.801c0 .658.662 1.195 1.441 1.195.777 0 1.439-.537 1.439-1.195v-3.801h2.119v3.801c0 .658.631 1.195 1.41 1.195.777 0 1.408-.537 1.408-1.195v-3.801h.01c1.168 0 2.115-.914 2.115-2.045v-7.99h-11.99v7.99z"/></svg>