<svg xmlns="http://www.w3.org/2000/svg" width="100" height="100" viewBox="0 0 100 100"><path fill="#EDEDED" d="M50 0c27.614 0 50 22.386 50 50s-22.386 50-50 50-50-22.386-50-50c0-27.615 22.386-50 50-50z"/><path fill="#324D5B" d="M83 79c0-7.732-6.268-14-14-14h-38c-7.732 0-14 6.268-14 14v8.547c8.806 7.746 20.35 12.453 33 12.453 12.649 0 24.193-4.707 33-12.453v-8.547z"/><path fill="#2B424D" d="M17 78.556v8.991c1.583 1.394 3.248 2.696 5 3.883v-12.874c0-7.62 6.268-13.798 14-13.798h-5c-7.732 0-14 6.178-14 13.798z"/><path fill="#5B717C" d="M41.5 51h17c6.903 0 12.5 5.597 12.5 12.5s-5.597 12.5-12.5 12.5h-17c-6.903 0-12.5-5.597-12.5-12.5s5.597-12.5 12.5-12.5z"/><path fill="#E9AD9A" d="M43 24h14c6.627 0 12 5.373 12 12v24c0 6.627-5.373 12-12 12h-14c-6.627 0-12-5.373-12-12v-24c0-6.627 5.373-12 12-12z"/><path fill="#D49F8F" d="M48 60.008c-.955 0-2-.41-2-1.989 0-1.298 4-4.64 4-5.997v-19.022h-18.606c-.248.96-.394 1.962-.394 3v24c0 6.627 5.373 12 12 12h7v-12.01s-1.045.018-2 .018z"/><path fill="#828282" d="M62.5 42h-6c-.828 0-1.5.672-1.5 1.5s.672 1.5 1.5 1.5h6c.828 0 1.5-.672 1.5-1.5s-.672-1.5-1.5-1.5zm-19 0h-6c-.828 0-1.5.672-1.5 1.5s.672 1.5 1.5 1.5h6c.828 0 1.5-.672 1.5-1.5s-.672-1.5-1.5-1.5z"/><path fill="#324D5B" d="M40.5 48c-1.381 0-2.5 1.12-2.5 2.5 0 1.381 1.119 2.5 2.5 2.5s2.5-1.119 2.5-2.5c0-1.38-1.119-2.5-2.5-2.5zm19 0c-1.381 0-2.5 1.12-2.5 2.5 0 1.381 1.119 2.5 2.5 2.5s2.5-1.119 2.5-2.5c0-1.38-1.119-2.5-2.5-2.5z"/><path fill="#E37948" d="M32 24c13.885-5.104 42-3.999 42-3.999 2.129 0 3 1.292 3 2.999 0 8.692-5.676 13-8 13h-38c-2.61 0-4-2.238-4-5 0-2.082 1.166-5.545 5-7z"/><path fill="#EFC75E" d="M64.388 92.004c-.175 0-.347-.058-.494-.17l-2.391-1.844-2.392 1.844c-.146.112-.32.17-.494.17-.172 0-.343-.057-.488-.168-.294-.221-.416-.617-.301-.977l.939-2.942-2.418-1.398c-.295-.222-.42-.614-.307-.975.111-.358.431-.599.791-.599h.006l2.973.023.896-2.958c.109-.36.431-.606.793-.606s.685.246.793.606l.896 2.958 2.971-.023h.008c.359 0 .681.24.789.599.113.36-.01.753-.305.975l-2.417 1.398.94 2.942c.114.359-.008.755-.299.977-.145.111-.318.168-.489.168z"/><path fill="#D27043" d="M71 34h-38c-2.61 0-4-2.238-4-5 0-1.144.356-2.705 1.309-4.12-2.492 1.691-3.309 4.384-3.309 6.12 0 .199.023.388.037.581l-.037.419v6c0 2.418 1.718 4.436 4 4.899v-6.899h38c1.167 0 3.18-1.089 4.895-3.272-1.109.848-2.166 1.272-2.895 1.272z"/></svg>