<svg xmlns="http://www.w3.org/2000/svg" width="100" height="100" viewBox="0 0 100 100"><path fill="#EEF3F3" d="M50 0c27.614 0 50 22.386 50 50s-22.386 50-50 50-50-22.386-50-50 22.386-50 50-50z"/><path fill="#E8A59F" d="M97.375 34.018l-5.448 5.449-10.607-10.607 8.759-8.759c-3.008-4.026-6.615-7.575-10.679-10.535l-8.687 8.687-10.606-10.606 5.237-5.238c-4.835-1.558-9.99-2.409-15.344-2.409-5.633 0-11.041.945-16.092 2.662l4.984 4.985-10.605 10.606-8.269-8.269c-4.02 3.017-7.561 6.631-10.513 10.701l8.174 8.174-10.606 10.608-4.701-4.701c-1.536 4.803-2.372 9.921-2.372 15.234 0 5.354.851 10.509 2.409 15.345l4.665-4.664 10.607 10.606-8.114 8.113c2.96 4.063 6.509 7.671 10.535 10.679l8.186-8.186 10.606 10.607-4.875 4.875c5.019 1.693 10.389 2.625 15.981 2.625 5.313 0 10.431-.836 15.234-2.372l-5.128-5.128 10.606-10.606 8.602 8.602c4.069-2.952 7.684-6.493 10.7-10.513l-8.695-8.695 10.606-10.606 5.412 5.412c1.718-5.053 2.663-10.462 2.663-16.094 0-5.591-.932-10.962-2.625-15.982zm-47.875-15.764l10.606 10.606-10.606 10.608-10.606-10.608 10.606-10.606zm-21.213 42.427l-10.607-10.608 10.606-10.605 10.607 10.606-10.606 10.607zm21.213 21.213l-10.606-10.607 10.606-10.606 10.606 10.606-10.606 10.607zm21.213-21.213l-10.607-10.607 10.606-10.606 10.608 10.605-10.607 10.608z"/><g fill="#E57E75"><path d="M38.894 28.86l-10.607 10.607-10.606-10.606 10.607-10.607zM60.105 28.859l10.607-10.607 10.606 10.606-10.607 10.607zM60.107 50.074l-10.606 10.606-10.606-10.606 10.606-10.606zM28.287 60.68l10.606 10.606-10.607 10.607-10.606-10.606zM60.105 71.287l10.606-10.606 10.607 10.607-10.606 10.606zM7.073 39.467l-6.93 6.93c-.084 1.191-.143 2.39-.143 3.603 0 1.267.063 2.519.155 3.762l6.918 6.919 10.607-10.608-10.607-10.606zM99.937 47.476l-8.01-8.009-10.607 10.606 10.605 10.607 8.001-8.001c.048-.887.074-1.78.074-2.679 0-.847-.022-1.688-.063-2.524zM46.396.144l-7.504 7.503 10.608 10.607 10.607-10.607-7.584-7.583c-.835-.042-1.676-.064-2.523-.064-1.213 0-2.412.059-3.604.144zM38.894 92.5l7.345 7.345c1.242.093 2.493.155 3.761.155.899 0 1.792-.026 2.68-.073l7.427-7.427-10.607-10.606-10.606 10.606z"/></g><path fill="#C58C87" d="M14 50c0-9.433 3.632-18.013 9.568-24.432-7.111 6.577-11.568 15.982-11.568 26.432 0 7.014 2.013 13.554 5.481 19.088l.199.199-.043.044c2.718 4.26 6.303 7.911 10.513 10.699l.137-.137.625.625c5.534 3.469 12.074 5.482 19.088 5.482 10.449 0 19.855-4.456 26.432-11.567-6.419 5.935-15 9.567-24.432 9.567-19.882 0-36-16.117-36-36z"/><path fill="#F5F1EA" d="M50 14c19.882 0 36 16.118 36 36 0 19.883-16.118 36-36 36s-36-16.117-36-36c0-19.882 16.118-36 36-36z"/><path fill="#E7E2DA" d="M50 25c13.807 0 25 11.193 25 25 0 13.808-11.193 25-25 25s-25-11.192-25-25c0-13.807 11.193-25 25-25z"/><path fill="#fff" d="M71.001 49.998c0 2.639-3.493 4.562-4.444 6.857-.986 2.378.085 6.2-1.707 7.992s-5.614.721-7.992 1.707c-2.295.951-4.219 4.444-6.857 4.444s-4.562-3.493-6.857-4.444c-2.378-.986-6.2.085-7.992-1.707s-.721-5.614-1.707-7.992c-.951-2.295-4.444-4.219-4.444-6.857s3.493-4.562 4.444-6.857c.986-2.378-.085-6.2 1.707-7.992s5.614-.721 7.992-1.707c2.295-.951 4.219-4.444 6.857-4.444s4.562 3.493 6.857 4.444c2.378.986 6.2-.085 7.992 1.707s.721 5.614 1.707 7.992c.951 2.295 4.444 4.218 4.444 6.857z"/><path fill="#FDD671" d="M50 42.001c4.418 0 8 3.581 8 8 0 4.418-3.582 8-8 8s-8-3.582-8-8c0-4.419 3.582-8 8-8z"/><path fill="#FEEBB8" d="M52 46c1.104 0 2 .896 2 2.001s-.896 2-2 2-2-.896-2-2 .896-2.001 2-2.001z"/><path fill="#E4C16A" d="M51 57.001c-4.418 0-8-3.582-8-8 0-1.955.703-3.743 1.867-5.133-1.752 1.468-2.867 3.669-2.867 6.133 0 4.418 3.582 8 8 8 2.464 0 4.665-1.115 6.133-2.867-1.39 1.164-3.179 1.867-5.133 1.867z"/><path fill="#DCD7D1" d="M56.857 66.555c-2.295.951-4.219 4.444-6.857 4.444s-4.562-3.493-6.857-4.444c-2.378-.986-6.2.085-7.992-1.707s-.721-5.614-1.707-7.992c-.951-2.295-4.444-4.219-4.444-6.857s3.493-4.562 4.444-6.857c.893-2.151.107-5.48 1.275-7.423-.203.123-.398.26-.568.431-1.792 1.792-.721 5.614-1.707 7.992-.951 2.295-4.444 4.219-4.444 6.857s3.493 4.562 4.444 6.857c.986 2.378-.085 6.2 1.707 7.992s5.614.721 7.992 1.707c2.295.951 4.219 4.444 6.857 4.444s4.562-3.493 6.857-4.444c2.378-.986 6.2.085 7.992-1.707.171-.171.309-.364.431-.569-1.942 1.168-5.271.383-7.423 1.276z"/><path fill="#CFCBC4" d="M50 25c-7.158 0-13.607 3.013-18.166 7.834 4.478-4.233 10.518-6.834 17.166-6.834 13.807 0 25 11.193 25 25 0 6.649-2.601 12.688-6.834 17.165 4.821-4.557 7.834-11.007 7.834-18.165 0-13.807-11.193-25-25-25z"/><path fill="#C36B64" d="M19.637 69.331l-1.957 1.956 10.606 10.606 1.863-1.863c-4.209-2.788-7.794-6.439-10.512-10.699zM14 50c0-1.161.056-2.31.164-3.442l-1.485-1.485c-.438 2.242-.679 4.556-.679 6.927 0 1.203.08 2.386.196 3.559l1.982-1.982c-.116-1.178-.178-2.37-.178-3.577zM19.576 30.757c1.173-1.851 2.511-3.587 3.992-5.188-1.593 1.473-3.043 3.095-4.35 4.831l.358.357zM43.672 87.722c1.421.171 2.861.278 4.328.278 2.371 0 4.685-.24 6.928-.679l-1.485-1.485c-1.133.107-2.282.164-3.443.164-1.469 0-2.914-.099-4.337-.27l-1.991 1.992zM69.602 80.782c1.736-1.307 3.357-2.757 4.83-4.35-1.602 1.48-3.338 2.818-5.188 3.991l.358.359z"/></svg>