<svg xmlns="http://www.w3.org/2000/svg" xmlns:xlink="http://www.w3.org/1999/xlink" width="100" height="100" viewBox="0 0 100 100"><path fill="#324D5B" d="M50 0c27.613 0 50 22.386 50 50s-22.387 50-50 50c-27.615 0-50-22.386-50-50s22.385-50 50-50z"/><defs><path id="a" d="M50 0c27.613 0 50 22.386 50 50s-22.387 50-50 50c-27.615 0-50-22.386-50-50s22.385-50 50-50z"/></defs><clipPath id="b"><use xlink:href="#a" overflow="visible"/></clipPath><g clip-path="url(#b)"><path fill="#F0F0F0" d="M113 20l-42-10v70l42 10v-70z"/><path fill="#CCD0D2" d="M104 70l-25-6c-.553 0-1 .448-1 1 0 .553.447 1 1 1l25 6c.552 0 1-.447 1-1 0-.552-.448-1-1-1zm0-34s-22.254-6-24-6c-1.129 0-2 .896-2 2v10c0 1.105 1.637 2 2 2l24 6c1.104 0 2-.896 2-2v-10c0-1.104-.896-2-2-2zm0 17s-22.254-6-24-6c-1.129 0-2 .896-2 2v10c0 1.105 1.637 2 2 2l24 6c1.104 0 2-.896 2-2v-10c0-1.104-.896-2-2-2z"/><path fill="#EFC75E" d="M29 20l-42-10v70l42 10v-70z"/><path fill="#E37948" d="M20 46c-.003 0-24-6-24-6-1.104 0-2 .896-2 2v16c0 1.104.896 2 2 2 0 0 21.852 6 24 6 1.15 0 2-.896 2-2v-16c0-1.049-1.712-2-2-2zm-24-12l24 6c1.536 0 2-.896 2-2 0-.825-1.059-2-2-2l-24-6c-1.104 0-2 .896-2 2s.895 2 2 2z"/><path fill="#D8D8D8" d="M29 20l42-10v70l-42 10v-70z"/><path fill="#CFCFCF" d="M53 84l18-74v70l-18 4z"/><path fill="#A3A6A8" d="M63 54l-25 6c-.553 0-1 .448-1 1 0 .553.447 1 1 1l25-6c.552 0 1-.447 1-1s-.448-1-1-1zm0 5l-25 6c-.553 0-1 .448-1 1 0 .553.447 1 1 1l25-6c.552 0 1-.447 1-1s-.448-1-1-1zm0 5l-25 6c-.553 0-1 .448-1 1 0 .553.447 1 1 1l25-6c.552 0 1-.447 1-1 0-.552-.448-1-1-1zm0-34c-1.369 0-24 6-24 6-.928.303-2 1.064-2 2v16c0 1.104.895 2 2 2l24-6c.421 0 2-1.125 2-2v-16c0-1.104-.887-2-2-2z"/></g></svg>