<svg xmlns="http://www.w3.org/2000/svg" width="100" height="100" viewBox="0 0 100 100"><path fill="#EFC75E" d="M50 0c27.614 0 50 22.386 50 50s-22.386 50-50 50-50-22.386-50-50 22.386-50 50-50z"/><path fill="#1E2E37" d="M70 85v3c0 1.657 1.344 3 3 3h5v-6h-8zm-47 6h5c1.656 0 3-1.343 3-3v-3h-8v6z"/><path fill="#324D5B" d="M77 85v11c0 2.209 1.791 4 4 4h1c2.209 0 4-1.791 4-4v-11h-9zm-62 11c0 2.209 1.791 4 4 4h1c2.209 0 4-1.791 4-4v-11h-9v11z"/><path fill="#BF392B" d="M49.75 30h.188c20.994 0 26.062 8.981 26.062 26.062h-52.062c0-17.081 5.144-26.062 25.812-26.062z"/><path fill="#85C6DC" d="M49.807 33h.166c18.548 0 23.027 7.945 23.027 23.056h-46c0-15.111 4.545-23.056 22.807-23.056z"/><path fill="#BF392B" d="M24 58h52c7.732 0 14 6.269 14 14v3c0 2.209-1.016 4-4 4h-72c-2.959 0-4-1.791-4-4v-3c0-7.731 6.268-14 14-14z"/><path fill="#85281E" d="M50 79c12.703 0 23 2.238 23 5s-10.297 5-23 5-23-2.238-23-5 10.297-5 23-5z"/><path fill="#E4E7E7" d="M13 79h75c1.104 0 2 .896 2 2 0 2.209-1.791 4-4 4h-71c-2.209 0-4-1.791-4-4 0-1.104.896-2 2-2z"/><path fill="#AC3327" d="M61 61v18h8c0-17.007 4-18 4-18h-12zm-28 18h8v-18h-12s4 .993 4 18z"/><path fill="#E2574C" d="M77.938 54.078c-10.39-6.136-26.622-5.01-26.954-4.985-.332-.024-16.545-1.15-26.924 4.985 0 0-2.368 1.507 0 1.994 0 0 7.188 3.271 10.975 15.949 0 0 2.119 6.979 6.984 6.979h17.939c4.871 0 6.992-6.979 6.992-6.979 3.792-12.679 10.987-15.949 10.987-15.949 2.372-.487.001-1.994.001-1.994z"/><path fill="#BF392B" d="M29.719 55.438s-1.605 1.001 0 1.325c0 0 4.878 2.173 7.448 10.6 0 0 1.438 8.638 4.739 8.638h5.094v-23.939s-10.165-.745-17.281 3.376zm42.562 0c-7.116-4.121-17.281-3.376-17.281-3.376v23.938h5.094c3.302 0 4.739-8.638 4.739-8.638 2.57-8.427 7.448-10.6 7.448-10.6 1.606-.324 0-1.324 0-1.324z"/><path fill="#E87970" d="M50 49h2v30h-2v-30z"/><path fill="#E07168" d="M50 76h2v3h-2v-3z"/><path fill="#E3E6E6" d="M21 64c-3.313 0-6 2.687-6 6s2.687 6 6 6 6-2.687 6-6-2.687-6-6-6zm58 0c-3.313 0-6 2.687-6 6s2.687 6 6 6 6-2.687 6-6-2.687-6-6-6z"/><path fill="#CCD0D2" d="M79 65.5c2.481 0 4.5 2.019 4.5 4.5s-2.019 4.5-4.5 4.5-4.5-2.019-4.5-4.5 2.019-4.5 4.5-4.5m-58 0c2.481 0 4.5 2.019 4.5 4.5s-2.019 4.5-4.5 4.5-4.5-2.019-4.5-4.5 2.019-4.5 4.5-4.5m58-1.5c-3.313 0-6 2.687-6 6s2.687 6 6 6 6-2.687 6-6-2.687-6-6-6zm-58 0c-3.313 0-6 2.687-6 6s2.687 6 6 6 6-2.687 6-6-2.687-6-6-6z"/><path fill="#C4CBCE" d="M21 68c-1.104 0-2 .896-2 2s.896 2 2 2 2-.896 2-2-.896-2-2-2zm58 0c-1.104 0-2 .896-2 2s.896 2 2 2 2-.896 2-2-.896-2-2-2z"/><path fill="#F4B459" d="M78 55h-1c-1.104 0-2 .896-2 2v1c0 .553 1.119 1 2.5 1s2.5-.447 2.5-1v-1c0-1.104-.896-2-2-2zm-54 0h-1c-1.104 0-2 .896-2 2v1c0 .553 1.119 1 2.5 1s2.5-.447 2.5-1v-1c0-1.104-.896-2-2-2z"/><path fill="#92D2E8" d="M28.859 43.366c3.223-1.54 12.121-5.366 21.045-5.366 8.998 0 18.011 3.846 21.247 5.379-2.699-6.839-8.806-10.379-21.178-10.379h-.166c-12.174 0-18.247 3.535-20.948 10.366z"/><g fill="#C67740"><path d="M22 58v-1c0-1.104.896-2 2-2h-1c-1.104 0-2 .896-2 2v1c0 .553 1.119 1 2.5 1l.5-.021c-1.141-.091-2-.495-2-.979zM76 58v-1c0-1.104.896-2 2-2h-1c-1.104 0-2 .896-2 2v1c0 .553 1.119 1 2.5 1l.5-.021c-1.142-.091-2-.495-2-.979z"/></g></svg>