<svg xmlns="http://www.w3.org/2000/svg" xmlns:xlink="http://www.w3.org/1999/xlink" width="100" height="100" viewBox="0 0 100 100"><path fill="#3DB39E" d="M50 0c-27.614 0-50 22.385-50 49.999s22.386 50.001 50 50.001 50-22.387 50-50.001-22.386-49.999-50-49.999z"/><defs><path id="a" d="M50 0c-27.614 0-50 22.385-50 49.999s22.386 50.001 50 50.001 50-22.387 50-50.001-22.386-49.999-50-49.999z"/></defs><clipPath id="b"><use xlink:href="#a" overflow="visible"/></clipPath><g clip-path="url(#b)"><path fill="#EFEFEF" d="M-7 22.999h81c1.657 0 3 1.344 3 3v48c0 1.657-1.343 3-3 3h-81c-1.657 0-3-1.343-3-3v-48c0-1.656 1.343-3 3-3z"/><path fill="#CCD0D2" d="M63 34.998h-19c-1.104 0-2 .896-2 2v4c0 1.104.896 2 2 2h19c1.104 0 2-.896 2-2v-4c0-1.104-.896-2-2-2zm-30 0h-35c-1.104 0-2 .896-2 2v4c0 1.104.896 2 2 2h35c1.104 0 2-.896 2-2v-4c0-1.104-.896-2-2-2zM33 55.998h-7c-1.104 0-2 .896-2 2v4c0 1.104.896 2 2 2h7c1.104 0 2-.896 2-2v-4c0-1.104-.896-2-2-2zm-15 0h-7c-1.104 0-2 .896-2 2v4c0 1.104.896 2 2 2h7c1.104 0 2-.896 2-2v-4c0-1.104-.896-2-2-2z"/><path fill="#E2574C" d="M50.5 53.998c3.037 0 5.5 2.463 5.5 5.5s-2.463 5.5-5.5 5.5c-3.038 0-5.5-2.463-5.5-5.5s2.462-5.5 5.5-5.5z"/><path fill="#F4B459" d="M59.5 53.998c3.037 0 5.5 2.463 5.5 5.5s-2.463 5.5-5.5 5.5-5.5-2.463-5.5-5.5 2.463-5.5 5.5-5.5z"/></g></svg>