<svg xmlns="http://www.w3.org/2000/svg" width="100" height="100" viewBox="0 0 100 100"><path fill="#324D5B" d="M50 0c-27.614 0-50 22.386-50 50 0 27.613 22.386 50 50 50s50-22.387 50-50c0-27.614-22.386-50-50-50z"/><path fill="#E4E7E7" d="M30 89.998h40c1.656 0 3 1.344 3 3v4c0 1.658-1.344 3-3 3h-40c-1.657 0-3-1.342-3-3v-4c0-1.656 1.343-3 3-3z"/><path fill="#EFC75E" d="M77 32.999h-6v-1c0-2.762-2.238-5-5-5h-32c-2.761 0-5 2.238-5 5v1h-6c-1.657 0-3 1.344-3 3.001v9c0 1.961 1.213 4.213 3 5.998l6.399 4.922c1.699 8.759 8.761 15.56 17.601 16.838v9.24h-2c-1.657 0-3 1.344-3 3v1h-1c-1.657 0-3 1.344-3 3v1h24v-1c0-1.656-1.344-3-3-3h-1v-1c0-1.656-1.344-3-3-3h-2v-9.24c8.84-1.277 15.901-8.079 17.602-16.838l6.398-4.922c1.786-1.785 3-4.037 3-5.998v-9c0-1.658-1.344-3.001-3-3.001zm-54 12.001v-9h6v15.83l-4.006-3.082c-1.376-1.426-1.994-2.9-1.994-3.748zm54 0c0 .848-.617 2.322-1.994 3.748l-4.006 3.082v-15.83h6v9z"/><path fill="#FDE6A9" d="M57 41.375l-3.447 3.625s-3.5-4.001-3.569-4.001c-.059 0-3.516 4.001-3.516 4.001l-3.468-3.532c-.491-.643-1-.584-1-.032l1 8.564c0 .551.448.999 1 .999h12c.553 0 1-.447 1-.999l1-8.5c0-.901-.626-.465-1-.125zm-1 11.623h-12c-.552 0-1 .447-1 1s.448 1 1 1h12c.553 0 1-.447 1-1s-.447-1-1-1z"/><path fill="#CDCFD0" d="M70 97.998h-40c-1.657 0-3-1.342-3-3v2c0 1.658 1.343 3 3 3h40c1.656 0 3-1.342 3-3v-2c0 1.658-1.344 3-3 3z"/><g fill="#D7B354"><path d="M38.184 87.998c-.111.314-.184.647-.184 1v1h24v-1c0-.353-.072-.686-.184-1h-23.632zM42 84.998v1h16v-1c0-.353-.072-.686-.184-1h-15.632c-.112.314-.184.648-.184 1zM47.004 72.758h-.004v3c.982.142 1.979.24 3 .24s2.018-.099 3-.24v-3c-.626.09-1.261.15-1.901.191l.401-.027c-10.895-.778-19.5-9.906-19.5-21.082v-19.841c0-2.762 2.239-5 5-5h-3c-2.761 0-5 2.238-5 5v1h-2v3.001h2v15.83l-2-1.539v3.784l2.399 1.845c1.7 8.76 8.764 15.562 17.605 16.838zm1.329.155c.552.044 1.104.085 1.667.085-.563 0-1.118-.034-1.667-.085zM71 32.999h2v3.001h-2zM71 51.84c0 1.396-.143 2.76-.398 4.08l2.398-1.845v-3.784l-2 1.539v.01z"/></g></svg>