<svg xmlns="http://www.w3.org/2000/svg" width="100" height="100" viewBox="0 0 100 100"><path fill="#EFC75E" d="M50 0c-27.614 0-50 22.385-50 50 0 27.614 22.386 50 50 50s50-22.387 50-50c0-27.615-22.386-50-50-50z"/><path fill="#BF392B" d="M21.988 42l8.012-10c3.155-4 3.045-4 6.009-4h28.017c2.957 0 2.848 0 5.996 3.999l7.996 10c5.396 6.009 5.289 6.009 0 12l-21.99 22c-1.934 2-4.194 4-5.997 4-1.906 0-4.07-2-6.009-4l-22.034-21.999c-5.299-5.992-5.405-5.992 0-12z"/><path fill="#D88467" d="M34 52l16-24 16 24h-32z"/><g fill="#C76253"><path d="M82 48v-.235c-.123-1.424-1.429-2.921-3.982-5.765l-7.996-10c-3.149-4-3.04-4-5.997-4h-14.025s15.995 24.001 16 24c.177-.191 16-4 16-4zM30 32l-8.012 10c-2.546 2.831-3.854 4.327-3.987 5.745v.255s15.822 3.807 16 4c.006.002 16-24 16-24h-13.992c-2.964 0-2.854 0-6.009 4z"/></g><path fill="#DE997F" d="M50 52l15.937-23.906c-.488-.09-1.076-.094-1.912-.094h-28.016c-.853 0-1.448.003-1.943.099l15.934 23.901z"/><g fill="#CE7863"><path d="M32.116 29.389l1.884 22.611 16-24h-13.991c-2.08 0-2.649.006-3.893 1.389zM67.887 29.363c-1.226-1.358-1.799-1.363-3.862-1.363h-14.025l16 24 1.887-22.637z"/></g><path fill="#C5543B" d="M66 52h-32l13.545 27.09c.85.551 1.69.91 2.485.91.746 0 1.571-.354 2.418-.896l13.552-27.104z"/></svg>