<svg xmlns="http://www.w3.org/2000/svg" width="100" height="100" viewBox="0 0 100 100"><path fill="#EDEDED" d="M50 0c-27.614 0-50 22.385-50 50 0 27.613 22.386 50 50 50s50-22.387 50-50c0-27.615-22.386-50-50-50z"/><path fill="#3DB39E" d="M50 21.999c15.464 0 28 12.536 28 28s-12.536 28-28 28-28-12.535-28-28c0-15.464 12.536-28 28-28z"/><path fill="#324D5B" d="M50 35.999c7.732 0 14 6.268 14 14s-6.268 14-14 14-14-6.268-14-14c0-7.733 6.268-14 14-14z"/><path fill="#9ED9CF" d="M60 32.999c3.314 0 6 2.687 6 6s-2.686 6-6 6c-3.313 0-6-2.687-6-6s2.687-6 6-6z"/><path fill="#99A6AD" d="M62.785 44.311c-1.586-3.56-4.61-6.33-8.339-7.579-.286.7-.446 1.464-.446 2.267 0 3.313 2.687 6 6 6 1.006 0 1.952-.251 2.785-.688z"/><path fill="#2B424D" d="M52 61.998c-7.732 0-14-6.268-14-14 0-3.357 1.184-6.435 3.153-8.847-3.144 2.568-5.153 6.472-5.153 10.848 0 7.732 6.268 14 14 14 4.376 0 8.28-2.01 10.847-5.153-2.411 1.968-5.491 3.152-8.847 3.152z"/><path fill="#37A18E" d="M52 75.998c-15.464 0-28-12.535-28-28 0-7.223 2.736-13.806 7.228-18.773-5.667 5.125-9.228 12.533-9.228 20.774 0 15.464 12.536 28 28 28 8.241 0 15.649-3.561 20.773-9.228-4.966 4.491-11.549 7.227-18.773 7.227z"/></svg>