<svg xmlns="http://www.w3.org/2000/svg" width="100" height="100" viewBox="0 0 100 100"><path fill="#EFC75E" d="M50 0c27.614 0 50 22.386 50 50s-22.386 50-50 50-50-22.386-50-50 22.386-50 50-50z"/><path fill="#EFEFEF" d="M25 24c-1.657 0-3 1.343-3 3v64.43c1.909 1.292 3.915 2.451 6 3.475v-67.905c0-1.657-1.343-3-3-3z"/><path fill="#C04A41" d="M82 33h-33v37c0 1.657 1.343 3 3 3h30l-6-19.979 6-20.021zM82 33h-33v37c0 1.657 1.343 3 3 3h30l-6-19.979 6-20.021z"/><path fill="#D9D9D9" d="M53 49v8h24.195l-1.195-3.979 1.205-4.021z"/><path fill="#E2574C" d="M54 28h-26v40h29v-37c0-1.657-1.343-3-3-3zM54 28h-26v40h29v-37c0-1.657-1.343-3-3-3z"/><path fill="#fff" d="M28 44h29v8h-29v-8z"/><path fill="#DEDEDE" d="M22 27v64.43c.656.443 1.323.871 2 1.285v-65.715c0-1.305.837-2.404 2-2.817-.314-.111-.647-.183-1-.183-1.657 0-3 1.343-3 3z"/><path fill="#A33F37" d="M49 68v2c0 1.657 1.343 3 3 3l5-5h-8z"/></svg>