<svg xmlns="http://www.w3.org/2000/svg" width="100" height="100" viewBox="0 0 100 100"><path fill="#EFC75E" d="M50 0c-27.614 0-50 22.385-50 50 0 27.613 22.386 50 50 50 27.615 0 50-22.387 50-50 0-27.615-22.385-50-50-50z"/><path fill="#DB5449" d="M20 34.999l29.977 15 30.022-15v32l-30.108 15.001-29.891-15.001v-32z"/><path fill="#D05045" d="M20 66.999l29.891 15.001.086-.043v-31.958l-29.977-15z"/><path fill="#C54B42" d="M20 37.979v9.336l29.884 14.685 30.116-14.692v-9.33l-30.024 14.688z"/><path fill="#BB483E" d="M20 37.979v9.336l29.884 14.685.092-9.334z"/><path fill="#EB6258" d="M18 33.937l32-15.922 32 15.922-.018 2.107-31.982 15.94-31.988-15.917-.012-2.13z"/><path fill="#E2574C" d="M18 33.999l31.976 15.667 32.024-15.667v10.333l-32.116 15.668-31.884-15.667v-10.334z"/><path fill="#D65348" d="M49.977 49.666h-.001l-31.976-15.667v10.334l31.884 15.667.093-.046z"/><path fill="#EFEFEF" d="M62 43.783v32.184l8-3.987v-32.11z"/><path fill="#E8E8E8" d="M30 39.878v32.14l8 4.013v-32.233z"/><path fill="#fff" d="M59.148 33.911c6.465-1.664 9.85-5.008 9.85-8.268 0-.911-.195-1.801-.65-2.614-1.068-1.902-3.291-3.038-5.939-3.038-6.035 0-10.312 5.663-12.413 9.237-2.104-3.571-6.38-9.201-12.402-9.201-3.819 0-6.59 2.363-6.59 5.569 0 4.084 3.241 7.14 9.71 8.542l-10.714 5.74 8 3.919 12.147-6.776 11.853 6.762 8-3.914-10.852-5.958zm1.897-8.907c1.129 0 1.947.631 1.947 1.498 0 .679-.5 1.741-1.903 2.687-1.069.722-2.948 1.559-6.077 1.821 1.168-2.465 3.316-6.006 6.033-6.006zm-24.036 1.498c0-.867.818-1.498 1.946-1.498 2.717 0 4.867 3.541 6.035 6.006-3.13-.263-5.008-1.099-6.079-1.821-1.402-.946-1.902-2.007-1.902-2.687z"/></svg>