<svg xmlns="http://www.w3.org/2000/svg" xmlns:xlink="http://www.w3.org/1999/xlink" width="100" height="100" viewBox="0 0 100 100"><path fill="#EFC75E" d="M50 0c27.614 0 50 22.386 50 50 0 27.615-22.386 50-50 50s-50-22.385-50-50c0-27.614 22.386-50 50-50z"/><defs><path id="a" d="M50 0c27.614 0 50 22.386 50 50 0 27.615-22.386 50-50 50s-50-22.385-50-50c0-27.614 22.386-50 50-50z"/></defs><clipPath id="b"><use xlink:href="#a" overflow="visible"/></clipPath><g clip-path="url(#b)"><path fill="#2D4552" d="M64.825 63.602c2.995 2.174 5.889 5.752 2.985 8.592-1.412 1.383-4.519 1.019-6.393-1.25-3.795-4.596-4.372-4.91-5.824-6.256-5.522-5.112 4.677-4.391 9.232-1.086z"/><path fill="#324D5B" d="M111.588 30.006c-6.84 0-21.562 2.499-29.982 4.861-3.146.883-5.724 1.105-5.729 1.105-.526-.059-2.739-.336-5.481-1.105-8.42-2.363-23.143-4.861-29.982-4.861-18.899 0-29.397 2.991-29.397 2.991l.881 8.894c4.711 1.405 2.116 2.724 6.962 16.441 3.947 11.161 8.094 13.068 18.965 14.68 16.839 0 22.425-6.67 22.489-6.73 4.338-4.109 9.722-14.901 10.83-19.72 1.045-4.544 8.672-4.544 9.717 0 1.108 4.819 6.492 15.611 10.83 19.72.064.061 5.65 6.73 22.489 6.73 10.871-1.611 15.018-3.519 18.965-14.68 4.846-13.717 2.251-15.036 6.962-16.441l.881-8.894c-.003.001-10.501-2.991-29.4-2.991z"/><path fill="#98CDDE" d="M39.704 33.987h2.009c1.782 0 23.184.731 23.184 8.302 0 .824.193 1.966 0 3.282-3.151 21.45-15.417 23.429-24.564 23.429h-1.308c-9.346 0-18.028-3.609-18.028-21.2v-2.899c0-8.421 5.671-10.914 18.707-10.914zM112.296 33.987h-2.009c-1.782 0-23.184.731-23.184 8.302 0 .824-.193 1.966 0 3.282 3.151 21.45 15.417 23.429 24.564 23.429h1.308c9.346 0 18.028-3.609 18.028-21.2v-2.899c0-8.421-5.671-10.914-18.707-10.914z"/><path fill="#E0E3E4" d="M17.5 36c1.381 0 2.5.672 2.5 1.5 0 .829-1.119 1.5-2.5 1.5s-2.5-.671-2.5-1.5c0-.828 1.119-1.5 2.5-1.5z"/><g fill="#566C77"><path d="M71.974 44.894c.527-.641 1.233-1.102 2.026-1.386v-5.508l-4-1 1.974 7.894zM78 43.507c.793.285 1.499.745 2.026 1.386l1.974-7.892-4 1v5.506z"/></g><path fill="#ADD7E5" d="M41.333 68h-1.308c-9.346 0-18.028-3.609-18.028-21.2v-2.899c0-2.83.658-4.978 2.003-6.599-2.029 1.696-3.003 4.142-3.003 7.599v2.899c0 17.59 8.683 21.2 18.028 21.2h1.308c5.614 0 12.399-.754 17.534-6.288-4.994 4.626-11.278 5.288-16.534 5.288zM113.975 68h-1.308c-9.147 0-21.413-1.979-24.563-23.429-.193-1.316 0-2.458 0-3.282 0-.938.33-1.769.908-2.508-1.185.965-1.908 2.121-1.908 3.508 0 .824-.193 1.966 0 3.282 3.15 21.45 15.416 23.429 24.563 23.429h1.308c5.069 0 9.94-1.068 13.34-4.848-3.321 2.972-7.75 3.848-12.34 3.848z"/></g></svg>