<svg xmlns="http://www.w3.org/2000/svg" width="100" height="100" viewBox="0 0 100 100"><path fill="#91D8F0" d="M50 0c27.614 0 50 22.386 50 50 0 27.615-22.386 50-50 50s-50-22.385-50-50c0-27.614 22.386-50 50-50z"/><path fill="#3E9D8C" d="M98.998 60h-97.996c4.633 22.822 24.809 40 48.998 40s44.365-17.178 48.998-40z"/><path fill="#AAE1F3" d="M1.002 40c-.656 3.231-1.002 6.575-1.002 10s.346 6.769 1.002 10h97.996c.656-3.231 1.002-6.575 1.002-10s-.346-6.769-1.002-10h-97.996z"/><path fill="#9DDDF1" d="M1.002 40h97.996c-1.5-7.389-4.63-14.186-8.997-20h-80.001c-4.368 5.814-7.498 12.611-8.998 20z"/><path fill="#358677" d="M19.549 89.652c.526.404 1.06.798 1.602 1.181l13.837-13.837-1.392-1.391-14.047 14.047zM66.884 75.445c1.167-.584 3.06-.584 4.226 0 1.167.584 1.167 1.529 0 2.112-1.166.583-3.059.583-4.226 0s-1.167-1.528 0-2.112z"/><path fill="#E4E7E7" d="M69 71c1.656 0 3 1.343 3 3s-1.344 3-3 3-3-1.343-3-3 1.344-3 3-3z"/><path fill="#277264" d="M36 71c3.866 0 7 1.343 7 3s-3.134 3-7 3-7-1.343-7-3 3.134-3 7-3z"/><path fill="#D04338" d="M44 37l14 4.5-14 4.5v-9z"/><path fill="#912F27" d="M44 42.8l4-.8-4 4v-3.2z"/><path fill="#E2574C" d="M38 32l10 2v8l-10 2v-12z"/><path fill="#23665A" d="M36 72c3.468 0 6.339 1.081 6.895 2.5.064-.163.105-.329.105-.5 0-1.657-3.134-3-7-3s-7 1.343-7 3c0 .171.041.337.105.5.556-1.419 3.427-2.5 6.895-2.5z"/><path fill="#324D5B" d="M36 30.999c-.552 0-1 .448-1 1v44.968c.31.019.625.031.947.032h.107c.322-.001.636-.014.946-.032v-44.968c0-.552-.448-1-1-1z"/></svg>