<svg xmlns="http://www.w3.org/2000/svg" width="100" height="100" viewBox="0 0 100 100"><path fill="#E2574C" d="M50 0c-27.614 0-50 22.386-50 50s22.386 49.999 50 49.999 50-22.385 50-49.999-22.386-50-50-50z"/><path fill="#EFEFEF" d="M50 99.999c14.144 0 26.905-5.882 36-15.32v-53.68c0-2.762-2.238-5-5-5h-63c-2.762 0-5 2.238-5 5v52.631c9.146 10.057 22.335 16.369 37 16.369z"/><path fill="#394E59" d="M81 36h-63c-1.104 0-2 .896-2 2v48.647c8.922 8.281 20.866 13.352 34 13.352 12.649 0 24.193-4.707 33-12.452v-49.547c0-1.104-.896-2-2-2z"/><path fill="#3F5E6D" d="M81.021 37h-63.004c-.645 0-1.017.429-1.017.995v49.552c8.806 7.745 20.35 12.452 33 12.452 12.174 0 23.328-4.354 32-11.587v-50.415c0-.594-.381-.997-.979-.997z"/><path fill="#CACDCF" d="M50 29.999c.553 0 1 .447 1 1s-.447 1-1 1-1-.447-1-1 .447-1 1-1z"/><path fill="#4E6B78" d="M56.524 66.704c-.84-1.094-2.018-1.726-3.13-1.726-1.472 0-2.093.729-3.113.729-1.053 0-1.853-.728-3.126-.728-1.249 0-2.579.792-3.421 2.146-1.187 1.905-.985 5.489.938 8.544.688 1.092 1.605 2.32 2.807 2.332 1.067.01 1.369-.711 2.817-.72s1.722.727 2.789.716c1.2-.012 2.169-1.371 2.856-2.464.493-.782.676-1.177 1.059-2.062-2.779-1.094-3.227-5.195-.476-6.767zm-4.246-2.945c.534-.717.94-1.728.793-2.761-.873.063-1.895.643-2.49 1.397-.542.688-.988 1.705-.814 2.694.953.031 1.939-.563 2.511-1.33z"/></svg>