<svg xmlns="http://www.w3.org/2000/svg" width="100" height="100" viewBox="0 0 100 100"><g fill="#26A6D1"><path d="M84 25.5c2.986 0 5.651-1.388 7.395-3.549-3.563-5.248-8.098-9.782-13.346-13.345-2.161 1.743-3.549 4.409-3.549 7.395 0 5.238 4.262 9.499 9.5 9.499zM92.244 23.266c-2.015 2.285-4.958 3.734-8.244 3.734-6.075 0-11-4.925-11-10.999 0-3.287 1.449-6.229 3.734-8.245-7.734-4.904-16.898-7.756-26.734-7.756-27.614 0-50 22.386-50 50 0 27.613 22.386 50 50 50 27.613 0 50-22.387 50-50 0-9.835-2.852-19-7.756-26.734z"/></g><path fill="#CCD0D2" d="M87.553 82.994l-29.553-48.994s-1.656-3-4-3h-10c-2.295 0-4 3-4 3l-28.725 47.623c9.169 11.215 23.109 18.377 38.725 18.377 14.967 0 28.389-6.584 37.553-17.006z"/><path fill="#BCC0C2" d="M39.992 34l-28.651 47.707c8.95 10.9 22.421 17.934 37.546 18.266.011-9.139.101-68.973.101-68.973h-5.014c-2.333 0-3.982 3-3.982 3z"/><path fill="#88CEE6" d="M39 32.999h-7c-.828 0-1.5-.672-1.5-1.5s.672-1.5 1.5-1.5h4.5c1.381 0 2.5-1.119 2.5-2.5s-1.119-2.5-2.5-2.5h-19c-1.38 0-2.5 1.119-2.5 2.5s1.12 2.5 2.5 2.5h7.5v.003c.813.017 1.469.68 1.469 1.497 0 .818-.655 1.479-1.469 1.496v.004h-4c-1.657 0-3 1.344-3 3s1.343 3 3 3h18c1.656 0 3-1.343 3-3s-1.344-3-3-3z"/><path fill="#fff" d="M58.227 34l8.78 14.625c-1.032.858-2.359 1.375-3.804 1.375-2.078 0-3.906-1.068-4.977-2.686-1.068 1.618-2.897 2.686-4.975 2.686s-3.907-1.068-4.977-2.686c-1.069 1.618-2.897 2.686-4.975 2.686s-3.907-1.068-4.977-2.686c-1.07 1.618-2.898 2.686-4.976 2.686-.834 0-1.627-.174-2.348-.484l9.314-15.516s1.697-3 3.98-3h9.953c2.333 0 3.982 3 3.982 3z"/><path fill="#BEE4F1" d="M87 52v-.002h5.5c1.381 0 2.5-1.119 2.5-2.5s-1.119-2.5-2.5-2.5h-10.5v-.004c-.812-.016-1.469-.678-1.469-1.496s.654-1.48 1.469-1.496v-.004h1c1.104 0 2-.895 2-2 0-1.104-.896-2-2-2h-14c-1.104 0-2 .896-2 2 0 1.105.896 2 2 2h6c.828 0 1.5.672 1.5 1.5 0 .83-.672 1.5-1.5 1.5h-1.5c-1.381 0-2.5 1.119-2.5 2.5 0 1.38 1.119 2.5 2.5 2.5h4.5c.828 0 1.5.672 1.5 1.5s-.672 1.5-1.5 1.5h-11c-1.656 0-3 1.344-3 3s1.344 3 3 3h23c1.656 0 3-1.344 3-3s-1.344-3-3-3h-3v-.002c-.838-.016-2.469-.678-2.469-1.498 0-.818 1.631-1.482 2.469-1.498z"/><path fill="#EBEBEB" d="M40.312 34l-9.315 15.516c.722.311 1.515.484 2.349.484 2.078 0 3.906-1.068 4.977-2.686 1.069 1.618 2.898 2.686 4.976 2.686s3.906-1.068 4.976-2.686c.201.304.437.581.688.843.015-9.871.025-17.157.025-17.157h-4.695c-2.283 0-3.981 3-3.981 3z"/><path fill="#F2F2F3" d="M32 66.498c0-2.484-2.015-4.5-4.5-4.5h-4.323l-5.405 9h9.728c2.485 0 4.5-2.014 4.5-4.5z"/><path fill="#D4EDF6" d="M27.5 61.998h-11.5c-1.104 0-2-.895-2-2 0-1.103.896-1.998 2-1.998h3c2.761 0 5-2.24 5-5.002 0-2.761-2.239-5-5-5h-18.949c-.027.666-.051 1.331-.051 2.002 0 2.723.226 5.395.645 8h5.355c1.104 0 2 .895 2 1.998 0 1.105-.896 2-2 2h-4.541c.771 3.127 1.836 6.137 3.165 9h22.876c2.485 0 4.5-2.014 4.5-4.5 0-2.484-2.015-4.5-4.5-4.5z"/><path fill="#EFC75E" d="M84 6.5c-5.238 0-9.5 4.262-9.5 9.501 0 5.238 4.262 9.499 9.5 9.499s9.5-4.261 9.5-9.499c0-5.239-4.262-9.501-9.5-9.501z"/><path fill="#51B8DA" d="M73 16.001c0-.685.071-1.352.19-2.002h-5.69c-1.104 0-2 .896-2 2s.896 2 2 2h2v.004c.812.017 1.469.679 1.469 1.496 0 .818-.654 1.48-1.469 1.497v.003h-8c-1.104 0-2 .896-2 2 0 1.105.896 2 2 2h15c.322 0 .623-.083.893-.219-2.664-2.008-4.393-5.188-4.393-8.779z"/></svg>