<svg xmlns="http://www.w3.org/2000/svg" width="100" height="100" viewBox="0 0 100 100"><path fill="#4BBFAA" d="M50 0c27.614 0 50 22.386 50 50s-22.386 50-50 50-50-22.386-50-50 22.386-50 50-50z"/><path fill="#2B414D" d="M76 26.999h-48c-3.866 0-7 3.136-7 7v56.719c8.181 5.837 18.185 9.282 29 9.282 12.649 0 24.193-4.707 33-12.453v-53.548c0-3.864-3.134-7-7-7z"/><path fill="#CCD0D2" d="M74 26.999h-48c-3.866 0-7 3.136-7 7v55.216c8.522 6.746 19.286 10.785 31 10.785s22.478-4.039 31-10.785v-55.216c0-3.864-3.134-7-7-7z"/><path fill="#324D5B" d="M70 24.999h-46c-3.866 0-7 3.135-7 7v55.547c8.807 7.746 20.351 12.453 33 12.453 9.949 0 19.211-2.918 27-7.927v-60.073c0-3.865-3.134-7-7-7z"/><path fill="#2B414D" d="M57 99.506v-74.506h-1v74.635l1-.129z"/><path fill="#E19178" d="M39 43h26v15h-26v-15z"/><path fill="#CA826C" d="M43 47.001v1.999h16v-1.999h-16zm0 6.999h16v-1.999h-16v1.999z"/><path fill="#E4E7E7" d="M64 24h-6c-.553 0-1 .447-1 1v74.502c2.743-.385 5.418-.983 8-1.794v-72.708c0-.553-.447-1-1-1zM64 24h-6c-.553 0-1 .447-1 1v74.502c2.743-.385 5.418-.983 8-1.794v-72.708c0-.553-.447-1-1-1z"/><path fill="#CA826C" d="M56 43h1v15h-1z"/><g fill="#B57561"><path d="M56 47.001h1v1.999h-1zM56 52.001h1v1.999h-1z"/></g><path fill="#2B414D" d="M27 25h-3.02c-3.856.011-6.98 3.14-6.98 6.999v55.547c3.029 2.665 6.389 4.959 10 6.837v-69.383z"/><path fill="#41545F" d="M25 93.294c.658.381 1.324.747 2 1.098v-69.392h-2v68.294z"/><g fill="#CCD0D2"><path d="M62 98.54c.335-.082.668-.168 1-.258v-74.282h-1v74.54zM59 99.177l1-.179v-74.998h-1v75.177z"/></g></svg>