<svg xmlns="http://www.w3.org/2000/svg" width="100" height="100" viewBox="0 0 100 100"><path fill="#E2574C" d="M50 0c27.614 0 50 22.386 50 50 0 27.615-22.386 50-50 50s-50-22.385-50-50c0-27.614 22.386-50 50-50z"/><path fill="#fff" d="M73 19h-62.215c-6.746 8.522-10.785 19.286-10.785 31s4.039 22.478 10.785 31h62.215c1.657 0 3-1.343 3-3v-56c0-1.656-1.343-3-3-3z"/><path fill="#EEF3F3" d="M70 23h-62.073c-5.01 7.789-7.927 17.051-7.927 27s2.917 19.211 7.926 27h62.074c1.104 0 2-.895 2-2v-50c0-1.104-.896-2-2-2z"/><path fill="#E0E5E5" d="M16 39h-14.771c-.725 3.227-1.136 6.57-1.204 10h15.975c1.104 0 2-.895 2-2v-6c0-1.104-.896-2-2-2z"/><path fill="#C9CECE" d="M10 39v3h2v-3h-2zm-6 3h2v-3h-2v3z"/><path fill="#E1958F" d="M7 44h2v5h-2v-5z"/><path fill="#fff" d="M13 55c2.762 0 5 2.238 5 5s-2.238 5-5 5c-2.761 0-5-2.238-5-5s2.239-5 5-5z"/><path fill="#F2F2F2" d="M13 58c1.104 0 2 .896 2 2s-.896 2-2 2-2-.896-2-2 .896-2 2-2z"/><path fill="#DFDFDF" d="M55 81l1 5c0 .553.896 1 2 1s2-.447 2-1l1-5h-6zM55 81l1 5c0 .553.896 1 2 1s2-.447 2-1l1-5h-6z"/><g fill="#B8B8B8"><path d="M32.052 61c.612.721 1.282 1.391 2.005 2h21.887c.724-.609 1.393-1.279 2.005-2h-25.897zM29.521 57c.314.693.675 1.359 1.076 2h28.807c.401-.641.762-1.307 1.076-2h-30.959zM32.052 39h25.896c-.612-.721-1.281-1.391-2.005-2h-21.886c-.724.609-1.393 1.279-2.005 2zM52.996 35c-2.385-1.273-5.104-2-7.996-2s-5.612.727-7.996 2h15.992zM28 50c0 .338.031.667.05 1h33.899c.02-.333.051-.662.051-1l-.051-1h-33.899c-.019.333-.05.662-.05 1zM37.004 65c2.384 1.273 5.104 2 7.996 2s5.611-.727 7.995-2h-15.991zM30.597 41c-.401.641-.762 1.307-1.076 2h30.959c-.314-.693-.675-1.359-1.076-2h-28.807zM28.28 53c.122.68.27 1.351.47 2h32.5c.199-.649.349-1.32.47-2h-33.44zM28.75 45c-.2.649-.348 1.32-.47 2h33.44c-.121-.68-.271-1.351-.47-2h-32.5z"/></g><path fill="#CFD3D3" d="M16 39h-14.771c-.149.662-.283 1.328-.405 2h13.176c1.104 0 2 .896 2 2v6c1.104 0 2-.895 2-2v-6c0-1.104-.896-2-2-2z"/><g fill="#CDCDCD"><path d="M43 53h4v2h-4zM43 61h4v2h-4zM43 57h4v2h-4zM47 35v-1.872c-.657-.077-1.322-.128-2-.128s-1.343.051-2 .128v1.872h4zM43 45h4v2h-4zM43 37h4v2h-4zM43 65v1.872c.657.077 1.322.128 2 .128s1.343-.051 2-.128v-1.872h-4zM43 41h4v2h-4zM43 49h4v2h-4z"/></g><g fill="#BABDBD"><path d="M10 39h2v2h-2zM4 39h2v2h-2z"/></g><path fill="#DCE1E1" d="M13 65c-2.761 0-5-2.238-5-5 0-1.125.385-2.152 1.012-2.987-1.215.912-2.012 2.35-2.012 3.987 0 2.762 2.239 5 5 5 1.637 0 3.076-.797 3.988-2.013-.836.628-1.863 1.013-2.988 1.013z"/><path fill="#C8C8C8" d="M60.6 83l.4-2h-6l.4 2z"/><path fill="#E0E5E5" d="M70 23h-62.073c-.422.656-.829 1.323-1.221 2h61.294c1.104 0 2 .896 2 2v50c1.104 0 2-.895 2-2v-50c0-1.104-.896-2-2-2z"/></svg>