<svg xmlns="http://www.w3.org/2000/svg" width="100" height="100" viewBox="0 0 100 100"><g fill="#3AAA96"><path d="M49.984 23.991l.005.002v-.002zM50 23.991h-.011l.005.002zM50 23.998l-.011-.004v.002c-.439.168-21.036 8.08-20.997 8.063-.017.015 0 10.133 0 15.443 0 10.695 2.125 25.277 20.992 30.499h.016v-54.003z"/></g><path fill="#91D8F0" d="M50 0c-27.614 0-50 22.386-50 50s22.386 50 50 50 50-22.386 50-50-22.386-50-50-50z"/><path fill="#F9F9F9" d="M76 28.989c.045.019-25.342-9.755-25.978-10.001v.002c-.52.2-26.048 10.018-26.002 9.999-.02.017 0 12.078 0 18.406 0 12.748 3.647 29.422 25.996 35.609h.024c22.317-6.188 25.959-23.127 25.959-35.609.001-6.328.022-18.389.001-18.406z"/><path fill="#3DB39E" d="M49.984 23.991l.005.002v-.002h-.005zm20.981 8.439c.039.018-20.434-8.229-20.976-8.437v.002c-.439.168-21.036 8.08-20.997 8.063-.017.015 0 10.133 0 15.443 0 10.695 2.125 25.277 20.992 30.499h.021c18.841-5.222 20.991-20.026 20.991-30.499 0-5.31-.012-15.057-.031-15.071zm-20.965-8.439h-.011l.005.002.006-.002z"/><path fill="#ECECEC" d="M24.02 28.989c-.02.017 0 12.078 0 18.406 0 12.744 3.646 29.411 25.977 35.604h.003v-64c-.798.307-26.025 10.009-25.98 9.99z"/><g fill="#3AAA96"><path d="M49.984 23.991l.005.002v-.002zM50 23.998l-.011-.004v.002c-.439.168-21.036 8.08-20.997 8.063-.017.015 0 10.133 0 15.443 0 10.695 2.125 25.277 20.992 30.499h.016v-54.003zM50 23.991h-.011l.005.002z"/></g><path fill="#F9F9F9" d="M59.926 46.083c-.173-.49-.617-.849-1.152-.927l-5.203-.759-2.264-4.604c-.237-.484-.746-.793-1.307-.793-.56 0-1.069.309-1.308.793l-2.262 4.604-5.205.759c-.535.078-.979.437-1.151.927-.172.49-.042 1.031.336 1.4l3.813 3.733-.884 5.181c-.09.521.141 1.045.593 1.35.249.168.541.253.832.253.24 0 .48-.058.699-.172l4.537-2.395 4.537 2.396c.219.113.459.171.698.171.292 0 .583-.085.833-.253.451-.305.682-.829.592-1.35l-.885-5.181 3.814-3.733c.378-.369.509-.91.337-1.4z"/><g fill="#37A18E"><path d="M56.474 57.305c-.103.169-.231.325-.405.442-.251.168-.542.253-.834.253-.239 0-.479-.058-.698-.172l-4.537-2.395-4.537 2.396c-.218.113-.459.171-.699.171-.292 0-.583-.085-.832-.253-.174-.117-.303-.273-.406-.443l-.187 1.094c-.09.521.141 1.045.593 1.35.249.167.541.252.832.252.24 0 .48-.058.699-.172l4.537-2.395 4.537 2.396c.219.113.459.171.698.171.292 0 .583-.085.833-.253.451-.305.682-.829.592-1.35l-.186-1.092zM44.224 51.217l-3.769-3.689c-.168.153-.304.338-.381.556-.172.49-.042 1.031.336 1.4l3.521 3.447.293-1.714zM59.545 47.527l-3.77 3.689.293 1.714 3.521-3.447c.377-.369.508-.91.336-1.4-.075-.217-.212-.403-.38-.556z"/></g><g fill="#3AAA96"><path d="M49.984 23.991l.005.002v-.002zM50 23.991h-.011l.005.002z"/></g><path fill="#349987" d="M45.463 57.828c-.218.114-.459.172-.699.172-.292 0-.583-.085-.832-.253-.174-.117-.303-.273-.406-.443l-.187 1.094c-.09.521.141 1.045.593 1.35.249.167.541.252.832.252.24 0 .48-.058.699-.172l4.537-2.395v-2l-4.537 2.395zM44.224 51.217l-3.769-3.689c-.168.153-.304.338-.381.556-.172.49-.042 1.031.336 1.4l3.521 3.447.293-1.714z"/><path fill="#37A18E" d="M59.545 47.527l-3.77 3.689.293 1.714 3.521-3.447c.377-.369.508-.91.336-1.4-.075-.217-.212-.403-.38-.556z"/><path fill="#82C2D8" d="M50.04 83.005h-.024c-22.349-6.188-25.996-22.861-25.996-35.609 0-5.48-.015-15.255-.006-17.788l-.994.382c-.02.017 0 12.078 0 18.406 0 12.748 3.647 29.422 25.996 35.609h.024c7.713-2.139 13.193-5.562 17.065-9.641-3.799 3.637-8.992 6.68-16.065 8.641z"/></svg>