<svg xmlns="http://www.w3.org/2000/svg" xmlns:xlink="http://www.w3.org/1999/xlink" width="100" height="100" viewBox="0 0 100 100"><path fill="#91D8F0" d="M50 0c-27.614 0-50 22.386-50 50s22.386 49.999 50 49.999 50-22.385 50-49.999-22.386-50-50-50z"/><defs><path id="a" d="M50 0c-27.614 0-50 22.386-50 50s22.386 49.999 50 49.999 50-22.385 50-49.999-22.386-50-50-50z"/></defs><clipPath id="b"><use xlink:href="#a" overflow="visible"/></clipPath><g clip-path="url(#b)"><path fill="#D7EFEF" d="M102 74v28h-64v-28h64"/><path fill="#E19178" d="M26 36h78v72h-78v-72z"/><path fill="#CCE3E3" d="M36 71h66c.553 0 1 .447 1 1v30c0 .553-.447 1-1 1h-66c-.553 0-1-.447-1-1v-30c0-.553.447-1 1-1z"/><path fill="#fff" d="M101 73v28h-64v-28h64m1-2h-66c-.553 0-1 .447-1 1v30c0 .553.447 1 1 1h66c.553 0 1-.447 1-1v-30c0-.553-.447-1-1-1z"/><path fill="#D7EFEF" d="M102 74v28h-64v-28h64"/><path fill="#CCE3E3" d="M58 92v-4h-2v-5h-5v-2h2v-3h-6v3h2v2h-3v5h-2v4h-7v7.999h46v-7.999zM58 92v-4h-2v-5h-5v-2h2v-3h-6v3h2v2h-3v5h-2v4h-7v7.999h46v-7.999z"/><path fill="#E7F5F5" d="M60 75h36v27h-24l-12-27z"/><path fill="#CA826C" d="M96 51c-1.991 0-3.695 1.172-4.5 2.856-.805-1.684-2.509-2.856-4.5-2.856-1.644 0-3.089.804-4 2.027-.911-1.223-2.356-2.027-4-2.027s-3.089.804-4 2.027c-.911-1.223-2.356-2.027-4-2.027s-3.089.804-4 2.027c-.911-1.223-2.356-2.027-4-2.027s-3.089.804-4 2.027c-.911-1.223-2.356-2.027-4-2.027s-3.089.804-4 2.027c-.911-1.223-2.356-2.027-4-2.027s-3.089.804-4 2.027c-.911-1.223-2.356-2.027-4-2.027s-3.089.804-4 2.027c-.911-1.223-2.356-2.027-4-2.027-2.762 0-5 2.238-5 5v6c0 2.762 2.238 4.999 5 4.999 1.644 0 3.089-.803 4-2.026.911 1.224 2.356 2.026 4 2.026s3.089-.803 4-2.026c.911 1.224 2.356 2.026 4 2.026s3.089-.803 4-2.026c.911 1.224 2.356 2.026 4 2.026s3.089-.803 4-2.026c.911 1.224 2.356 2.026 4 2.026s3.089-.803 4-2.026c.911 1.224 2.356 2.026 4 2.026s3.089-.803 4-2.026c.911 1.224 2.356 2.026 4 2.026s3.089-.803 4-2.026c.911 1.224 2.356 2.026 4 2.026 1.991 0 3.695-1.172 4.5-2.855.805 1.684 2.509 2.855 4.5 2.855 2.762 0 5-2.237 5-4.999v-6c0-2.762-2.238-5-5-5zm-70-14v2h78v-2h-78z"/><path fill="#fff" d="M20 59c0 2.209 1.791 4 4 4s4-1.791 4-4v-8h-8v8zm16 0c0 2.209 1.791 4 4 4s4-1.791 4-4v-8h-8v8zm16 0c0 2.209 1.791 4 4 4s4-1.791 4-4v-8h-8v8zm16 0c0 2.209 1.791 4 4 4s4-1.791 4-4v-8h-8v8zm16 0c0 2.209 1.791 4 4 4s4-1.791 4-4v-8h-8v8zm16-8v8c0 2.209 1.791 4 4 4s4-1.791 4-4v-8h-8z"/><path fill="#E9E9E9" d="M26 45h78l-2 6h-82l6-6z"/><path fill="#D6483D" d="M28 51h8l6-6h-8l-6 6zm16 0h8l6-6h-8l-6 6zm16 0h8l6-6h-8l-6 6zm16 0h8l6-6h-8l-6 6zm22-6l-6 6h8l6-6h-8z"/><path fill="#E2574C" d="M28 59c0 2.209 1.791 4 4 4s4-1.791 4-4v-8h-8v8zm16 0c0 2.209 1.791 4 4 4s4-1.791 4-4v-8h-8v8zm16 0c0 2.209 1.791 4 4 4s4-1.791 4-4v-8h-8v8zm16 0c0 2.209 1.791 4 4 4s4-1.791 4-4v-8h-8v8zm16-8v8c0 2.209 1.791 4 4 4s4-1.791 4-4v-8h-8z"/><path fill="#F3F3F3" d="M106.5 32h-4.5v-3c.553 0 1-.447 1-1 0-.552-.447-.999-1-.999 0-.552-.447-1-1-1s-1 .448-1 1h-70c0-.553-.447-1-1-1s-1 .448-1 1v5h-2.5c-1.381 0-2.5 1.12-2.5 2.5s1.119 2.5 2.5 2.5h81c1.381 0 2.5-1.119 2.5-2.5s-1.119-2.501-2.5-2.501zm-6.5-3v3h-7v-3h7zm-9 0v3h-7v-3h7zm-9 0v3h-7v-3h7zm-9 0v3h-7v-3h7zm-9 0v3h-7v-3h7zm-9 0v3h-7v-3h7zm-9 0v3h-7v-3h7zm-16 0h7v3h-7v-3z"/><path fill="#E0EEEE" d="M71.11 99.999h11.89v-7.999h-15.444z"/><path fill="#C2D7D7" d="M37 92h1v9h-1z"/></g></svg>