<svg xmlns="http://www.w3.org/2000/svg" width="100" height="100" viewBox="0 0 100 100"><circle fill="#3DB39E" cx="50" cy="50" r="50"/><path fill="#37A18E" d="M97.545 34.522c-1.416-4.353-3.408-8.443-5.893-12.18l-43.767 45.586.088 5.073 2.066-.013 47.506-38.466z"/><path fill="#F8F8F8" d="M100.076 19.682l-8.916-8.809c-1.217-1.203-3.191-1.203-4.408 0l-38.113 39.258-16.436-16.24c-1.219-1.203-3.191-1.203-4.409 0l-7.903 7.809c-1.217 1.202-1.217 3.152 0 4.354l26.379 26.061c.703.695 1.656.975 2.572.867.916.107 1.869-.172 2.572-.867l48.662-48.078c1.217-1.203 1.217-3.152 0-4.355z"/><path fill="#EBEBEB" d="M51.414 72.115l48.662-48.078c1.217-1.203 1.217-3.152 0-4.355l-1.455-1.438-50.057 49.235-27.568-26.872-1.104 1.092c-1.217 1.202-1.217 3.152 0 4.354l26.378 26.062c.703.695 1.656.975 2.572.867.916.108 1.869-.171 2.572-.867z"/></svg>