<svg xmlns="http://www.w3.org/2000/svg" width="100" height="100" viewBox="0 0 100 100"><circle fill="#EFEFEF" cx="50" cy="50" r="50"/><path fill="#EFC75E" d="M24.032 92.735c7.569 4.609 16.458 7.265 25.968 7.265s18.399-2.656 25.968-7.265l4.032-42.736h-60l4.032 42.736z"/><path fill="#D7B354" d="M20 49.999l.825 8.748c4.302 5.976 15.737 10.251 29.175 10.251s24.874-4.275 29.175-10.252l.825-8.747h-60z"/><path fill="#EFC75E" d="M78.988 45.972c2.519 2.519 2.012 5.433 2.012 5.526 0 8.561-13.879 15.5-31 15.5s-31-6.939-31-15.5c0-.059-.452-3.099 1.957-5.508 1.792-2.013 56.275-2.023 58.031-.018z"/><path fill="#BF9F4B" d="M50 33.999c16.568 0 30 6.492 30 14.5s-13.432 14.5-30 14.5-30-6.491-30-14.5c0-8.008 13.432-14.5 30-14.5z"/><path fill="#CCD0D2" d="M50 62.998c7.69 0 14.701-1.4 20.011-3.699l-9.011-10.298-12.235 13.982c.41.008.821.015 1.235.015z"/><path fill="#DCDEDF" d="M35.002 60.998l.078.077c4.396 1.221 9.487 1.923 14.92 1.923 4.371 0 8.521-.456 12.266-1.268l.976-.222-14.242-16.507-13.998 15.997z"/><path fill="#E4E7E7" d="M50 62.998c.414 0 .824-.007 1.234-.015l-12.234-13.982-9.011 10.297c5.309 2.3 12.321 3.7 20.011 3.7z"/><path fill="#AC8F43" d="M50 37.999c15.164 0 27.692 5.439 29.709 12.5.187-.654.291-1.321.291-2 0-8.008-13.432-14.5-30-14.5s-30 6.492-30 14.5c0 .679.104 1.346.291 2 2.017-7.061 14.545-12.5 29.709-12.5z"/><g fill="#D7B354"><path d="M33 74.998c0-1.104-.896-1.999-2-1.999s-2 .896-2 1.999l1.504 21.058c1.339.567 2.713 1.069 4.109 1.521l-1.613-22.579zM42 76.998c0-1.104-.896-2-2-2s-2 .896-2 2l.836 21.735c1.325.302 2.667.557 4.029.751l-.865-22.486zM69 72.999c-1.104 0-2 .896-2 1.999l-1.612 22.578c1.396-.451 2.769-.953 4.108-1.521l1.504-21.057c0-1.103-.896-1.999-2-1.999zM52 99.949v-21.951c0-1.104-.896-2-2-2s-2 .896-2 2v21.951c.665.026 1.329.051 2 .051s1.336-.024 2-.051zM60 74.998c-1.104 0-2 .896-2 2l-.865 22.486c1.362-.194 2.705-.449 4.029-.751l.836-21.735c0-1.103-.896-2-2-2z"/></g><path fill="#B7BBBD" d="M67.119 55.999c-4.264 1.624-9.334 2.706-14.82 2.945l-3.522 4.026c.409.008.811.027 1.224.027 7.687 0 14.694-1.4 20-3.702l-2.882-3.296z"/><path fill="#C6C7C8" d="M53.965 62.856c.706-.045 1.408-.095 2.097-.164l.99-.114c.643-.075 1.28-.156 1.905-.251l1-.164c.593-.101 1.178-.21 1.753-.328.514-.106 1.03-.21 1.529-.329l-3.047-3.531c-3.184.647-6.609 1.021-10.192 1.021-4.272 0-8.323-.526-12-1.425l-2.999 3.427.057.057c.427.119.853.239 1.293.349l.356.092c.693.166 1.406.316 2.128.457l.709.13c.557.101 1.123.193 1.695.277l.666.099c.762.104 1.535.193 2.32.268l.562.046c.648.055 1.303.1 1.964.135l.708.034c.838.034 1.683.058 2.539.058 1.036 0 2.057-.029 3.065-.079l.902-.065z"/><path fill="#CDCFCF" d="M47.7 58.944c-5.485-.239-10.556-1.321-14.819-2.945l-2.882 3.297c5.307 2.302 12.314 3.702 20.001 3.702.413 0 .814-.02 1.223-.027l-3.523-4.027z"/></svg>