<svg xmlns="http://www.w3.org/2000/svg" width="100" height="100" viewBox="0 0 100 100"><circle fill="#EDEDED" cx="50" cy="50" r="50"/><path fill="#D0D0D0" d="M50 78.999c17.121 0 31 .896 31 2s-13.879 2-31 2-31-.896-31-2 13.879-2 31-2z"/><path fill="#415661" d="M29 18.999h42c5.522 0 10 4.478 10 10v42c0 5.523-4.478 10-10 10h-42c-5.522 0-10-4.477-10-10v-42c0-5.522 4.478-10 10-10z"/><path fill="#2B414D" d="M29 22.999h42c3.313 0 6 2.687 6 6v29c0 3.313-2.687 6-6 6h-42c-3.313 0-6-2.687-6-6v-29c0-3.313 2.687-6 6-6z"/><path fill="#E2574C" d="M30 25.999h40c2.209 0 4 1.791 4 4v27c0 2.209-1.791 4-4 4h-40c-2.209 0-4-1.791-4-4v-27c0-2.209 1.791-4 4-4z"/><path fill="#E87970" d="M70 28.999h-40c-.553 0-1 .448-1 1v10c0 2.209 9.402 4 21 4s21-1.791 21-4v-10c0-.552-.447-1-1-1z"/><path fill="#fff" d="M58.23 41.896l-12.295-7.632c-.969-.609-1.922-.118-1.922 1.094v15.299c0 1.21.953 1.703 1.922 1.093l12.275-7.521c1.231-.725.782-1.891.02-2.333z"/><path fill="#2B414D" d="M42 67.999c-.553 0-1 .448-1 1v5c0 .553.447 1 1 1s1-.447 1-1v-5c0-.552-.447-1-1-1zm4 0c-.553 0-1 .448-1 1v5c0 .553.447 1 1 1s1-.447 1-1v-5c0-.552-.447-1-1-1zm4 0c-.553 0-1 .448-1 1v5c0 .553.447 1 1 1s1-.447 1-1v-5c0-.552-.447-1-1-1zm4 0c-.553 0-1 .448-1 1v5c0 .553.447 1 1 1s1-.447 1-1v-5c0-.552-.447-1-1-1zm4 0c-.553 0-1 .448-1 1v5c0 .553.447 1 1 1s1-.447 1-1v-5c0-.552-.447-1-1-1z"/><path fill="#fff" d="M66.5 67.999c-1.933 0-3.5 1.567-3.5 3.5s1.567 3.5 3.5 3.5 3.5-1.567 3.5-3.5-1.567-3.5-3.5-3.5zm-33 0c-1.933 0-3.5 1.567-3.5 3.5s1.567 3.5 3.5 3.5 3.5-1.567 3.5-3.5-1.567-3.5-3.5-3.5z"/><path fill="#2B414D" d="M33.5 69.999c-.828 0-1.5.672-1.5 1.5s.672 1.5 1.5 1.5 1.5-.672 1.5-1.5-.672-1.5-1.5-1.5zm33 0c-.828 0-1.5.672-1.5 1.5s.672 1.5 1.5 1.5 1.5-.672 1.5-1.5-.672-1.5-1.5-1.5z"/><path fill="#CB4E44" d="M58.211 44.228l-12.275 7.521c-.969.61-1.922.117-1.922-1.093v1c0 1.21.953 1.703 1.922 1.093l12.275-7.521c.798-.469.884-1.122.643-1.645-.117.231-.318.454-.643.645z"/><g fill="#3A4D57"><path d="M33.5 74.999c-1.933 0-3.5-1.567-3.5-3.5 0-.71.215-1.369.579-1.921-.95.626-1.579 1.698-1.579 2.921 0 1.933 1.567 3.5 3.5 3.5 1.222 0 2.295-.629 2.921-1.579-.552.364-1.211.579-1.921.579zM66.5 74.999c-1.933 0-3.5-1.567-3.5-3.5 0-.71.215-1.369.578-1.921-.949.626-1.578 1.698-1.578 2.921 0 1.933 1.567 3.5 3.5 3.5 1.223 0 2.295-.629 2.922-1.579-.553.364-1.212.579-1.922.579z"/></g><path fill="#3A4D57" d="M71 78.999h-42c-5.522 0-10-4.477-10-10v2c0 5.523 4.478 10 10 10h42c5.522 0 10-4.477 10-10v-2c0 5.523-4.478 10-10 10z"/></svg>