<svg xmlns="http://www.w3.org/2000/svg" width="100" height="100" viewBox="0 0 100 100"><path fill="#2EA9D3" d="M49.999-.001c27.615 0 50.002 22.387 50.002 50 0 27.614-22.387 50.001-50.002 50.001-27.613 0-50-22.387-50-50.001 0-27.613 22.387-50 50-50z"/><path fill="#EFC75E" d="M94.968 28.123c-5.434-11.147-14.893-19.963-26.481-24.579-.312 1.438-.486 2.925-.486 4.455 0 11.58 9.42 21 21 21 2.074 0 4.072-.313 5.967-.876z"/><path fill="#fff" d="M26.736 49.343h-5.289c2.456-2.954 6.937-6.765 6.937-10.603 0-3.507-2.861-5.743-6.416-5.743-3.556 0-6.793 2.789-6.793 6.268 0 1.077.723 2.016 2.11 2.016 2.774 0 1.185-4.473 4.509-4.473 1.186 0 2.081.994 2.081 2.126 0 .994-.491 1.85-1.012 2.568-2.196 3.037-4.798 5.521-7.196 8.255-.289.332-.665.829-.665 1.408 0 1.271.982 1.822 2.255 1.822h9.652c1.1 0 2.082-.552 2.082-1.822 0-1.269-.982-1.822-2.255-1.822zm15.218-7.237c1.388-.843 2.18-2.366 2.18-3.889 0-3.209-2.859-5.221-6.145-5.221-3.369 0-6.115 2.039-6.115 5.221 0 1.713.82 2.964 2.152 3.889-1.785.925-3.03 2.528-3.03 4.705 0 3.644 3.087 6.199 6.993 6.199 3.795 0 6.994-2.42 6.994-6.199 0-2.094-1.103-3.78-3.029-4.705zm-3.965-5.52c1.332 0 2.068.898 2.068 2.067 0 1.224-.766 2.066-2.068 2.066s-2.038-.843-2.038-2.066c0-1.169.708-2.067 2.038-2.067zm0 12.672c-1.727 0-2.576-1.332-2.576-2.719 0-1.522.935-2.719 2.576-2.719 1.559 0 2.578 1.006 2.578 2.719 0 1.387-.963 2.719-2.578 2.719zm13.512-16.261c-2.483 0-4.492 2.016-4.492 4.508s2.009 4.508 4.492 4.508c2.484 0 4.492-2.016 4.492-4.508s-2.008-4.508-4.492-4.508zm0 5.993c-.814 0-1.502-.686-1.502-1.497 0-.812.688-1.498 1.502-1.498s1.502.686 1.502 1.498c0 .812-.688 1.497-1.502 1.497zM51.95 99.95c-.434-7.542-5.701-13.775-12.729-15.549-.501-.126-1.009-.229-1.527-.312-.498-.075-1.003-.13-1.517-.16-.347-.021-.698-.032-1.052-.032h-.061s-4.591.048-7.869 2.854c0 0 1.789-3.703 6.127-5.168-.201-.238-.414-.469-.629-.699-.865-.923-1.809-1.772-2.82-2.534-.862-.648-1.773-1.233-2.726-1.751-1.369-.742-2.823-1.338-4.349-1.771-.378-.107-.758-.204-1.145-.291-.377-.086-.758-.161-1.141-.226-1.174-.197-2.379-.301-3.607-.301-1.432 0-2.828.139-4.181.406-.819.161-1.622.368-2.403.619-1.002.321-1.972.715-2.904 1.173 8.807 14.274 24.58 23.792 42.582 23.792.654 0 1.303-.024 1.951-.05z"/><path fill="#47BFE8" d="M48.999 93.139c0 2.587.908 4.96 2.416 6.825 26.605-.741 48.006-22.256 48.559-48.909-.363-.021-.725-.056-1.094-.056-6.383 0-12.049 3.068-15.609 7.812-.283.377 3.836 4.508 3.523 8.846-2.918-5.16-8.449-8.65-14.801-8.65-9.393 0-17.006 7.612-17.006 17.002 0 2.431.518 4.738 1.438 6.829-4.313 1.434-7.426 5.5-7.426 10.301z"/><path fill="#FBD77A" d="M95.815 29.972c-.547-1.25-1.137-2.477-1.781-3.671-1.605.442-3.289.698-5.033.698-10.477 0-19-8.523-19-19 0-1.254.129-2.477.361-3.664-1.232-.55-2.488-1.054-3.771-1.505-.381 1.662-.59 3.391-.59 5.169 0 12.703 10.297 23 23 23 2.373 0 4.66-.36 6.814-1.027z"/></svg>