<svg xmlns="http://www.w3.org/2000/svg" width="100" height="100" viewBox="0 0 100 100"><path fill="#324D5B" d="M50 0c27.614 0 50 22.386 50 50s-22.386 50-50 50-50-22.386-50-50 22.386-50 50-50z"/><path fill="#D6D9D9" d="M68.839 96.316l-54.839-29.316v3s-.225 1.871 2.014 3.062c7.726 4.073 35.627 18.785 47.536 25.064 1.806-.507 3.571-1.11 5.289-1.81z"/><g fill="#37A18E"><path d="M79.682 77.503c-3.958 1.961-10.374 1.961-14.332 0l-48.368-23.971c-1.468-.728-2.388-1.623-2.768-2.562h-.214v15.528l2 3.03 48 24.694 4.191 2.349c12.581-4.919 22.677-14.783 27.901-27.203l-16.41 8.135zM99.975 50.988l.001-.012zM97.455 65.739l-.089.261.089-.261zM99.253 58.567l-.017.094.017-.094z"/></g><path fill="#E4E7E7" d="M22.5 16c-1.381 0-2.5 1.119-2.5 2.5 0 .172.018.339.05.5h-.05v32l5-3v-29h-.05c.033-.161.05-.328.05-.5 0-1.381-1.119-2.5-2.5-2.5zm12.5-2.5c0-1.381-1.119-2.5-2.5-2.5s-2.5 1.119-2.5 2.5c0 .172.018.339.051.5h-.051v32l5-3v-29h-.051c.033-.161.051-.328.051-.5z"/><path fill="#C2C5C5" d="M20 18v33l2-3v-28.041c-1.141-.185-2-.991-2-1.959zm10-5v33l2-3v-28.041c-1.141-.185-2-.991-2-1.959z"/><g fill="#B6B9B9"><path d="M20 44.934l5-2.478v-2l-5 2.478zM35 35.5l-5 2.478v2l5-2.478z"/></g><path fill="#9B9D9D" d="M22 41.943l-2 .991v2l2-.991zM32 36.986l-2 .992v2l2-.992z"/><path fill="#3DB39E" d="M65.35 22.458l-48.368 23.972c-3.958 1.961-3.958 5.141 0 7.103l48.368 23.97c3.958 1.961 10.374 1.961 14.332 0l16.428-8.143c2.504-5.955 3.89-12.495 3.89-19.36 0-6.883-1.393-13.441-3.908-19.409l-16.41-8.133c-3.958-1.961-10.374-1.961-14.332 0z"/><path fill="#94D0C6" d="M86.008 54.475c-1.119-.56-2.934-.56-4.053 0-1.119.561-1.119 1.468 0 2.028s2.934.56 4.053 0c1.119-.561 1.119-1.468 0-2.028zm-1.688-10.992c1.373-.006 2.495-.567 2.507-1.254s-1.091-1.238-2.464-1.232c-7.773.035-15.108 1.581-20.653 4.355-5.546 2.774-8.638 6.444-8.706 10.334-.012.687 1.091 1.238 2.463 1.232.687-.003 1.311-.145 1.764-.372.453-.227.737-.539.744-.882.056-3.226 2.619-6.27 7.219-8.569 4.597-2.3 10.681-3.583 17.126-3.612zm-.259 4.364c1.345-.003 2.439-.551 2.444-1.224.005-.672-1.08-1.216-2.425-1.213-5.389.012-10.463 1.071-14.288 2.985s-5.944 4.452-5.967 7.148c-.005.673 1.08 1.216 2.425 1.213.672-.001 1.283-.139 1.725-.36.443-.221.718-.526.721-.862.016-2.045 1.623-3.972 4.525-5.423 2.902-1.452 6.752-2.257 10.84-2.264zm2.933 3.07c-.012-.679-1.12-1.233-2.477-1.239-3.275-.014-6.344.612-8.641 1.762-2.297 1.148-3.547 2.684-3.521 4.322.012.68 1.12 1.234 2.478 1.239.678.004 1.29-.132 1.73-.353.441-.22.711-.526.705-.865-.017-.983.733-1.902 2.11-2.592 1.376-.688 3.216-1.064 5.179-1.056 1.358.007 2.449-.539 2.437-1.218z"/><path fill="#6DC2B3" d="M57.993 33.66l13.438-6.664 2.575 1.345-13.438 6.663-2.575-1.344z"/><path fill="#319180" d="M17 53.541l-.018-.009c-1.468-.728-2.388-1.623-2.768-2.562l-.214-.99v16.519l2 3.03 1.024.526-.024-.283v-16.231z"/><path fill="#41A694" d="M68 78.444v18.203c2.432-.939 4.77-2.062 7-3.354v-14.478c-2.327.29-4.816.168-7-.371z"/></svg>