<svg xmlns="http://www.w3.org/2000/svg" width="100" height="100" viewBox="0 0 100 100"><path fill="#EFC75E" d="M50 0c-27.614 0-50 22.385-50 50 0 27.613 22.386 50 50 50s50-22.387 50-50c0-27.615-22.386-50-50-50z"/><g fill="#F3D586"><path d="M92 77.114v-6.948c0-6.164-3.562-11.491-8.73-14.018-.801-.403-1.151-1.396-1.277-1.871v-24.279c0-1.657-1.343-3-3-3h-4.998c-1.656 0-2.999 1.343-2.999 3v24.362c-.132.507-.466 1.423-1.243 1.771-5.188 2.519-8.766 7.856-8.766 14.034v20.253c0 2.859.78 5.53 2.118 7.834 12.047-3.264 22.282-10.916 28.895-21.138zM30.282 56.148c-.801-.403-1.151-1.396-1.276-1.871v-24.279c0-1.657-1.344-3-3-3h-4.999c-1.656 0-2.999 1.343-2.999 3v24.362c-.131.507-.466 1.423-1.243 1.771-5.187 2.519-8.765 7.857-8.765 14.035v6.948c6.613 10.222 16.848 17.874 28.895 21.139 1.338-2.304 2.119-4.975 2.119-7.834v-20.253c0-6.164-3.563-11.491-8.732-14.018z"/></g><path fill="#3E4F71" d="M58.738 53.003c-1.381-.691-1.724-2.74-1.724-2.74l-.014.003v-30.268c0-1.657-1.344-3-3-3h-8c-1.656 0-3 1.343-3 3v30.3c-.035.224-.367 2.091-1.694 2.684-6.691 3.234-11.306 10.086-11.306 18.016v24.828c6.126 2.678 12.887 4.172 20 4.172s13.874-1.494 20-4.172v-24.828c0-7.912-4.595-14.751-11.262-17.995z"/><path fill="#384765" d="M34 73.998c0-7.93 3.615-15.781 10.306-19.017 1.327-.592 1.659-4.457 1.694-4.683v-30.3c0-1.657 1.344-3 3-3h-3c-1.656 0-3 1.343-3 3v30.3c-.035.226-.367 2.091-1.694 2.684-6.691 3.234-11.306 10.086-11.306 18.016v24.829c1.304.569 2.642 1.073 4 1.533v-23.362z"/><path fill="#E2574C" d="M57 19.998c0-1.657-1.344-3-3-3h-8c-1.656 0-3 1.343-3 3v20h14v-20z"/><path fill="#3DB39E" d="M62 70.998h-24c-1.104 0-2 .896-2 2v25.001c4.42 1.287 9.089 1.991 13.923 1.999h.154c4.834-.008 9.503-.712 13.923-1.999v-25.001c0-1.104-.896-2-2-2z"/><path fill="#fff" d="M54.06 80.998l-2.69 3.343 3.725 5.657h6.207l-7.242-9zm-14.06 9h14l-7-11-7 11z"/><path fill="#CB4E44" d="M43 26.998h14v1h-14v-1zM46 19.999c0-1.657 1.344-3 3-3h-3c-1.656 0-3 1.343-3 3v19.999h3v-19.999z"/><path fill="#E2574C" d="M43 21.998h14c.553 0 1 .448 1 1v3c0 .553-.447 1-1 1h-14c-.553 0-1-.447-1-1v-3c0-.552.447-1 1-1z"/><path fill="#CB4E44" d="M43 21.998c-.553 0-1 .448-1 1v3c0 .553.447 1 1 1h2v-5h-2z"/><path fill="#E67067" d="M57 21.998h-14c-.553 0-1 .448-1 1v1c0-.552.447-1 1-1h14c.553 0 1 .448 1 1v-1c0-.552-.447-1-1-1z"/><path fill="#D36860" d="M43 22.998h2v-1h-2c-.553 0-1 .448-1 1v1c0-.552.447-1 1-1z"/><path fill="#B6463D" d="M43 26.998h3v1h-3z"/></svg>