<svg xmlns="http://www.w3.org/2000/svg" width="100" height="100" viewBox="0 0 100 100"><path fill="#91D8F0" d="M50 0c-27.614 0-50 22.386-50 50 0 27.613 22.386 50 50 50s50-22.387 50-50c0-27.614-22.386-50-50-50z"/><path fill="#324D5B" d="M16.35 47.989h67.3c2.402 0 4.35 1.995 4.35 4.457v32.095c0 2.462-1.947 4.458-4.35 4.458h-67.3c-2.402 0-4.35-1.996-4.35-4.458v-32.095c0-2.462 1.948-4.457 4.35-4.457z"/><path fill="#2D4552" d="M12 56.998h76v3h-76v-3z"/><path fill="#3B5665" d="M89.279 33.989l-3.568-4.995c-.453-.454-1.241-.996-1.715-.996h-68.003c-.542 0-1.244.533-1.699.989-.942 1.319-2.602 3.644-3.559 4.982-.423.424-.735 1.442-.735 2.086v19.943c0 1.104.896 2 2 2h76c1.104 0 2-.896 2-2v-19.947c0-.537-.277-1.618-.721-2.062z"/><path fill="#4F6775" d="M15.988 27.999c-.541.003-1.239.532-1.693.987l-3.606 5.048c-.203.229-.376.581-.499.965h79.62c-.074-.236-.17-.464-.28-.661l-.242-.338-.009-.011-3.568-4.995c-.452-.453-1.236-.992-1.711-.995h-68.012z"/><path fill="#2D4552" d="M20.985 34.938v40.994c0 2.001 1.57 5.073 3.508 5.073 1.937 0 3.507-3.072 3.507-5.073v-40.904l3-7.028h-6.993l-3.022 6.938zm51.015-6.938h-7.016l3 7.052v40.881c0 2.001 1.57 5.073 3.508 5.073s3.508-3.072 3.508-5.073v-40.928l-3-7.005z"/><g fill="#283E4A"><path d="M67.984 56.998h7.016v3h-7.016zM20.985 56.998h7.015v3h-7.015z"/></g><path fill="#344F5D" d="M40 29.998c-1.657 0-3 .672-3 1.5s1.343 1.5 3 1.5 3-.672 3-1.5-1.343-1.5-3-1.5zm20 0c-1.656 0-3 .672-3 1.5s1.344 1.5 3 1.5 3-.672 3-1.5-1.344-1.5-3-1.5z"/><path fill="#EFEFEF" d="M58 30.998c0 .553.896 1 2 1s2-.447 2-1v-9c0-1.656-1.344-3-3-3h-18c-1.657 0-3 1.344-3 3v9c0 .553.896 1 2 1s2-.447 2-1l-.045-.208v-4.072c0-3.291.506-3.714 3.5-3.714h9.031c3 0 3.5.464 3.5 3.714v4.259"/><g fill="#475C69"><path d="M72 28h-7.016l2.978 6.999h7.035zM28.013 34.999l2.987-6.999h-6.993l-3.022 6.938v.061z"/></g><g fill="#2D4552"><path d="M30 72.998h-7c-1.104 0-2-.896-2-2v-2c0-.293.066-.569.18-.82-.694.313-1.18 1.009-1.18 1.82v2c0 1.104.896 2 2 2h7c.812 0 1.506-.485 1.82-1.18-.251.114-.527.18-.82.18zM77 72.998h-7c-1.104 0-2-.896-2-2v-2c0-.293.066-.569.18-.82-.694.313-1.18 1.009-1.18 1.82v2c0 1.104.896 2 2 2h7c.812 0 1.507-.485 1.82-1.18-.251.114-.527.18-.82.18z"/></g><path fill="#283E4A" d="M21.18 68.178l-.195.123v5.411c.298.178.643.286 1.015.286h6v-1h-5c-1.104 0-2-.896-2-2v-2c0-.293.066-.569.18-.82zM75 73.998v-1h-5c-1.104 0-2-.896-2-2v-2c0-.293.066-.569.18-.82l-.195.124v5.41c.299.178.644.286 1.016.286h5.999z"/><path fill="#2D4552" d="M83.65 86.999h-67.3c-2.402 0-4.35-1.996-4.35-4.458v2c0 2.462 1.948 4.458 4.35 4.458h67.3c2.402 0 4.35-1.996 4.35-4.458v-2c0 2.462-1.947 4.458-4.35 4.458z"/><path fill="#4F6775" d="M88 54.998h-76c-1.104 0-2-.896-2-2v3c0 1.104.896 2 2 2h76c1.104 0 2-.896 2-2v-3c0 1.105-.896 2-2 2z"/><g fill="#475C69"><path d="M67.984 54.998h7.016v3h-7.016zM20.985 54.998h7.015v3h-7.015z"/></g><path fill="#D07C40" d="M22.985 34.979v39.953c0 2.002 1.57 5.075 3.508 5.075 1.937 0 3.507-3.073 3.507-5.075v-39.945l3-6.987h-7.015l-3 6.979zm51.015-6.979h-7.016l3 7.035v39.896c0 2.002 1.57 5.075 3.508 5.075s3.508-3.072 3.508-5.074v-39.883l-3-7.049z"/><path fill="#672E05" d="M73.5 59.998c-.828 0-1.5.672-1.5 1.5s.672 1.5 1.5 1.5 1.5-.672 1.5-1.5-.672-1.5-1.5-1.5zm0-7c-.828 0-1.5.672-1.5 1.5s.672 1.5 1.5 1.5 1.5-.672 1.5-1.5-.672-1.5-1.5-1.5zm0-4c.828 0 1.5-.672 1.5-1.5s-.672-1.5-1.5-1.5-1.5.672-1.5 1.5.672 1.5 1.5 1.5zm-47 11c-.829 0-1.5.672-1.5 1.5s.671 1.5 1.5 1.5 1.5-.672 1.5-1.5-.671-1.5-1.5-1.5zm0-7c-.829 0-1.5.672-1.5 1.5s.671 1.5 1.5 1.5 1.5-.672 1.5-1.5-.671-1.5-1.5-1.5zm0-7c-.829 0-1.5.672-1.5 1.5s.671 1.5 1.5 1.5 1.5-.672 1.5-1.5-.671-1.5-1.5-1.5z"/><g fill="#D7905C"><path d="M32.929 28.167l.071-.167h-2l-3 7.027v44.347c1.182-1.004 2-2.999 2-4.442v-39.945l2.929-6.82zM72 28l3 6.999v44.375c1.182-1.004 2-2.999 2-4.442v-39.883l-3-7.049h-2z"/></g><path fill="#E4E7E7" d="M30 66.998h-7c-1.104 0-2 .896-2 2v2c0 1.104.896 2 2 2h7c1.104 0 2-.896 2-2v-2c0-1.104-.896-2-2-2zm47 0h-7c-1.104 0-2 .896-2 2v2c0 1.104.896 2 2 2h7c1.104 0 2-.896 2-2v-2c0-1.104-.896-2-2-2z"/><g fill="#D58953"><path d="M74 28h-7.016l2.985 6.998h7.01zM25.985 28l-3 6.979v.019h7.015v-.011l3-6.987z"/></g><path fill="#DB9B6D" d="M30 34.999v-.012l2.929-6.82.071-.167h-2l-2.988 6.999zM74 28h-2l3 6.999h1.979z"/><path fill="#BB6F39" d="M22.985 72.996v1.002h6.015c.368 0 .705-.11 1-.284v-.716h-7l-.015-.002zM69.984 72.996v1.002h6.016c.367 0 .705-.11 1-.283v-.717h-7l-.016-.002z"/><path fill="#C18153" d="M28 73.998h1c.368 0 .705-.11 1-.284v-.716h-2v1zM75 73.998h1c.367 0 .705-.11 1-.283v-.717h-2v1z"/></svg>