<svg xmlns="http://www.w3.org/2000/svg" width="100" height="100" viewBox="0 0 100 100"><path fill="#26A6D1" d="M50 0c-27.615 0-50 22.386-50 50 0 27.615 22.386 50 50 50s50-22.385 50-50c0-27.614-22.387-50-50-50z"/><path fill="#F3F3F3" d="M25.999 32l-2 40c0 .825.875 13.244 1.467 21.563 7.25 4.091 15.616 6.437 24.534 6.437 27.614 0 50-22.385 50-50 0-8.698-2.225-16.875-6.131-24h-61.87c-3.313 0-6 2.687-6 6z"/><path fill="#DADADA" d="M68 76l-29.912-41-12.88 12.817-1.181 23.611 1.478 22.156c5.445 3.067 11.521 5.139 17.987 5.979l24.508-23.563z"/><path fill="#E7E7E7" d="M23.999 71l1.455 22.557c7.253 4.094 15.622 6.443 24.546 6.443 20.112 0 37.438-11.88 45.375-29h-71.376z"/><path fill="#CFCFCF" d="M68 76l-3.648-5h-40.303l-.021.429 1.478 22.156c5.445 3.067 11.521 5.139 17.987 5.979l24.507-23.564z"/><path fill="#3E4E5C" d="M55.479 47.003l-15.465 7.089 12.524 27.906 6.682-5.971 8.783-.055-12.524-28.969z"/><path fill="#52606D" d="M44.074 47.985l14.918 6.889-12.082 27.12-6.412-6.027-8.507.013 12.083-27.995z"/><path fill="#394754" d="M55.479 47.003l-15.465 7.089 7.402 16.494c.861-.442 1.754-1.076 2.584-1.076 1.381 0 2.936 1.763 4.229 1.462 1.334-.31 1.988-2.597 3.191-3.191 1.223-.604 3.375.291 4.426-.568.748-.61.781-1.963 1.035-3.087l-7.402-17.123z"/><path fill="#4C5965" d="M44.074 47.985l-6.959 16.123c.256 1.127.286 2.49 1.037 3.104 1.051.858 3.203-.036 4.428.568 1.203.595 1.857 2.882 3.191 3.191 1.293.301 2.848-1.462 4.229-1.462.678 0 1.397.425 2.106.821l6.887-15.457-14.919-6.888z"/><path fill="#EFC75E" d="M69 50c0 1.415-2.033 2.577-2.326 3.9-.303 1.367 1.027 3.315.447 4.549-.59 1.253-2.912 1.397-3.752 2.475-.844 1.082-.467 3.434-1.523 4.297-1.051.859-3.203-.036-4.426.568-1.203.596-1.857 2.885-3.191 3.194-1.293.301-2.848-1.463-4.229-1.463-1.381 0-2.937 1.764-4.229 1.463-1.334-.31-1.988-2.599-3.191-3.194-1.225-.604-3.377.291-4.428-.568-1.056-.863-.68-3.215-1.522-4.297-.839-1.077-3.162-1.222-3.752-2.475-.581-1.233.751-3.182.448-4.549-.295-1.323-2.326-2.485-2.326-3.9 0-1.414 2.032-2.576 2.326-3.9.303-1.367-1.028-3.316-.448-4.548.59-1.253 2.913-1.398 3.752-2.474.843-1.083.467-3.434 1.522-4.298 1.051-.859 3.203.037 4.428-.568 1.203-.596 1.857-2.884 3.191-3.194 1.292-.301 2.848 1.464 4.229 1.464 1.381 0 2.936-1.765 4.229-1.464 1.334.311 1.988 2.599 3.191 3.194 1.223.605 3.377-.291 4.426.569 1.057.864.68 3.214 1.523 4.297.84 1.076 3.162 1.221 3.752 2.474.58 1.233-.75 3.181-.447 4.548.293 1.324 2.326 2.486 2.326 3.9z"/><path fill="#D7B354" d="M50 36.012c-7.74 0-14.014 6.265-14.014 13.994 0 7.728 6.274 13.993 14.014 13.993 7.741 0 14.014-6.266 14.014-13.993 0-7.729-6.274-13.994-14.014-13.994zm0 24.998c-6.07 0-10.992-4.928-10.992-11.004 0-6.078 4.922-11.005 10.992-11.005 6.071 0 10.991 4.927 10.991 11.005-.001 6.076-4.921 11.004-10.991 11.004zm0-17.01c-3.314 0-6 2.686-6 6 0 3.313 2.686 6 6 6 3.313 0 6-2.687 6-6 0-3.314-2.688-6-6-6z"/><g fill="#CCD0D2"><path d="M99.502 57h-18.502c-1.105 0-2 .896-2 2s.895 2 2 2h17.771c.295-1.315.541-2.648.731-4zM79 39c0 1.105.895 2 2 2h18.176c-.246-1.353-.541-2.688-.895-4h-17.281c-1.105 0-2 .896-2 2zM79 49c0 1.105.895 2 2 2h18.975l.025-1c0-1.008-.039-2.007-.098-3h-18.902c-1.105 0-2 .896-2 2z"/></g></svg>