<svg xmlns="http://www.w3.org/2000/svg" width="100" height="100" viewBox="0 0 100 100"><path fill="#324D5B" d="M50 0c-27.614 0-50 22.386-50 50s22.386 50 50 50 50-22.386 50-50-22.386-50-50-50z"/><path fill="#F4B459" d="M77.951 37.199c.029-.23.049-.463.049-.7 0-3.037-2.463-5.5-5.5-5.5l-.103.005c-.91-1.782-2.759-3.005-4.897-3.005-.99 0-1.918.265-2.721.723-.799-3.282-3.75-5.723-7.279-5.723-2.453 0-4.625 1.184-5.993 3.004-1.194-.64-2.558-1.004-4.007-1.004-3.226 0-6.031 1.797-7.472 4.443-1.371-1.498-3.337-2.443-5.528-2.443-4.142 0-7.5 3.357-7.5 7.5 0 .558.065 1.1.181 1.622-3.512.624-6.181 3.687-6.181 7.378 0 .841.141 1.647.396 2.402l-.396.098 30 14 25.109-12.046c2.942-1.474 5.891-2.586 5.891-5.454 0-2.534-1.717-4.663-4.049-5.3z"/><path fill="#EFEFEF" d="M21 45.001l3.327 47.906c7.505 4.5 16.285 7.093 25.673 7.093 10.274 0 19.822-3.103 27.765-8.417l3.235-46.582-30 13.998-30-13.998z"/><path fill="#F6C37B" d="M56.004 23.998c4.416 0 7.996 3.58 7.996 7.997 0 .693-.097 1.363-.263 2.004.794-1.135 1.263-2.513 1.263-4.004 0-3.864-3.133-6.996-6.997-6.996-1.49 0-2.868.469-4.003 1.262.641-.166 1.311-.263 2.004-.263z"/><path fill="#D69F51" d="M35.198 26.867c-.246-.024-.495-.038-.747-.038-4.123 0-7.464 3.322-7.464 7.421 0 2.692 1.447 5.042 3.606 6.343-1.6-1.447-2.61-3.528-2.61-5.848 0-4.122 3.168-7.504 7.215-7.878zm4.727 4.909c0 1.909.778 3.638 2.035 4.891-.659-1.152-1.04-2.481-1.04-3.901 0-4.023 3.022-7.339 6.932-7.841-.315-.043-.634-.074-.961-.074-3.847 0-6.966 3.1-6.966 6.925zm1.99 9.894c-1.353 0-2.545.675-3.264 1.7.645-.445 1.424-.711 2.27-.711 2.198 0 3.98 1.771 3.98 3.957 0 .84-.267 1.615-.716 2.256 1.033-.715 1.711-1.899 1.711-3.245 0-2.186-1.782-3.957-3.981-3.957zm29.082-6.838c-.233-.05-.476-.077-.724-.077-1.924 0-3.483 1.551-3.483 3.463 0 1.396.837 2.593 2.034 3.141-.639-.703-1.039-1.625-1.039-2.646 0-1.925 1.382-3.525 3.212-3.881zm-17.698 4.518c-.357.237-.737.441-1.133.62.738 2.139 2.773 3.679 5.175 3.679 1.765 0 3.331-.835 4.332-2.124-.925.709-2.079 1.135-3.337 1.135-2.262-.001-4.203-1.365-5.037-3.31z"/><path fill="#DADADA" d="M50 100l1-.025v-40.976l-30-13.998 3.326 47.893c7.505 4.505 16.283 7.106 25.674 7.106z"/><path fill="#E2574C" d="M60.679 54.483l-1.515 44.664c3.883-.72 7.605-1.886 11.117-3.447l1.574-46.432-11.176 5.215zM31.748 96.548c.784.308 1.579.595 2.381.863l.14.048c2.471.82 5.026 1.455 7.652 1.882l-.762-44.934-11.015-5.139 1.604 47.28z"/><path fill="#DBA251" d="M80.992 45.004c.387-.418.68-.887.847-1.428l-30.839 14.423-29.957-13.978c.026.365.073.722.149 1.07l29.808 13.908 29.992-13.995z"/></svg>