<svg xmlns="http://www.w3.org/2000/svg" width="100" height="100" viewBox="0 0 100 100"><path fill="#E2574C" d="M50 0c-27.614 0-50 22.385-50 49.999s22.386 50.001 50 50.001 50-22.387 50-50.001c0-27.614-22.386-49.999-50-49.999z"/><path fill="#EFEFEF" d="M77 28.999c-1.104 0-2-.896-2-2h-3c0 1.104-.896 2-2 2s-2-.896-2-2h-3c0 1.104-.896 2-2 2s-2-.896-2-2h-3c0 4.418-3.582 8-8 8s-8-3.582-8-8h-3c0 1.104-.896 2-2 2s-2-.896-2-2h-3c0 1.104-.896 2-2 2s-2-.896-2-2h-3c0 1.104-.896 2-2 2s-2-.896-2-2h-3v61.414c8.653 7.217 19.778 11.566 31.923 11.586h.154c12.144-.02 23.27-4.369 31.923-11.586v-61.414h-3c0 1.103-.896 2-2 2z"/><path fill="#536A75" d="M36.508 66.395c.726-.244 1.345-.752 1.345-1.604 0-1.258-1.229-1.775-2.37-1.775-1.142 0-2.371.518-2.371 1.775 0 .852.619 1.359 1.345 1.604-.784.271-1.452.891-1.452 1.742 0 1.217 1.152 1.867 2.478 1.867 1.315 0 2.478-.65 2.478-1.867-.001-.852-.669-1.471-1.453-1.742zm-2.245-1.422c0-.576.522-.902 1.219-.902s1.22.326 1.22.902c0 .629-.823.873-1.22.943-.387-.07-1.219-.314-1.219-.943zm1.219 3.976c-.735 0-1.326-.365-1.326-.963 0-.701.919-1.004 1.326-1.066.396.062 1.325.365 1.325 1.066.001.598-.609.963-1.325.963zm5.641-5.943c-1.442 0-2.381 1.014-2.381 2.271 0 1.439.997 2.182 2.158 2.182.765 0 1.441-.488 1.731-.943l.01.191c0 1.105-.531 2.232-1.703 2.232-.619 0-.986-.225-1.325-.6l-.532.902c.436.447 1.055.752 1.857.752 1.868 0 2.846-1.543 2.846-3.498 0-1.876-.764-3.489-2.661-3.489zm.087 3.437c-.707 0-1.326-.375-1.326-1.207 0-.547.445-1.176 1.297-1.176.997 0 1.374.852 1.441 1.582-.328.487-.861.801-1.412.801zm5.728-3.437c-1.442 0-2.38 1.014-2.38 2.271 0 1.439.996 2.182 2.157 2.182.765 0 1.442-.488 1.731-.943l.01.191c0 1.105-.531 2.232-1.703 2.232-.619 0-.986-.225-1.325-.6l-.532.902c.436.447 1.055.752 1.857.752 1.868 0 2.846-1.543 2.846-3.498 0-1.876-.765-3.489-2.661-3.489zm.086 3.437c-.707 0-1.326-.375-1.326-1.207 0-.547.445-1.176 1.297-1.176.997 0 1.375.852 1.442 1.582-.329.487-.861.801-1.413.801zm5.728-3.437c-1.441 0-2.38 1.014-2.38 2.271 0 1.439.996 2.182 2.157 2.182.765 0 1.441-.488 1.732-.943l.01.191c0 1.105-.532 2.232-1.703 2.232-.619 0-.987-.225-1.326-.6l-.531.902c.436.447 1.055.752 1.857.752 1.867 0 2.845-1.543 2.845-3.498 0-1.876-.765-3.489-2.661-3.489zm.088 3.437c-.707 0-1.326-.375-1.326-1.207 0-.547.445-1.176 1.297-1.176.996 0 1.373.852 1.441 1.582-.329.487-.861.801-1.412.801zm6.879-.048c.725-.244 1.345-.752 1.345-1.604 0-1.258-1.229-1.775-2.371-1.775s-2.37.518-2.37 1.775c0 .852.619 1.359 1.345 1.604-.784.271-1.452.891-1.452 1.742 0 1.217 1.152 1.867 2.478 1.867 1.315 0 2.478-.65 2.478-1.867-.002-.852-.67-1.471-1.453-1.742zm-2.246-1.422c0-.576.523-.902 1.22-.902s1.22.326 1.22.902c0 .629-.822.873-1.22.943-.387-.07-1.22-.314-1.22-.943zm1.219 3.976c-.735 0-1.325-.365-1.325-.963 0-.701.919-1.004 1.325-1.066.397.062 1.325.365 1.325 1.066.001.598-.609.963-1.325.963zm5.641-5.943c-1.442 0-2.38 1.014-2.38 2.271 0 1.439.996 2.182 2.157 2.182.765 0 1.442-.488 1.731-.943l.01.191c0 1.105-.531 2.232-1.702 2.232-.62 0-.987-.225-1.326-.6l-.532.902c.436.447 1.055.752 1.858.752 1.867 0 2.845-1.543 2.845-3.498 0-1.876-.765-3.489-2.661-3.489zm.087 3.437c-.706 0-1.326-.375-1.326-1.207 0-.547.445-1.176 1.297-1.176.997 0 1.375.852 1.442 1.582-.329.487-.861.801-1.413.801zM36.508 66.395c.726-.244 1.345-.752 1.345-1.604 0-1.258-1.229-1.775-2.37-1.775-1.142 0-2.371.518-2.371 1.775 0 .852.619 1.359 1.345 1.604-.784.271-1.452.891-1.452 1.742 0 1.217 1.152 1.867 2.478 1.867 1.315 0 2.478-.65 2.478-1.867-.001-.852-.669-1.471-1.453-1.742zm-2.245-1.422c0-.576.522-.902 1.219-.902s1.22.326 1.22.902c0 .629-.823.873-1.22.943-.387-.07-1.219-.314-1.219-.943zm1.219 3.976c-.735 0-1.326-.365-1.326-.963 0-.701.919-1.004 1.326-1.066.396.062 1.325.365 1.325 1.066.001.598-.609.963-1.325.963zm5.641-5.943c-1.442 0-2.381 1.014-2.381 2.271 0 1.439.997 2.182 2.158 2.182.765 0 1.441-.488 1.731-.943l.01.191c0 1.105-.531 2.232-1.703 2.232-.619 0-.986-.225-1.325-.6l-.532.902c.436.447 1.055.752 1.857.752 1.868 0 2.846-1.543 2.846-3.498 0-1.876-.764-3.489-2.661-3.489zm.087 3.437c-.707 0-1.326-.375-1.326-1.207 0-.547.445-1.176 1.297-1.176.997 0 1.374.852 1.441 1.582-.328.487-.861.801-1.412.801zm5.728-3.437c-1.442 0-2.38 1.014-2.38 2.271 0 1.439.996 2.182 2.157 2.182.765 0 1.442-.488 1.731-.943l.01.191c0 1.105-.531 2.232-1.703 2.232-.619 0-.986-.225-1.325-.6l-.532.902c.436.447 1.055.752 1.857.752 1.868 0 2.846-1.543 2.846-3.498 0-1.876-.765-3.489-2.661-3.489zm.086 3.437c-.707 0-1.326-.375-1.326-1.207 0-.547.445-1.176 1.297-1.176.997 0 1.375.852 1.442 1.582-.329.487-.861.801-1.413.801zm5.728-3.437c-1.441 0-2.38 1.014-2.38 2.271 0 1.439.996 2.182 2.157 2.182.765 0 1.441-.488 1.732-.943l.01.191c0 1.105-.532 2.232-1.703 2.232-.619 0-.987-.225-1.326-.6l-.531.902c.436.447 1.055.752 1.857.752 1.867 0 2.845-1.543 2.845-3.498 0-1.876-.765-3.489-2.661-3.489zm.088 3.437c-.707 0-1.326-.375-1.326-1.207 0-.547.445-1.176 1.297-1.176.996 0 1.373.852 1.441 1.582-.329.487-.861.801-1.412.801zm6.879-.048c.725-.244 1.345-.752 1.345-1.604 0-1.258-1.229-1.775-2.371-1.775s-2.37.518-2.37 1.775c0 .852.619 1.359 1.345 1.604-.784.271-1.452.891-1.452 1.742 0 1.217 1.152 1.867 2.478 1.867 1.315 0 2.478-.65 2.478-1.867-.002-.852-.67-1.471-1.453-1.742zm-2.246-1.422c0-.576.523-.902 1.22-.902s1.22.326 1.22.902c0 .629-.822.873-1.22.943-.387-.07-1.22-.314-1.22-.943zm1.219 3.976c-.735 0-1.325-.365-1.325-.963 0-.701.919-1.004 1.325-1.066.397.062 1.325.365 1.325 1.066.001.598-.609.963-1.325.963zm5.641-5.943c-1.442 0-2.38 1.014-2.38 2.271 0 1.439.996 2.182 2.157 2.182.765 0 1.442-.488 1.731-.943l.01.191c0 1.105-.531 2.232-1.702 2.232-.62 0-.987-.225-1.326-.6l-.532.902c.436.447 1.055.752 1.858.752 1.867 0 2.845-1.543 2.845-3.498 0-1.876-.765-3.489-2.661-3.489zm.087 3.437c-.706 0-1.326-.375-1.326-1.207 0-.547.445-1.176 1.297-1.176.997 0 1.375.852 1.442 1.582-.329.487-.861.801-1.413.801z"/><path fill="#CCD0D2" d="M34 75h32c.553 0 1 .447 1 1 0 .551-.447 1-1 1h-32c-.552 0-1-.449-1-1 0-.553.448-1 1-1z"/><path fill="#EFC75E" d="M39.571 84.268l-1.822-.279-.791-1.697c-.084-.179-.262-.292-.458-.292s-.375.113-.458.291l-.792 1.697-1.822.279c-.187.029-.343.16-.403.342-.061.18-.015.379.117.516l1.335 1.375-.31 1.908c-.031.191.049.385.208.498.088.061.19.094.292.094.084 0 .168-.021.245-.064l1.588-.881 1.588.881c.077.043.161.064.245.064.102 0 .203-.033.291-.094.158-.113.238-.307.207-.498l-.31-1.908 1.335-1.375c.133-.137.178-.336.117-.516-.06-.181-.215-.312-.402-.341zm9 0l-1.822-.279-.791-1.697c-.084-.179-.262-.292-.458-.292s-.374.113-.458.291l-.791 1.697-1.822.279c-.187.029-.342.16-.402.342-.061.18-.015.379.117.516l1.335 1.375-.31 1.908c-.031.191.049.385.207.498.088.061.189.094.291.094.084 0 .168-.021.245-.064l1.588-.881 1.588.881c.077.043.161.064.245.064.102 0 .203-.033.291-.094.158-.113.238-.307.207-.498l-.31-1.908 1.335-1.375c.133-.137.178-.336.117-.516-.06-.181-.215-.312-.402-.341zm8.999 0l-1.82-.279-.793-1.697c-.082-.179-.261-.292-.457-.292-.195 0-.375.113-.457.291l-.793 1.697-1.82.279c-.188.029-.344.16-.403.342-.061.18-.015.379.117.516l1.335 1.375-.31 1.908c-.031.191.05.385.208.498.086.061.188.094.291.094.084 0 .168-.021.244-.064l1.588-.881 1.588.881c.076.043.16.064.244.064.103 0 .205-.033.292-.094.157-.113.238-.307.207-.498l-.31-1.908 1.335-1.375c.132-.137.177-.336.117-.516-.059-.181-.215-.312-.403-.341zm9.404.341c-.06-.182-.216-.312-.403-.342l-1.82-.279-.793-1.697c-.083-.178-.262-.291-.458-.291-.195 0-.375.113-.457.291l-.793 1.697-1.82.279c-.188.029-.344.16-.403.342-.061.18-.015.379.117.516l1.335 1.375-.31 1.908c-.031.191.05.385.208.498.086.061.188.094.291.094.084 0 .168-.021.244-.064l1.588-.881 1.588.881c.076.043.16.064.244.064.103 0 .205-.033.292-.094.157-.113.238-.307.207-.498l-.31-1.908 1.335-1.375c.132-.137.177-.336.118-.516zM39.571 84.268l-1.822-.279-.791-1.697c-.084-.179-.262-.292-.458-.292s-.375.113-.458.291l-.792 1.697-1.822.279c-.187.029-.343.16-.403.342-.061.18-.015.379.117.516l1.335 1.375-.31 1.908c-.031.191.049.385.208.498.088.061.19.094.292.094.084 0 .168-.021.245-.064l1.588-.881 1.588.881c.077.043.161.064.245.064.102 0 .203-.033.291-.094.158-.113.238-.307.207-.498l-.31-1.908 1.335-1.375c.133-.137.178-.336.117-.516-.06-.181-.215-.312-.402-.341zm9 0l-1.822-.279-.791-1.697c-.084-.179-.262-.292-.458-.292s-.374.113-.458.291l-.791 1.697-1.822.279c-.187.029-.342.16-.402.342-.061.18-.015.379.117.516l1.335 1.375-.31 1.908c-.031.191.049.385.207.498.088.061.189.094.291.094.084 0 .168-.021.245-.064l1.588-.881 1.588.881c.077.043.161.064.245.064.102 0 .203-.033.291-.094.158-.113.238-.307.207-.498l-.31-1.908 1.335-1.375c.133-.137.178-.336.117-.516-.06-.181-.215-.312-.402-.341zm8.999 0l-1.82-.279-.793-1.697c-.082-.179-.261-.292-.457-.292-.195 0-.375.113-.457.291l-.793 1.697-1.82.279c-.188.029-.344.16-.403.342-.061.18-.015.379.117.516l1.335 1.375-.31 1.908c-.031.191.05.385.208.498.086.061.188.094.291.094.084 0 .168-.021.244-.064l1.588-.881 1.588.881c.076.043.16.064.244.064.103 0 .205-.033.292-.094.157-.113.238-.307.207-.498l-.31-1.908 1.335-1.375c.132-.137.177-.336.117-.516-.059-.181-.215-.312-.403-.341zm9.404.341c-.06-.182-.216-.312-.403-.342l-1.82-.279-.793-1.697c-.083-.178-.262-.291-.458-.291-.195 0-.375.113-.457.291l-.793 1.697-1.82.279c-.188.029-.344.16-.403.342-.061.18-.015.379.117.516l1.335 1.375-.31 1.908c-.031.191.05.385.208.498.086.061.188.094.291.094.084 0 .168-.021.244-.064l1.588-.881 1.588.881c.076.043.16.064.244.064.103 0 .205-.033.292-.094.157-.113.238-.307.207-.498l-.31-1.908 1.335-1.375c.132-.137.177-.336.118-.516z"/><path fill="#CCD0D2" d="M47 43.999h-4c-.552 0-1 .447-1 1s.448 1 1 1h4c.552 0 1-.447 1-1s-.448-1-1-1zm10 0h-4c-.553 0-1 .447-1 1s.447 1 1 1h4c.553 0 1-.447 1-1s-.447-1-1-1zm10 0h-4c-.553 0-1 .447-1 1s.447 1 1 1h4c.553 0 1-.447 1-1s-.447-1-1-1zm10 0h-4c-.553 0-1 .447-1 1s.447 1 1 1h4c.553 0 1-.447 1-1s-.447-1-1-1zm-40 0h-4c-.552 0-1 .447-1 1s.448 1 1 1h4c.552 0 1-.447 1-1s-.448-1-1-1zm-10 0h-4c-.552 0-1 .447-1 1s.448 1 1 1h4c.552 0 1-.447 1-1s-.448-1-1-1zM47 43.999h-4c-.552 0-1 .447-1 1s.448 1 1 1h4c.552 0 1-.447 1-1s-.448-1-1-1zm10 0h-4c-.553 0-1 .447-1 1s.447 1 1 1h4c.553 0 1-.447 1-1s-.447-1-1-1zm10 0h-4c-.553 0-1 .447-1 1s.447 1 1 1h4c.553 0 1-.447 1-1s-.447-1-1-1zm10 0h-4c-.553 0-1 .447-1 1s.447 1 1 1h4c.553 0 1-.447 1-1s-.447-1-1-1zm-40 0h-4c-.552 0-1 .447-1 1s.448 1 1 1h4c.552 0 1-.447 1-1s-.448-1-1-1zm-10 0h-4c-.552 0-1 .447-1 1s.448 1 1 1h4c.552 0 1-.447 1-1s-.448-1-1-1zM73 55h-46c-1.104 0-2 .895-2 2v36.293c.658.381 1.324.748 2 1.098v-36.391c0-.553.448-1 1-1h44c.553 0 1 .447 1 1v36.391c.676-.35 1.343-.717 2-1.098v-36.293c0-1.105-.896-2-2-2z"/></svg>