<svg xmlns="http://www.w3.org/2000/svg" width="100" height="100" viewBox="0 0 100 100"><path fill="#E2574C" d="M50 0c-27.614 0-50 22.386-50 50 0 27.613 22.386 50 50 50 27.613 0 50-22.387 50-50 0-27.614-22.387-50-50-50z"/><path fill="#D8D8D8" d="M69 23h-8c-.553 0-1 .447-1 1v1h10v-1c0-.553-.447-1-1-1zm-50 17.999v6c0 .553.448 1 1 1h1v-8h-1c-.552 0-1 .449-1 1zm0 14v3c0 .554.448 1.002 1 1.002h1v-5.001h-1c-.552 0-1 .447-1 .999zm0 10.001v2.999c0 .554.448 1 1 1h1v-5h-1c-.552 0-1 .448-1 1.001z"/><path fill="#EFEFEF" d="M72 24h-44c-4.418 0-8 3.581-8 8v58.001c8.357 6.276 18.743 9.999 30 9.999s21.645-3.723 30-9.999v-58.001c0-4.419-3.582-8-8-8z"/><path fill="#2B414D" d="M74 40.999h-48c-1.104 0-2 .896-2 2.001v49.715c7.576 4.621 16.477 7.285 26 7.285s18.424-2.664 26-7.285v-49.715c0-1.104-.896-2.001-2-2.001z"/><path fill="#3F5E6D" d="M26 93.869c7.125 3.906 15.302 6.131 24 6.131 8.697 0 16.875-2.225 24-6.131v-50.869h-48v50.869z"/><path fill="#4E6B78" d="M56.525 66.704c-.84-1.095-2.02-1.726-3.131-1.726-1.472 0-2.095.729-3.115.729-1.052 0-1.852-.729-3.125-.729-1.25 0-2.579.793-3.422 2.146-1.186 1.904-.985 5.488.938 8.544.688 1.093 1.606 2.319 2.807 2.331 1.067.012 1.369-.71 2.817-.719 1.448-.01 1.723.727 2.788.716 1.201-.013 2.17-1.371 2.856-2.464.494-.782.677-1.178 1.06-2.062-2.777-1.093-3.225-5.195-.473-6.766zm-4.248-2.945c.535-.717.94-1.728.795-2.762-.875.063-1.896.646-2.492 1.397-.541.688-.987 1.705-.813 2.694.954.032 1.939-.563 2.51-1.329z"/><path fill="#BFC3C5" d="M55 33.999h-9c-.552 0-1 .448-1 1 0 .553.448 1 1 1h9c.553 0 1-.447 1-1 0-.552-.447-1-1-1zm-4.5-1.999c.828 0 1.5-.672 1.5-1.5 0-.829-.672-1.5-1.5-1.5-.829 0-1.5.671-1.5 1.5 0 .828.671 1.5 1.5 1.5z"/></svg>