<svg xmlns="http://www.w3.org/2000/svg" width="100" height="100" viewBox="0 0 100 100"><path fill="#2EA9D3" d="M50 0c27.614 0 50 22.385 50 50s-22.386 50-50 50-50-22.385-50-50 22.386-50 50-50z"/><path fill="#D7AEA1" d="M58 72v6c0 1.104.896 2 2 2h3c1.104 0 2-.896 2-2v-6h-7zm-21 6c0 1.104.896 2 2 2h3c1.104 0 2-.896 2-2v-6h-7v6z"/><path fill="#EFC2B3" d="M30 80c0 2.209 1.791 4 4 4h2c2.209 0 4-1.791 4-4v-24h-10v24zm31-24v24c0 2.209 1.791 4 4 4h2c2.209 0 4-1.791 4-4v-24h-10z"/><g fill="#DAB1A4"><path d="M61 75.19l10-3.948v-13.78l-10 4.935zM30 70.847l10 3.948v-12.891l-10-4.935z"/></g><path fill="#EFC2B3" d="M66.216 24.9c-.247-.961-1.431-1.247-2.062-.499l-8.05 9.535c-.166.196-.123.499.089.639l14.183 9.354c.315.209.713-.094.616-.467l-4.776-18.562zm-30.369-.498c-.632-.749-1.815-.463-2.062.499l-4.775 18.562c-.097.373.302.676.616.467l14.184-9.354c.211-.14.254-.442.088-.639l-8.051-9.535z"/><path fill="#CBA598" d="M64.448 28.547c-.132-.577-.761-.749-1.097-.299l-4.28 5.721c-.089.118-.065.299.047.383l7.542 5.613c.168.125.379-.057.328-.281l-2.54-11.137zm-27.8-.299c-.336-.449-.965-.277-1.097.299l-2.54 11.137c-.051.225.161.406.328.281l7.542-5.613c.112-.084.136-.266.048-.383l-4.281-5.721z"/><path fill="#EFC2B3" d="M50 30c13.255 0 24 10.746 24 24s-10.745 24-24 24-24-10.746-24-24c0-13.255 10.745-24 24-24z"/><path fill="#A7877D" d="M50.002 68.049c-2.211 0-4.003-.324-4.003.49s1.792 2.457 4.003 2.457 4.002-1.643 4.002-2.457-1.791-.49-4.002-.49z"/><path fill="#F5DAD1" d="M50 50c-4.971 0-9 2.135-9 6s4.029 8 9 8 9-4.135 9-8-4.029-6-9-6z"/><path fill="#CBA598" d="M47 55c-1.104 0-2 .895-2 2 0 1.104.896 2 2 2s2-.896 2-2c0-1.105-.896-2-2-2zm6 0c-1.104 0-2 .895-2 2 0 1.104.896 2 2 2s2-.896 2-2c0-1.105-.896-2-2-2z"/><path fill="#324D5B" d="M41.5 42c-1.381 0-2.5 1.119-2.5 2.5s1.119 2.5 2.5 2.5 2.5-1.119 2.5-2.5-1.119-2.5-2.5-2.5zm17 0c-1.381 0-2.5 1.119-2.5 2.5s1.119 2.5 2.5 2.5 2.5-1.119 2.5-2.5-1.119-2.5-2.5-2.5z"/><path fill="#81919A" d="M42 43c-.553 0-1 .447-1 1s.447 1 1 1 1-.447 1-1-.447-1-1-1zm17 0c-.553 0-1 .447-1 1s.447 1 1 1 1-.447 1-1-.447-1-1-1z"/><path fill="#EFC75E" d="M49 6h2c.553 0 1 .448 1 1v16c0 .553-.447 1-1 1h-2c-.553 0-1-.447-1-1v-16c0-.552.447-1 1-1z"/><path fill="#D7B355" d="M48 8v2h4v-2h-4zm0 6h4v-2h-4v2zm0 4h4v-2h-4v2zm0 4h4v-2h-4v2z"/><path fill="#E1B7A9" d="M31 54c0-12.41 9.42-22.62 21.5-23.871-.822-.085-1.655-.129-2.5-.129-13.255 0-24 10.746-24 24s10.745 24 24 24c.845 0 1.678-.045 2.5-.13-12.08-1.25-21.5-11.461-21.5-23.87z"/><path fill="#BF9B8F" d="M50 30c-.674 0-1.34.035-2 .089v5.216c0 .936.759 1.695 1.695 1.695h.609c.937 0 1.696-.759 1.696-1.695v-5.216c-.66-.055-1.326-.089-2-.089z"/></svg>