<svg xmlns="http://www.w3.org/2000/svg" width="100" height="100" viewBox="0 0 100 100"><path fill="#EFC75E" d="M50 0c-27.614 0-50 22.386-50 49.999 0 27.615 22.386 50.001 50 50.001s50-22.386 50-50.001c0-27.613-22.386-49.999-50-49.999z"/><path fill="#fff" d="M58 25h3c.553 0 1 .447 1 1v6c0 .552-.447 1.001-1 1.001h-3c-.553 0-1-.449-1-1.001v-6c0-.553.447-1 1-1z"/><path fill="#2B414D" d="M74.036 6.151c-1.469 1.802-3.336 3.296-5.479 4.55-5.237 3.062-10.542 7.281-10.542 14.315h2.911c-.004-5.713 4.494-9.305 9.449-12.203 2.3-1.345 4.44-3.048 6.153-5.189-.816-.512-1.644-1.007-2.492-1.473z"/><path fill="#E0E0E0" d="M59 32v-6c0-.553.447-1 1-1h-2c-.553 0-1 .447-1 1v6c0 .552.447 1.001 1 1.001h2c-.553 0-1-.449-1-1.001z"/><path fill="#324D5B" d="M96.253 30.999h-71.253c-2.209 0-4 1.792-4 4.002v55.717c8.181 5.837 18.185 9.282 29 9.282 27.614 0 50-22.386 50-50.001 0-6.728-1.338-13.141-3.747-19z"/><path fill="#2B414D" d="M21 67.001v23.717c8.181 5.837 18.185 9.282 29 9.282 21.645 0 40.072-13.755 47.03-32.999h-76.03z"/><path fill="#253742" d="M97.03 67.001h-76.03v5.998h73.393c1.002-1.931 1.89-3.93 2.637-5.998z"/><path fill="#1F2F38" d="M95.827 70h-65.827v2.999h64.393c.509-.981.99-1.98 1.434-2.999z"/><path fill="#E4E7E7" d="M40 39c5.523 0 10 4.478 10 9.999 0 5.524-4.477 10.001-10 10.001-5.522 0-10-4.477-10-10.001 0-5.521 4.478-9.999 10-9.999z"/><path fill="#BDC3C7" d="M40 39c-.337 0-.671.018-1 .05v6.95c0 .553.447 1.001 1 1.001s1-.448 1-1.001v-6.95c-.329-.032-.663-.05-1-.05z"/><path fill="#2B424D" d="M40 59c-5.522 0-10-4.477-10-10.001 0-2.506.929-4.791 2.453-6.546-2.112 1.834-3.453 4.531-3.453 7.546 0 5.524 4.478 10.001 10 10.001 3.016 0 5.714-1.341 7.547-3.452-1.755 1.523-4.04 2.452-6.547 2.452z"/><path fill="#313D43" d="M57 43.001v12c0 2.208 1.791 3.999 4 3.999h38.177c.531-2.921.823-5.926.823-9.001 0-3.781-.434-7.458-1.229-10.999h-37.771c-2.209 0-4 1.791-4 4.001z"/><path fill="#49B5A2" d="M99.575 43.576c-1.183.971-1.837 3.042-2.517 5.207-.617 1.964-1.461 4.653-2.462 4.653s-1.845-2.689-2.462-4.653c-.934-2.974-1.816-5.783-4.093-5.783s-3.157 2.81-4.091 5.783c-.616 1.964-1.46 4.653-2.459 4.653-1 0-1.844-2.689-2.461-4.653-.933-2.974-1.815-5.783-4.091-5.783-2.276 0-3.158 2.81-4.091 5.783-.616 1.964-1.46 4.653-2.46 4.653-.998 0-1.842-2.689-2.458-4.653-.934-2.974-1.814-5.783-4.09-5.783-.469 0-.849.352-.849.782 0 .433.38.783.849.783.999 0 1.843 2.688 2.459 4.652.933 2.974 1.814 5.784 4.089 5.784 2.276 0 3.157-2.811 4.091-5.783.616-1.965 1.46-4.653 2.46-4.653s1.844 2.688 2.46 4.653c.934 2.973 1.815 5.783 4.092 5.783 2.275 0 3.157-2.811 4.09-5.783.616-1.965 1.461-4.653 2.46-4.653 1.001 0 1.845 2.688 2.462 4.653.934 2.973 1.816 5.783 4.093 5.783s3.158-2.811 4.093-5.783c.321-1.024.705-2.242 1.141-3.176-.065-.829-.15-1.65-.255-2.466z"/><g fill="#E4E7E7"><path d="M52.001 99.949v-4.951c0-.013-2.975-.01-3.013.007.019.027.003-25.027.004-25.008h-3.994c.017 0-.014 13.997-.024 25.004h-2.974v4.354c2.605.419 5.276.645 8 .645.671 0 1.336-.024 2.001-.051zM72.992 69.997h-6.994c.019 0-.019 16.137-.026 27.382 2.43-.819 4.774-1.817 7.021-2.983.011-3.829-.002-24.417-.001-24.399zM40.001 98.998v-4c0-.013-2.975-.01-3.013.007.019.027.003-25.027.004-25.008h-6.994c.018 0-.015 14.702-.025 25.818 3.185 1.395 6.538 2.475 10.028 3.183zM95.829 69.997h-2.831c.007 0 .006 2.19.002 5.514 1.053-1.77 1.997-3.612 2.829-5.514zM64.003 69.997h-7.004c.001-.02-.016 25.035.003 25.008-.037-.017-3.003-.02-3.003-.007v4.828c3.435-.271 6.771-.889 9.975-1.82.003-11.261.009-28.009.029-28.009zM84.997 85.696c0-7.115-.006-15.711-.005-15.699h-3.994c.015 0-.005 9.655-.018 19.232 1.401-1.107 2.744-2.284 4.017-3.533z"/></g><g fill="#7F8C8D"><path d="M91 78.604v-8.604h-4v13.63c1.44-1.583 2.771-3.268 4-5.026zM75 93.001h.51c1.198-.712 2.359-1.477 3.49-2.283v-20.718h-4v23.001zM39 70h4v23.001h-4zM51 70h4v23.001h-4z"/></g><path fill="#C2C5C5" d="M30.002 72.999h6.991l-.001-3.002h-6.994c.005 0 .006 1.133.004 3.002zM45.002 72.999h3.991l-.001-3.002h-3.994c.005 0 .006 1.132.004 3.002zM56.998 72.999h6.992c.004-1.867.008-3.002.013-3.002h-7.004l-.001 3.002zM66.003 72.999h6.99l-.001-3.002h-6.994c.005 0 .006 1.135.005 3.002zM81.003 72.999h3.99l-.001-3.002h-3.994c.005 0 .006 1.142.005 3.002zM93.003 72.999h1.387c.51-.983.993-1.982 1.439-3.002h-2.831c.005 0 .006 1.14.005 3.002z"/><g fill="#6C7778"><path d="M39 70h4v2.999h-4zM51 70h4v2.999h-4zM75 70h4v2.999h-4zM87 70h4v2.999h-4z"/></g></svg>