<svg xmlns="http://www.w3.org/2000/svg" width="100" height="100" viewBox="0 0 100 100"><path fill="#3DB39E" d="M50 0c-27.614 0-50 22.386-50 50s22.386 50 50 50 50-22.386 50-50-22.386-50-50-50z"/><path fill="#EFC75E" d="M79 23.999h-58c-.553 0-1 .448-1 1.001v65.001c8.357 6.277 18.743 9.999 30 9.999s21.644-3.722 30-9.999v-65.001c0-.553-.447-1.001-1-1.001z"/><path fill="#324D5B" d="M75 25.999h-50c-1.657 0-3 1.344-3 3v62.43c7.989 5.41 17.625 8.571 28 8.571s20.011-3.161 28-8.571v-62.43c0-1.656-1.343-3-3-3z"/><path fill="#3F5E6D" d="M25 93.294c7.356 4.258 15.89 6.706 25 6.706s17.644-2.448 25-6.706v-57.295h-50v57.295z"/><path fill="#4E6B78" d="M41.008 69.096l7.006 1.292v-6.377h-7.006v5.085zm8.004 1.596l8.98 1.315v-7.995h-8.971l-.009 6.68zm-8.004-7.766h7.006v-6.377l-7.006 1.293v5.084zm8.004-6.681l.01 6.68h8.971v-7.996l-8.981 1.316z"/><path fill="#3F5E6D" d="M55 28.999h-10c-.553 0-1 .449-1 1.001s.447 1 1 1h10c.553 0 1-.448 1-1s-.447-1.001-1-1.001zm-23.5 0c-.828 0-1.5.672-1.5 1.501 0 .828.672 1.5 1.5 1.5s1.5-.672 1.5-1.5c0-.829-.672-1.501-1.5-1.501z"/></svg>